# 3ds Max Wavefront OBJ Exporter v0.97b - (c)2007 guruware
# File Created: 16.06.2013 01:31:20

#
# object Roadblocksign1
#

v  -0.0821 0.0401 -0.0303
v  -0.0821 0.0609 -0.0233
v  -0.0648 0.0609 -0.0233
v  -0.0648 0.0401 -0.0303
v  -0.0821 0.0695 -0.0064
v  -0.0648 0.0695 -0.0064
v  -0.0821 0.0609 0.0105
v  -0.0648 0.0609 0.0105
v  -0.0821 0.0401 0.0174
v  -0.0648 0.0401 0.0174
v  -0.0648 0.0277 -0.0303
v  -0.0821 0.0277 -0.0303
v  -0.0821 0.0277 0.0174
v  -0.0648 0.0277 0.0174
v  -0.0648 0.0133 -0.0303
v  -0.0821 0.0133 -0.0303
v  -0.0821 0.0133 0.0174
v  -0.0648 0.0133 0.0174
v  -0.0869 -0.0151 0.2625
v  -0.0869 -0.0151 -0.2625
v  -0.0837 -0.0151 -0.2788
v  -0.0739 -0.0151 -0.2886
v  -0.0576 -0.0151 -0.2919
v  0.0783 -0.0151 -0.2919
v  0.0946 -0.0151 -0.2886
v  0.1044 -0.0151 -0.2788
v  0.1076 -0.0151 -0.2625
v  0.0783 -0.0151 0.2919
v  0.1076 -0.0151 0.2625
v  0.1044 -0.0151 0.2788
v  0.0946 -0.0151 0.2886
v  -0.0837 -0.0151 0.2788
v  -0.0739 -0.0151 0.2886
v  -0.0576 -0.0151 0.2919
v  -0.0571 0.0132 0.2870
v  0.0778 0.0132 0.2870
v  0.0922 0.0132 0.2841
v  0.0999 0.0132 0.2764
v  0.1027 0.0132 0.2620
v  0.1027 0.0132 -0.2620
v  0.0999 0.0132 -0.2764
v  0.0922 0.0132 -0.2841
v  0.0778 0.0132 -0.2870
v  -0.0820 0.0132 -0.2620
v  -0.0571 0.0132 -0.2870
v  -0.0715 0.0132 -0.2841
v  -0.0792 0.0132 -0.2764
v  -0.0715 0.0132 0.2841
v  -0.0792 0.0132 0.2764
v  -0.0820 0.0132 0.2620
v  0.0783 0.0097 0.2919
v  -0.0576 0.0097 0.2919
v  0.1076 0.0097 -0.2625
v  0.1076 0.0097 0.2625
v  -0.0576 0.0097 -0.2919
v  0.0783 0.0097 -0.2919
v  -0.0869 0.0097 0.2625
v  -0.0869 0.0097 -0.2625
v  0.0946 0.0097 0.2886
v  -0.0739 0.0097 0.2886
v  0.1044 0.0097 -0.2788
v  -0.0739 0.0097 -0.2886
v  0.1044 0.0097 0.2788
v  -0.0837 0.0097 0.2788
v  0.0946 0.0097 -0.2886
v  -0.0837 0.0097 -0.2788
v  -0.0893 0.0331 -0.0064
v  -0.0893 0.0220 -0.0175
v  -0.0893 0.0174 -0.0064
v  -0.0893 0.0220 0.0047
v  -0.0893 0.0331 -0.0222
v  -0.0893 0.0443 -0.0175
v  -0.0893 0.0489 -0.0064
v  -0.0893 0.0443 0.0047
v  -0.0893 0.0331 0.0093
v  0.1087 0.0174 -0.0064
v  0.0548 0.0174 -0.0064
v  0.0548 0.0220 -0.0175
v  0.1087 0.0220 -0.0175
v  0.0548 0.0331 -0.0222
v  0.1087 0.0331 -0.0222
v  0.0548 0.0443 -0.0175
v  0.1087 0.0443 -0.0175
v  0.0548 0.0489 -0.0064
v  0.1087 0.0489 -0.0064
v  0.0548 0.0443 0.0047
v  0.1087 0.0443 0.0047
v  0.0548 0.0331 0.0093
v  0.1087 0.0331 0.0093
v  0.0548 0.0220 0.0047
v  0.1087 0.0220 0.0047
v  0.1087 0.0331 -0.0064
v  -0.0707 0.0671 0.0209
v  0.0897 0.0671 0.0209
v  0.0864 0.0705 0.0209
v  -0.0674 0.0705 0.0209
v  0.0897 0.7203 0.0209
v  0.0864 0.7168 0.0209
v  -0.0707 0.7203 0.0209
v  -0.0674 0.7168 0.0209
v  0.0792 0.0809 0.0061
v  -0.0601 0.0809 0.0061
v  0.0792 0.7065 0.0061
v  -0.0601 0.7065 0.0061
v  -0.0707 0.7203 -0.0337
v  -0.0707 0.0671 -0.0337
v  0.0897 0.0671 -0.0337
v  0.0897 0.7203 -0.0337
v  -0.0674 0.0705 -0.0337
v  0.0864 0.0705 -0.0337
v  0.0864 0.7168 -0.0337
v  -0.0674 0.7168 -0.0337
v  -0.0601 0.0809 -0.0189
v  0.0792 0.0809 -0.0189
v  0.0792 0.7065 -0.0189
v  -0.0601 0.7065 -0.0189
v  -0.0606 0.0775 0.0162
v  0.0796 0.0775 0.0162
v  0.0796 0.7099 0.0162
v  -0.0606 0.7099 0.0162
v  -0.0668 0.0729 0.0003
v  0.0858 0.0729 0.0003
v  0.0858 0.7145 0.0003
v  -0.0668 0.7145 0.0003
v  -0.0467 0.7695 0.0042
v  -0.0467 0.7695 -0.0170
v  -0.0621 0.7581 -0.0170
v  -0.0621 0.7581 0.0042
v  -0.0646 0.7396 0.0041
v  -0.0646 0.7396 -0.0169
v  -0.0659 0.7202 -0.0168
v  -0.0659 0.7202 0.0040
v  -0.0533 0.7525 0.0040
v  -0.0437 0.7592 0.0041
v  -0.0544 0.7391 0.0041
v  -0.0549 0.7206 0.0040
v  0.0627 0.7592 0.0041
v  0.0657 0.7695 0.0042
v  0.0723 0.7525 0.0040
v  0.0811 0.7581 0.0042
v  0.0734 0.7391 0.0041
v  0.0739 0.7206 0.0040
v  0.0836 0.7396 0.0041
v  0.0849 0.7202 0.0040
v  -0.0437 0.7592 -0.0169
v  -0.0533 0.7525 -0.0168
v  -0.0544 0.7391 -0.0169
v  -0.0549 0.7206 -0.0168
v  0.0811 0.7581 -0.0170
v  0.0836 0.7396 -0.0169
v  0.0849 0.7202 -0.0168
v  0.0739 0.7206 -0.0168
v  0.0734 0.7391 -0.0169
v  0.0627 0.7592 -0.0169
v  0.0657 0.7695 -0.0170
v  0.0723 0.7525 -0.0168
v  -0.0606 0.0775 -0.0290
v  -0.0606 0.7099 -0.0290
v  0.0796 0.7099 -0.0290
v  0.0796 0.0775 -0.0290
v  0.0858 0.0729 -0.0131
v  -0.0668 0.0729 -0.0131
v  0.0858 0.7145 -0.0131
v  -0.0668 0.7145 -0.0131
v  0.0850 0.0401 -0.0303
v  0.0850 0.0609 -0.0233
v  0.1023 0.0609 -0.0233
v  0.1023 0.0401 -0.0303
v  0.0850 0.0695 -0.0064
v  0.1023 0.0695 -0.0064
v  0.0850 0.0609 0.0105
v  0.1023 0.0609 0.0105
v  0.0850 0.0401 0.0174
v  0.1023 0.0401 0.0174
v  0.1023 0.0277 -0.0303
v  0.0850 0.0277 -0.0303
v  0.0850 0.0277 0.0174
v  0.1023 0.0277 0.0174
v  0.1023 0.0133 -0.0303
v  0.0850 0.0133 -0.0303
v  0.0850 0.0133 0.0174
v  0.1023 0.0133 0.0174
v  0.0614 0.0419 0.0175
v  0.0614 0.0214 0.0098
v  0.0787 0.0214 0.0098
v  0.0787 0.0419 0.0175
v  0.0614 0.0133 -0.0073
v  0.0787 0.0133 -0.0073
v  0.0614 0.0225 -0.0239
v  0.0787 0.0225 -0.0239
v  0.0614 0.0434 -0.0302
v  0.0787 0.0434 -0.0302
v  0.0787 0.0543 0.0179
v  0.0614 0.0543 0.0179
v  0.0614 0.0558 -0.0298
v  0.0787 0.0558 -0.0298
v  0.0787 0.0687 0.0183
v  0.0614 0.0687 0.0183
v  0.0614 0.0702 -0.0294
v  0.0787 0.0702 -0.0294
v  -0.0571 0.0419 0.0175
v  -0.0571 0.0214 0.0098
v  -0.0398 0.0214 0.0098
v  -0.0398 0.0419 0.0175
v  -0.0571 0.0133 -0.0073
v  -0.0398 0.0133 -0.0073
v  -0.0571 0.0225 -0.0239
v  -0.0398 0.0225 -0.0239
v  -0.0571 0.0434 -0.0302
v  -0.0398 0.0434 -0.0302
v  -0.0398 0.0543 0.0179
v  -0.0571 0.0543 0.0179
v  -0.0571 0.0558 -0.0298
v  -0.0398 0.0558 -0.0298
v  -0.0398 0.0687 0.0183
v  -0.0571 0.0687 0.0183
v  -0.0571 0.0702 -0.0294
v  -0.0398 0.0702 -0.0294
v  -0.0328 0.0220 -0.0175
v  -0.0328 0.0174 -0.0064
v  -0.0328 0.0331 -0.0222
v  -0.0328 0.0443 -0.0175
v  -0.0328 0.0489 -0.0064
v  -0.0328 0.0443 0.0047
v  -0.0328 0.0331 0.0093
v  -0.0328 0.0220 0.0047
# 226 vertices

vn 0.0000 0.3192 -0.9477
vn 0.0000 0.6535 -0.7570
vn 0.0000 1.0000 -0.0000
vn 0.0000 0.6535 0.7569
vn 0.0000 0.3192 0.9477
vn -1.0000 0.0000 -0.0000
vn 1.0000 0.0000 -0.0000
vn 0.0000 0.0000 -1.0000
vn 0.0000 0.0000 1.0000
vn 0.0000 -1.0000 -0.0000
vn 0.1960 0.0000 0.9806
vn 0.1962 0.0000 0.9806
vn -0.1962 0.0000 0.9806
vn 0.9806 0.0000 -0.1961
vn -0.1962 0.0000 -0.9806
vn 0.7071 0.0000 0.7071
vn 0.7070 0.0000 0.7072
vn 0.9806 0.0000 0.1961
vn -0.7070 0.0000 0.7072
vn -0.7071 0.0000 0.7071
vn -0.9806 0.0000 0.1961
vn 0.7070 0.0000 -0.7072
vn 0.7071 0.0000 -0.7071
vn 0.1962 0.0000 -0.9806
vn 0.1960 0.0000 -0.9806
vn -0.7070 0.0000 -0.7072
vn -0.7071 0.0000 -0.7071
vn -0.9806 0.0000 -0.1961
vn 0.0000 0.8195 0.5730
vn 0.0000 0.8195 0.5731
vn 0.5729 0.8196 -0.0000
vn 0.5730 0.8195 -0.0000
vn 0.0000 0.8195 -0.5730
vn 0.0000 0.8195 -0.5731
vn -0.5730 0.8195 -0.0000
vn -0.1124 0.8195 0.5620
vn -0.1124 0.8195 0.5619
vn -0.1122 0.8196 0.5619
vn 0.5620 0.8195 0.1124
vn 0.5618 0.8196 0.1123
vn -0.5620 0.8195 -0.1123
vn -0.5618 0.8196 -0.1123
vn 0.1124 0.8195 -0.5620
vn 0.1124 0.8195 -0.5619
vn 0.1122 0.8195 -0.5620
vn 0.1122 0.8196 -0.5619
vn -0.5618 0.8196 0.1123
vn -0.5620 0.8195 0.1123
vn -0.4051 0.8195 0.4052
vn 0.1122 0.8196 0.5619
vn 0.1122 0.8195 0.5620
vn 0.1124 0.8195 0.5619
vn 0.1124 0.8195 0.5620
vn 0.4051 0.8195 0.4052
vn 0.4051 0.8196 0.4051
vn -0.1124 0.8195 -0.5620
vn -0.1122 0.8196 -0.5619
vn -0.1124 0.8195 -0.5619
vn -0.4051 0.8195 -0.4052
vn 0.5620 0.8195 -0.1123
vn 0.5618 0.8196 -0.1123
vn 0.5620 0.8195 -0.1124
vn 0.4051 0.8195 -0.4052
vn 0.0000 -0.9239 -0.3826
vn 0.0000 -0.3826 -0.9239
vn 0.0000 0.3827 -0.9239
vn 0.0000 0.9239 -0.3826
vn 0.0000 0.9239 0.3827
vn 0.0000 0.3827 0.9239
vn 0.0000 -0.3827 0.9239
vn 0.0000 -0.9239 0.3827
vn 0.0000 0.8189 0.5740
vn 0.0000 0.8188 0.5741
vn -0.8978 0.0000 0.4403
vn -0.8978 0.0000 0.4404
vn 0.0000 -0.8189 0.5740
vn 0.0000 -0.8188 0.5741
vn 0.8978 0.0000 0.4403
vn 0.8978 0.0000 0.4404
vn 0.0000 0.8189 -0.5740
vn -0.8978 0.0000 -0.4403
vn 0.0000 -0.8189 -0.5740
vn 0.8978 0.0000 -0.4403
vn 0.0000 -0.9594 0.2822
vn 0.0000 -0.9593 0.2823
vn 0.9302 0.0000 0.3669
vn 0.0000 0.9594 0.2822
vn 0.0000 0.9593 0.2823
vn -0.9302 0.0000 0.3670
vn -0.9302 0.0000 0.3669
vn -0.5964 0.8027 -0.0000
vn -0.9977 0.0684 -0.0000
vn 0.0142 -0.0091 0.9999
vn 0.0017 -0.0094 1.0000
vn 0.0021 -0.0099 0.9999
vn 0.0045 -0.0052 1.0000
vn 0.0132 -0.0006 0.9999
vn 0.0017 -0.0047 1.0000
vn 0.0009 -0.0054 1.0000
vn 0.0002 -0.0056 1.0000
vn -0.0017 -0.0094 1.0000
vn -0.0021 -0.0099 0.9999
vn -0.0142 -0.0091 0.9999
vn -0.0045 -0.0052 1.0000
vn -0.0132 -0.0006 0.9999
vn -0.0017 -0.0047 1.0000
vn -0.0009 -0.0054 1.0000
vn -0.0002 -0.0056 1.0000
vn 0.5726 -0.8198 -0.0000
vn 0.9968 -0.0794 -0.0000
vn 0.9996 -0.0277 -0.0000
vn 0.9907 0.1364 -0.0000
vn 0.9977 0.0684 -0.0000
vn -0.9996 -0.0277 -0.0000
vn 0.0072 -0.9999 0.0097
vn -0.0017 -1.0000 0.0014
vn 0.0019 -1.0000 -0.0000
vn 0.0072 -0.9999 -0.0097
vn -0.0053 0.9999 0.0092
vn 0.0053 0.9999 0.0092
vn 0.0053 0.9999 -0.0092
vn -0.0053 0.9999 -0.0092
vn -0.9907 0.1364 -0.0000
vn 0.0142 -0.0091 -0.9999
vn 0.0045 -0.0052 -1.0000
vn 0.0021 -0.0099 -0.9999
vn 0.0017 -0.0094 -1.0000
vn 0.0017 -0.0047 -1.0000
vn 0.0009 -0.0054 -1.0000
vn 0.0132 -0.0006 -0.9999
vn 0.0002 -0.0056 -1.0000
vn -0.0021 -0.0099 -0.9999
vn -0.0017 -0.0094 -1.0000
vn -0.0045 -0.0052 -1.0000
vn -0.0142 -0.0091 -0.9999
vn -0.0017 -0.0047 -1.0000
vn -0.0132 -0.0006 -0.9999
vn -0.0009 -0.0054 -1.0000
vn -0.0002 -0.0056 -1.0000
vn 0.5964 0.8027 -0.0000
vn -0.5726 -0.8198 -0.0000
vn -0.9968 -0.0794 -0.0000
vn 0.0000 -0.9594 -0.2822
vn 0.0000 -0.9593 -0.2823
vn 0.9302 0.0000 -0.3669
vn 0.9302 0.0000 -0.3670
vn 0.0000 0.9594 -0.2822
vn 0.0000 0.9593 -0.2823
vn -0.9302 0.0000 -0.3670
vn 0.0000 -0.3483 0.9374
vn 0.0000 -0.6766 0.7363
vn 0.0000 -0.9995 -0.0309
vn 0.0000 -0.6298 -0.7768
vn 0.0000 -0.2897 -0.9571
vn 0.0000 -0.0309 0.9995
vn 0.0000 0.0309 -0.9995
# 156 vertex normals

vt 0.6844 0.4973 0.0000
vt 0.7013 0.5443 0.0000
vt 0.6682 0.5654 0.0000
vt 0.6443 0.5091 0.0000
vt 0.7378 0.5722 0.0000
vt 0.7032 0.5998 0.0000
vt 0.7741 0.5484 0.0000
vt 0.8080 0.5690 0.0000
vt 0.7710 0.6035 0.0000
vt 0.7951 0.5007 0.0000
vt 0.8325 0.5136 0.0000
vt 0.9614 0.5168 0.0000
vt 0.8532 0.5154 0.0000
vt 0.8694 0.5640 0.0000
vt 0.9462 0.5640 0.0000
vt 0.9082 0.5839 0.0000
vt 0.6400 0.4771 0.0000
vt 0.6815 0.4683 0.0000
vt 0.7983 0.4716 0.0000
vt 0.8396 0.4815 0.0000
vt 0.9613 0.4886 0.0000
vt 0.8532 0.4865 0.0000
vt 0.6365 0.4409 0.0000
vt 0.6795 0.4333 0.0000
vt 0.8018 0.4364 0.0000
vt 0.8444 0.4458 0.0000
vt 0.9611 0.4561 0.0000
vt 0.8532 0.4530 0.0000
vt 0.8649 0.3251 0.0000
vt 0.8747 0.0381 0.0000
vt 0.8767 0.0295 0.0000
vt 0.8822 0.0245 0.0000
vt 0.8910 0.0230 0.0000
vt 0.9642 0.0253 0.0000
vt 0.9730 0.0273 0.0000
vt 0.9781 0.0327 0.0000
vt 0.9797 0.0414 0.0000
vt 0.9561 0.3446 0.0000
vt 0.9728 0.3285 0.0000
vt 0.9708 0.3377 0.0000
vt 0.9652 0.3430 0.0000
vt 0.8664 0.3343 0.0000
vt 0.8716 0.3400 0.0000
vt 0.8806 0.3422 0.0000
vt 0.5780 0.0803 0.0000
vt 0.5755 0.1985 0.0000
vt 0.5727 0.2112 0.0000
vt 0.5662 0.2188 0.0000
vt 0.5531 0.2204 0.0000
vt 0.0791 0.2095 0.0000
vt 0.0663 0.2068 0.0000
vt 0.0590 0.2003 0.0000
vt 0.0571 0.1874 0.0000
vt 0.0829 0.0487 0.0000
vt 0.0594 0.0685 0.0000
vt 0.0622 0.0557 0.0000
vt 0.0699 0.0506 0.0000
vt 0.5758 0.0675 0.0000
vt 0.5698 0.0602 0.0000
vt 0.5569 0.0575 0.0000
vt 0.6050 0.0763 0.0000
vt 0.6022 0.2031 0.0000
vt 0.5808 0.1991 0.0000
vt 0.5833 0.0800 0.0000
vt 0.5534 0.2477 0.0000
vt 0.0761 0.2363 0.0000
vt 0.0784 0.2148 0.0000
vt 0.5535 0.2257 0.0000
vt 0.0300 0.1883 0.0000
vt 0.0324 0.0664 0.0000
vt 0.0541 0.0680 0.0000
vt 0.0518 0.1876 0.0000
vt 0.0812 0.0215 0.0000
vt 0.5585 0.0304 0.0000
vt 0.5575 0.0523 0.0000
vt 0.0826 0.0435 0.0000
vt 0.5775 0.2133 0.0000
vt 0.5980 0.2181 0.0000
vt 0.6012 0.0609 0.0000
vt 0.5810 0.0659 0.0000
vt 0.0642 0.2117 0.0000
vt 0.0607 0.2322 0.0000
vt 0.0570 0.0537 0.0000
vt 0.0345 0.0516 0.0000
vt 0.5704 0.2227 0.0000
vt 0.5931 0.2299 0.0000
vt 0.5679 0.2241 0.0000
vt 0.5682 0.2464 0.0000
vt 0.5961 0.0497 0.0000
vt 0.5736 0.0560 0.0000
vt 0.5733 0.0325 0.0000
vt 0.5717 0.0550 0.0000
vt 0.0550 0.2044 0.0000
vt 0.0487 0.2277 0.0000
vt 0.0537 0.2021 0.0000
vt 0.0313 0.2030 0.0000
vt 0.0686 0.0453 0.0000
vt 0.0581 0.0517 0.0000
vt 0.0539 0.0288 0.0000
vt 0.0655 0.0246 0.0000
vt 0.6897 0.0711 0.0000
vt 0.6578 0.0592 0.0000
vt 0.6756 0.0401 0.0000
vt 0.7016 0.0392 0.0000
vt 0.6587 0.0852 0.0000
vt 0.6777 0.1030 0.0000
vt 0.7038 0.1021 0.0000
vt 0.7216 0.0830 0.0000
vt 0.7207 0.0570 0.0000
vt 0.4281 0.2657 0.0000
vt 0.4708 0.2657 0.0000
vt 0.4708 0.2752 0.0000
vt 0.4281 0.2753 0.0000
vt 0.4708 0.2848 0.0000
vt 0.4281 0.2848 0.0000
vt 0.4708 0.2943 0.0000
vt 0.4281 0.2943 0.0000
vt 0.4708 0.3038 0.0000
vt 0.4281 0.3039 0.0000
vt 0.4708 0.3134 0.0000
vt 0.4281 0.3134 0.0000
vt 0.4708 0.3229 0.0000
vt 0.4281 0.3229 0.0000
vt 0.4708 0.3324 0.0000
vt 0.4281 0.3324 0.0000
vt 0.4708 0.3420 0.0000
vt 0.4281 0.3420 0.0000
vt 0.7845 0.0739 0.0000
vt 0.8037 0.0321 0.0000
vt 0.8277 0.0579 0.0000
vt 0.8263 0.0931 0.0000
vt 0.8004 0.1171 0.0000
vt 0.7652 0.1157 0.0000
vt 0.7413 0.0898 0.0000
vt 0.7427 0.0546 0.0000
vt 0.7685 0.0307 0.0000
vt 0.6224 0.8194 0.0000
vt 0.7784 0.8177 0.0000
vt 0.7752 0.8212 0.0000
vt 0.6200 0.8232 0.0000
vt 0.5290 0.3776 0.0000
vt 0.5305 0.9889 0.0000
vt 0.5274 0.9857 0.0000
vt 0.5259 0.3808 0.0000
vt 0.7662 0.6562 0.0000
vt 0.6266 0.6555 0.0000
vt 0.6295 0.6526 0.0000
vt 0.7634 0.6532 0.0000
vt 0.4764 0.9810 0.0000
vt 0.4763 0.3707 0.0000
vt 0.4794 0.3738 0.0000
vt 0.4794 0.9778 0.0000
vt 0.7693 0.8397 0.0000
vt 0.6287 0.8412 0.0000
vt 0.5120 0.9760 0.0000
vt 0.5105 0.3906 0.0000
vt 0.6359 0.6369 0.0000
vt 0.7571 0.6375 0.0000
vt 0.4948 0.3835 0.0000
vt 0.4948 0.9681 0.0000
vt 0.4255 0.9810 0.0000
vt 0.4255 0.3707 0.0000
vt 0.6191 0.7640 0.0000
vt 0.7752 0.7624 0.0000
vt 0.6262 0.7030 0.0000
vt 0.7658 0.7037 0.0000
vt 0.5815 0.9887 0.0000
vt 0.5800 0.3775 0.0000
vt 0.6223 0.7604 0.0000
vt 0.7778 0.7588 0.0000
vt 0.5831 0.3807 0.0000
vt 0.5846 0.9856 0.0000
vt 0.7629 0.7066 0.0000
vt 0.6291 0.7059 0.0000
vt 0.4224 0.9778 0.0000
vt 0.4224 0.3738 0.0000
vt 0.6291 0.7422 0.0000
vt 0.7708 0.7410 0.0000
vt 0.5985 0.3904 0.0000
vt 0.6000 0.9758 0.0000
vt 0.7565 0.7223 0.0000
vt 0.6353 0.7217 0.0000
vt 0.4071 0.9681 0.0000
vt 0.4071 0.3835 0.0000
vt 0.0322 0.2655 0.0000
vt 0.1884 0.2627 0.0000
vt 0.1906 0.9754 0.0000
vt 0.0320 0.9743 0.0000
vt 0.0270 0.2638 0.0000
vt 0.1961 0.2608 0.0000
vt 0.1985 0.9794 0.0000
vt 0.0267 0.9781 0.0000
vt 0.7018 0.9144 0.0000
vt 0.7026 0.9506 0.0000
vt 0.6754 0.9521 0.0000
vt 0.6747 0.9153 0.0000
vt 0.6459 0.9147 0.0000
vt 0.6460 0.9539 0.0000
vt 0.6129 0.9527 0.0000
vt 0.6131 0.9140 0.0000
vt 0.6767 0.8976 0.0000
vt 0.6999 0.8969 0.0000
vt 0.6515 0.8965 0.0000
vt 0.6176 0.8940 0.0000
vt 0.8776 0.8980 0.0000
vt 0.8758 0.9158 0.0000
vt 0.9006 0.8984 0.0000
vt 0.9028 0.9161 0.0000
vt 0.9258 0.8968 0.0000
vt 0.9599 0.8947 0.0000
vt 0.9317 0.9150 0.0000
vt 0.9646 0.9147 0.0000
vt 0.6992 0.8605 0.0000
vt 0.6784 0.8614 0.0000
vt 0.6548 0.8604 0.0000
vt 0.6227 0.8570 0.0000
vt 0.9025 0.9533 0.0000
vt 0.9318 0.9543 0.0000
vt 0.9648 0.9536 0.0000
vt 0.9551 0.8577 0.0000
vt 0.9227 0.8606 0.0000
vt 0.8783 0.8619 0.0000
vt 0.8753 0.9524 0.0000
vt 0.6779 0.9694 0.0000
vt 0.7015 0.9682 0.0000
vt 0.6171 0.9726 0.0000
vt 0.6521 0.9719 0.0000
vt 0.8764 0.9701 0.0000
vt 0.9001 0.9708 0.0000
vt 0.9605 0.9736 0.0000
vt 0.9259 0.9724 0.0000
vt 0.8990 0.8615 0.0000
vt 0.2206 0.2793 0.0000
vt 0.2205 0.9749 0.0000
vt 0.3763 0.9761 0.0000
vt 0.3740 0.2766 0.0000
vt 0.3802 0.2681 0.0000
vt 0.2121 0.2711 0.0000
vt 0.3826 0.9828 0.0000
vt 0.2118 0.9815 0.0000
vt 0.5848 0.2657 0.0000
vt 0.5848 0.2752 0.0000
vt 0.5362 0.2752 0.0000
vt 0.5362 0.2657 0.0000
vt 0.5848 0.2848 0.0000
vt 0.5362 0.2848 0.0000
vt 0.5848 0.2943 0.0000
vt 0.5362 0.2943 0.0000
vt 0.5848 0.3038 0.0000
vt 0.5362 0.3038 0.0000
vt 0.5848 0.3133 0.0000
vt 0.5362 0.3134 0.0000
vt 0.5848 0.3229 0.0000
vt 0.5362 0.3229 0.0000
vt 0.5848 0.3324 0.0000
vt 0.5362 0.3324 0.0000
vt 0.5848 0.3419 0.0000
vt 0.5362 0.3420 0.0000
# 258 texture coords

g Roadblocksign1
s off
f 1/1/1 2/2/2 3/3/2 4/4/1 
f 2/2/2 5/5/3 6/6/3 3/3/2 
f 5/5/3 7/7/4 8/8/4 6/9/3 
f 7/7/4 9/10/5 10/11/5 8/8/4 
f 5/5/6 2/2/6 7/7/6 
f 7/7/6 2/2/6 1/1/6 9/10/6 
f 10/12/7 4/13/7 3/14/7 8/15/7 
f 8/15/7 3/14/7 6/16/7 
f 1/1/8 4/4/8 11/17/8 12/18/8 
f 10/11/9 9/10/9 13/19/9 14/20/9 
f 9/10/6 1/1/6 12/18/6 13/19/6 
f 4/13/7 10/12/7 14/21/7 11/22/7 
f 12/18/8 11/17/8 15/23/8 16/24/8 
f 14/20/9 13/19/9 17/25/9 18/26/9 
f 13/19/6 12/18/6 16/24/6 17/25/6 
f 11/22/7 14/21/7 18/27/7 15/28/7 
f 19/29/10 20/30/10 21/31/10 
f 19/29/10 21/31/10 22/32/10 23/33/10 
f 23/33/10 24/34/10 25/35/10 
f 23/33/10 25/35/10 26/36/10 27/37/10 
f 19/29/10 23/33/10 27/37/10 28/38/10 
f 27/37/10 29/39/10 30/40/10 
f 27/37/10 30/40/10 31/41/10 28/38/10 
f 32/42/10 19/29/10 28/38/10 33/43/10 
f 34/44/10 33/43/10 28/38/10 
f 35/45/3 36/46/3 37/47/3 
f 35/45/3 37/47/3 38/48/3 39/49/3 
f 39/49/3 40/50/3 41/51/3 
f 39/49/3 41/51/3 42/52/3 43/53/3 
f 35/45/3 39/49/3 43/53/3 44/54/3 
f 43/53/3 45/55/3 46/56/3 
f 43/53/3 46/56/3 47/57/3 44/54/3 
f 48/58/3 35/45/3 44/54/3 49/59/3 
f 50/60/3 49/59/3 44/54/3 
f 34/61/9 28/62/9 51/63/9 52/64/9 
f 29/65/7 27/66/7 53/67/7 54/68/7 
f 24/69/8 23/70/8 55/71/8 56/72/8 
f 20/73/6 19/74/6 57/75/6 58/76/6 
f 59/77/11 51/63/12 28/62/12 31/78/11 
f 33/79/13 34/61/13 52/64/13 60/80/13 
f 61/81/14 53/67/14 27/66/14 26/82/14 
f 62/83/15 55/71/15 23/70/15 22/84/15 
f 63/85/16 59/77/17 31/78/17 30/86/16 
f 54/68/18 63/87/18 30/88/18 29/65/18 
f 32/89/19 33/79/20 60/80/20 64/90/19 
f 19/74/21 32/91/21 64/92/21 57/75/21 
f 65/93/22 61/81/23 26/82/23 25/94/22 
f 56/72/24 65/95/25 25/96/25 24/69/24 
f 66/97/26 62/98/27 22/99/27 21/100/26 
f 58/76/28 66/97/28 21/100/28 20/73/28 
f 35/45/29 52/64/30 51/63/30 36/46/29 
f 39/49/31 54/68/32 53/67/32 40/50/31 
f 43/53/33 56/72/34 55/71/33 45/55/34 
f 44/54/35 58/76/35 57/75/35 50/60/35 
f 52/64/36 35/45/37 48/58/38 60/80/37 
f 54/68/39 39/49/40 38/48/40 63/87/39 
f 58/76/41 44/54/41 47/57/41 66/97/42 
f 56/72/43 43/53/44 42/52/45 65/95/46 
f 64/92/47 49/59/48 50/60/48 57/75/48 
f 60/80/49 48/58/49 49/59/49 64/90/49 
f 59/77/50 37/47/51 36/46/52 51/63/53 
f 63/85/54 38/48/55 37/47/54 59/77/54 
f 62/83/56 46/56/57 45/55/56 55/71/58 
f 66/97/59 47/57/59 46/56/59 62/98/59 
f 61/81/60 41/51/61 40/50/61 53/67/62 
f 65/93/63 42/52/63 41/51/63 61/81/63 
f 67/101/6 68/102/6 69/103/6 70/104/6 
f 71/105/6 68/102/6 67/101/6 72/106/6 
f 73/107/6 72/106/6 67/101/6 74/108/6 
f 75/109/6 74/108/6 67/101/6 70/104/6 
f 76/110/64 77/111/64 78/112/64 79/113/64 
f 79/113/65 78/112/65 80/114/65 81/115/65 
f 81/115/66 80/114/66 82/116/66 83/117/66 
f 83/117/67 82/116/67 84/118/67 85/119/67 
f 85/119/68 84/118/68 86/120/68 87/121/68 
f 87/121/69 86/120/69 88/122/69 89/123/69 
f 89/123/70 88/122/70 90/124/70 91/125/70 
f 91/125/71 90/124/71 77/126/71 76/127/71 
f 92/128/7 76/129/7 79/130/7 
f 92/128/7 79/130/7 81/131/7 83/132/7 
f 92/128/7 83/132/7 85/133/7 87/134/7 
f 92/128/7 87/134/7 89/135/7 
f 92/128/7 89/135/7 91/136/7 76/129/7 
f 93/137/9 94/138/9 95/139/9 96/140/9 
f 94/141/9 97/142/9 98/143/9 95/144/9 
f 97/145/9 99/146/9 100/147/9 98/148/9 
f 99/149/9 93/150/9 96/151/9 100/152/9 
f 96/140/72 95/139/72 101/153/73 102/154/73 
f 95/144/74 98/143/74 103/155/75 101/156/75 
f 98/148/76 100/147/76 104/157/77 103/158/77 
f 100/152/78 96/151/78 102/159/79 104/160/79 
f 93/150/6 99/149/6 105/161/6 106/162/6 
f 106/163/10 107/164/10 94/138/10 93/137/10 
f 105/165/3 99/146/3 97/145/3 108/166/3 
f 108/167/7 97/142/7 94/141/7 107/168/7 
f 106/163/8 109/169/8 110/170/8 107/164/8 
f 107/168/8 110/171/8 111/172/8 108/167/8 
f 108/166/8 111/173/8 112/174/8 105/165/8 
f 105/161/8 112/175/8 109/176/8 106/162/8 
f 109/169/80 113/177/80 114/178/80 110/170/80 
f 110/171/81 114/179/81 115/180/81 111/172/81 
f 111/173/82 115/181/82 116/182/82 112/174/82 
f 112/175/83 116/183/83 113/184/83 109/176/83 
f 117/185/9 118/186/9 119/187/9 120/188/9 
f 118/186/84 117/185/84 121/189/85 122/190/85 
f 119/187/86 118/186/86 122/190/86 123/191/86 
f 120/188/87 119/187/87 123/191/88 124/192/88 
f 117/185/89 120/188/89 124/192/90 121/189/90 
f 125/193/91 126/194/91 127/195/91 128/196/91 
f 129/197/92 130/198/92 131/199/92 132/200/92 
f 133/201/93 134/202/94 125/193/95 128/196/96 
f 135/203/97 133/201/93 128/196/96 
f 136/204/98 135/203/97 128/196/96 129/197/99 
f 129/197/99 132/200/100 136/204/98 
f 134/202/94 137/205/101 138/206/102 125/193/95 
f 138/206/102 137/205/101 139/207/103 140/208/104 
f 140/208/104 139/207/103 141/209/105 
f 142/210/106 143/211/107 140/208/104 141/209/105 
f 142/210/106 144/212/108 143/211/107 
f 145/213/109 134/202/109 133/201/109 146/214/109 
f 146/214/110 133/201/110 135/203/110 147/215/110 
f 135/203/111 136/204/111 148/216/111 147/215/111 
f 149/217/112 140/208/112 143/211/112 150/218/112 
f 143/211/113 144/212/113 151/219/113 150/218/113 
f 152/220/114 142/210/114 141/209/114 153/221/114 
f 145/213/115 154/222/116 137/205/117 134/202/118 
f 155/223/119 126/194/120 125/193/121 138/206/122 
f 127/195/123 130/198/123 129/197/123 128/196/123 
f 146/224/124 127/195/125 126/194/126 145/225/127 
f 148/226/128 130/198/129 127/195/125 147/227/130 
f 127/195/125 146/224/124 147/227/130 
f 148/226/128 131/199/131 130/198/129 
f 145/225/127 126/194/126 155/223/132 154/228/133 
f 155/223/132 149/217/134 156/229/135 154/228/133 
f 152/230/136 153/231/137 149/217/134 150/218/138 
f 153/231/137 156/229/135 149/217/134 
f 150/218/138 151/219/139 152/230/136 
f 138/206/140 140/208/140 149/217/140 155/223/140 
f 156/232/141 139/207/141 137/205/141 154/222/141 
f 141/209/142 139/207/142 156/232/142 153/221/142 
f 157/233/8 158/234/8 159/235/8 160/236/8 
f 160/236/143 161/237/144 162/238/144 157/233/143 
f 159/235/145 163/239/146 161/237/146 160/236/145 
f 158/234/147 164/240/148 163/239/148 159/235/147 
f 157/233/149 162/238/149 164/240/149 158/234/149 
f 165/1/1 166/2/2 167/3/2 168/4/1 
f 166/2/2 169/5/3 170/6/3 167/3/2 
f 169/5/3 171/7/4 172/8/4 170/9/3 
f 171/7/4 173/10/5 174/11/5 172/8/4 
f 169/5/6 166/2/6 171/7/6 
f 171/7/6 166/2/6 165/1/6 173/10/6 
f 174/12/7 168/13/7 167/14/7 172/15/7 
f 172/15/7 167/14/7 170/16/7 
f 165/1/8 168/4/8 175/17/8 176/18/8 
f 174/11/9 173/10/9 177/19/9 178/20/9 
f 173/10/6 165/1/6 176/18/6 177/19/6 
f 168/13/7 174/12/7 178/21/7 175/22/7 
f 176/18/8 175/17/8 179/23/8 180/24/8 
f 178/20/9 177/19/9 181/25/9 182/26/9 
f 177/19/6 176/18/6 180/24/6 181/25/6 
f 175/22/7 178/21/7 182/27/7 179/28/7 
f 183/1/150 184/2/151 185/3/151 186/4/150 
f 184/2/151 187/5/152 188/6/152 185/3/151 
f 187/5/152 189/7/153 190/8/153 188/9/152 
f 189/7/153 191/10/154 192/11/154 190/8/153 
f 187/5/6 184/2/6 189/7/6 
f 189/7/6 184/2/6 183/1/6 191/10/6 
f 192/12/7 186/13/7 185/14/7 190/15/7 
f 190/15/7 185/14/7 188/16/7 
f 183/1/155 186/4/155 193/17/155 194/18/155 
f 192/11/156 191/10/156 195/19/156 196/20/156 
f 191/10/6 183/1/6 194/18/6 195/19/6 
f 186/13/7 192/12/7 196/21/7 193/22/7 
f 194/18/155 193/17/155 197/23/155 198/24/155 
f 196/20/156 195/19/156 199/25/156 200/26/156 
f 195/19/6 194/18/6 198/24/6 199/25/6 
f 193/22/7 196/21/7 200/27/7 197/28/7 
f 201/1/150 202/2/151 203/3/151 204/4/150 
f 202/2/151 205/5/152 206/6/152 203/3/151 
f 205/5/152 207/7/153 208/8/153 206/9/152 
f 207/7/153 209/10/154 210/11/154 208/8/153 
f 205/5/6 202/2/6 207/7/6 
f 207/7/6 202/2/6 201/1/6 209/10/6 
f 210/12/7 204/13/7 203/14/7 208/15/7 
f 208/15/7 203/14/7 206/16/7 
f 201/1/155 204/4/155 211/17/155 212/18/155 
f 210/11/156 209/10/156 213/19/156 214/20/156 
f 209/10/6 201/1/6 212/18/6 213/19/6 
f 204/13/7 210/12/7 214/21/7 211/22/7 
f 212/18/155 211/17/155 215/23/155 216/24/155 
f 214/20/156 213/19/156 217/25/156 218/26/156 
f 213/19/6 212/18/6 216/24/6 217/25/6 
f 211/22/7 214/21/7 218/27/7 215/28/7 
f 69/241/64 68/242/64 219/243/64 220/244/64 
f 68/242/65 71/245/65 221/246/65 219/243/65 
f 71/245/66 72/247/66 222/248/66 221/246/66 
f 72/247/67 73/249/67 223/250/67 222/248/67 
f 73/249/68 74/251/68 224/252/68 223/250/68 
f 74/251/69 75/253/69 225/254/69 224/252/69 
f 75/253/70 70/255/70 226/256/70 225/254/70 
f 70/255/71 69/257/71 220/258/71 226/256/71 
f 221/246/7 222/248/7 223/250/7 220/258/7 
f 225/254/7 220/258/7 223/250/7 224/252/7 
f 225/254/7 226/256/7 220/258/7 
f 219/243/7 221/246/7 220/258/7 
f 90/124/6 88/122/6 86/120/6 78/112/6 
f 82/116/6 78/112/6 86/120/6 84/118/6 
f 82/116/6 80/114/6 78/112/6 
f 77/111/6 90/124/6 78/112/6 
# 179 polygons - 30 triangles

