# 3ds Max Wavefront OBJ Exporter v0.97b - (c)2007 guruware
# File Created: 16.06.2013 01:52:19

#
# object TubeCoil001
#

v  -0.0361 -0.2263 0.6423
v  0.0733 -0.2263 0.7516
v  0.0733 0.2874 0.7516
v  -0.0361 0.2874 0.6423
v  0.2226 -0.2263 0.7916
v  0.2226 0.2874 0.7916
v  0.3720 -0.2263 0.7516
v  0.3720 0.2874 0.7516
v  0.4814 -0.2263 0.6423
v  0.4814 0.2874 0.6423
v  0.5214 -0.2263 0.4929
v  0.5214 0.2874 0.4929
v  0.4814 -0.2263 0.3435
v  0.4814 0.2874 0.3435
v  0.3720 -0.2263 0.2341
v  0.3720 0.2874 0.2341
v  0.2227 -0.2263 0.1941
v  0.2227 0.2874 0.1941
v  0.0733 -0.2263 0.2341
v  0.0733 0.2874 0.2341
v  -0.0361 -0.2263 0.3435
v  -0.0361 0.2874 0.3435
v  -0.0761 -0.2263 0.4929
v  -0.0761 0.2874 0.4929
v  -0.2245 -0.2959 0.7510
v  -0.0355 -0.2959 0.9400
v  -0.0355 -0.2640 0.9400
v  -0.2245 -0.2640 0.7510
v  0.2227 -0.2959 1.0092
v  0.2227 -0.2640 1.0092
v  0.4808 -0.2959 0.9400
v  0.4808 -0.2640 0.9400
v  0.6698 -0.2959 0.7510
v  0.6698 -0.2640 0.7510
v  0.7389 -0.2959 0.4929
v  0.7389 -0.2640 0.4929
v  0.6698 -0.2959 0.2347
v  0.6698 -0.2640 0.2347
v  0.4808 -0.2959 0.0457
v  0.4808 -0.2640 0.0457
v  0.2227 -0.2959 -0.0234
v  0.2227 -0.2640 -0.0234
v  -0.0355 -0.2959 0.0458
v  -0.0355 -0.2640 0.0458
v  -0.2245 -0.2959 0.2347
v  -0.2245 -0.2640 0.2347
v  -0.2936 -0.2959 0.4929
v  -0.2936 -0.2640 0.4929
v  -0.0355 0.3570 0.9400
v  -0.2245 0.3570 0.7510
v  -0.2245 0.3251 0.7510
v  -0.0355 0.3251 0.9400
v  -0.2936 0.3570 0.4929
v  -0.2936 0.3251 0.4929
v  -0.2245 0.3570 0.2347
v  -0.2245 0.3251 0.2347
v  -0.0355 0.3570 0.0458
v  -0.0355 0.3251 0.0458
v  0.2227 0.3570 -0.0234
v  0.2227 0.3251 -0.0234
v  0.4808 0.3570 0.0457
v  0.4808 0.3251 0.0457
v  0.6698 0.3570 0.2347
v  0.6698 0.3251 0.2347
v  0.7389 0.3570 0.4929
v  0.7389 0.3251 0.4929
v  0.6698 0.3570 0.7510
v  0.6698 0.3251 0.7510
v  0.4808 0.3570 0.9400
v  0.4808 0.3251 0.9400
v  0.2227 0.3570 1.0092
v  0.2227 0.3251 1.0092
v  0.0726 -0.2959 0.5795
v  0.1360 -0.2959 0.6430
v  0.0493 -0.2959 0.4929
v  0.0726 -0.2959 0.4062
v  0.1360 -0.2959 0.3428
v  0.2227 -0.2959 0.3196
v  0.3093 -0.2959 0.3428
v  0.3727 -0.2959 0.4062
v  0.3960 -0.2959 0.4929
v  0.3727 -0.2959 0.5795
v  0.3093 -0.2959 0.6430
v  0.2227 -0.2959 0.6662
v  0.1360 0.3570 0.6430
v  0.0726 0.3570 0.5795
v  0.2227 0.3570 0.6662
v  0.3093 0.3570 0.6430
v  0.3727 0.3570 0.5795
v  0.3960 0.3570 0.4929
v  0.3727 0.3570 0.4062
v  0.3093 0.3570 0.3428
v  0.2227 0.3570 0.3196
v  0.1360 0.3570 0.3428
v  0.0726 0.3570 0.4062
v  0.0493 0.3570 0.4929
# 96 vertices

vn -0.8660 0.0000 0.5000
vn -0.5002 0.0000 0.8659
vn 0.0000 0.0000 1.0000
vn 0.4999 0.0000 0.8661
vn 0.8661 0.0000 0.4999
vn 1.0000 0.0000 0.0001
vn 0.8661 0.0000 -0.4999
vn 0.5000 0.0000 -0.8660
vn 0.0000 0.0000 -1.0000
vn -0.4999 0.0000 -0.8661
vn -0.8660 0.0000 -0.5000
vn -1.0000 0.0000 -0.0000
vn -0.8661 0.0000 0.4999
vn 0.0003 0.0000 1.0000
vn 0.8660 0.0000 0.5000
vn 1.0000 0.0000 -0.0001
vn 0.8660 0.0000 -0.5000
vn 0.5002 0.0000 -0.8659
vn -0.0003 0.0000 -1.0000
vn -0.5002 0.0000 -0.8659
vn -1.0000 0.0000 0.0001
vn -0.1265 0.9893 0.0730
vn -0.0730 0.9893 0.1265
vn 0.0000 0.9893 0.1460
vn 0.0000 0.9893 0.1461
vn 0.0730 0.9893 0.1266
vn 0.0730 0.9893 0.1265
vn 0.1265 0.9893 0.0729
vn 0.1267 0.9892 0.0730
vn 0.1461 0.9893 -0.0000
vn 0.1265 0.9893 -0.0730
vn 0.0730 0.9893 -0.1265
vn 0.0730 0.9893 -0.1266
vn 0.0000 0.9893 -0.1461
vn 0.0003 0.9893 -0.1460
vn -0.0733 0.9893 -0.1265
vn -0.0730 0.9893 -0.1265
vn -0.1265 0.9893 -0.0730
vn -0.1267 0.9892 -0.0730
vn -0.1461 0.9893 -0.0000
vn -0.1461 0.9893 -0.0001
vn -0.0730 -0.9893 0.1265
vn -0.1265 -0.9893 0.0730
vn -0.1461 -0.9893 -0.0000
vn -0.1461 -0.9893 -0.0001
vn -0.1265 -0.9893 -0.0730
vn -0.1267 -0.9892 -0.0730
vn -0.0733 -0.9893 -0.1265
vn -0.0730 -0.9893 -0.1265
vn 0.0000 -0.9893 -0.1461
vn 0.0003 -0.9893 -0.1460
vn 0.0730 -0.9893 -0.1265
vn 0.0730 -0.9893 -0.1266
vn 0.1265 -0.9893 -0.0730
vn 0.1461 -0.9893 -0.0000
vn 0.1265 -0.9893 0.0729
vn 0.1267 -0.9892 0.0730
vn 0.0730 -0.9893 0.1266
vn 0.0730 -0.9893 0.1265
vn 0.0000 -0.9893 0.1460
vn 0.0000 -0.9893 0.1461
vn 0.0000 -1.0000 -0.0000
vn 0.0000 1.0000 -0.0000
vn -0.8661 0.0000 -0.4999
vn -0.5001 0.0000 -0.8659
# 65 vertex normals

vt 0.9952 0.2546 0.0000
vt 0.9952 0.3363 0.0000
vt 0.7238 0.3362 0.0000
vt 0.7238 0.2545 0.0000
vt 0.9951 0.4180 0.0000
vt 0.7238 0.4179 0.0000
vt 0.9951 0.4997 0.0000
vt 0.7237 0.4996 0.0000
vt 0.9951 0.5813 0.0000
vt 0.7237 0.5813 0.0000
vt 0.9951 0.6630 0.0000
vt 0.7237 0.6630 0.0000
vt 0.9951 0.7447 0.0000
vt 0.7237 0.7447 0.0000
vt 0.9951 0.8264 0.0000
vt 0.7237 0.8264 0.0000
vt 0.9950 0.9081 0.0000
vt 0.7236 0.9080 0.0000
vt 0.9950 0.9898 0.0000
vt 0.7236 0.9897 0.0000
vt 0.9952 0.0095 0.0000
vt 0.9952 0.0912 0.0000
vt 0.7238 0.0911 0.0000
vt 0.7238 0.0094 0.0000
vt 0.9952 0.1729 0.0000
vt 0.7238 0.1728 0.0000
vt 0.0468 0.8630 0.0000
vt 0.0464 0.9357 0.0000
vt 0.0306 0.9357 0.0000
vt 0.0310 0.8629 0.0000
vt 0.0458 0.0622 0.0000
vt 0.0455 0.1349 0.0000
vt 0.0297 0.1349 0.0000
vt 0.0300 0.0622 0.0000
vt 0.0453 0.2075 0.0000
vt 0.0296 0.2075 0.0000
vt 0.0454 0.2802 0.0000
vt 0.0297 0.2802 0.0000
vt 0.0458 0.3529 0.0000
vt 0.0300 0.3529 0.0000
vt 0.0462 0.4256 0.0000
vt 0.0305 0.4256 0.0000
vt 0.0467 0.4984 0.0000
vt 0.0310 0.4984 0.0000
vt 0.0472 0.5713 0.0000
vt 0.0314 0.5713 0.0000
vt 0.0474 0.6442 0.0000
vt 0.0316 0.6442 0.0000
vt 0.0474 0.7172 0.0000
vt 0.0316 0.7172 0.0000
vt 0.0471 0.7901 0.0000
vt 0.0314 0.7901 0.0000
vt 0.0549 0.9518 0.0000
vt 0.0553 0.8789 0.0000
vt 0.0710 0.8790 0.0000
vt 0.0706 0.9518 0.0000
vt 0.0556 0.8062 0.0000
vt 0.0714 0.8062 0.0000
vt 0.0559 0.7335 0.0000
vt 0.0716 0.7335 0.0000
vt 0.0559 0.6609 0.0000
vt 0.0716 0.6609 0.0000
vt 0.0556 0.5882 0.0000
vt 0.0714 0.5882 0.0000
vt 0.0552 0.5155 0.0000
vt 0.0710 0.5155 0.0000
vt 0.0547 0.4428 0.0000
vt 0.0705 0.4427 0.0000
vt 0.0543 0.3699 0.0000
vt 0.0700 0.3699 0.0000
vt 0.0539 0.2970 0.0000
vt 0.0697 0.2970 0.0000
vt 0.0538 0.2240 0.0000
vt 0.0696 0.2240 0.0000
vt 0.0540 0.1511 0.0000
vt 0.0697 0.1511 0.0000
vt 0.0543 0.0782 0.0000
vt 0.0701 0.0782 0.0000
vt 0.1481 0.7682 0.0000
vt 0.1474 0.7031 0.0000
vt 0.1993 0.7164 0.0000
vt 0.1997 0.7538 0.0000
vt 0.1795 0.6463 0.0000
vt 0.2177 0.6838 0.0000
vt 0.2356 0.6132 0.0000
vt 0.2500 0.6648 0.0000
vt 0.3008 0.6126 0.0000
vt 0.2874 0.6645 0.0000
vt 0.3575 0.6446 0.0000
vt 0.3200 0.6829 0.0000
vt 0.3907 0.7007 0.0000
vt 0.3391 0.7151 0.0000
vt 0.3913 0.7659 0.0000
vt 0.3394 0.7526 0.0000
vt 0.3593 0.8227 0.0000
vt 0.3210 0.7852 0.0000
vt 0.3031 0.8558 0.0000
vt 0.2887 0.8042 0.0000
vt 0.2380 0.8564 0.0000
vt 0.2513 0.8045 0.0000
vt 0.1812 0.8243 0.0000
vt 0.2187 0.7861 0.0000
vt 0.1190 0.4817 0.0000
vt 0.1205 0.4025 0.0000
vt 0.1830 0.4205 0.0000
vt 0.1822 0.4660 0.0000
vt 0.1613 0.3347 0.0000
vt 0.2065 0.3815 0.0000
vt 0.2305 0.2964 0.0000
vt 0.2463 0.3595 0.0000
vt 0.3097 0.2978 0.0000
vt 0.2917 0.3604 0.0000
vt 0.3775 0.3386 0.0000
vt 0.3307 0.3838 0.0000
vt 0.4158 0.4079 0.0000
vt 0.3527 0.4236 0.0000
vt 0.4144 0.4870 0.0000
vt 0.3519 0.4691 0.0000
vt 0.3736 0.5549 0.0000
vt 0.3284 0.5080 0.0000
vt 0.3043 0.5932 0.0000
vt 0.2886 0.5300 0.0000
vt 0.2252 0.5918 0.0000
vt 0.2431 0.5292 0.0000
vt 0.1574 0.5509 0.0000
vt 0.2042 0.5057 0.0000
vt 0.3475 0.4539 0.0000
vt 0.3347 0.4909 0.0000
vt 0.2932 0.4628 0.0000
vt 0.2975 0.4504 0.0000
vt 0.3052 0.5164 0.0000
vt 0.2833 0.4714 0.0000
vt 0.2669 0.5239 0.0000
vt 0.2704 0.4739 0.0000
vt 0.2300 0.5111 0.0000
vt 0.2580 0.4696 0.0000
vt 0.2044 0.4816 0.0000
vt 0.2495 0.4597 0.0000
vt 0.1970 0.4433 0.0000
vt 0.2470 0.4468 0.0000
vt 0.2097 0.4064 0.0000
vt 0.2512 0.4344 0.0000
vt 0.2392 0.3808 0.0000
vt 0.2611 0.4258 0.0000
vt 0.2775 0.3734 0.0000
vt 0.2740 0.4234 0.0000
vt 0.3145 0.3861 0.0000
vt 0.2864 0.4276 0.0000
vt 0.3401 0.4156 0.0000
vt 0.2950 0.4375 0.0000
vt 0.4223 0.6655 0.0000
vt 0.4299 0.5887 0.0000
vt 0.5226 0.6237 0.0000
vt 0.5200 0.6495 0.0000
vt 0.4749 0.5260 0.0000
vt 0.5377 0.6027 0.0000
vt 0.5453 0.4943 0.0000
vt 0.5613 0.5920 0.0000
vt 0.6220 0.5019 0.0000
vt 0.5871 0.5946 0.0000
vt 0.6847 0.5469 0.0000
vt 0.6081 0.6097 0.0000
vt 0.7165 0.6172 0.0000
vt 0.6188 0.6333 0.0000
vt 0.7089 0.6940 0.0000
vt 0.6162 0.6590 0.0000
vt 0.6639 0.7567 0.0000
vt 0.6011 0.6801 0.0000
vt 0.5936 0.7885 0.0000
vt 0.5775 0.6908 0.0000
vt 0.5168 0.7809 0.0000
vt 0.5517 0.6882 0.0000
vt 0.4541 0.7358 0.0000
vt 0.5307 0.6731 0.0000
vt 0.1246 0.2663 0.0000
vt 0.0903 0.2658 0.0000
vt 0.0935 0.0164 0.0000
vt 0.1278 0.0168 0.0000
vt 0.5016 0.2711 0.0000
vt 0.4673 0.2707 0.0000
vt 0.4705 0.0212 0.0000
vt 0.5048 0.0217 0.0000
vt 0.4331 0.2702 0.0000
vt 0.4362 0.0208 0.0000
vt 0.3988 0.2698 0.0000
vt 0.4020 0.0203 0.0000
vt 0.3645 0.2693 0.0000
vt 0.3677 0.0199 0.0000
vt 0.3302 0.2689 0.0000
vt 0.3334 0.0195 0.0000
vt 0.2960 0.2685 0.0000
vt 0.2991 0.0190 0.0000
vt 0.2617 0.2680 0.0000
vt 0.2649 0.0186 0.0000
vt 0.2274 0.2676 0.0000
vt 0.2306 0.0182 0.0000
vt 0.1931 0.2671 0.0000
vt 0.1963 0.0177 0.0000
vt 0.1589 0.2667 0.0000
vt 0.1621 0.0173 0.0000
# 200 texture coords

g TubeCoil001
s off
f 1/1/1 2/2/2 3/3/2 4/4/1 
f 2/2/2 5/5/3 6/6/3 3/3/2 
f 5/5/3 7/7/4 8/8/4 6/6/3 
f 7/7/4 9/9/5 10/10/5 8/8/4 
f 9/9/5 11/11/6 12/12/6 10/10/5 
f 11/11/6 13/13/7 14/14/7 12/12/6 
f 13/13/7 15/15/8 16/16/8 14/14/7 
f 15/15/8 17/17/9 18/18/9 16/16/8 
f 17/17/9 19/19/10 20/20/10 18/18/9 
f 19/21/10 21/22/11 22/23/11 20/24/10 
f 21/22/11 23/25/12 24/26/12 22/23/11 
f 23/25/12 1/1/1 4/4/1 24/26/12 
f 25/27/13 26/28/2 27/29/2 28/30/13 
f 26/31/2 29/32/14 30/33/14 27/34/2 
f 29/32/14 31/35/4 32/36/4 30/33/14 
f 31/35/4 33/37/15 34/38/15 32/36/4 
f 33/37/15 35/39/16 36/40/16 34/38/15 
f 35/39/16 37/41/17 38/42/17 36/40/16 
f 37/41/17 39/43/18 40/44/18 38/42/17 
f 39/43/18 41/45/19 42/46/19 40/44/18 
f 41/45/19 43/47/20 44/48/20 42/46/19 
f 43/47/20 45/49/11 46/50/11 44/48/20 
f 45/49/11 47/51/21 48/52/21 46/50/11 
f 47/51/21 25/27/13 28/30/13 48/52/21 
f 49/53/2 50/54/13 51/55/13 52/56/2 
f 50/54/13 53/57/21 54/58/21 51/55/13 
f 53/57/21 55/59/11 56/60/11 54/58/21 
f 55/59/11 57/61/20 58/62/20 56/60/11 
f 57/61/20 59/63/19 60/64/19 58/62/20 
f 59/63/19 61/65/18 62/66/18 60/64/19 
f 61/65/18 63/67/17 64/68/17 62/66/18 
f 63/67/17 65/69/16 66/70/16 64/68/17 
f 65/69/16 67/71/15 68/72/15 66/70/16 
f 67/71/15 69/73/4 70/74/4 68/72/15 
f 69/73/4 71/75/14 72/76/14 70/74/4 
f 71/75/14 49/77/2 52/78/2 72/76/14 
f 28/79/22 27/80/23 2/81/23 1/82/22 
f 27/80/23 30/83/24 5/84/25 2/81/23 
f 30/83/24 32/85/26 7/86/27 5/84/25 
f 32/85/26 34/87/28 9/88/29 7/86/27 
f 34/87/28 36/89/30 11/90/30 9/88/29 
f 36/89/30 38/91/31 13/92/31 11/90/30 
f 38/91/31 40/93/32 15/94/33 13/92/31 
f 40/93/32 42/95/34 17/96/35 15/94/33 
f 42/95/34 44/97/36 19/98/37 17/96/35 
f 44/97/36 46/99/38 21/100/39 19/98/37 
f 46/99/38 48/101/40 23/102/41 21/100/39 
f 48/101/40 28/79/22 1/82/22 23/102/41 
f 52/103/42 51/104/43 4/105/43 3/106/42 
f 51/104/43 54/107/44 24/108/45 4/105/43 
f 54/107/44 56/109/46 22/110/47 24/108/45 
f 56/109/46 58/111/48 20/112/49 22/110/47 
f 58/111/48 60/113/50 18/114/51 20/112/49 
f 60/113/50 62/115/52 16/116/53 18/114/51 
f 62/115/52 64/117/54 14/118/54 16/116/53 
f 64/117/54 66/119/55 12/120/55 14/118/54 
f 66/119/55 68/121/56 10/122/57 12/120/55 
f 68/121/56 70/123/58 8/124/59 10/122/57 
f 70/123/58 72/125/60 6/126/61 8/124/59 
f 72/125/60 52/103/42 3/106/42 6/126/61 
f 26/127/62 25/128/62 73/129/62 74/130/62 
f 25/128/62 47/131/62 75/132/62 73/129/62 
f 47/131/62 45/133/62 76/134/62 75/132/62 
f 45/133/62 43/135/62 77/136/62 76/134/62 
f 43/135/62 41/137/62 78/138/62 77/136/62 
f 41/137/62 39/139/62 79/140/62 78/138/62 
f 39/139/62 37/141/62 80/142/62 79/140/62 
f 37/141/62 35/143/62 81/144/62 80/142/62 
f 35/143/62 33/145/62 82/146/62 81/144/62 
f 33/145/62 31/147/62 83/148/62 82/146/62 
f 31/147/62 29/149/62 84/150/62 83/148/62 
f 29/149/62 26/127/62 74/130/62 84/150/62 
f 50/151/63 49/152/63 85/153/63 86/154/63 
f 49/152/63 71/155/63 87/156/63 85/153/63 
f 71/155/63 69/157/63 88/158/63 87/156/63 
f 69/157/63 67/159/63 89/160/63 88/158/63 
f 67/159/63 65/161/63 90/162/63 89/160/63 
f 65/161/63 63/163/63 91/164/63 90/162/63 
f 63/163/63 61/165/63 92/166/63 91/164/63 
f 61/165/63 59/167/63 93/168/63 92/166/63 
f 59/167/63 57/169/63 94/170/63 93/168/63 
f 57/169/63 55/171/63 95/172/63 94/170/63 
f 55/171/63 53/173/63 96/174/63 95/172/63 
f 53/173/63 50/151/63 86/154/63 96/174/63 
f 74/175/18 73/176/17 86/177/17 85/178/18 
f 73/179/17 75/180/6 96/181/6 86/182/17 
f 75/180/6 76/183/5 95/184/5 96/181/6 
f 76/183/5 77/185/4 94/186/4 95/184/5 
f 77/185/4 78/187/3 93/188/3 94/186/4 
f 78/187/3 79/189/2 92/190/2 93/188/3 
f 79/189/2 80/191/13 91/192/13 92/190/2 
f 80/191/13 81/193/12 90/194/12 91/192/13 
f 81/193/12 82/195/64 89/196/64 90/194/12 
f 82/195/64 83/197/65 88/198/65 89/196/64 
f 83/197/65 84/199/9 87/200/9 88/198/65 
f 84/199/9 74/175/18 85/178/18 87/200/9 
# 96 polygons

