# 3ds Max Wavefront OBJ Exporter v0.97b - (c)2007 guruware
# File Created: 12.06.2013 21:21:07

mtllib concretebrick.mtl

#
# object ConcreteBricks
#

v  0.0938 0.0610 0.1315
v  -0.0155 0.0610 0.1607
v  -0.0155 -0.0610 0.1607
v  0.0938 -0.0610 0.1315
v  0.0562 -0.0627 -0.0138
v  0.0562 0.0627 -0.0138
v  -0.0938 0.0610 -0.1315
v  0.0155 0.0610 -0.1607
v  0.0155 -0.0610 -0.1607
v  -0.0938 -0.0610 -0.1315
v  -0.0556 -0.0627 0.0161
v  -0.0556 0.0627 0.0161
v  -0.0311 -0.0615 0.0278
v  -0.0034 -0.0615 0.1314
v  0.0409 -0.0615 0.0085
v  0.0686 -0.0615 0.1121
v  0.0686 0.0615 0.1121
v  -0.0034 0.0615 0.1313
v  0.0408 0.0615 0.0085
v  -0.0311 0.0615 0.0278
v  -0.0686 -0.0615 -0.1121
v  -0.0402 -0.0615 -0.0062
v  0.0034 -0.0615 -0.1314
v  0.0317 -0.0615 -0.0255
v  0.0034 0.0615 -0.1313
v  0.0318 0.0615 -0.0255
v  -0.0686 0.0615 -0.1121
v  -0.0402 0.0615 -0.0062
v  0.1223 -0.0903 -0.1983
v  0.1223 -0.0903 -0.0852
v  0.1223 -0.2123 -0.0852
v  0.1223 -0.2123 -0.1983
v  -0.0278 -0.2140 -0.1996
v  -0.0278 -0.0885 -0.1996
v  -0.1802 -0.0903 -0.0852
v  -0.1802 -0.0903 -0.1983
v  -0.1802 -0.2123 -0.1983
v  -0.1802 -0.2123 -0.0852
v  -0.0278 -0.2140 -0.0839
v  -0.0278 -0.0885 -0.0839
v  -0.0102 -0.2127 -0.1045
v  0.0971 -0.2128 -0.1045
v  -0.0102 -0.2128 -0.1790
v  0.0970 -0.2127 -0.1790
v  0.0971 -0.0897 -0.1790
v  0.0970 -0.0898 -0.1045
v  -0.0102 -0.0898 -0.1790
v  -0.0102 -0.0897 -0.1045
v  -0.1549 -0.2127 -0.1045
v  -0.0454 -0.2128 -0.1045
v  -0.1550 -0.2128 -0.1790
v  -0.0454 -0.2127 -0.1790
v  -0.1549 -0.0898 -0.1790
v  -0.0454 -0.0897 -0.1790
v  -0.1550 -0.0897 -0.1045
v  -0.0454 -0.0898 -0.1045
v  -0.0504 -0.0903 0.2413
v  -0.1631 -0.0903 0.2314
v  -0.1631 -0.2123 0.2314
v  -0.0504 -0.2123 0.2413
v  -0.0360 -0.2140 0.0919
v  -0.0360 -0.0885 0.0919
v  -0.1367 -0.0903 -0.0700
v  -0.0240 -0.0903 -0.0601
v  -0.0240 -0.2123 -0.0601
v  -0.1367 -0.2123 -0.0700
v  -0.1513 -0.2140 0.0818
v  -0.1513 -0.0885 0.0818
v  -0.1323 -0.2127 0.1011
v  -0.1417 -0.2128 0.2079
v  -0.0581 -0.2128 0.1076
v  -0.0674 -0.2127 0.2144
v  -0.0674 -0.0897 0.2144
v  -0.1417 -0.0898 0.2079
v  -0.0581 -0.0898 0.1076
v  -0.1323 -0.0897 0.1011
v  -0.1197 -0.2127 -0.0431
v  -0.1293 -0.2128 0.0660
v  -0.0455 -0.2128 -0.0366
v  -0.0550 -0.2127 0.0725
v  -0.0455 -0.0898 -0.0366
v  -0.0550 -0.0897 0.0725
v  -0.1197 -0.0897 -0.0431
v  -0.1293 -0.0898 0.0660
v  0.1153 -0.0903 0.2369
v  0.0022 -0.0903 0.2369
v  0.0022 -0.2123 0.2369
v  0.1153 -0.2123 0.2369
v  0.1166 -0.2140 0.0868
v  0.1166 -0.0885 0.0868
v  0.0022 -0.0903 -0.0656
v  0.1153 -0.0903 -0.0656
v  0.1153 -0.2123 -0.0656
v  0.0022 -0.2123 -0.0656
v  0.0009 -0.2140 0.0868
v  0.0009 -0.0885 0.0868
v  0.0215 -0.2127 0.1044
v  0.0215 -0.2128 0.2117
v  0.0960 -0.2128 0.1044
v  0.0960 -0.2127 0.2116
v  0.0960 -0.0897 0.2117
v  0.0215 -0.0898 0.2116
v  0.0960 -0.0898 0.1044
v  0.0215 -0.0897 0.1044
v  0.0215 -0.2127 -0.0403
v  0.0215 -0.2128 0.0692
v  0.0960 -0.2128 -0.0404
v  0.0960 -0.2127 0.0692
v  0.0960 -0.0898 -0.0403
v  0.0960 -0.0897 0.0692
v  0.0215 -0.0897 -0.0404
v  0.0215 -0.0898 0.0692
v  -0.0965 -0.0903 0.7034
v  -0.2092 -0.0903 0.6936
v  -0.2092 -0.2123 0.6936
v  -0.0965 -0.2123 0.7034
v  -0.0821 -0.2140 0.5540
v  -0.0821 -0.0885 0.5540
v  -0.1828 -0.0903 0.3922
v  -0.0701 -0.0903 0.4021
v  -0.0701 -0.2123 0.4021
v  -0.1828 -0.2123 0.3922
v  -0.1974 -0.2140 0.5440
v  -0.1974 -0.0885 0.5440
v  -0.1784 -0.2127 0.5633
v  -0.1878 -0.2128 0.6701
v  -0.1042 -0.2128 0.5698
v  -0.1135 -0.2127 0.6766
v  -0.1135 -0.0897 0.6766
v  -0.1877 -0.0898 0.6701
v  -0.1042 -0.0898 0.5698
v  -0.1784 -0.0897 0.5633
v  -0.1658 -0.2127 0.4191
v  -0.1753 -0.2128 0.5282
v  -0.0915 -0.2128 0.4255
v  -0.1011 -0.2127 0.5347
v  -0.0916 -0.0898 0.4256
v  -0.1011 -0.0897 0.5347
v  -0.1658 -0.0897 0.4190
v  -0.1753 -0.0898 0.5282
# 140 vertices

vn 0.2589 0.0000 0.9659
vn 0.2587 0.0000 0.9660
vn 0.9681 0.0000 -0.2504
vn 0.9659 0.0000 -0.2589
vn 0.9660 0.0000 -0.2587
vn -0.2588 0.0000 -0.9659
vn -0.2587 0.0000 -0.9660
vn -0.9682 0.0000 0.2503
vn -0.9659 0.0000 0.2589
vn -0.9658 0.0000 0.2591
vn 0.9637 0.0000 -0.2672
vn -0.9636 0.0000 0.2673
vn -0.0261 -0.9996 0.0066
vn -0.0259 -0.9996 0.0067
vn 0.0521 -0.9986 -0.0026
vn 0.0521 -0.9986 -0.0023
vn 0.0181 -0.9975 0.0689
vn 0.0179 -0.9975 0.0689
vn 0.0179 -0.9976 0.0662
vn 0.0176 -0.9976 0.0662
vn -0.0563 -0.9983 0.0155
vn -0.0561 -0.9983 0.0154
vn 0.0121 -0.9999 0.0085
vn 0.0123 -0.9999 0.0085
vn 0.0053 -0.9998 0.0179
vn 0.0051 -0.9998 0.0179
vn 0.0053 -0.9998 0.0196
vn 0.0043 0.9998 0.0181
vn 0.0043 0.9998 0.0180
vn 0.0053 0.9998 0.0196
vn 0.0259 0.9996 -0.0070
vn 0.0259 0.9996 -0.0072
vn -0.0461 0.9987 0.0236
vn -0.0463 0.9986 0.0236
vn 0.0189 0.9975 0.0685
vn 0.0176 0.9976 0.0662
vn 0.0179 0.9976 0.0662
vn 0.0563 0.9983 -0.0148
vn 0.0565 0.9983 -0.0149
vn -0.0062 0.9999 0.0136
vn 0.0561 -0.9983 -0.0153
vn 0.0561 -0.9983 -0.0155
vn -0.0119 -0.9999 -0.0087
vn -0.0121 -0.9999 -0.0087
vn -0.0053 -0.9998 -0.0173
vn -0.0053 -0.9998 -0.0175
vn -0.0051 -0.9998 -0.0198
vn 0.0261 -0.9996 -0.0067
vn 0.0261 -0.9996 -0.0066
vn -0.0523 -0.9986 0.0028
vn -0.0525 -0.9986 0.0028
vn -0.0181 -0.9974 -0.0695
vn -0.0181 -0.9974 -0.0693
vn -0.0179 -0.9976 -0.0663
vn -0.0176 -0.9976 -0.0663
vn -0.0565 0.9983 0.0148
vn -0.0563 0.9983 0.0148
vn 0.0060 0.9999 -0.0136
vn 0.0062 0.9999 -0.0136
vn -0.0040 0.9998 -0.0174
vn -0.0043 0.9998 -0.0175
vn -0.0051 0.9998 -0.0198
vn -0.0261 0.9996 0.0073
vn -0.0259 0.9996 0.0077
vn 0.0468 0.9986 -0.0238
vn 0.0470 0.9986 -0.0238
vn -0.0191 0.9974 -0.0690
vn -0.0191 0.9974 -0.0692
vn -0.0176 0.9976 -0.0663
vn -0.0179 0.9976 -0.0663
vn 0.5224 -0.0001 -0.8527
vn 0.8738 0.0001 0.4862
vn 0.8734 0.0001 0.4871
vn 0.5041 -0.0001 -0.8637
vn -0.5040 -0.0001 0.8637
vn -0.5223 -0.0001 0.8528
vn -0.8734 0.0001 -0.4870
vn -0.8739 0.0001 -0.4861
vn 0.9660 0.0001 -0.2587
vn 0.9658 -0.0001 -0.2591
vn 0.2591 -0.0002 0.9658
vn 0.2584 0.0002 0.9660
vn -0.9660 0.0001 0.2587
vn -0.9659 -0.0001 0.2589
vn -0.2589 0.0000 -0.9659
vn -0.2591 -0.0002 -0.9659
vn -0.2587 0.0002 -0.9660
vn 1.0000 0.0000 -0.0000
vn 0.0089 0.0000 -1.0000
vn 0.0002 0.0000 -1.0000
vn 0.0004 0.0000 -1.0000
vn -1.0000 0.0000 -0.0000
vn -1.0000 0.0000 -0.0001
vn -0.0085 0.0000 1.0000
vn 0.0000 0.0000 1.0000
vn 0.0002 0.0000 1.0000
vn -0.0085 0.0000 -1.0000
vn 0.0089 0.0000 1.0000
vn -0.0004 -0.9996 0.0269
vn -0.0004 -0.9996 0.0270
vn 0.0111 -0.9986 -0.0508
vn 0.0111 -0.9986 -0.0509
vn 0.0710 -0.9975 0.0005
vn 0.0687 -0.9976 -0.0000
vn 0.0004 -0.9983 0.0583
vn 0.0002 -0.9983 0.0582
vn 0.0117 -0.9999 -0.0096
vn 0.0187 -0.9998 -0.0004
vn 0.0187 -0.9998 -0.0005
vn 0.0204 -0.9998 -0.0000
vn 0.0204 -0.9998 0.0001
vn 0.0183 0.9998 0.0005
vn 0.0183 0.9998 0.0004
vn 0.0204 0.9998 0.0001
vn 0.0204 0.9998 -0.0000
vn -0.0002 0.9996 -0.0270
vn -0.0004 0.9996 -0.0270
vn 0.0111 0.9986 0.0509
vn 0.0111 0.9986 0.0508
vn 0.0710 0.9975 -0.0004
vn 0.0687 0.9976 -0.0000
vn 0.0002 0.9983 -0.0583
vn 0.0115 0.9999 0.0095
vn 0.0115 0.9999 0.0096
vn -0.0002 -0.9983 -0.0583
vn 0.0000 -0.9983 -0.0583
vn -0.0113 -0.9999 0.0095
vn -0.0115 -0.9999 0.0095
vn -0.0181 -0.9998 0.0006
vn -0.0202 -0.9998 -0.0000
vn -0.0202 -0.9998 -0.0001
vn 0.0002 -0.9996 -0.0270
vn -0.0106 -0.9986 0.0513
vn -0.0106 -0.9986 0.0514
vn -0.0714 -0.9974 -0.0006
vn -0.0716 -0.9974 -0.0005
vn -0.0684 -0.9977 -0.0001
vn -0.0684 -0.9977 -0.0000
vn -0.0006 0.9983 0.0582
vn -0.0004 0.9983 0.0581
vn -0.0113 0.9999 -0.0094
vn -0.0113 0.9999 -0.0095
vn -0.0181 0.9998 -0.0007
vn -0.0181 0.9998 -0.0006
vn -0.0202 0.9998 -0.0001
vn -0.0202 0.9998 -0.0000
vn 0.0004 0.9996 0.0270
vn -0.0108 0.9986 -0.0513
vn -0.0108 0.9986 -0.0514
vn -0.0716 0.9974 0.0004
vn -0.0684 0.9977 -0.0000
vn -0.0684 0.9977 -0.0001
vn -0.6885 -0.0001 -0.7253
vn 0.6958 0.0001 -0.7182
vn 0.6963 0.0001 -0.7177
vn -0.7039 -0.0001 -0.7103
vn 0.7036 -0.0001 0.7106
vn 0.6886 -0.0001 0.7251
vn -0.6964 0.0001 0.7177
vn -0.6959 0.0001 0.7181
vn 0.0002 0.0001 -1.0000
vn 0.0000 0.0000 -1.0000
vn -0.0002 -0.0001 -1.0000
vn 1.0000 0.0000 -0.0001
vn 1.0000 -0.0002 -0.0003
vn 1.0000 0.0000 0.0001
vn 1.0000 0.0002 0.0002
vn -0.0002 0.0001 1.0000
vn 0.0002 -0.0001 1.0000
vn -1.0000 0.0000 0.0001
vn -1.0000 -0.0002 0.0002
vn -1.0000 0.0002 -0.0004
vn -0.0871 0.0000 0.9962
vn -0.0872 0.0000 0.9962
vn 0.9954 0.0000 0.0961
vn 0.9962 0.0000 0.0871
vn 0.9962 0.0000 0.0874
vn 0.0871 0.0000 -0.9962
vn -0.9954 0.0000 -0.0956
vn -0.9962 0.0000 -0.0871
vn -0.9962 0.0000 -0.0869
vn 0.9969 0.0000 0.0786
vn -0.9969 0.0000 -0.0784
vn -0.0268 -0.9996 -0.0028
vn 0.0496 -0.9986 0.0155
vn -0.0067 -0.9975 0.0708
vn -0.0066 -0.9975 0.0708
vn -0.0061 -0.9976 0.0684
vn -0.0061 -0.9977 0.0682
vn -0.0580 -0.9983 -0.0049
vn 0.0084 -0.9999 0.0123
vn 0.0085 -0.9999 0.0123
vn -0.0012 -0.9998 0.0185
vn -0.0011 -0.9998 0.0185
vn -0.0018 -0.9998 0.0202
vn -0.0020 0.9998 0.0183
vn -0.0021 0.9998 0.0183
vn -0.0018 0.9998 0.0202
vn 0.0269 0.9996 0.0021
vn -0.0516 0.9986 0.0066
vn -0.0056 0.9975 0.0708
vn -0.0057 0.9975 0.0708
vn -0.0061 0.9977 0.0682
vn -0.0061 0.9976 0.0684
vn 0.0580 0.9983 0.0053
vn 0.0581 0.9983 0.0053
vn -0.0105 0.9999 0.0108
vn -0.0105 0.9999 0.0106
vn 0.0580 -0.9983 0.0047
vn 0.0581 -0.9983 0.0049
vn -0.0084 -0.9999 -0.0121
vn 0.0010 -0.9998 -0.0183
vn 0.0018 -0.9998 -0.0202
vn 0.0269 -0.9996 0.0028
vn 0.0269 -0.9996 0.0026
vn -0.0503 -0.9986 -0.0153
vn 0.0068 -0.9974 -0.0712
vn 0.0060 -0.9977 -0.0682
vn -0.0579 0.9983 -0.0055
vn -0.0580 0.9983 -0.0055
vn 0.0102 0.9999 -0.0104
vn 0.0103 0.9999 -0.0104
vn 0.0022 0.9998 -0.0179
vn 0.0018 0.9998 -0.0202
vn -0.0270 0.9996 -0.0019
vn -0.0269 0.9996 -0.0019
vn 0.0522 0.9986 -0.0064
vn 0.0522 0.9986 -0.0062
vn 0.0057 0.9974 -0.0714
vn 0.0060 0.9977 -0.0682
vn 0.7824 -0.0001 -0.6227
vn 0.6550 0.0001 0.7556
vn 0.6541 0.0001 0.7564
vn 0.7691 -0.0001 -0.6392
vn -0.7691 -0.0001 0.6392
vn -0.7824 -0.0001 0.6227
vn -0.6541 0.0001 -0.7564
vn -0.6548 0.0001 -0.7558
vn 0.9962 0.0001 0.0874
vn 0.9962 -0.0001 0.0869
vn -0.0868 -0.0002 0.9962
vn -0.0874 0.0002 0.9962
vn -0.9962 0.0000 -0.0874
vn -0.9962 0.0001 -0.0874
vn -0.9962 -0.0001 -0.0869
vn 0.0870 0.0000 -0.9962
vn 0.0869 -0.0002 -0.9962
vn 0.0872 0.0000 -0.9962
vn 0.0875 0.0002 -0.9962
vn 1.0000 0.0000 0.0089
vn 1.0000 0.0000 0.0002
vn 0.0001 0.0000 -1.0000
vn -1.0000 0.0000 -0.0083
vn -1.0000 0.0000 -0.0002
vn 1.0000 0.0000 -0.0085
vn -1.0000 0.0000 0.0089
vn -0.0269 -0.9996 -0.0004
vn -0.0270 -0.9996 -0.0004
vn 0.0508 -0.9986 0.0113
vn 0.0509 -0.9986 0.0108
vn -0.0005 -0.9975 0.0708
vn -0.0005 -0.9975 0.0710
vn 0.0000 -0.9977 0.0684
vn -0.0582 -0.9983 0.0004
vn -0.0582 -0.9983 -0.0000
vn 0.0096 -0.9999 0.0115
vn 0.0004 -0.9998 0.0187
vn 0.0004 -0.9998 0.0185
vn -0.0001 -0.9998 0.0204
vn -0.0005 0.9998 0.0183
vn -0.0004 0.9998 0.0185
vn -0.0001 0.9998 0.0204
vn 0.0270 0.9996 -0.0004
vn -0.0509 0.9986 0.0111
vn -0.0508 0.9986 0.0111
vn 0.0004 0.9975 0.0712
vn 0.0004 0.9975 0.0710
vn 0.0000 0.9977 0.0684
vn 0.0583 0.9983 0.0002
vn 0.0582 0.9983 0.0004
vn -0.0095 0.9999 0.0115
vn -0.0096 0.9999 0.0117
vn 0.0583 -0.9983 -0.0004
vn 0.0583 -0.9983 -0.0002
vn -0.0095 -0.9999 -0.0115
vn -0.0095 -0.9999 -0.0113
vn -0.0006 -0.9998 -0.0181
vn -0.0005 -0.9998 -0.0181
vn 0.0000 -0.9998 -0.0200
vn 0.0001 -0.9998 -0.0202
vn 0.0270 -0.9996 0.0004
vn 0.0270 -0.9996 0.0002
vn -0.0513 -0.9986 -0.0108
vn -0.0514 -0.9986 -0.0108
vn 0.0006 -0.9974 -0.0716
vn 0.0005 -0.9974 -0.0716
vn 0.0001 -0.9976 -0.0687
vn 0.0000 -0.9976 -0.0687
vn -0.0582 0.9983 -0.0004
vn 0.0094 0.9999 -0.0113
vn 0.0095 0.9999 -0.0113
vn 0.0006 0.9998 -0.0181
vn 0.0006 0.9998 -0.0179
vn 0.0001 0.9998 -0.0202
vn 0.0000 0.9998 -0.0200
vn -0.0270 0.9996 0.0004
vn -0.0271 0.9996 0.0004
vn 0.0514 0.9986 -0.0106
vn 0.0514 0.9986 -0.0111
vn -0.0005 0.9974 -0.0714
vn -0.0004 0.9974 -0.0718
vn 0.0000 0.9976 -0.0687
vn 0.0001 0.9976 -0.0687
vn 0.7251 -0.0001 -0.6886
vn 0.7183 0.0001 0.6957
vn 0.7175 0.0001 0.6965
vn 0.7104 -0.0001 -0.7038
vn -0.7106 -0.0001 0.7036
vn -0.7253 -0.0001 0.6885
vn -0.7175 0.0001 -0.6965
vn -0.7183 0.0001 -0.6958
vn 1.0000 0.0001 0.0002
vn 1.0000 0.0000 -0.0002
vn 1.0000 -0.0001 -0.0004
vn 0.0001 0.0000 1.0000
vn 0.0003 -0.0002 1.0000
vn -0.0001 0.0000 1.0000
vn -0.0003 0.0002 1.0000
vn -1.0000 0.0001 -0.0000
vn -1.0000 0.0000 0.0002
vn -1.0000 -0.0001 0.0004
vn -0.0001 0.0000 -1.0000
vn -0.0002 -0.0002 -1.0000
vn 0.0002 0.0002 -1.0000
# 334 vertex normals

vt 0.4010 0.0143 0.0000
vt 0.5592 0.0157 0.0000
vt 0.5600 0.1871 0.0000
vt 0.3972 0.1856 0.0000
vt 0.2183 0.1876 0.0000
vt 0.3953 0.3959 0.0000
vt 0.2202 0.3979 0.0000
vt 0.5521 0.7824 0.0000
vt 0.3939 0.7810 0.0000
vt 0.3953 0.6096 0.0000
vt 0.5538 0.6111 0.0000
vt 0.7253 0.6159 0.0000
vt 0.5578 0.3975 0.0000
vt 0.7340 0.4029 0.0000
vt 0.2227 0.6116 0.0000
vt 0.7377 0.1928 0.0000
vt 0.5291 0.3723 0.0000
vt 0.5306 0.2217 0.0000
vt 0.4245 0.3713 0.0000
vt 0.4259 0.2207 0.0000
vt 0.1905 0.2229 0.0000
vt 0.0858 0.2241 0.0000
vt 0.0583 0.1889 0.0000
vt 0.1920 0.3735 0.0000
vt 0.0874 0.3746 0.0000
vt 0.0587 0.3996 0.0000
vt 0.5272 0.5756 0.0000
vt 0.5287 0.4217 0.0000
vt 0.4225 0.5746 0.0000
vt 0.4240 0.4207 0.0000
vt 0.1942 0.5768 0.0000
vt 0.1926 0.4229 0.0000
vt 0.0895 0.5780 0.0000
vt 0.0628 0.6137 0.0000
vt 0.0879 0.4241 0.0000
vt 0.5966 0.9859 0.0000
vt 0.4337 0.9855 0.0000
vt 0.4340 0.7980 0.0000
vt 0.5968 0.7983 0.0000
vt 0.3205 0.9854 0.0000
vt 0.3208 0.7979 0.0000
vt 0.1576 0.9851 0.0000
vt 0.1579 0.7976 0.0000
vt 0.0444 0.9850 0.0000
vt 0.0447 0.7975 0.0000
vt 0.9840 0.0265 0.0000
vt 0.9839 0.1993 0.0000
vt 0.7892 0.1993 0.0000
vt 0.7893 0.0265 0.0000
vt 0.9840 0.3168 0.0000
vt 0.7893 0.3168 0.0000
vt 0.9838 0.4896 0.0000
vt 0.7892 0.4896 0.0000
vt 0.9839 0.6071 0.0000
vt 0.7892 0.6071 0.0000
# 55 texture coords

g ConcreteBricks
usemtl ConcreteBricksMat
s off
f 1/1/1 2/2/2 3/3/2 4/4/1 
f 1/5/3 4/4/3 5/6/4 6/7/5 
f 7/8/6 8/9/7 9/10/7 10/11/6 
f 7/12/8 10/11/8 11/13/9 12/14/10 
f 6/7/5 5/6/4 9/10/11 8/15/11 
f 12/14/10 11/13/9 3/3/12 2/16/12 
f 13/17/13 14/18/14 3/3/15 11/13/16 
f 15/19/17 13/17/18 11/13/19 5/6/20 
f 16/20/21 15/19/22 5/6/23 4/4/24 
f 14/18/25 16/20/26 4/4/27 3/3/27 
f 17/21/28 18/22/29 2/23/30 1/5/30 
f 19/24/31 17/21/32 1/5/33 6/7/34 
f 20/25/35 19/24/35 6/7/36 12/26/37 
f 18/22/38 20/25/39 12/26/40 2/23/40 
f 21/27/41 22/28/42 11/13/43 10/11/44 
f 23/29/45 21/27/46 10/11/47 9/10/47 
f 24/30/48 23/29/49 9/10/50 5/6/51 
f 22/28/52 24/30/53 5/6/54 11/13/55 
f 25/31/56 26/32/57 6/7/58 8/15/59 
f 27/33/60 25/31/61 8/15/62 7/34/62 
f 28/35/63 27/33/64 7/34/65 12/26/66 
f 26/32/67 28/35/68 12/26/69 6/7/70 
f 14/36/71 13/37/72 20/38/73 18/39/74 
f 13/37/72 15/40/75 19/41/76 20/38/73 
f 15/40/75 16/42/77 17/43/78 19/41/76 
f 16/42/77 14/44/71 18/45/74 17/43/78 
f 22/46/4 21/47/79 27/48/5 28/49/80 
f 21/47/1 23/50/81 25/51/2 27/48/82 
f 23/50/9 24/52/83 26/53/9 25/51/84 
f 24/52/85 22/54/86 28/55/6 26/53/87 
f 29/1/88 30/2/88 31/3/88 32/4/88 
f 29/5/89 32/4/89 33/6/90 34/7/91 
f 35/8/92 36/9/93 37/10/93 38/11/92 
f 35/12/94 38/11/94 39/13/95 40/14/96 
f 34/7/91 33/6/90 37/10/97 36/15/97 
f 40/14/96 39/13/95 31/3/98 30/16/98 
f 41/17/99 42/18/100 31/3/101 39/13/102 
f 43/19/103 41/17/103 39/13/104 33/6/104 
f 44/20/105 43/19/106 33/6/107 32/4/107 
f 42/18/108 44/20/109 32/4/110 31/3/111 
f 45/21/112 46/22/113 30/23/114 29/5/115 
f 47/24/116 45/21/117 29/5/118 34/7/119 
f 48/25/120 47/24/120 34/7/121 40/26/121 
f 46/22/122 48/25/122 40/26/123 30/23/124 
f 49/27/125 50/28/126 39/13/127 38/11/128 
f 51/29/129 49/27/129 38/11/130 37/10/131 
f 52/30/132 51/29/132 37/10/133 33/6/134 
f 50/28/135 52/30/136 33/6/137 39/13/138 
f 53/31/139 54/32/140 34/7/141 36/15/142 
f 55/33/143 53/31/144 36/15/145 35/34/146 
f 56/35/147 55/33/147 35/34/148 40/26/149 
f 54/32/150 56/35/150 40/26/151 34/7/152 
f 42/36/153 41/37/154 48/38/155 46/39/156 
f 41/37/154 43/40/157 47/41/158 48/38/155 
f 43/40/157 44/42/159 45/43/160 47/41/158 
f 44/42/159 42/44/153 46/45/156 45/43/160 
f 50/46/90 49/47/161 55/48/162 56/49/163 
f 49/47/164 51/50/165 53/51/166 55/48/167 
f 51/50/95 52/52/168 54/53/95 53/51/169 
f 52/52/170 50/54/171 56/55/93 54/53/172 
f 57/1/173 58/2/174 59/3/174 60/4/173 
f 57/5/175 60/4/175 61/6/176 62/7/177 
f 63/8/178 64/9/178 65/10/178 66/11/178 
f 63/12/179 66/11/179 67/13/180 68/14/181 
f 62/7/177 61/6/176 65/10/182 64/15/182 
f 68/14/181 67/13/180 59/3/183 58/16/183 
f 69/17/184 70/18/184 59/3/185 67/13/185 
f 71/19/186 69/17/187 67/13/188 61/6/189 
f 72/20/190 71/19/190 61/6/191 60/4/192 
f 70/18/193 72/20/194 60/4/195 59/3/195 
f 73/21/196 74/22/197 58/23/198 57/5/198 
f 75/24/199 73/21/199 57/5/200 62/7/200 
f 76/25/201 75/24/202 62/7/203 68/26/204 
f 74/22/205 76/25/206 68/26/207 58/23/208 
f 77/27/209 78/28/210 67/13/211 66/11/211 
f 79/29/212 77/27/212 66/11/213 65/10/213 
f 80/30/214 79/29/215 65/10/216 61/6/216 
f 78/28/217 80/30/217 61/6/218 67/13/218 
f 81/31/219 82/32/220 62/7/221 64/15/222 
f 83/33/223 81/31/223 64/15/224 63/34/224 
f 84/35/225 83/33/226 63/34/227 68/26/228 
f 82/32/229 84/35/229 68/26/230 62/7/230 
f 70/36/231 69/37/232 76/38/233 74/39/234 
f 69/37/232 71/40/235 75/41/236 76/38/233 
f 71/40/235 72/42/237 73/43/238 75/41/236 
f 72/42/237 70/44/231 74/45/234 73/43/238 
f 78/46/177 77/47/239 83/48/176 84/49/240 
f 77/47/173 79/50/241 81/51/174 83/48/242 
f 79/50/243 80/52/244 82/53/180 81/51/245 
f 80/52/246 78/54/247 84/55/248 82/53/249 
f 85/1/95 86/2/95 87/3/95 88/4/95 
f 85/5/250 88/4/250 89/6/88 90/7/251 
f 91/8/162 92/9/252 93/10/252 94/11/162 
f 91/12/253 94/11/253 95/13/254 96/14/92 
f 90/7/251 89/6/88 93/10/255 92/15/255 
f 96/14/92 95/13/254 87/3/256 86/16/256 
f 97/17/257 98/18/258 87/3/259 95/13/260 
f 99/19/261 97/17/262 95/13/263 89/6/263 
f 100/20/264 99/19/265 89/6/266 88/4/266 
f 98/18/267 100/20/268 88/4/269 87/3/269 
f 101/21/270 102/22/271 86/23/272 85/5/272 
f 103/24/273 101/21/273 85/5/274 90/7/275 
f 104/25/276 103/24/277 90/7/278 96/26/278 
f 102/22/279 104/25/280 96/26/281 86/23/282 
f 105/27/283 106/28/284 95/13/285 94/11/286 
f 107/29/287 105/27/288 94/11/289 93/10/290 
f 108/30/291 107/29/292 93/10/293 89/6/294 
f 106/28/295 108/30/296 89/6/297 95/13/298 
f 109/31/299 110/32/299 90/7/300 92/15/301 
f 111/33/302 109/31/303 92/15/304 91/34/305 
f 112/35/306 111/33/307 91/34/308 96/26/309 
f 110/32/310 112/35/311 96/26/312 90/7/313 
f 98/36/314 97/37/315 104/38/316 102/39/317 
f 97/37/315 99/40/318 103/41/319 104/38/316 
f 99/40/318 100/42/320 101/43/321 103/41/319 
f 100/42/320 98/44/314 102/45/317 101/43/321 
f 106/46/251 105/47/322 111/48/323 112/49/324 
f 105/47/325 107/50/326 109/51/327 111/48/328 
f 107/50/92 108/52/329 110/53/330 109/51/331 
f 108/52/332 106/54/333 112/55/252 110/53/334 
f 113/1/173 114/2/174 115/3/174 116/4/173 
f 113/5/175 116/4/175 117/6/176 118/7/177 
f 119/8/178 120/9/178 121/10/178 122/11/178 
f 119/12/179 122/11/179 123/13/180 124/14/181 
f 118/7/177 117/6/176 121/10/182 120/15/182 
f 124/14/181 123/13/180 115/3/183 114/16/183 
f 125/17/184 126/18/184 115/3/185 123/13/185 
f 127/19/186 125/17/187 123/13/188 117/6/189 
f 128/20/190 127/19/190 117/6/191 116/4/192 
f 126/18/193 128/20/194 116/4/195 115/3/195 
f 129/21/196 130/22/197 114/23/198 113/5/198 
f 131/24/199 129/21/199 113/5/200 118/7/200 
f 132/25/201 131/24/202 118/7/203 124/26/204 
f 130/22/205 132/25/206 124/26/207 114/23/208 
f 133/27/209 134/28/210 123/13/211 122/11/211 
f 135/29/212 133/27/212 122/11/213 121/10/213 
f 136/30/214 135/29/215 121/10/216 117/6/216 
f 134/28/217 136/30/217 117/6/218 123/13/218 
f 137/31/219 138/32/220 118/7/221 120/15/222 
f 139/33/223 137/31/223 120/15/224 119/34/224 
f 140/35/225 139/33/226 119/34/227 124/26/228 
f 138/32/229 140/35/229 124/26/230 118/7/230 
f 126/36/231 125/37/232 132/38/233 130/39/234 
f 125/37/232 127/40/235 131/41/236 132/38/233 
f 127/40/235 128/42/237 129/43/238 131/41/236 
f 128/42/237 126/44/231 130/45/234 129/43/238 
f 134/46/177 133/47/239 139/48/176 140/49/240 
f 133/47/173 135/50/241 137/51/174 139/48/242 
f 135/50/243 136/52/244 138/53/180 137/51/245 
f 136/52/246 134/54/247 140/55/248 138/53/249 
# 150 polygons

