# 3ds Max Wavefront OBJ Exporter v0.97b - (c)2007 guruware
# File Created: 16.06.2013 01:12:09

mtllib Roadblock_wood1_1.mtl

#
# object roadblock_wood1_1
#

v  -0.3180 -0.3689 -0.2295
v  -0.3180 -0.3877 -0.2619
v  -0.3180 -0.3877 0.2619
v  -0.3180 -0.3689 0.2295
v  -0.2626 -0.3689 -0.2295
v  -0.2626 -0.3689 0.2295
v  -0.2626 -0.3877 0.2619
v  -0.2626 -0.3877 -0.2619
v  -0.5043 0.2741 0.0255
v  -0.5043 0.2741 0.0110
v  0.5043 0.2741 0.0110
v  0.5043 0.2741 0.0255
v  -0.5043 0.3877 0.0255
v  0.5043 0.3877 0.0255
v  0.5043 0.3877 0.0110
v  -0.5043 0.3877 0.0110
v  -0.5043 0.2806 0.0277
v  0.5043 0.2806 0.0277
v  0.5043 0.3813 0.0277
v  -0.5043 0.3813 0.0277
v  0.5097 0.2789 0.0249
v  0.5097 0.2789 0.0117
v  0.5097 0.2826 0.0105
v  0.5097 0.3793 0.0105
v  0.5097 0.3829 0.0117
v  0.5097 0.3793 0.0261
v  0.5097 0.3829 0.0249
v  0.5097 0.2826 0.0261
v  0.5043 0.2806 0.0089
v  -0.5043 0.2806 0.0089
v  -0.5043 0.3813 0.0089
v  0.5043 0.3813 0.0089
v  -0.5097 0.2789 0.0117
v  -0.5097 0.2789 0.0249
v  -0.5097 0.2826 0.0261
v  -0.5097 0.3793 0.0261
v  -0.5097 0.3829 0.0249
v  -0.5097 0.3793 0.0105
v  -0.5097 0.3829 0.0117
v  -0.5097 0.2826 0.0105
v  -0.2710 -0.3665 0.0032
v  -0.2802 -0.3665 -0.0128
v  -0.2802 0.3774 -0.0128
v  -0.2710 0.3774 0.0032
v  -0.2987 -0.3665 -0.0128
v  -0.2987 0.3774 -0.0128
v  -0.3079 -0.3665 0.0032
v  -0.3079 0.3774 0.0032
v  -0.2987 -0.3665 0.0192
v  -0.2987 0.3774 0.0192
v  -0.2802 -0.3665 0.0192
v  -0.2802 0.3774 0.0192
v  0.2799 -0.3665 0.0032
v  0.2707 -0.3665 -0.0128
v  0.2707 0.3774 -0.0128
v  0.2799 0.3774 0.0032
v  0.2522 -0.3665 -0.0128
v  0.2522 0.3774 -0.0128
v  0.2430 -0.3665 0.0032
v  0.2430 0.3774 0.0032
v  0.2522 -0.3665 0.0192
v  0.2522 0.3774 0.0192
v  0.2707 -0.3665 0.0192
v  0.2707 0.3774 0.0192
v  0.2345 -0.3689 -0.2295
v  0.2345 -0.3877 -0.2619
v  0.2345 -0.3877 0.2619
v  0.2345 -0.3689 0.2295
v  0.2898 -0.3689 -0.2295
v  0.2898 -0.3689 0.2295
v  0.2898 -0.3877 0.2619
v  0.2898 -0.3877 -0.2619
v  -0.5043 0.0662 0.0255
v  -0.5043 0.0662 0.0110
v  0.5043 0.0662 0.0110
v  0.5043 0.0662 0.0255
v  -0.5043 0.1799 0.0255
v  0.5043 0.1799 0.0255
v  0.5043 0.1799 0.0110
v  -0.5043 0.1799 0.0110
v  -0.5043 0.0727 0.0277
v  0.5043 0.0727 0.0277
v  0.5043 0.1734 0.0277
v  -0.5043 0.1734 0.0277
v  0.5097 0.0711 0.0249
v  0.5097 0.0711 0.0117
v  0.5097 0.0747 0.0105
v  0.5097 0.1714 0.0105
v  0.5097 0.1750 0.0117
v  0.5097 0.1714 0.0261
v  0.5097 0.1750 0.0249
v  0.5097 0.0747 0.0261
v  0.5043 0.0727 0.0089
v  -0.5043 0.0727 0.0089
v  -0.5043 0.1734 0.0089
v  0.5043 0.1734 0.0089
v  -0.5097 0.0711 0.0117
v  -0.5097 0.0711 0.0249
v  -0.5097 0.0747 0.0261
v  -0.5097 0.1714 0.0261
v  -0.5097 0.1750 0.0249
v  -0.5097 0.1714 0.0105
v  -0.5097 0.1750 0.0117
v  -0.5097 0.0747 0.0105
v  -0.5043 -0.1351 0.0255
v  -0.5043 -0.1351 0.0110
v  0.5043 -0.1351 0.0110
v  0.5043 -0.1351 0.0255
v  -0.5043 -0.0215 0.0255
v  0.5043 -0.0215 0.0255
v  0.5043 -0.0215 0.0110
v  -0.5043 -0.0215 0.0110
v  -0.5043 -0.1286 0.0277
v  0.5043 -0.1286 0.0277
v  0.5043 -0.0280 0.0277
v  -0.5043 -0.0280 0.0277
v  0.5097 -0.1303 0.0249
v  0.5097 -0.1303 0.0117
v  0.5097 -0.1266 0.0105
v  0.5097 -0.0300 0.0105
v  0.5097 -0.0263 0.0117
v  0.5097 -0.0300 0.0261
v  0.5097 -0.0263 0.0249
v  0.5097 -0.1266 0.0261
v  0.5043 -0.1286 0.0089
v  -0.5043 -0.1286 0.0089
v  -0.5043 -0.0280 0.0089
v  0.5043 -0.0280 0.0089
v  -0.5097 -0.1303 0.0117
v  -0.5097 -0.1303 0.0249
v  -0.5097 -0.1266 0.0261
v  -0.5097 -0.0300 0.0261
v  -0.5097 -0.0263 0.0249
v  -0.5097 -0.0300 0.0105
v  -0.5097 -0.0263 0.0117
v  -0.5097 -0.1266 0.0105
v  -0.2631 0.3663 0.0414
v  0.2022 0.3663 0.0414
v  0.2147 0.3650 0.0414
v  0.2222 0.3610 0.0414
v  0.2247 0.3543 0.0414
v  0.2247 0.1052 0.0414
v  0.2222 0.0985 0.0414
v  0.2147 0.0945 0.0414
v  0.2022 0.0932 0.0414
v  -0.2855 0.1052 0.0414
v  -0.2631 0.0932 0.0414
v  -0.2755 0.0945 0.0414
v  -0.2830 0.0985 0.0414
v  -0.2755 0.3650 0.0414
v  -0.2830 0.3610 0.0414
v  -0.2855 0.3543 0.0414
v  0.2247 0.1052 0.0483
v  0.2247 0.3543 0.0483
v  0.2222 0.3610 0.0483
v  0.2147 0.3650 0.0483
v  0.2022 0.3663 0.0483
v  -0.2631 0.3663 0.0483
v  -0.2755 0.3650 0.0483
v  -0.2830 0.3610 0.0483
v  -0.2855 0.3543 0.0483
v  -0.2631 0.0932 0.0483
v  -0.2855 0.1052 0.0483
v  -0.2830 0.0985 0.0483
v  -0.2755 0.0945 0.0483
v  0.2222 0.0985 0.0483
v  0.2147 0.0945 0.0483
v  0.2022 0.0932 0.0483
# 168 vertices

vn -1.0000 0.0000 -0.0000
vn 1.0000 0.0000 -0.0000
vn 0.0000 1.0000 -0.0000
vn 0.0000 0.8652 0.5015
vn 0.0000 -1.0000 -0.0000
vn 0.0000 0.8652 -0.5015
vn 0.0000 0.8651 -0.5016
vn 0.0000 0.0000 1.0000
vn 0.0000 0.0000 -1.0000
vn 0.0000 -0.3146 -0.9492
vn 0.0000 -0.3147 -0.9492
vn 0.0000 -0.3146 0.9492
vn 0.0000 -0.3147 0.9492
vn 0.0000 0.3146 0.9492
vn 0.0000 0.3146 -0.9492
vn 0.6658 -0.7461 -0.0000
vn 0.3690 -0.2924 -0.8822
vn 0.2836 0.0000 -0.9589
vn 0.3690 0.2924 -0.8822
vn 0.6658 0.7461 -0.0000
vn 0.3690 0.2924 0.8822
vn 0.2836 0.0000 0.9589
vn 0.3690 -0.2924 0.8822
vn -0.6658 -0.7461 -0.0000
vn -0.3690 -0.2924 0.8822
vn -0.2836 0.0000 0.9589
vn -0.2837 0.0000 0.9589
vn -0.3690 0.2924 0.8822
vn -0.6658 0.7461 -0.0000
vn -0.3690 0.2924 -0.8822
vn -0.3690 0.2925 -0.8822
vn -0.2836 0.0000 -0.9589
vn -0.2837 0.0000 -0.9589
vn -0.3690 -0.2924 -0.8822
vn 0.6483 0.0000 -0.7614
vn -0.6483 0.0000 -0.7614
vn -0.6483 0.0000 0.7614
vn 0.6483 0.0000 0.7614
vn 0.0000 0.3145 0.9492
vn 0.0000 0.3147 -0.9492
vn 0.3691 -0.2925 -0.8822
vn 0.2838 0.0000 -0.9589
vn 0.3691 0.2924 -0.8822
vn 0.2835 0.0000 0.9590
vn 0.3691 -0.2925 0.8822
vn -0.2835 0.0000 0.9590
vn -0.3691 0.2924 -0.8822
vn -0.2838 0.0000 -0.9589
vn -0.3691 -0.2925 -0.8822
vn 0.0000 -0.3144 0.9493
vn 0.0000 0.3144 0.9493
vn 0.3692 -0.2924 -0.8822
vn 0.2839 0.0000 -0.9588
vn 0.3691 0.2923 -0.8822
vn 0.2833 0.0000 0.9590
vn -0.2833 0.0000 0.9590
vn -0.3692 0.2923 -0.8822
vn -0.2839 0.0000 -0.9588
vn -0.3692 -0.2924 -0.8822
vn -0.1065 0.9943 -0.0000
vn 0.1065 0.9943 -0.0000
vn 0.9368 -0.3499 -0.0000
vn -0.1065 -0.9943 -0.0000
vn -0.4720 0.8816 -0.0000
vn -0.9368 0.3500 -0.0000
vn 0.4720 0.8816 -0.0000
vn 0.9368 0.3499 -0.0000
vn 0.4720 -0.8816 -0.0000
vn 0.1065 -0.9943 -0.0000
vn -0.4720 -0.8816 -0.0000
vn -0.9368 -0.3500 -0.0000
# 71 vertex normals

vt 0.1632 0.4469 0.0000
vt 0.1463 0.4751 0.0000
vt 0.1531 0.0166 0.0000
vt 0.1691 0.0453 0.0000
vt 0.2117 0.4476 0.0000
vt 0.2176 0.0460 0.0000
vt 0.2345 0.0178 0.0000
vt 0.2277 0.4763 0.0000
vt 0.1696 0.0124 0.0000
vt 0.2181 0.0132 0.0000
vt 0.1135 0.0050 0.0000
vt 0.1114 0.4853 0.0000
vt 0.0516 0.4845 0.0000
vt 0.0618 0.0056 0.0000
vt 0.1627 0.4798 0.0000
vt 0.2112 0.4805 0.0000
vt 0.8592 0.8160 0.0000
vt 0.8466 0.8170 0.0000
vt 0.8574 0.0370 0.0000
vt 0.8701 0.0385 0.0000
vt 0.9600 0.8169 0.0000
vt 0.9704 0.0356 0.0000
vt 0.9829 0.0343 0.0000
vt 0.9727 0.8184 0.0000
vt 0.8652 0.8171 0.0000
vt 0.8760 0.0373 0.0000
vt 0.9644 0.0346 0.0000
vt 0.9541 0.8180 0.0000
vt 0.8724 0.0319 0.0000
vt 0.8714 0.0217 0.0000
vt 0.8746 0.0206 0.0000
vt 0.6960 0.8369 0.0000
vt 0.8073 0.8365 0.0000
vt 0.8104 0.8462 0.0000
vt 0.9656 0.0185 0.0000
vt 0.9646 0.0300 0.0000
vt 0.9676 0.0286 0.0000
vt 0.8758 0.0327 0.0000
vt 0.6927 0.8191 0.0000
vt 0.7147 0.0428 0.0000
vt 0.8090 0.0685 0.0000
vt 0.8149 0.8196 0.0000
vt 0.8619 0.8330 0.0000
vt 0.8616 0.8228 0.0000
vt 0.8648 0.8218 0.0000
vt 0.9542 0.8226 0.0000
vt 0.9575 0.8235 0.0000
vt 0.9530 0.8345 0.0000
vt 0.9564 0.8338 0.0000
vt 0.7227 0.0258 0.0000
vt 0.7236 0.0156 0.0000
vt 0.8079 0.0507 0.0000
vt 0.6974 0.0430 0.0000
vt 0.6750 0.8163 0.0000
vt 0.8330 0.8194 0.0000
vt 0.8263 0.0725 0.0000
vt 0.8599 0.0318 0.0000
vt 0.8723 0.0332 0.0000
vt 0.6835 0.8368 0.0000
vt 0.8199 0.8384 0.0000
vt 0.9680 0.0306 0.0000
vt 0.9806 0.0288 0.0000
vt 0.8614 0.8211 0.0000
vt 0.8487 0.8226 0.0000
vt 0.9577 0.8221 0.0000
vt 0.9701 0.8237 0.0000
vt 0.8202 0.0515 0.0000
vt 0.7101 0.0237 0.0000
vt 0.6163 0.0359 0.0000
vt 0.6451 0.0407 0.0000
vt 0.6375 0.7385 0.0000
vt 0.6087 0.7428 0.0000
vt 0.6752 0.0436 0.0000
vt 0.6677 0.7361 0.0000
vt 0.5072 0.0422 0.0000
vt 0.5375 0.0398 0.0000
vt 0.5299 0.7376 0.0000
vt 0.4997 0.7347 0.0000
vt 0.5663 0.0355 0.0000
vt 0.5586 0.7424 0.0000
vt 0.5913 0.0342 0.0000
vt 0.5836 0.7441 0.0000
vt 0.8318 0.9263 0.0000
vt 0.8023 0.9093 0.0000
vt 0.7729 0.9263 0.0000
vt 0.7729 0.9603 0.0000
vt 0.8023 0.9773 0.0000
vt 0.8318 0.9603 0.0000
vt 0.8494 0.9608 0.0000
vt 0.8494 0.9268 0.0000
vt 0.8788 0.9098 0.0000
vt 0.9083 0.9608 0.0000
vt 0.9083 0.9268 0.0000
vt 0.8788 0.9778 0.0000
vt 0.6149 0.0420 0.0000
vt 0.6430 0.0466 0.0000
vt 0.6356 0.7297 0.0000
vt 0.6074 0.7339 0.0000
vt 0.6725 0.0495 0.0000
vt 0.6651 0.7274 0.0000
vt 0.5081 0.0482 0.0000
vt 0.5377 0.0458 0.0000
vt 0.5302 0.7289 0.0000
vt 0.5007 0.7261 0.0000
vt 0.5658 0.0416 0.0000
vt 0.5583 0.7335 0.0000
vt 0.5904 0.0403 0.0000
vt 0.5829 0.7352 0.0000
vt 0.7610 0.9303 0.0000
vt 0.7316 0.9133 0.0000
vt 0.7021 0.9303 0.0000
vt 0.7021 0.9642 0.0000
vt 0.7316 0.9812 0.0000
vt 0.7610 0.9642 0.0000
vt 0.9191 0.9605 0.0000
vt 0.9191 0.9265 0.0000
vt 0.9486 0.9095 0.0000
vt 0.9780 0.9605 0.0000
vt 0.9780 0.9265 0.0000
vt 0.9486 0.9775 0.0000
vt 0.2749 0.4437 0.0000
vt 0.2580 0.4719 0.0000
vt 0.2648 0.0134 0.0000
vt 0.2809 0.0420 0.0000
vt 0.3234 0.4444 0.0000
vt 0.3293 0.0428 0.0000
vt 0.3462 0.0146 0.0000
vt 0.3395 0.4731 0.0000
vt 0.2813 0.0092 0.0000
vt 0.3298 0.0099 0.0000
vt 0.4331 0.0082 0.0000
vt 0.4310 0.4886 0.0000
vt 0.3713 0.4878 0.0000
vt 0.3815 0.0088 0.0000
vt 0.2745 0.4765 0.0000
vt 0.3229 0.4772 0.0000
vt 0.4741 0.9890 0.0000
vt 0.2378 0.9919 0.0000
vt 0.2314 0.9913 0.0000
vt 0.2276 0.9893 0.0000
vt 0.2263 0.9861 0.0000
vt 0.2245 0.8645 0.0000
vt 0.2258 0.8612 0.0000
vt 0.2296 0.8592 0.0000
vt 0.2360 0.8586 0.0000
vt 0.4838 0.8615 0.0000
vt 0.4723 0.8557 0.0000
vt 0.4787 0.8563 0.0000
vt 0.4826 0.8582 0.0000
vt 0.4805 0.9883 0.0000
vt 0.4843 0.9864 0.0000
vt 0.4856 0.9831 0.0000
vt 0.4935 0.5350 0.0000
vt 0.4969 0.8078 0.0000
vt 0.4946 0.8146 0.0000
vt 0.4883 0.8192 0.0000
vt 0.4777 0.8219 0.0000
vt 0.0411 0.8307 0.0000
vt 0.0296 0.8294 0.0000
vt 0.0231 0.8251 0.0000
vt 0.0204 0.8186 0.0000
vt 0.0379 0.5306 0.0000
vt 0.0186 0.5446 0.0000
vt 0.0209 0.5378 0.0000
vt 0.0272 0.5332 0.0000
vt 0.4908 0.5284 0.0000
vt 0.4843 0.5241 0.0000
vt 0.4729 0.5228 0.0000
vt 0.4792 0.8295 0.0000
vt 0.0400 0.8381 0.0000
vt 0.4992 0.5307 0.0000
vt 0.5028 0.8111 0.0000
vt 0.0364 0.5230 0.0000
vt 0.4741 0.5154 0.0000
vt 0.0147 0.8230 0.0000
vt 0.0127 0.5412 0.0000
vt 0.0269 0.8359 0.0000
vt 0.4921 0.8253 0.0000
vt 0.4949 0.5233 0.0000
vt 0.0235 0.5271 0.0000
vt 0.0191 0.8303 0.0000
vt 0.4995 0.8187 0.0000
vt 0.4871 0.5177 0.0000
vt 0.0161 0.5336 0.0000
# 184 texture coords

g roadblock_wood1_1
usemtl roadblock_wood1_1Mat
s off
f 1/1/1 2/2/1 3/3/1 4/4/1 
f 5/5/2 6/6/2 7/7/2 8/8/2 
f 1/1/3 4/4/3 6/6/3 5/5/3 
f 4/4/4 3/9/4 7/10/4 6/6/4 
f 3/11/5 2/12/5 8/13/5 7/14/5 
f 2/15/6 1/1/7 5/5/7 8/16/6 
f 9/17/5 10/18/5 11/19/5 12/20/5 
f 13/21/3 14/22/3 15/23/3 16/24/3 
f 17/25/8 18/26/8 19/27/8 20/28/8 
f 21/29/2 22/30/2 23/31/2 
f 23/32/2 24/33/2 25/34/2 
f 21/29/2 23/31/2 25/35/2 26/36/2 
f 25/35/2 27/37/2 26/36/2 
f 28/38/2 21/29/2 26/36/2 
f 29/39/9 30/40/9 31/41/9 32/42/9 
f 33/43/1 34/44/1 35/45/1 
f 35/45/1 36/46/1 37/47/1 
f 33/43/1 35/45/1 37/47/1 38/48/1 
f 37/47/1 39/49/1 38/48/1 
f 40/50/1 33/51/1 38/52/1 
f 10/53/10 30/40/11 29/39/10 11/54/10 
f 12/20/12 18/26/12 17/25/12 9/17/13 
f 13/21/14 20/28/14 19/27/14 14/22/14 
f 15/55/15 32/42/15 31/41/15 16/56/15 
f 12/20/16 11/19/16 22/57/16 21/58/16 
f 11/54/17 29/39/17 23/32/17 22/59/17 
f 29/39/18 32/42/18 24/33/18 23/32/18 
f 32/42/19 15/55/19 25/60/19 24/33/19 
f 15/23/20 14/22/20 27/61/20 25/62/20 
f 14/22/21 19/27/21 26/36/21 27/61/21 
f 19/27/22 18/26/22 28/38/22 26/36/22 
f 18/26/23 12/20/23 21/58/23 28/38/23 
f 10/18/24 9/17/24 34/63/24 33/64/24 
f 9/17/25 17/25/25 35/45/25 34/63/25 
f 17/25/26 20/28/26 36/46/27 35/45/27 
f 20/28/28 13/21/28 37/65/28 36/46/28 
f 13/21/29 16/24/29 39/66/29 37/65/29 
f 16/56/30 31/41/31 38/52/30 39/67/30 
f 31/41/32 30/40/32 40/50/33 38/52/33 
f 30/40/34 10/53/34 33/68/34 40/50/34 
f 41/69/2 42/70/35 43/71/35 44/72/2 
f 42/70/35 45/73/36 46/74/36 43/71/35 
f 45/75/36 47/76/1 48/77/1 46/78/36 
f 47/76/1 49/79/37 50/80/37 48/77/1 
f 49/79/37 51/81/38 52/82/38 50/80/37 
f 51/81/38 41/69/2 44/72/2 52/82/38 
f 49/83/5 47/84/5 45/85/5 
f 45/85/5 42/86/5 41/87/5 49/83/5 
f 51/88/5 49/83/5 41/87/5 
f 43/89/3 46/90/3 48/91/3 52/92/3 
f 48/91/3 50/93/3 52/92/3 
f 44/94/3 43/89/3 52/92/3 
f 53/95/2 54/96/35 55/97/35 56/98/2 
f 54/96/35 57/99/36 58/100/36 55/97/35 
f 57/101/36 59/102/1 60/103/1 58/104/36 
f 59/102/1 61/105/37 62/106/37 60/103/1 
f 61/105/37 63/107/38 64/108/38 62/106/37 
f 63/107/38 53/95/2 56/98/2 64/108/38 
f 61/109/5 59/110/5 57/111/5 
f 57/111/5 54/112/5 53/113/5 61/109/5 
f 63/114/5 61/109/5 53/113/5 
f 55/115/3 58/116/3 60/117/3 64/118/3 
f 60/117/3 62/119/3 64/118/3 
f 56/120/3 55/115/3 64/118/3 
f 65/121/1 66/122/1 67/123/1 68/124/1 
f 69/125/2 70/126/2 71/127/2 72/128/2 
f 65/121/3 68/124/3 70/126/3 69/125/3 
f 68/124/4 67/129/4 71/130/4 70/126/4 
f 67/131/5 66/132/5 72/133/5 71/134/5 
f 66/135/6 65/121/7 69/125/7 72/136/6 
f 73/17/5 74/18/5 75/19/5 76/20/5 
f 77/21/3 78/22/3 79/23/3 80/24/3 
f 81/25/8 82/26/8 83/27/8 84/28/8 
f 85/29/2 86/30/2 87/31/2 
f 87/32/2 88/33/2 89/34/2 
f 85/29/2 87/31/2 89/35/2 90/36/2 
f 89/35/2 91/37/2 90/36/2 
f 92/38/2 85/29/2 90/36/2 
f 93/39/9 94/40/9 95/41/9 96/42/9 
f 97/43/1 98/44/1 99/45/1 
f 99/45/1 100/46/1 101/47/1 
f 97/43/1 99/45/1 101/47/1 102/48/1 
f 101/47/1 103/49/1 102/48/1 
f 104/50/1 97/51/1 102/52/1 
f 74/53/11 94/40/11 93/39/11 75/54/11 
f 76/20/12 82/26/12 81/25/12 73/17/12 
f 77/21/39 84/28/39 83/27/39 78/22/39 
f 79/55/40 96/42/40 95/41/40 80/56/40 
f 76/20/16 75/19/16 86/57/16 85/58/16 
f 75/54/41 93/39/41 87/32/41 86/59/41 
f 93/39/42 96/42/42 88/33/42 87/32/42 
f 96/42/43 79/55/43 89/60/43 88/33/43 
f 79/23/20 78/22/20 91/61/20 89/62/20 
f 78/22/21 83/27/21 90/36/21 91/61/21 
f 83/27/44 82/26/44 92/38/44 90/36/44 
f 82/26/45 76/20/45 85/58/45 92/38/45 
f 74/18/24 73/17/24 98/63/24 97/64/24 
f 73/17/25 81/25/25 99/45/25 98/63/25 
f 81/25/46 84/28/46 100/46/46 99/45/46 
f 84/28/28 77/21/28 101/65/28 100/46/28 
f 77/21/29 80/24/29 103/66/29 101/65/29 
f 80/56/47 95/41/47 102/52/47 103/67/47 
f 95/41/48 94/40/48 104/50/48 102/52/48 
f 94/40/49 74/53/49 97/68/49 104/50/49 
f 105/17/5 106/18/5 107/19/5 108/20/5 
f 109/21/3 110/22/3 111/23/3 112/24/3 
f 113/25/8 114/26/8 115/27/8 116/28/8 
f 117/29/2 118/30/2 119/31/2 
f 119/32/2 120/33/2 121/34/2 
f 117/29/2 119/31/2 121/35/2 122/36/2 
f 121/35/2 123/37/2 122/36/2 
f 124/38/2 117/29/2 122/36/2 
f 125/39/9 126/40/9 127/41/9 128/42/9 
f 129/43/1 130/44/1 131/45/1 
f 131/45/1 132/46/1 133/47/1 
f 129/43/1 131/45/1 133/47/1 134/48/1 
f 133/47/1 135/49/1 134/48/1 
f 136/50/1 129/51/1 134/52/1 
f 106/53/11 126/40/11 125/39/11 107/54/11 
f 108/20/50 114/26/50 113/25/50 105/17/50 
f 109/21/51 116/28/51 115/27/51 110/22/51 
f 111/55/40 128/42/40 127/41/40 112/56/40 
f 108/20/16 107/19/16 118/57/16 117/58/16 
f 107/54/52 125/39/52 119/32/52 118/59/52 
f 125/39/53 128/42/53 120/33/53 119/32/53 
f 128/42/54 111/55/54 121/60/54 120/33/54 
f 111/23/20 110/22/20 123/61/20 121/62/20 
f 110/22/21 115/27/21 122/36/21 123/61/21 
f 115/27/55 114/26/55 124/38/55 122/36/55 
f 114/26/45 108/20/45 117/58/45 124/38/45 
f 106/18/24 105/17/24 130/63/24 129/64/24 
f 105/17/25 113/25/25 131/45/25 130/63/25 
f 113/25/56 116/28/56 132/46/56 131/45/56 
f 116/28/28 109/21/28 133/65/28 132/46/28 
f 109/21/29 112/24/29 135/66/29 133/65/29 
f 112/56/57 127/41/57 134/52/57 135/67/57 
f 127/41/58 126/40/58 136/50/58 134/52/58 
f 126/40/59 106/53/59 129/68/59 136/50/59 
f 137/137/9 138/138/9 139/139/9 
f 137/137/9 139/139/9 140/140/9 141/141/9 
f 141/141/9 142/142/9 143/143/9 
f 141/141/9 143/143/9 144/144/9 145/145/9 
f 137/137/9 141/141/9 145/145/9 146/146/9 
f 145/145/9 147/147/9 148/148/9 
f 145/145/9 148/148/9 149/149/9 146/146/9 
f 150/150/9 137/137/9 146/146/9 151/151/9 
f 152/152/9 151/151/9 146/146/9 
f 153/153/8 154/154/8 155/155/8 
f 153/153/8 155/155/8 156/156/8 157/157/8 
f 157/157/8 158/158/8 159/159/8 
f 157/157/8 159/159/8 160/160/8 161/161/8 
f 153/153/8 157/157/8 161/161/8 162/162/8 
f 161/161/8 163/163/8 164/164/8 
f 161/161/8 164/164/8 165/165/8 162/162/8 
f 166/166/8 153/153/8 162/162/8 167/167/8 
f 168/168/8 167/167/8 162/162/8 
f 158/158/3 157/157/3 138/169/3 137/170/3 
f 154/154/2 153/153/2 142/171/2 141/172/2 
f 168/168/5 162/162/5 147/173/5 145/174/5 
f 163/163/1 161/161/1 152/175/1 146/176/1 
f 159/159/60 158/158/60 137/170/60 150/177/60 
f 139/178/61 138/169/61 157/157/61 156/156/61 
f 143/179/62 142/171/62 153/153/62 166/166/62 
f 148/180/63 147/173/63 162/162/63 165/165/63 
f 160/160/64 159/159/64 150/177/64 151/181/64 
f 161/161/65 160/160/65 151/181/65 152/175/65 
f 140/182/66 139/178/66 156/156/66 155/155/66 
f 141/172/67 140/182/67 155/155/67 154/154/67 
f 144/183/68 143/179/68 166/166/68 167/167/68 
f 145/174/69 144/183/69 167/167/69 168/168/69 
f 149/184/70 148/180/70 165/165/70 164/164/70 
f 146/176/71 149/184/71 164/164/71 163/163/71 
# 132 polygons - 40 triangles

