# 3ds Max Wavefront OBJ Exporter v0.97b - (c)2007 guruware
# File Created: 12.08.2014 01:58:20

mtllib Whehls.mtl

#
# object Cylinder001
#

v  88.3984 0.0000 -0.6038
v  83.2203 0.0000 -29.9702
v  87.9417 13.5328 -31.6887
v  93.4229 13.5328 -0.6038
v  68.3106 0.0000 -55.7946
v  72.1595 13.5328 -59.0243
v  45.4675 0.0000 -74.9622
v  47.9798 13.5328 -79.3135
v  17.4464 0.0000 -85.1610
v  18.3189 13.5328 -90.1092
v  -12.3730 0.0000 -85.1610
v  -13.2455 13.5328 -90.1092
v  -40.3941 0.0000 -74.9622
v  -42.9064 13.5328 -79.3135
v  -63.2371 0.0000 -55.7946
v  -67.0861 13.5328 -59.0243
v  -78.1469 0.0000 -29.9702
v  -82.8683 13.5328 -31.6887
v  -83.3249 0.0000 -0.6038
v  -88.3494 13.5328 -0.6038
v  -78.1469 0.0000 28.7626
v  -82.8683 13.5328 30.4811
v  -63.2371 0.0000 54.5870
v  -67.0861 13.5328 57.8167
v  -40.3941 0.0000 73.7546
v  -42.9064 13.5328 78.1059
v  -12.3730 0.0000 83.9534
v  -13.2455 13.5328 88.9016
v  17.4464 0.0000 83.9535
v  18.3189 13.5328 88.9016
v  45.4675 0.0000 73.7546
v  47.9797 13.5328 78.1059
v  68.3105 0.0000 54.5871
v  72.1595 13.5328 57.8167
v  83.2203 0.0000 28.7627
v  87.9417 13.5328 30.4812
v  87.9417 27.0656 -31.6887
v  93.4229 27.0656 -0.6038
v  72.1595 27.0656 -59.0243
v  47.9798 27.0656 -79.3135
v  18.3189 27.0656 -90.1092
v  -13.2455 27.0656 -90.1092
v  -42.9064 27.0656 -79.3135
v  -67.0861 27.0656 -59.0243
v  -82.8683 27.0656 -31.6887
v  -88.3494 27.0656 -0.6038
v  -82.8683 27.0656 30.4811
v  -67.0861 27.0656 57.8167
v  -42.9064 27.0656 78.1059
v  -13.2455 27.0656 88.9016
v  18.3189 27.0656 88.9016
v  47.9797 27.0656 78.1059
v  72.1595 27.0656 57.8167
v  87.9417 27.0656 30.4812
v  83.2203 40.5984 -29.9702
v  88.3984 40.5984 -0.6038
v  68.3106 40.5984 -55.7946
v  45.4675 40.5984 -74.9622
v  17.4464 40.5984 -85.1610
v  -12.3730 40.5984 -85.1610
v  -40.3941 40.5984 -74.9622
v  -63.2371 40.5984 -55.7946
v  -78.1469 40.5984 -29.9702
v  -83.3249 40.5984 -0.6038
v  -78.1469 40.5984 28.7626
v  -63.2371 40.5984 54.5870
v  -40.3941 40.5984 73.7546
v  -12.3730 40.5984 83.9534
v  17.4464 40.5984 83.9535
v  45.4675 40.5984 73.7546
v  68.3105 40.5984 54.5871
v  83.2203 40.5984 28.7627
v  67.8649 -5.0019 -0.6038
v  63.9251 -5.0019 -22.9473
v  63.9251 -5.0019 21.7398
v  52.5810 -5.0019 41.3884
v  35.2008 -5.0019 55.9721
v  13.8808 -5.0019 63.7319
v  -8.8074 -5.0019 63.7319
v  -30.1274 -5.0019 55.9721
v  -47.5076 -5.0019 41.3884
v  -58.8517 -5.0019 21.7398
v  -62.7915 -5.0019 -0.6038
v  -58.8517 -5.0019 -22.9473
v  -47.5076 -5.0019 -42.5959
v  -30.1274 -5.0019 -57.1797
v  -8.8074 -5.0019 -64.9395
v  13.8808 -5.0019 -64.9395
v  35.2008 -5.0019 -57.1797
v  52.5810 -5.0019 -42.5959
v  63.9251 45.6003 -22.9473
v  67.8649 45.6003 -0.6038
v  52.5810 45.6003 -42.5959
v  35.2008 45.6003 -57.1797
v  13.8808 45.6003 -64.9395
v  -8.8074 45.6003 -64.9395
v  -30.1274 45.6003 -57.1797
v  -47.5076 45.6003 -42.5959
v  -58.8517 45.6003 -22.9473
v  -62.7915 45.6003 -0.6038
v  -58.8517 45.6003 21.7398
v  -47.5076 45.6003 41.3884
v  -30.1274 45.6003 55.9721
v  -8.8074 45.6003 63.7319
v  13.8808 45.6003 63.7319
v  35.2008 45.6003 55.9721
v  52.5810 45.6003 41.3884
v  63.9251 45.6003 21.7398
v  67.8649 -0.5861 -0.6038
v  63.9251 -0.5861 -22.9473
v  63.9251 -0.5861 21.7398
v  52.5810 -0.5861 41.3884
v  35.2008 -0.5861 55.9721
v  13.8808 -0.5861 63.7319
v  -8.8074 -0.5861 63.7319
v  -30.1274 -0.5861 55.9721
v  -47.5076 -0.5861 41.3884
v  -58.8517 -0.5861 21.7398
v  -62.7915 -0.5861 -0.6038
v  -58.8517 -0.5861 -22.9473
v  -47.5076 -0.5861 -42.5959
v  -30.1274 -0.5861 -57.1797
v  -8.8074 -0.5861 -64.9395
v  13.8808 -0.5861 -64.9395
v  35.2008 -0.5861 -57.1797
v  52.5810 -0.5861 -42.5959
v  63.9251 41.1845 -22.9473
v  67.8649 41.1845 -0.6038
v  52.5810 41.1845 -42.5959
v  35.2008 41.1845 -57.1797
v  13.8808 41.1845 -64.9395
v  -8.8074 41.1845 -64.9395
v  -30.1274 41.1845 -57.1797
v  -47.5076 41.1845 -42.5959
v  -58.8517 41.1845 -22.9473
v  -62.7915 41.1845 -0.6038
v  -58.8517 41.1845 21.7398
v  -47.5076 41.1845 41.3884
v  -30.1274 41.1845 55.9721
v  -8.8074 41.1845 63.7319
v  13.8808 41.1845 63.7319
v  35.2008 41.1845 55.9721
v  52.5810 41.1845 41.3884
v  63.9251 41.1845 21.7398
v  85.5623 -0.5861 -0.6038
v  80.5553 -0.5861 -29.0002
v  80.5553 -0.5861 27.7927
v  66.1380 -0.5861 52.7641
v  44.0495 -0.5861 71.2985
v  16.9539 -0.5861 81.1605
v  -11.8806 -0.5861 81.1605
v  -38.9761 -0.5861 71.2985
v  -61.0646 -0.5861 52.7640
v  -75.4818 -0.5861 27.7926
v  -80.4889 -0.5861 -0.6038
v  -75.4818 -0.5861 -29.0002
v  -61.0646 -0.5861 -53.9716
v  -38.9761 -0.5861 -72.5061
v  -11.8805 -0.5861 -82.3680
v  16.9540 -0.5861 -82.3681
v  44.0495 -0.5861 -72.5061
v  66.1380 -0.5861 -53.9716
v  80.5553 41.1845 -29.0002
v  85.5623 41.1845 -0.6038
v  66.1380 41.1845 -53.9716
v  44.0495 41.1845 -72.5061
v  16.9540 41.1845 -82.3681
v  -11.8805 41.1845 -82.3680
v  -38.9761 41.1845 -72.5061
v  -61.0646 41.1845 -53.9716
v  -75.4818 41.1845 -29.0002
v  -80.4889 41.1845 -0.6038
v  -75.4818 41.1845 27.7926
v  -61.0646 41.1845 52.7640
v  -38.9761 41.1845 71.2985
v  -11.8806 41.1845 81.1605
v  16.9539 41.1845 81.1605
v  44.0495 41.1845 71.2985
v  66.1380 41.1845 52.7641
v  80.5553 41.1845 27.7927
# 180 vertices

vn 0.9375 -0.3481 0.0000
vn 0.8809 -0.3481 -0.3206
vn 0.9254 -0.1735 -0.3368
vn 0.9848 -0.1735 0.0000
vn 0.7181 -0.3481 -0.6026
vn 0.7544 -0.1735 -0.6330
vn 0.4687 -0.3481 -0.8119
vn 0.4924 -0.1735 -0.8529
vn 0.1628 -0.3481 -0.9232
vn 0.1710 -0.1735 -0.9699
vn -0.1628 -0.3481 -0.9232
vn -0.1710 -0.1735 -0.9699
vn -0.4687 -0.3481 -0.8119
vn -0.4924 -0.1735 -0.8529
vn -0.7181 -0.3481 -0.6026
vn -0.7544 -0.1735 -0.6330
vn -0.8809 -0.3481 -0.3206
vn -0.9254 -0.1735 -0.3368
vn -0.9375 -0.3481 -0.0000
vn -0.9848 -0.1735 -0.0000
vn -0.8809 -0.3481 0.3206
vn -0.9254 -0.1735 0.3368
vn -0.7181 -0.3481 0.6026
vn -0.7544 -0.1735 0.6330
vn -0.4687 -0.3481 0.8119
vn -0.4924 -0.1735 0.8529
vn -0.1628 -0.3481 0.9232
vn -0.1710 -0.1735 0.9699
vn 0.1628 -0.3481 0.9232
vn 0.1710 -0.1735 0.9699
vn 0.4687 -0.3481 0.8119
vn 0.4924 -0.1735 0.8529
vn 0.7181 -0.3481 0.6026
vn 0.7544 -0.1735 0.6330
vn 0.8809 -0.3481 0.3206
vn 0.9254 -0.1735 0.3368
vn 0.9254 0.1735 -0.3368
vn 0.9848 0.1735 0.0000
vn 0.7544 0.1735 -0.6330
vn 0.4924 0.1735 -0.8529
vn 0.1710 0.1735 -0.9699
vn -0.1710 0.1735 -0.9699
vn -0.4924 0.1735 -0.8529
vn -0.7544 0.1735 -0.6330
vn -0.9254 0.1735 -0.3368
vn -0.9848 0.1735 -0.0000
vn -0.9254 0.1735 0.3368
vn -0.7544 0.1735 0.6330
vn -0.4924 0.1735 0.8529
vn -0.1710 0.1735 0.9699
vn 0.1710 0.1735 0.9699
vn 0.4924 0.1735 0.8529
vn 0.7544 0.1735 0.6330
vn 0.9254 0.1735 0.3368
vn 0.8809 0.3481 -0.3206
vn 0.9375 0.3481 0.0000
vn 0.7181 0.3481 -0.6026
vn 0.4687 0.3481 -0.8119
vn 0.1628 0.3481 -0.9232
vn -0.1628 0.3481 -0.9232
vn -0.4687 0.3481 -0.8119
vn -0.7181 0.3481 -0.6026
vn -0.8809 0.3481 -0.3206
vn -0.9375 0.3481 -0.0000
vn -0.8809 0.3481 0.3206
vn -0.7181 0.3481 0.6026
vn -0.4687 0.3481 0.8119
vn -0.1628 0.3481 0.9232
vn 0.1628 0.3481 0.9232
vn 0.4687 0.3481 0.8119
vn 0.7181 0.3481 0.6026
vn 0.8809 0.3481 0.3206
vn 0.2365 -0.9707 -0.0417
vn 0.2365 -0.9707 0.0417
vn 0.2079 -0.9707 0.1201
vn 0.1543 -0.9707 0.1839
vn 0.0821 -0.9707 0.2256
vn -0.0000 -0.9707 0.2401
vn -0.0821 -0.9707 0.2256
vn -0.1543 -0.9707 0.1839
vn -0.2079 -0.9707 0.1201
vn -0.2365 -0.9707 0.0417
vn -0.2365 -0.9707 -0.0417
vn -0.2079 -0.9707 -0.1201
vn -0.1543 -0.9707 -0.1839
vn -0.0821 -0.9707 -0.2256
vn -0.0000 -0.9707 -0.2401
vn 0.0821 -0.9707 -0.2256
vn 0.1543 -0.9707 -0.1839
vn 0.2079 -0.9707 -0.1201
vn 0.2365 0.9707 -0.0417
vn 0.2079 0.9707 -0.1201
vn 0.1543 0.9707 -0.1839
vn 0.0821 0.9707 -0.2256
vn -0.0000 0.9707 -0.2401
vn -0.0821 0.9707 -0.2256
vn -0.1543 0.9707 -0.1839
vn -0.2079 0.9707 -0.1201
vn -0.2365 0.9707 -0.0417
vn -0.2365 0.9707 0.0417
vn -0.2079 0.9707 0.1201
vn -0.1543 0.9707 0.1839
vn -0.0821 0.9707 0.2256
vn -0.0000 0.9707 0.2401
vn 0.0821 0.9707 0.2256
vn 0.1543 0.9707 0.1839
vn 0.2079 0.9707 0.1201
vn 0.2365 0.9707 0.0417
vn -0.9848 0.0000 0.1736
vn -0.9848 0.0000 -0.1736
vn -0.8660 0.0000 -0.5000
vn -0.6428 0.0000 -0.7660
vn -0.3420 0.0000 -0.9397
vn 0.0000 0.0000 -1.0000
vn 0.3420 0.0000 -0.9397
vn 0.6428 0.0000 -0.7660
vn 0.8660 0.0000 -0.5000
vn 0.9848 0.0000 -0.1736
vn 0.9848 0.0000 0.1736
vn 0.8660 0.0000 0.5000
vn 0.6428 0.0000 0.7660
vn 0.3420 0.0000 0.9397
vn 0.0000 0.0000 1.0000
vn -0.3420 0.0000 0.9397
vn -0.6428 0.0000 0.7660
vn -0.8660 0.0000 0.5000
vn 0.0000 1.0000 -0.0000
vn 0.0000 -1.0000 -0.0000
vn -1.0000 0.0000 -0.0000
vn -0.9397 0.0000 0.3420
vn -0.9397 0.0000 -0.3420
vn -0.7660 0.0000 -0.6428
vn -0.5000 0.0000 -0.8660
vn -0.1736 0.0000 -0.9848
vn 0.1736 0.0000 -0.9848
vn 0.1736 -0.0000 -0.9848
vn 0.5000 -0.0000 -0.8660
vn 0.7660 -0.0000 -0.6428
vn 0.9397 -0.0000 -0.3420
vn 0.9397 0.0000 -0.3420
vn 1.0000 0.0000 0.0000
vn 0.9397 0.0000 0.3420
vn 0.9397 -0.0000 0.3420
vn 0.7660 -0.0000 0.6428
vn 0.5000 -0.0000 0.8660
vn 0.1736 -0.0000 0.9848
vn 0.1736 0.0000 0.9848
vn -0.1736 0.0000 0.9848
vn -0.5000 0.0000 0.8660
vn -0.7660 0.0000 0.6428
# 150 vertex normals

vt 0.0547 0.8109 0.0000
vt 0.0548 0.7624 0.0000
vt 0.0774 0.7624 0.0000
vt 0.0773 0.8109 0.0000
vt 0.0549 0.7139 0.0000
vt 0.0774 0.7139 0.0000
vt 0.0549 0.6654 0.0000
vt 0.0774 0.6654 0.0000
vt 0.0549 0.6169 0.0000
vt 0.0774 0.6169 0.0000
vt 0.0549 0.5684 0.0000
vt 0.0774 0.5684 0.0000
vt 0.0549 0.5198 0.0000
vt 0.0775 0.5198 0.0000
vt 0.0549 0.4713 0.0000
vt 0.0775 0.4713 0.0000
vt 0.0551 0.4227 0.0000
vt 0.0776 0.4228 0.0000
vt 0.0553 0.3742 0.0000
vt 0.0779 0.3743 0.0000
vt 0.0556 0.3256 0.0000
vt 0.0781 0.3257 0.0000
vt 0.0559 0.2771 0.0000
vt 0.0785 0.2772 0.0000
vt 0.0561 0.2285 0.0000
vt 0.0786 0.2286 0.0000
vt 0.0563 0.1799 0.0000
vt 0.0789 0.1800 0.0000
vt 0.0565 0.1316 0.0000
vt 0.0790 0.1312 0.0000
vt 0.0556 0.0841 0.0000
vt 0.0785 0.0821 0.0000
vt 0.0540 0.9551 0.0000
vt 0.0549 0.9077 0.0000
vt 0.0773 0.9081 0.0000
vt 0.0769 0.9572 0.0000
vt 0.0548 0.8594 0.0000
vt 0.0773 0.8595 0.0000
vt 0.0986 0.7624 0.0000
vt 0.0985 0.8110 0.0000
vt 0.0986 0.7139 0.0000
vt 0.0986 0.6654 0.0000
vt 0.0986 0.6169 0.0000
vt 0.0986 0.5684 0.0000
vt 0.0987 0.5199 0.0000
vt 0.0987 0.4714 0.0000
vt 0.0988 0.4229 0.0000
vt 0.0991 0.3744 0.0000
vt 0.0993 0.3259 0.0000
vt 0.0996 0.2773 0.0000
vt 0.0997 0.2288 0.0000
vt 0.1001 0.1799 0.0000
vt 0.1000 0.1310 0.0000
vt 0.1003 0.0820 0.0000
vt 0.0983 0.9081 0.0000
vt 0.0987 0.9572 0.0000
vt 0.0984 0.8595 0.0000
vt 0.1211 0.7625 0.0000
vt 0.1210 0.8110 0.0000
vt 0.1212 0.7139 0.0000
vt 0.1212 0.6654 0.0000
vt 0.1212 0.6169 0.0000
vt 0.1212 0.5684 0.0000
vt 0.1212 0.5199 0.0000
vt 0.1212 0.4714 0.0000
vt 0.1214 0.4229 0.0000
vt 0.1216 0.3745 0.0000
vt 0.1219 0.3260 0.0000
vt 0.1221 0.2775 0.0000
vt 0.1221 0.2292 0.0000
vt 0.1230 0.1818 0.0000
vt 0.1224 0.1312 0.0000
vt 0.1225 0.1785 0.0000
vt 0.1232 0.0838 0.0000
vt 0.1207 0.9078 0.0000
vt 0.1216 0.9552 0.0000
vt 0.1209 0.8595 0.0000
vt 0.6800 0.3797 0.0000
vt 0.6226 0.3460 0.0000
vt 0.6513 0.3104 0.0000
vt 0.6946 0.3362 0.0000
vt 0.5803 0.2947 0.0000
vt 0.6197 0.2710 0.0000
vt 0.5583 0.2319 0.0000
vt 0.6035 0.2232 0.0000
vt 0.5592 0.1654 0.0000
vt 0.6046 0.1727 0.0000
vt 0.5827 0.1033 0.0000
vt 0.6229 0.1256 0.0000
vt 0.6260 0.0529 0.0000
vt 0.6561 0.0876 0.0000
vt 0.6839 0.0203 0.0000
vt 0.7003 0.0633 0.0000
vt 0.7494 0.0095 0.0000
vt 0.7502 0.0554 0.0000
vt 0.8147 0.0218 0.0000
vt 0.7997 0.0652 0.0000
vt 0.8718 0.0556 0.0000
vt 0.8429 0.0913 0.0000
vt 0.9140 0.1070 0.0000
vt 0.8746 0.1306 0.0000
vt 0.9360 0.1696 0.0000
vt 0.8909 0.1783 0.0000
vt 0.9352 0.2361 0.0000
vt 0.8898 0.2288 0.0000
vt 0.9117 0.2982 0.0000
vt 0.8716 0.2758 0.0000
vt 0.8684 0.3485 0.0000
vt 0.8384 0.3137 0.0000
vt 0.8106 0.3809 0.0000
vt 0.7942 0.3379 0.0000
vt 0.7452 0.3917 0.0000
vt 0.7443 0.3456 0.0000
vt 0.2796 0.0241 0.0000
vt 0.3449 0.0147 0.0000
vt 0.3446 0.0601 0.0000
vt 0.2951 0.0668 0.0000
vt 0.4093 0.0285 0.0000
vt 0.3934 0.0711 0.0000
vt 0.4651 0.0636 0.0000
vt 0.4355 0.0982 0.0000
vt 0.5055 0.1157 0.0000
vt 0.4658 0.1381 0.0000
vt 0.5256 0.1784 0.0000
vt 0.4807 0.1859 0.0000
vt 0.5232 0.2442 0.0000
vt 0.4784 0.2359 0.0000
vt 0.4984 0.3052 0.0000
vt 0.4592 0.2820 0.0000
vt 0.4542 0.3540 0.0000
vt 0.4253 0.3188 0.0000
vt 0.3960 0.3848 0.0000
vt 0.3808 0.3418 0.0000
vt 0.3308 0.3937 0.0000
vt 0.3312 0.3482 0.0000
vt 0.2664 0.3799 0.0000
vt 0.2824 0.3373 0.0000
vt 0.2107 0.3449 0.0000
vt 0.2403 0.3103 0.0000
vt 0.1703 0.2929 0.0000
vt 0.2100 0.2705 0.0000
vt 0.1502 0.2303 0.0000
vt 0.1951 0.2228 0.0000
vt 0.1527 0.1646 0.0000
vt 0.1975 0.1729 0.0000
vt 0.1775 0.1037 0.0000
vt 0.2168 0.1269 0.0000
vt 0.2216 0.0549 0.0000
vt 0.2507 0.0902 0.0000
vt 0.6563 0.3025 0.0000
vt 0.6965 0.3272 0.0000
vt 0.6270 0.2653 0.0000
vt 0.6123 0.2204 0.0000
vt 0.6139 0.1731 0.0000
vt 0.6314 0.1291 0.0000
vt 0.6629 0.0938 0.0000
vt 0.7046 0.0714 0.0000
vt 0.7514 0.0646 0.0000
vt 0.7977 0.0742 0.0000
vt 0.8379 0.0991 0.0000
vt 0.8672 0.1363 0.0000
vt 0.8820 0.1812 0.0000
vt 0.8806 0.2284 0.0000
vt 0.8630 0.2723 0.0000
vt 0.8315 0.3075 0.0000
vt 0.7898 0.3297 0.0000
vt 0.7430 0.3366 0.0000
vt 0.3457 0.0693 0.0000
vt 0.2992 0.0750 0.0000
vt 0.3912 0.0801 0.0000
vt 0.4304 0.1059 0.0000
vt 0.4584 0.1435 0.0000
vt 0.4719 0.1884 0.0000
vt 0.4693 0.2353 0.0000
vt 0.4508 0.2783 0.0000
vt 0.4186 0.3125 0.0000
vt 0.3768 0.3336 0.0000
vt 0.3302 0.3391 0.0000
vt 0.2846 0.3284 0.0000
vt 0.2454 0.3027 0.0000
vt 0.2174 0.2651 0.0000
vt 0.2039 0.2203 0.0000
vt 0.2067 0.1735 0.0000
vt 0.2252 0.1305 0.0000
vt 0.2574 0.0963 0.0000
vt 0.4617 0.6487 0.0000
vt 0.4702 0.6008 0.0000
vt 0.5081 0.6008 0.0000
vt 0.4974 0.6617 0.0000
vt 0.4617 0.5529 0.0000
vt 0.4974 0.5399 0.0000
vt 0.4374 0.5108 0.0000
vt 0.4665 0.4864 0.0000
vt 0.4001 0.4795 0.0000
vt 0.4191 0.4467 0.0000
vt 0.3544 0.4629 0.0000
vt 0.3610 0.4255 0.0000
vt 0.3058 0.4629 0.0000
vt 0.2992 0.4255 0.0000
vt 0.2601 0.4795 0.0000
vt 0.2412 0.4467 0.0000
vt 0.2229 0.5108 0.0000
vt 0.1938 0.4864 0.0000
vt 0.1986 0.5529 0.0000
vt 0.1629 0.5399 0.0000
vt 0.1901 0.6008 0.0000
vt 0.1522 0.6008 0.0000
vt 0.1986 0.6487 0.0000
vt 0.1629 0.6617 0.0000
vt 0.2229 0.6908 0.0000
vt 0.1938 0.7152 0.0000
vt 0.2601 0.7221 0.0000
vt 0.2412 0.7549 0.0000
vt 0.3058 0.7387 0.0000
vt 0.2992 0.7760 0.0000
vt 0.3544 0.7387 0.0000
vt 0.3610 0.7760 0.0000
vt 0.4001 0.7221 0.0000
vt 0.4191 0.7549 0.0000
vt 0.4374 0.6908 0.0000
vt 0.4665 0.7152 0.0000
vt 0.8481 0.5974 0.0000
vt 0.8395 0.5487 0.0000
vt 0.8758 0.5355 0.0000
vt 0.8867 0.5974 0.0000
vt 0.8148 0.5058 0.0000
vt 0.8444 0.4811 0.0000
vt 0.7769 0.4741 0.0000
vt 0.7962 0.4407 0.0000
vt 0.7305 0.4572 0.0000
vt 0.7372 0.4192 0.0000
vt 0.6810 0.4572 0.0000
vt 0.6743 0.4192 0.0000
vt 0.6346 0.4741 0.0000
vt 0.6153 0.4407 0.0000
vt 0.5967 0.5058 0.0000
vt 0.5671 0.4811 0.0000
vt 0.5719 0.5487 0.0000
vt 0.5357 0.5355 0.0000
vt 0.5634 0.5974 0.0000
vt 0.5248 0.5974 0.0000
vt 0.5719 0.6461 0.0000
vt 0.5357 0.6593 0.0000
vt 0.5967 0.6889 0.0000
vt 0.5671 0.7137 0.0000
vt 0.6346 0.7207 0.0000
vt 0.6153 0.7541 0.0000
vt 0.6810 0.7376 0.0000
vt 0.6743 0.7756 0.0000
vt 0.7305 0.7376 0.0000
vt 0.7372 0.7756 0.0000
vt 0.7769 0.7207 0.0000
vt 0.7962 0.7541 0.0000
vt 0.8148 0.6889 0.0000
vt 0.8444 0.7137 0.0000
vt 0.8395 0.6461 0.0000
vt 0.8758 0.6593 0.0000
vt 0.5257 0.7278 0.0000
vt 0.5703 0.7426 0.0000
vt 0.5171 0.7800 0.0000
vt 0.4886 0.7812 0.0000
vt 0.4789 0.7291 0.0000
vt 0.4621 0.7920 0.0000
vt 0.4353 0.7462 0.0000
vt 0.4408 0.8111 0.0000
vt 0.3999 0.7772 0.0000
vt 0.4274 0.8362 0.0000
vt 0.3774 0.8187 0.0000
vt 0.4237 0.8643 0.0000
vt 0.3709 0.8651 0.0000
vt 0.4302 0.8922 0.0000
vt 0.3804 0.9109 0.0000
vt 0.4453 0.9165 0.0000
vt 0.4048 0.9509 0.0000
vt 0.4677 0.9342 0.0000
vt 0.4415 0.9803 0.0000
vt 0.4948 0.9430 0.0000
vt 0.4861 0.9952 0.0000
vt 0.5233 0.9417 0.0000
vt 0.5329 0.9939 0.0000
vt 0.5498 0.9309 0.0000
vt 0.5766 0.9768 0.0000
vt 0.5711 0.9119 0.0000
vt 0.6119 0.9458 0.0000
vt 0.5845 0.8868 0.0000
vt 0.6345 0.9043 0.0000
vt 0.5881 0.8587 0.0000
vt 0.6409 0.8579 0.0000
vt 0.5817 0.8308 0.0000
vt 0.6314 0.8121 0.0000
vt 0.5665 0.8064 0.0000
vt 0.6070 0.7721 0.0000
vt 0.5441 0.7888 0.0000
# 293 texture coords

g Cylinder001
usemtl Material__47
s 8
f 1/1/1 2/2/2 3/3/3 4/4/4 
f 2/2/2 5/5/5 6/6/6 3/3/3 
f 5/5/5 7/7/7 8/8/8 6/6/6 
f 7/7/7 9/9/9 10/10/10 8/8/8 
f 9/9/9 11/11/11 12/12/12 10/10/10 
f 11/11/11 13/13/13 14/14/14 12/12/12 
f 13/13/13 15/15/15 16/16/16 14/14/14 
f 15/15/15 17/17/17 18/18/18 16/16/16 
f 17/17/17 19/19/19 20/20/20 18/18/18 
f 19/19/19 21/21/21 22/22/22 20/20/20 
f 21/21/21 23/23/23 24/24/24 22/22/22 
f 23/23/23 25/25/25 26/26/26 24/24/24 
f 25/25/25 27/27/27 28/28/28 26/26/26 
f 27/27/27 29/29/29 30/30/30 28/28/28 
f 29/29/29 31/31/31 32/32/32 30/30/30 
f 31/33/31 33/34/33 34/35/34 32/36/32 
f 33/34/33 35/37/35 36/38/36 34/35/34 
f 35/37/35 1/1/1 4/4/4 36/38/36 
f 4/4/4 3/3/3 37/39/37 38/40/38 
f 3/3/3 6/6/6 39/41/39 37/39/37 
f 6/6/6 8/8/8 40/42/40 39/41/39 
f 8/8/8 10/10/10 41/43/41 40/42/40 
f 10/10/10 12/12/12 42/44/42 41/43/41 
f 12/12/12 14/14/14 43/45/43 42/44/42 
f 14/14/14 16/16/16 44/46/44 43/45/43 
f 16/16/16 18/18/18 45/47/45 44/46/44 
f 18/18/18 20/20/20 46/48/46 45/47/45 
f 20/20/20 22/22/22 47/49/47 46/48/46 
f 22/22/22 24/24/24 48/50/48 47/49/47 
f 24/24/24 26/26/26 49/51/49 48/50/48 
f 26/26/26 28/28/28 50/52/50 49/51/49 
f 28/28/28 30/30/30 51/53/51 50/52/50 
f 30/30/30 32/32/32 52/54/52 51/53/51 
f 32/36/32 34/35/34 53/55/53 52/56/52 
f 34/35/34 36/38/36 54/57/54 53/55/53 
f 36/38/36 4/4/4 38/40/38 54/57/54 
f 38/40/38 37/39/37 55/58/55 56/59/56 
f 37/39/37 39/41/39 57/60/57 55/58/55 
f 39/41/39 40/42/40 58/61/58 57/60/57 
f 40/42/40 41/43/41 59/62/59 58/61/58 
f 41/43/41 42/44/42 60/63/60 59/62/59 
f 42/44/42 43/45/43 61/64/61 60/63/60 
f 43/45/43 44/46/44 62/65/62 61/64/61 
f 44/46/44 45/47/45 63/66/63 62/65/62 
f 45/47/45 46/48/46 64/67/64 63/66/63 
f 46/48/46 47/49/47 65/68/65 64/67/64 
f 47/49/47 48/50/48 66/69/66 65/68/65 
f 48/50/48 49/51/49 67/70/67 66/69/66 
f 49/51/49 50/52/50 68/71/68 67/70/67 
f 50/52/50 51/53/51 69/72/69 68/73/68 
f 51/53/51 52/54/52 70/74/70 69/72/69 
f 52/56/52 53/55/53 71/75/71 70/76/70 
usemtl Material__48
f 53/55/53 54/57/54 72/77/72 71/75/71 
usemtl Material__47
f 54/57/54 38/40/38 56/59/56 72/77/72 
s off
f 2/78/73 1/79/73 73/80/73 74/81/73 
f 1/79/74 35/82/74 75/83/74 73/80/74 
f 35/82/75 33/84/75 76/85/75 75/83/75 
f 33/84/76 31/86/76 77/87/76 76/85/76 
f 31/86/77 29/88/77 78/89/77 77/87/77 
f 29/88/78 27/90/78 79/91/78 78/89/78 
f 27/90/79 25/92/79 80/93/79 79/91/79 
f 25/92/80 23/94/80 81/95/80 80/93/80 
f 23/94/81 21/96/81 82/97/81 81/95/81 
f 21/96/82 19/98/82 83/99/82 82/97/82 
f 19/98/83 17/100/83 84/101/83 83/99/83 
f 17/100/84 15/102/84 85/103/84 84/101/84 
f 15/102/85 13/104/85 86/105/85 85/103/85 
f 13/104/86 11/106/86 87/107/86 86/105/86 
f 11/106/87 9/108/87 88/109/87 87/107/87 
f 9/108/88 7/110/88 89/111/88 88/109/88 
f 7/110/89 5/112/89 90/113/89 89/111/89 
f 5/112/90 2/78/90 74/81/90 90/113/90 
f 56/114/91 55/115/91 91/116/91 92/117/91 
f 55/115/92 57/118/92 93/119/92 91/116/92 
f 57/118/93 58/120/93 94/121/93 93/119/93 
f 58/120/94 59/122/94 95/123/94 94/121/94 
f 59/122/95 60/124/95 96/125/95 95/123/95 
f 60/124/96 61/126/96 97/127/96 96/125/96 
f 61/126/97 62/128/97 98/129/97 97/127/97 
f 62/128/98 63/130/98 99/131/98 98/129/98 
f 63/130/99 64/132/99 100/133/99 99/131/99 
f 64/132/100 65/134/100 101/135/100 100/133/100 
f 65/134/101 66/136/101 102/137/101 101/135/101 
f 66/136/102 67/138/102 103/139/102 102/137/102 
f 67/138/103 68/140/103 104/141/103 103/139/103 
f 68/140/104 69/142/104 105/143/104 104/141/104 
f 69/142/105 70/144/105 106/145/105 105/143/105 
f 70/144/106 71/146/106 107/147/106 106/145/106 
f 71/146/107 72/148/107 108/149/107 107/147/107 
f 72/148/108 56/114/108 92/117/108 108/149/108 
f 74/81/109 73/80/109 109/150/109 110/151/109 
f 73/80/110 75/83/110 111/152/110 109/150/110 
f 75/83/111 76/85/111 112/153/111 111/152/111 
f 76/85/112 77/87/112 113/154/112 112/153/112 
f 77/87/113 78/89/113 114/155/113 113/154/113 
f 78/89/114 79/91/114 115/156/114 114/155/114 
f 79/91/115 80/93/115 116/157/115 115/156/115 
f 80/93/116 81/95/116 117/158/116 116/157/116 
f 81/95/117 82/97/117 118/159/117 117/158/117 
f 82/97/118 83/99/118 119/160/118 118/159/118 
f 83/99/119 84/101/119 120/161/119 119/160/119 
f 84/101/120 85/103/120 121/162/120 120/161/120 
f 85/103/121 86/105/121 122/163/121 121/162/121 
f 86/105/122 87/107/122 123/164/122 122/163/122 
f 87/107/123 88/109/123 124/165/123 123/164/123 
f 88/109/124 89/111/124 125/166/124 124/165/124 
f 89/111/125 90/113/125 126/167/125 125/166/125 
f 90/113/126 74/81/126 110/151/126 126/167/126 
f 92/117/109 91/116/109 127/168/109 128/169/109 
f 91/116/126 93/119/126 129/170/126 127/168/126 
f 93/119/125 94/121/125 130/171/125 129/170/125 
f 94/121/124 95/123/124 131/172/124 130/171/124 
f 95/123/123 96/125/123 132/173/123 131/172/123 
f 96/125/122 97/127/122 133/174/122 132/173/122 
f 97/127/121 98/129/121 134/175/121 133/174/121 
f 98/129/120 99/131/120 135/176/120 134/175/120 
f 99/131/119 100/133/119 136/177/119 135/176/119 
f 100/133/118 101/135/118 137/178/118 136/177/118 
f 101/135/117 102/137/117 138/179/117 137/178/117 
f 102/137/116 103/139/116 139/180/116 138/179/116 
f 103/139/115 104/141/115 140/181/115 139/180/115 
f 104/141/114 105/143/114 141/182/114 140/181/114 
f 105/143/113 106/145/113 142/183/113 141/182/113 
f 106/145/112 107/147/112 143/184/112 142/183/112 
f 107/147/111 108/149/111 144/185/111 143/184/111 
f 108/149/110 92/117/110 128/169/110 144/185/110 
f 110/186/127 109/187/127 145/188/127 146/189/127 
f 109/187/127 111/190/127 147/191/127 145/188/127 
f 111/190/127 112/192/127 148/193/127 147/191/127 
f 112/192/127 113/194/127 149/195/127 148/193/127 
f 113/194/127 114/196/127 150/197/127 149/195/127 
f 114/196/127 115/198/127 151/199/127 150/197/127 
f 115/198/127 116/200/127 152/201/127 151/199/127 
f 116/200/127 117/202/127 153/203/127 152/201/127 
f 117/202/127 118/204/127 154/205/127 153/203/127 
f 118/204/127 119/206/127 155/207/127 154/205/127 
f 119/206/127 120/208/127 156/209/127 155/207/127 
f 120/208/127 121/210/127 157/211/127 156/209/127 
f 121/210/127 122/212/127 158/213/127 157/211/127 
f 122/212/127 123/214/127 159/215/127 158/213/127 
f 123/214/127 124/216/127 160/217/127 159/215/127 
f 124/216/127 125/218/127 161/219/127 160/217/127 
f 125/218/127 126/220/127 162/221/127 161/219/127 
f 126/220/127 110/186/127 146/189/127 162/221/127 
f 128/222/128 127/223/128 163/224/128 164/225/128 
f 127/223/128 129/226/128 165/227/128 163/224/128 
f 129/226/128 130/228/128 166/229/128 165/227/128 
f 130/228/128 131/230/128 167/231/128 166/229/128 
f 131/230/128 132/232/128 168/233/128 167/231/128 
f 132/232/128 133/234/128 169/235/128 168/233/128 
f 133/234/128 134/236/128 170/237/128 169/235/128 
f 134/236/128 135/238/128 171/239/128 170/237/128 
f 135/238/128 136/240/128 172/241/128 171/239/128 
f 136/240/128 137/242/128 173/243/128 172/241/128 
f 137/242/128 138/244/128 174/245/128 173/243/128 
f 138/244/128 139/246/128 175/247/128 174/245/128 
f 139/246/128 140/248/128 176/249/128 175/247/128 
f 140/248/128 141/250/128 177/251/128 176/249/128 
f 141/250/128 142/252/128 178/253/128 177/251/128 
f 142/252/128 143/254/128 179/255/128 178/253/128 
f 143/254/128 144/256/128 180/257/128 179/255/128 
f 144/256/128 128/222/128 164/225/128 180/257/128 
s 1
f 164/258/129 163/259/130 145/260/129 147/261/131 
f 180/262/131 164/258/129 147/261/131 148/263/132 
f 179/264/132 180/262/131 148/263/132 149/265/133 
f 178/266/133 179/264/132 149/265/133 150/267/134 
f 177/268/134 178/266/133 150/267/134 151/269/135 
f 176/270/136 177/268/134 151/269/135 152/271/137 
f 175/272/137 176/270/136 152/271/137 153/273/138 
f 174/274/138 175/272/137 153/273/138 154/275/139 
f 173/276/140 174/274/138 154/275/139 155/277/141 
f 172/278/141 173/276/140 155/277/141 156/279/142 
f 171/280/143 172/278/141 156/279/142 157/281/144 
f 170/282/144 171/280/143 157/281/144 158/283/145 
f 169/284/145 170/282/144 158/283/145 159/285/146 
f 168/286/147 169/284/145 159/285/146 160/287/148 
f 167/288/148 168/286/147 160/287/148 161/289/149 
f 166/290/149 167/288/148 161/289/149 162/291/150 
f 165/292/150 166/290/149 162/291/150 146/293/130 
f 163/259/130 165/292/150 146/293/130 145/260/129 
# 180 polygons

