# 3ds Max Wavefront OBJ Exporter v0.97b - (c)2007 guruware
# File Created: 16.06.2013 01:44:08

#
# object sign2_diversion
#

v  -0.3179 -0.2820 0.1795
v  -0.3179 -0.2702 0.1894
v  0.3165 -0.2702 0.1894
v  0.3165 -0.2820 0.1795
v  -0.3179 -0.2847 0.1946
v  0.3165 -0.2847 0.1946
v  -0.3179 -0.2820 -0.1967
v  -0.3179 -0.2702 -0.1868
v  0.3165 -0.2702 -0.1868
v  0.3165 -0.2820 -0.1967
v  -0.3179 -0.2847 -0.1816
v  0.3165 -0.2847 -0.1816
v  -0.2806 0.3874 -0.0018
v  -0.2806 0.3942 -0.0224
v  -0.2714 0.3942 -0.0224
v  -0.2714 0.3874 -0.0018
v  -0.2806 0.4079 -0.0224
v  -0.2714 0.4079 -0.0224
v  -0.2806 0.4148 -0.0018
v  -0.2714 0.4148 -0.0018
v  -0.2806 0.4079 0.0188
v  -0.2714 0.4079 0.0188
v  -0.2806 0.3942 0.0188
v  -0.2714 0.3942 0.0188
v  0.0036 0.3874 -0.0018
v  0.0036 0.3942 -0.0224
v  0.0128 0.3942 -0.0224
v  0.0128 0.3874 -0.0018
v  0.0036 0.4079 -0.0224
v  0.0128 0.4079 -0.0224
v  0.0036 0.4148 -0.0018
v  0.0128 0.4148 -0.0018
v  0.0036 0.4079 0.0188
v  0.0128 0.4079 0.0188
v  0.0036 0.3942 0.0188
v  0.0128 0.3942 0.0188
v  0.2799 0.3874 -0.0018
v  0.2799 0.3942 -0.0224
v  0.2891 0.3942 -0.0224
v  0.2891 0.3874 -0.0018
v  0.2799 0.4079 -0.0224
v  0.2891 0.4079 -0.0224
v  0.2799 0.4148 -0.0018
v  0.2891 0.4148 -0.0018
v  0.2799 0.4079 0.0188
v  0.2891 0.4079 0.0188
v  0.2799 0.3942 0.0188
v  0.2891 0.3942 0.0188
v  -0.3144 -0.4113 0.2306
v  -0.3221 -0.4148 0.2178
v  -0.3221 0.3881 0.0026
v  -0.3144 0.3915 0.0155
v  -0.3298 -0.4113 0.2306
v  -0.3298 0.3915 0.0155
v  -0.3206 0.3980 0.0026
v  -0.3138 0.3931 0.0155
v  -0.3215 0.4064 0.0155
v  -0.3130 0.4016 0.0026
v  -0.3095 0.3939 0.0155
v  -0.3095 0.4093 0.0155
v  0.3095 0.3939 0.0155
v  0.3095 0.4093 0.0155
v  0.3144 -0.4113 0.2306
v  0.3144 0.3915 0.0155
v  0.3221 0.3881 0.0026
v  0.3221 -0.4148 0.2178
v  0.3298 0.3915 0.0155
v  0.3298 -0.4113 0.2306
v  0.3138 0.3931 0.0155
v  0.3206 0.3980 0.0026
v  0.3215 0.4064 0.0155
v  0.3130 0.4016 0.0026
v  -0.3137 0.0587 0.1061
v  -0.3137 0.3850 0.0160
v  -0.3137 0.3834 0.0099
v  -0.3137 0.0571 0.1001
v  0.3123 0.0571 0.1001
v  0.3123 0.0587 0.1061
v  0.3123 0.3834 0.0099
v  0.3123 0.3850 0.0160
v  -0.3144 -0.4113 -0.2306
v  -0.3144 0.3915 -0.0155
v  -0.3221 0.3881 -0.0026
v  -0.3221 -0.4148 -0.2178
v  -0.3298 0.3915 -0.0155
v  -0.3298 -0.4113 -0.2306
v  -0.3206 0.3980 -0.0026
v  -0.3138 0.3931 -0.0155
v  -0.3215 0.4064 -0.0155
v  -0.3130 0.4016 -0.0026
v  -0.3095 0.3939 -0.0155
v  -0.3095 0.4093 -0.0155
v  0.3095 0.4093 -0.0155
v  0.3095 0.3939 -0.0155
v  0.3144 -0.4113 -0.2306
v  0.3221 -0.4148 -0.2178
v  0.3221 0.3881 -0.0026
v  0.3144 0.3915 -0.0155
v  0.3298 -0.4113 -0.2306
v  0.3298 0.3915 -0.0155
v  0.3206 0.3980 -0.0026
v  0.3138 0.3931 -0.0155
v  0.3215 0.4064 -0.0155
v  0.3130 0.4016 -0.0026
v  -0.3137 0.0587 -0.1061
v  -0.3137 0.0571 -0.1001
v  -0.3137 0.3834 -0.0099
v  -0.3137 0.3850 -0.0160
v  0.3123 0.0587 -0.1061
v  0.3123 0.0571 -0.1001
v  0.3123 0.3834 -0.0099
v  0.3123 0.3850 -0.0160
# 112 vertices

vn 0.0000 -0.3420 -0.9397
vn 0.0000 0.9848 0.1737
vn 0.0000 -0.3421 -0.9397
vn 0.0000 -0.6427 0.7661
vn 0.0000 -1.0000 -0.0000
vn 0.0000 -0.5851 -0.8110
vn 0.0000 0.5851 -0.8110
vn 0.0000 1.0000 -0.0000
vn 0.0000 0.5851 0.8110
vn 0.0000 -0.5851 0.8110
vn -1.0000 0.0000 -0.0000
vn 1.0000 0.0000 -0.0000
vn 0.8660 0.1294 0.4830
vn 0.0000 -0.2588 -0.9659
vn -0.8660 0.1294 0.4830
vn 0.0000 -0.9659 0.2589
vn 0.8660 -0.1333 -0.4820
vn 0.8660 -0.1332 -0.4819
vn 0.7730 -0.3347 -0.5389
vn 0.7731 -0.3347 -0.5388
vn -0.7299 0.4106 -0.5465
vn -0.7300 0.4106 -0.5464
vn -0.9752 0.1500 -0.1629
vn -0.9752 0.1501 -0.1629
vn 0.0000 0.0000 1.0000
vn 0.3697 -0.7848 -0.4973
vn 0.3696 -0.7849 -0.4974
vn 0.1637 -0.8269 -0.5381
vn -0.1982 0.8151 -0.5444
vn -0.1982 0.8151 -0.5443
vn -0.3919 0.8321 -0.3924
vn -0.8660 0.1294 0.4829
vn 0.8660 0.1294 0.4829
vn -0.7731 -0.3347 -0.5388
vn -0.7730 -0.3347 -0.5389
vn -0.8660 -0.1333 -0.4819
vn -0.8660 -0.1332 -0.4819
vn 0.9752 0.1501 -0.1629
vn 0.9752 0.1500 -0.1629
vn 0.7301 0.4105 -0.5463
vn 0.7300 0.4105 -0.5464
vn -0.1637 -0.8269 -0.5381
vn -0.3696 -0.7849 -0.4974
vn 0.3919 0.8321 -0.3924
vn 0.3918 0.8322 -0.3924
vn 0.1981 0.8151 -0.5444
vn 0.0000 -0.8583 -0.5131
vn 0.0000 0.8583 -0.5131
vn 0.0000 -0.2662 -0.9639
vn 0.0000 0.9659 -0.2588
vn 0.0000 0.2662 0.9639
vn 0.8660 0.1294 -0.4830
vn 0.0000 -0.2588 0.9659
vn -0.8660 0.1294 -0.4830
vn 0.0000 -0.9659 -0.2588
vn 0.8660 -0.1333 0.4820
vn 0.8660 -0.1332 0.4819
vn 0.7730 -0.3347 0.5389
vn 0.7731 -0.3347 0.5388
vn -0.7300 0.4106 0.5464
vn -0.9752 0.1500 0.1629
vn -0.9752 0.1501 0.1629
vn 0.0000 0.0000 -1.0000
vn 0.3697 -0.7848 0.4973
vn 0.3696 -0.7849 0.4974
vn 0.1637 -0.8269 0.5381
vn -0.1982 0.8151 0.5444
vn -0.1982 0.8151 0.5443
vn -0.3919 0.8321 0.3924
vn -0.8660 0.1294 -0.4829
vn 0.8660 0.1294 -0.4829
vn -0.7731 -0.3347 0.5388
vn -0.7730 -0.3347 0.5389
vn -0.8660 -0.1333 0.4819
vn -0.8660 -0.1332 0.4819
vn 0.9752 0.1501 0.1629
vn 0.9752 0.1500 0.1629
vn 0.7301 0.4105 0.5463
vn 0.7300 0.4106 0.5464
vn -0.1637 -0.8269 0.5381
vn -0.3696 -0.7849 0.4974
vn 0.3919 0.8321 0.3924
vn 0.3918 0.8322 0.3924
vn 0.1981 0.8151 0.5444
vn 0.0000 -0.8583 0.5131
vn 0.0000 0.8583 0.5131
vn 0.0000 -0.9659 -0.2589
vn 0.0000 -0.2662 0.9639
vn 0.0000 0.9659 0.2588
vn 0.0000 0.2662 -0.9639
# 90 vertex normals

vt 0.6169 0.1012 0.0000
vt 0.6191 0.0786 0.0000
vt 0.9946 0.0734 0.0000
vt 0.9911 0.0971 0.0000
vt 0.6154 0.0600 0.0000
vt 0.9908 0.0565 0.0000
vt 0.6146 0.0418 0.0000
vt 0.9872 0.0372 0.0000
vt 0.7817 0.1157 0.0000
vt 0.7833 0.0634 0.0000
vt 0.8059 0.0641 0.0000
vt 0.8043 0.1171 0.0000
vt 0.7664 0.2954 0.0000
vt 0.7332 0.3003 0.0000
vt 0.7294 0.2780 0.0000
vt 0.7622 0.2734 0.0000
vt 0.7511 0.0538 0.0000
vt 0.7186 0.0971 0.0000
vt 0.7012 0.0829 0.0000
vt 0.7331 0.0406 0.0000
vt 0.7171 0.1513 0.0000
vt 0.6947 0.1498 0.0000
vt 0.6963 0.0969 0.0000
vt 0.7498 0.1570 0.0000
vt 0.7474 0.1780 0.0000
vt 0.7143 0.1748 0.0000
vt 0.7997 0.1291 0.0000
vt 0.7674 0.1712 0.0000
vt 0.7039 0.2296 0.0000
vt 0.7719 0.2229 0.0000
vt 0.5487 0.1021 0.0000
vt 0.5503 0.0497 0.0000
vt 0.5729 0.0505 0.0000
vt 0.5713 0.1035 0.0000
vt 0.5334 0.2818 0.0000
vt 0.5002 0.2867 0.0000
vt 0.4964 0.2643 0.0000
vt 0.5292 0.2598 0.0000
vt 0.5181 0.0402 0.0000
vt 0.4856 0.0834 0.0000
vt 0.4682 0.0693 0.0000
vt 0.5001 0.0270 0.0000
vt 0.4841 0.1377 0.0000
vt 0.4617 0.1361 0.0000
vt 0.4633 0.0833 0.0000
vt 0.5168 0.1433 0.0000
vt 0.5144 0.1644 0.0000
vt 0.4813 0.1612 0.0000
vt 0.5667 0.1154 0.0000
vt 0.5344 0.1576 0.0000
vt 0.4709 0.2160 0.0000
vt 0.5389 0.2092 0.0000
vt 0.6636 0.1042 0.0000
vt 0.6652 0.0518 0.0000
vt 0.6878 0.0526 0.0000
vt 0.6862 0.1056 0.0000
vt 0.6483 0.2839 0.0000
vt 0.6151 0.2888 0.0000
vt 0.6114 0.2664 0.0000
vt 0.6442 0.2619 0.0000
vt 0.6330 0.0423 0.0000
vt 0.6005 0.0855 0.0000
vt 0.5831 0.0714 0.0000
vt 0.6150 0.0291 0.0000
vt 0.5990 0.1398 0.0000
vt 0.5766 0.1382 0.0000
vt 0.5782 0.0854 0.0000
vt 0.6318 0.1454 0.0000
vt 0.6293 0.1665 0.0000
vt 0.5962 0.1633 0.0000
vt 0.6816 0.1175 0.0000
vt 0.6493 0.1597 0.0000
vt 0.5858 0.2181 0.0000
vt 0.6539 0.2113 0.0000
vt 0.5495 0.4529 0.0000
vt 0.5620 0.4530 0.0000
vt 0.5573 0.9211 0.0000
vt 0.5356 0.9253 0.0000
vt 0.5743 0.4531 0.0000
vt 0.5812 0.9162 0.0000
vt 0.5866 0.4531 0.0000
vt 0.5960 0.9122 0.0000
vt 0.1467 0.0870 0.0000
vt 0.2452 0.0264 0.0000
vt 0.2460 0.1133 0.0000
vt 0.5667 0.9617 0.0000
vt 0.5340 0.9310 0.0000
vt 0.5978 0.9760 0.0000
vt 0.6158 0.9198 0.0000
vt 0.4979 0.4443 0.0000
vt 0.4917 0.4331 0.0000
vt 0.4984 0.4318 0.0000
vt 0.5014 0.4437 0.0000
vt 0.4912 0.4199 0.0000
vt 0.5007 0.4195 0.0000
vt 0.4968 0.4072 0.0000
vt 0.5003 0.4072 0.0000
vt 0.7660 0.4009 0.0000
vt 0.7663 0.4134 0.0000
vt 0.8625 0.2848 0.0000
vt 0.8374 0.9104 0.0000
vt 0.8135 0.9112 0.0000
vt 0.8442 0.2839 0.0000
vt 0.7874 0.9131 0.0000
vt 0.8260 0.2829 0.0000
vt 0.7684 0.9133 0.0000
vt 0.8076 0.2820 0.0000
vt 0.1125 0.1672 0.0000
vt 0.0340 0.1464 0.0000
vt 0.0944 0.1017 0.0000
vt 0.8404 0.9176 0.0000
vt 0.8255 0.9614 0.0000
vt 0.8089 0.9913 0.0000
vt 0.7638 0.9248 0.0000
vt 0.7702 0.4379 0.0000
vt 0.7666 0.4376 0.0000
vt 0.7691 0.4255 0.0000
vt 0.7759 0.4267 0.0000
vt 0.7755 0.4131 0.0000
vt 0.7695 0.4003 0.0000
vt 0.0225 0.6631 0.0000
vt 0.0238 0.9797 0.0000
vt 0.0167 0.9799 0.0000
vt 0.0152 0.6630 0.0000
vt 0.0226 0.6578 0.0000
vt 0.4739 0.6616 0.0000
vt 0.4738 0.6669 0.0000
vt 0.0299 0.3353 0.0000
vt 0.4786 0.3386 0.0000
vt 0.4659 0.9818 0.0000
vt 0.4658 0.9872 0.0000
vt 0.0238 0.9851 0.0000
vt 0.4810 0.6672 0.0000
vt 0.4731 0.9820 0.0000
vt 0.6402 0.4742 0.0000
vt 0.6264 0.9410 0.0000
vt 0.6479 0.9367 0.0000
vt 0.6525 0.4743 0.0000
vt 0.6714 0.9320 0.0000
vt 0.6647 0.4744 0.0000
vt 0.6860 0.9280 0.0000
vt 0.6768 0.4744 0.0000
vt 0.6572 0.9769 0.0000
vt 0.6249 0.9465 0.0000
vt 0.6878 0.9910 0.0000
vt 0.7056 0.9355 0.0000
vt 0.5061 0.3825 0.0000
vt 0.5066 0.3691 0.0000
vt 0.5000 0.3705 0.0000
vt 0.5096 0.3818 0.0000
vt 0.5089 0.3560 0.0000
vt 0.4994 0.3565 0.0000
vt 0.5086 0.3428 0.0000
vt 0.5051 0.3429 0.0000
vt 0.7745 0.3495 0.0000
vt 0.7743 0.3361 0.0000
vt 0.9790 0.2834 0.0000
vt 0.9607 0.2824 0.0000
vt 0.9299 0.9098 0.0000
vt 0.9539 0.9089 0.0000
vt 0.9425 0.2815 0.0000
vt 0.9038 0.9117 0.0000
vt 0.9241 0.2806 0.0000
vt 0.8849 0.9118 0.0000
vt 0.9420 0.9600 0.0000
vt 0.9569 0.9162 0.0000
vt 0.9254 0.9898 0.0000
vt 0.8803 0.9233 0.0000
vt 0.7784 0.3757 0.0000
vt 0.7774 0.3624 0.0000
vt 0.7748 0.3753 0.0000
vt 0.7841 0.3636 0.0000
vt 0.7838 0.3491 0.0000
vt 0.7777 0.3355 0.0000
# 174 texture coords

g sign2_diversion
s off
f 1/1/1 2/2/2 3/3/2 4/4/3 
f 2/2/2 5/5/4 6/6/4 3/3/2 
f 5/5/4 1/7/1 4/8/3 6/6/4 
f 7/1/1 8/2/2 9/3/2 10/4/3 
f 8/2/2 11/5/4 12/6/4 9/3/2 
f 11/5/4 7/7/1 10/8/3 12/6/4 
f 13/9/5 14/10/6 15/11/6 16/12/5 
f 14/13/6 17/14/7 18/15/7 15/16/6 
f 17/17/7 19/18/8 20/19/8 18/20/7 
f 19/18/8 21/21/9 22/22/9 20/23/8 
f 21/21/9 23/24/10 24/25/10 22/26/9 
f 23/24/10 13/9/5 16/27/5 24/28/10 
f 21/21/11 19/18/11 17/17/11 
f 17/17/11 14/10/11 13/9/11 
f 21/21/11 17/17/11 13/9/11 23/24/11 
f 15/16/12 18/15/12 20/29/12 24/25/12 
f 20/29/12 22/26/12 24/25/12 
f 16/30/12 15/16/12 24/25/12 
f 25/31/5 26/32/6 27/33/6 28/34/5 
f 26/35/6 29/36/7 30/37/7 27/38/6 
f 29/39/7 31/40/8 32/41/8 30/42/7 
f 31/40/8 33/43/9 34/44/9 32/45/8 
f 33/43/9 35/46/10 36/47/10 34/48/9 
f 35/46/10 25/31/5 28/49/5 36/50/10 
f 33/43/11 31/40/11 29/39/11 
f 29/39/11 26/32/11 25/31/11 
f 33/43/11 29/39/11 25/31/11 35/46/11 
f 27/38/12 30/37/12 32/51/12 36/47/12 
f 32/51/12 34/48/12 36/47/12 
f 28/52/12 27/38/12 36/47/12 
f 37/53/5 38/54/6 39/55/6 40/56/5 
f 38/57/6 41/58/7 42/59/7 39/60/6 
f 41/61/7 43/62/8 44/63/8 42/64/7 
f 43/62/8 45/65/9 46/66/9 44/67/8 
f 45/65/9 47/68/10 48/69/10 46/70/9 
f 47/68/10 37/53/5 40/71/5 48/72/10 
f 45/65/11 43/62/11 41/61/11 
f 41/61/11 38/54/11 37/53/11 
f 45/65/11 41/61/11 37/53/11 47/68/11 
f 39/60/12 42/59/12 44/73/12 48/69/12 
f 44/73/12 46/70/12 48/69/12 
f 40/74/12 39/60/12 48/69/12 
f 49/75/13 50/76/14 51/77/14 52/78/13 
f 50/76/14 53/79/15 54/80/15 51/77/14 
f 53/79/15 49/81/13 52/82/13 54/80/15 
f 53/83/16 50/84/16 49/85/16 
f 52/78/17 51/77/18 55/86/17 
f 55/86/19 56/87/20 52/78/20 
f 51/77/21 54/80/22 57/88/22 
f 57/88/23 55/86/23 51/77/24 
f 56/89/25 57/88/25 54/80/25 52/82/25 
f 56/90/26 55/91/27 58/92/27 
f 58/92/28 59/93/28 56/90/28 
f 55/91/29 57/94/30 60/95/30 
f 60/95/31 58/92/31 55/91/31 
f 57/94/25 56/96/25 59/97/25 60/95/25 
f 59/97/25 61/98/25 62/99/25 60/95/25 
f 63/100/15 64/101/32 65/102/14 66/103/14 
f 66/103/14 65/102/14 67/104/33 68/105/13 
f 68/105/13 67/104/33 64/106/32 63/107/15 
f 68/108/16 63/109/16 66/110/16 
f 64/101/34 69/111/34 70/112/35 
f 70/112/36 65/102/37 64/101/37 
f 65/102/38 70/112/39 71/113/39 
f 71/113/40 67/104/40 65/102/41 
f 69/114/25 64/106/25 67/104/25 71/113/25 
f 69/115/42 61/116/42 72/117/42 
f 72/117/43 70/118/43 69/115/43 
f 70/118/44 72/117/45 62/99/44 
f 62/99/46 71/119/46 70/118/46 
f 71/119/25 62/99/25 61/98/25 69/120/25 
f 61/116/47 59/93/47 58/92/47 72/117/47 
f 58/92/48 60/95/48 62/99/48 72/117/48 
f 73/121/11 74/122/11 75/123/11 76/124/11 
f 76/125/16 77/126/16 78/127/16 73/121/16 
f 75/128/49 79/129/49 77/126/49 76/125/49 
f 74/122/50 80/130/50 79/131/50 75/132/50 
f 78/127/12 77/133/12 79/134/12 80/130/12 
f 74/122/51 73/121/51 78/127/51 80/130/51 
f 81/135/52 82/136/52 83/137/53 84/138/53 
f 84/138/53 83/137/53 85/139/54 86/140/54 
f 86/140/54 85/139/54 82/141/52 81/142/52 
f 86/83/55 81/85/55 84/84/55 
f 82/136/56 87/143/56 83/137/57 
f 87/143/58 82/136/59 88/144/59 
f 83/137/60 89/145/60 85/139/60 
f 89/145/61 83/137/62 87/143/61 
f 88/146/63 82/141/63 85/139/63 89/145/63 
f 88/147/64 90/148/65 87/149/65 
f 90/148/66 88/147/66 91/150/66 
f 87/149/67 92/151/68 89/152/68 
f 92/151/69 87/149/69 90/148/69 
f 89/152/63 92/151/63 91/153/63 88/154/63 
f 91/153/63 92/151/63 93/155/63 94/156/63 
f 95/157/70 96/158/53 97/159/53 98/160/70 
f 96/158/53 99/161/71 100/162/71 97/159/53 
f 99/161/71 95/163/70 98/164/70 100/162/71 
f 99/108/55 96/110/55 95/109/55 
f 98/160/72 101/165/73 102/166/72 
f 101/165/74 98/160/75 97/159/75 
f 97/159/76 103/167/77 101/165/77 
f 103/167/78 97/159/79 100/162/78 
f 102/168/63 103/167/63 100/162/63 98/164/63 
f 102/169/80 104/170/80 94/171/80 
f 104/170/81 102/169/81 101/172/81 
f 101/172/82 93/155/82 104/170/83 
f 93/155/84 101/172/84 103/173/84 
f 103/173/63 102/174/63 94/156/63 93/155/63 
f 94/171/85 104/170/85 90/148/85 91/150/85 
f 90/148/86 104/170/86 93/155/86 92/151/86 
f 105/121/11 106/124/11 107/123/11 108/122/11 
f 106/125/55 105/121/87 109/127/87 110/126/55 
f 107/128/88 106/125/88 110/126/88 111/129/88 
f 108/122/89 107/132/89 111/131/89 112/130/89 
f 109/127/12 112/130/12 111/134/12 110/133/12 
f 108/122/90 112/130/90 109/127/90 105/121/90 
# 68 polygons - 48 triangles

