# 3ds Max Wavefront OBJ Exporter v0.97b - (c)2007 guruware
# File Created: 16.06.2013 01:46:03

#
# object sign4_45deg
#

v  0.0172 0.8941 0.0171
v  0.0172 0.8941 0.0114
v  0.1544 1.0312 0.0114
v  0.1544 1.0312 0.0171
v  -0.1453 1.0566 0.0171
v  -0.0082 1.1938 0.0171
v  -0.0082 1.1938 0.0114
v  -0.1453 1.0566 0.0114
v  0.1600 1.0397 0.0171
v  0.1600 1.0481 0.0171
v  0.1544 1.0566 0.0171
v  0.0172 1.1938 0.0171
v  0.0087 1.1994 0.0171
v  0.0003 1.1994 0.0171
v  -0.1453 1.0312 0.0171
v  -0.1509 1.0481 0.0171
v  -0.1509 1.0397 0.0171
v  0.0087 0.8884 0.0171
v  0.0003 0.8884 0.0171
v  -0.0082 0.8941 0.0171
v  0.1544 1.0566 0.0114
v  0.0172 1.1938 0.0114
v  0.0087 0.8884 0.0114
v  0.0003 0.8884 0.0114
v  -0.0082 0.8941 0.0114
v  -0.1453 1.0312 0.0114
v  -0.1509 1.0397 0.0114
v  -0.1509 1.0481 0.0114
v  0.0003 1.1994 0.0114
v  0.0087 1.1994 0.0114
v  0.1600 1.0397 0.0114
v  0.1600 1.0481 0.0114
v  0.0105 1.1437 0.0103
v  0.0127 1.1385 0.0103
v  0.0053 1.1385 0.0103
v  0.0053 1.1459 0.0103
v  0.0000 1.1437 0.0103
v  -0.0022 1.1385 0.0103
v  0.0000 1.1332 0.0103
v  0.0053 1.1310 0.0103
v  0.0105 1.1332 0.0103
v  0.0105 1.1437 0.0201
v  0.0127 1.1385 0.0201
v  0.0053 1.1459 0.0201
v  0.0000 1.1437 0.0201
v  -0.0022 1.1385 0.0201
v  0.0000 1.1332 0.0201
v  0.0053 1.1310 0.0201
v  0.0105 1.1332 0.0201
v  0.0053 1.1385 0.0201
v  -0.0094 0.0102 0.0085
v  0.0091 0.0102 0.0085
v  0.0091 1.2125 0.0085
v  -0.0094 1.2125 0.0085
v  0.0206 1.2125 -0.0030
v  0.0091 1.2125 -0.0287
v  0.0206 1.2125 -0.0173
v  -0.0094 1.2125 -0.0287
v  -0.0209 1.2125 -0.0173
v  -0.0209 1.2125 -0.0030
v  0.0091 0.0102 -0.0287
v  -0.0094 0.0102 -0.0287
v  0.0206 0.0102 -0.0173
v  0.0206 0.0102 -0.0030
v  -0.0209 0.0102 -0.0030
v  -0.0209 0.0102 -0.0173
v  0.0105 0.9370 0.0103
v  0.0127 0.9318 0.0103
v  0.0053 0.9318 0.0103
v  0.0053 0.9392 0.0103
v  0.0000 0.9370 0.0103
v  -0.0022 0.9318 0.0103
v  0.0000 0.9265 0.0103
v  0.0053 0.9244 0.0103
v  0.0105 0.9265 0.0103
v  0.0105 0.9370 0.0191
v  0.0127 0.9318 0.0191
v  0.0053 0.9392 0.0191
v  0.0000 0.9370 0.0191
v  -0.0022 0.9318 0.0191
v  0.0000 0.9265 0.0191
v  0.0053 0.9244 0.0191
v  0.0105 0.9265 0.0191
v  0.0053 0.9318 0.0191
# 84 vertices

vn 0.7071 -0.7071 -0.0000
vn -0.7071 0.7071 -0.0000
vn 0.0000 0.0000 1.0000
vn 0.7071 0.7071 -0.0000
vn 0.0000 0.0000 -1.0000
vn -0.7071 -0.7071 -0.0000
vn 0.5547 -0.8320 -0.0000
vn 0.8320 -0.5547 -0.0000
vn -0.5546 0.8321 -0.0000
vn -0.8320 0.5547 -0.0000
vn 0.0000 -1.0000 -0.0000
vn -0.5547 -0.8320 -0.0000
vn 1.0000 0.0000 -0.0000
vn 0.8320 0.5547 -0.0000
vn 0.0000 1.0000 -0.0000
vn 0.5547 0.8320 -0.0000
vn -1.0000 0.0000 -0.0000
vn -0.8320 -0.5547 -0.0000
vn 0.9239 0.3827 -0.0000
vn 0.3827 0.9239 -0.0000
vn -0.3827 0.9239 -0.0000
vn -0.9239 0.3827 -0.0000
vn -0.9239 -0.3827 -0.0000
vn -0.3826 -0.9239 -0.0000
vn 0.3827 -0.9239 -0.0000
vn 0.9239 -0.3827 -0.0000
vn -0.3827 0.0000 0.9239
vn 0.3827 0.0000 0.9239
vn -0.3827 0.0000 -0.9239
vn 0.3827 0.0000 -0.9239
vn 0.9239 0.0000 0.3827
vn 0.9239 0.0000 -0.3827
vn -0.9239 0.0000 -0.3827
vn -0.9239 0.0000 0.3827
# 34 vertex normals

vt 0.3837 0.3313 0.0000
vt 0.3914 0.3218 0.0000
vt 0.6871 0.6135 0.0000
vt 0.6770 0.6200 0.0000
vt 0.0453 0.6726 0.0000
vt 0.3295 0.9613 0.0000
vt 0.3227 0.9716 0.0000
vt 0.0358 0.6801 0.0000
vt 0.6886 0.6376 0.0000
vt 0.6898 0.6553 0.0000
vt 0.6772 0.6730 0.0000
vt 0.3825 0.9628 0.0000
vt 0.3644 0.9745 0.0000
vt 0.3470 0.9725 0.0000
vt 0.0471 0.6196 0.0000
vt 0.0338 0.6546 0.0000
vt 0.0360 0.6372 0.0000
vt 0.3659 0.3188 0.0000
vt 0.3482 0.3198 0.0000
vt 0.3308 0.3312 0.0000
vt 0.6866 0.6807 0.0000
vt 0.3899 0.9723 0.0000
vt 0.3727 0.2173 0.0000
vt 0.5750 0.0257 0.0000
vt 0.5870 0.0182 0.0000
vt 0.5990 0.0184 0.0000
vt 0.6110 0.0265 0.0000
vt 0.8072 0.2213 0.0000
vt 0.8154 0.2333 0.0000
vt 0.8157 0.2453 0.0000
vt 0.8080 0.2573 0.0000
vt 0.5742 0.4584 0.0000
vt 0.6118 0.4581 0.0000
vt 0.5993 0.4667 0.0000
vt 0.5867 0.4668 0.0000
vt 0.3640 0.2296 0.0000
vt 0.3638 0.2419 0.0000
vt 0.3719 0.2544 0.0000
vt 0.3241 0.3212 0.0000
vt 0.0367 0.6129 0.0000
vt 0.3733 0.3091 0.0000
vt 0.6995 0.6332 0.0000
vt 0.3430 0.9836 0.0000
vt 0.0237 0.6616 0.0000
vt 0.3439 0.3089 0.0000
vt 0.3630 0.3066 0.0000
vt 0.7019 0.6523 0.0000
vt 0.6994 0.6627 0.0000
vt 0.3615 0.9864 0.0000
vt 0.3714 0.9846 0.0000
vt 0.0220 0.6517 0.0000
vt 0.0249 0.6332 0.0000
vt -13.2633 2.4378 -11.6935
vt -13.2586 2.4265 -11.6935
vt -13.2746 2.4265 -11.6935
vt -13.2746 2.4424 -11.6935
vt -13.2859 2.4378 -11.6935
vt -13.2905 2.4265 -11.6935
vt -13.2859 2.4152 -11.6935
vt -13.2746 2.4105 -11.6935
vt -13.2633 2.4152 -11.6935
vt -13.2633 2.4378 -11.6725
vt -13.2586 2.4265 -11.6725
vt -13.2746 2.4424 -11.6725
vt -13.2859 2.4378 -11.6725
vt -13.2905 2.4265 -11.6725
vt -13.2859 2.4152 -11.6725
vt -13.2746 2.4105 -11.6725
vt -13.2633 2.4152 -11.6725
vt -13.2746 2.4265 -11.6725
vt 0.9311 0.0240 0.5476
vt 0.9443 0.0240 0.5476
vt 0.9443 0.9819 0.5476
vt 0.9311 0.9819 0.5476
vt 0.7443 0.7572 0.0000
vt 0.7084 0.7572 0.0000
vt 0.6862 0.7813 0.0000
vt 0.7084 0.8351 0.0000
vt 0.6862 0.8111 0.0000
vt 0.7443 0.8351 0.0000
vt 0.7665 0.8111 0.0000
vt 0.7665 0.7813 0.0000
vt 0.8948 0.9819 0.5476
vt 0.8815 0.9819 0.5476
vt 0.8815 0.0240 0.5476
vt 0.8948 0.0240 0.5476
vt 0.7472 0.8624 0.0000
vt 0.7113 0.8624 0.0000
vt 0.6891 0.8864 0.0000
vt 0.7113 0.9403 0.0000
vt 0.6891 0.9162 0.0000
vt 0.7472 0.9403 0.0000
vt 0.7694 0.9162 0.0000
vt 0.7694 0.8864 0.0000
vt 0.9567 0.0240 0.5353
vt 0.9682 0.0240 0.5353
vt 0.9682 0.9819 0.5353
vt 0.9567 0.9819 0.5353
vt 0.9072 0.0240 0.5353
vt 0.9187 0.0240 0.5353
vt 0.9187 0.9819 0.5353
vt 0.9072 0.9819 0.5353
vt -13.2633 1.9933 -11.6935
vt -13.2586 1.9820 -11.6935
vt -13.2746 1.9820 -11.6935
vt -13.2746 1.9980 -11.6935
vt -13.2859 1.9933 -11.6935
vt -13.2905 1.9820 -11.6935
vt -13.2859 1.9707 -11.6935
vt -13.2746 1.9661 -11.6935
vt -13.2633 1.9707 -11.6935
vt -13.2633 1.9933 -11.6745
vt -13.2586 1.9820 -11.6745
vt -13.2746 1.9980 -11.6745
vt -13.2859 1.9933 -11.6745
vt -13.2905 1.9820 -11.6745
vt -13.2859 1.9707 -11.6745
vt -13.2746 1.9661 -11.6745
vt -13.2633 1.9707 -11.6745
vt -13.2746 1.9820 -11.6745
vt 0.8691 0.9819 0.5353
vt 0.8691 0.0240 0.5353
# 122 texture coords

g sign4_45deg
s off
f 1/1/1 2/2/1 3/3/1 4/4/1 
f 5/5/2 6/6/2 7/7/2 8/8/2 
f 1/1/3 4/4/3 9/9/3 
f 1/1/3 9/9/3 10/10/3 11/11/3 
f 11/11/3 12/12/3 13/13/3 
f 11/11/3 13/13/3 14/14/3 6/6/3 
f 1/1/3 11/11/3 6/6/3 15/15/3 
f 6/6/3 5/5/3 16/16/3 
f 6/6/3 16/16/3 17/17/3 15/15/3 
f 18/18/3 1/1/3 15/15/3 19/19/3 
f 20/20/3 19/19/3 15/15/3 
f 11/11/4 21/21/4 22/22/4 12/12/4 
f 3/23/5 2/24/5 23/25/5 
f 3/23/5 23/25/5 24/26/5 25/27/5 
f 25/27/5 26/28/5 27/29/5 
f 25/27/5 27/29/5 28/30/5 8/31/5 
f 3/23/5 25/27/5 8/31/5 22/32/5 
f 8/31/5 7/33/5 29/34/5 
f 8/31/5 29/34/5 30/35/5 22/32/5 
f 31/36/5 3/23/5 22/32/5 32/37/5 
f 21/38/5 32/37/5 22/32/5 
f 25/39/6 20/20/6 15/15/6 26/40/6 
f 23/41/7 2/2/7 1/1/7 18/18/7 
f 9/9/8 4/4/8 3/3/8 31/42/8 
f 29/43/9 7/7/9 6/6/9 14/14/9 
f 16/16/10 5/5/10 8/8/10 28/44/10 
f 24/45/11 23/46/11 18/18/11 19/19/11 
f 25/39/12 24/45/12 19/19/12 20/20/12 
f 10/10/13 9/9/13 31/42/13 32/47/13 
f 11/11/14 10/10/14 32/48/14 21/21/14 
f 30/49/15 29/43/15 14/14/15 13/13/15 
f 22/22/16 30/50/16 13/13/16 12/12/16 
f 17/17/17 16/16/17 28/51/17 27/52/17 
f 15/15/18 17/17/18 27/52/18 26/40/18 
f 33/53/5 34/54/5 35/55/5 36/56/5 
f 35/55/5 37/57/5 36/56/5 
f 38/58/5 37/57/5 35/55/5 39/59/5 
f 35/55/5 40/60/5 39/59/5 
f 41/61/5 40/60/5 35/55/5 34/54/5 
f 42/62/19 43/63/19 34/54/19 33/53/19 
f 44/64/20 42/62/20 33/53/20 36/56/20 
f 45/65/21 44/64/21 36/56/21 37/57/21 
f 46/66/22 45/65/22 37/57/22 38/58/22 
f 47/67/23 46/66/23 38/58/23 39/59/23 
f 48/68/24 47/67/24 39/59/24 40/60/24 
f 49/69/25 48/68/25 40/60/25 41/61/25 
f 43/63/26 49/69/26 41/61/26 34/54/26 
f 50/70/3 43/63/3 42/62/3 44/64/3 
f 50/70/3 44/64/3 45/65/3 46/66/3 
f 50/70/3 46/66/3 47/67/3 
f 50/70/3 47/67/3 48/68/3 49/69/3 
f 50/70/3 49/69/3 43/63/3 
s 1
f 51/71/27 52/72/28 53/73/28 54/74/27 
s off
f 54/75/15 53/76/15 55/77/15 56/78/15 
f 55/77/15 57/79/15 56/78/15 
f 56/78/15 58/80/15 59/81/15 54/75/15 
f 60/82/15 54/75/15 59/81/15 
s 1
f 58/83/29 56/84/30 61/85/30 62/86/29 
s off
f 62/87/11 61/88/11 63/89/11 52/90/11 
f 63/89/11 64/91/11 52/90/11 
f 52/90/11 51/92/11 65/93/11 62/87/11 
f 66/94/11 62/87/11 65/93/11 
s 1
f 64/95/31 63/96/32 57/97/32 55/98/31 
f 66/99/33 65/100/34 60/101/34 59/102/33 
s off
f 67/103/5 68/104/5 69/105/5 70/106/5 
f 69/105/5 71/107/5 70/106/5 
f 72/108/5 71/107/5 69/105/5 73/109/5 
f 69/105/5 74/110/5 73/109/5 
f 75/111/5 74/110/5 69/105/5 68/104/5 
f 76/112/19 77/113/19 68/104/19 67/103/19 
f 78/114/20 76/112/20 67/103/20 70/106/20 
f 79/115/21 78/114/21 70/106/21 71/107/21 
f 80/116/22 79/115/22 71/107/22 72/108/22 
f 81/117/23 80/116/23 72/108/23 73/109/23 
f 82/118/24 81/117/24 73/109/24 74/110/24 
f 83/119/25 82/118/25 74/110/25 75/111/25 
f 77/113/26 83/119/26 75/111/26 68/104/26 
f 84/120/3 77/113/3 76/112/3 78/114/3 
f 84/120/3 78/114/3 79/115/3 80/116/3 
f 84/120/3 80/116/3 81/117/3 
f 84/120/3 81/117/3 82/118/3 83/119/3 
f 84/120/3 83/119/3 77/113/3 
s 1
f 52/72/28 64/95/31 55/98/31 53/73/28 
f 54/74/27 60/101/34 65/100/34 51/71/27 
f 56/84/30 57/121/32 63/122/32 61/85/30 
f 62/86/29 66/99/33 59/102/33 58/83/29 
# 66 polygons - 20 triangles

