# 3ds Max Wavefront OBJ Exporter v0.97b - (c)2007 guruware
# File Created: 16.06.2013 01:14:09

mtllib RoadBlock_wood2.mtl

#
# object RoadBlock_wood2
#

v  0.4540 0.1560 0.1366
v  0.4540 0.1488 0.1198
v  0.4540 0.3528 0.0323
v  0.4540 0.3600 0.0492
v  -0.4540 0.1560 0.1366
v  -0.4540 0.3600 0.0492
v  -0.4540 0.3528 0.0323
v  -0.4540 0.1488 0.1198
v  0.4540 -0.1751 0.2642
v  0.4540 -0.1817 0.2471
v  0.4540 -0.0714 0.2042
v  0.4540 -0.0647 0.2213
v  -0.4540 -0.1751 0.2642
v  -0.4540 -0.0647 0.2213
v  -0.4540 -0.0714 0.2042
v  -0.4540 -0.1817 0.2471
v  0.4540 0.1560 -0.1366
v  0.4540 0.3600 -0.0492
v  0.4540 0.3528 -0.0323
v  0.4540 0.1488 -0.1198
v  -0.4540 0.1560 -0.1366
v  -0.4540 0.1488 -0.1198
v  -0.4540 0.3528 -0.0323
v  -0.4540 0.3600 -0.0492
v  0.4540 -0.1751 -0.2642
v  0.4540 -0.0647 -0.2213
v  0.4540 -0.0714 -0.2042
v  0.4540 -0.1817 -0.2471
v  -0.4540 -0.1751 -0.2642
v  -0.4540 -0.1817 -0.2471
v  -0.4540 -0.0714 -0.2042
v  -0.4540 -0.0647 -0.2213
v  -0.3760 0.3320 -0.0566
v  -0.3760 0.3349 -0.0629
v  -0.3785 0.3403 -0.0604
v  -0.3785 0.3373 -0.0540
v  -0.3844 0.3425 -0.0594
v  -0.3844 0.3396 -0.0530
v  -0.3903 0.3403 -0.0604
v  -0.3903 0.3373 -0.0540
v  -0.3928 0.3349 -0.0629
v  -0.3928 0.3320 -0.0566
v  -0.3903 0.3296 -0.0654
v  -0.3903 0.3266 -0.0591
v  -0.3844 0.3273 -0.0665
v  -0.3844 0.3244 -0.0601
v  -0.3785 0.3296 -0.0654
v  -0.3785 0.3266 -0.0591
v  -0.3760 0.1702 -0.1244
v  -0.3760 0.1732 -0.1308
v  -0.3785 0.1786 -0.1283
v  -0.3785 0.1756 -0.1219
v  -0.3844 0.1808 -0.1273
v  -0.3844 0.1778 -0.1209
v  -0.3903 0.1786 -0.1283
v  -0.3903 0.1756 -0.1219
v  -0.3928 0.1732 -0.1308
v  -0.3928 0.1702 -0.1244
v  -0.3903 0.1678 -0.1333
v  -0.3903 0.1648 -0.1269
v  -0.3844 0.1656 -0.1343
v  -0.3844 0.1626 -0.1280
v  -0.3785 0.1678 -0.1333
v  -0.3785 0.1648 -0.1269
v  0.4029 0.3320 -0.0566
v  0.4029 0.3349 -0.0629
v  0.4004 0.3403 -0.0604
v  0.4004 0.3373 -0.0540
v  0.3945 0.3425 -0.0594
v  0.3945 0.3396 -0.0530
v  0.3886 0.3403 -0.0604
v  0.3886 0.3373 -0.0540
v  0.3861 0.3349 -0.0629
v  0.3861 0.3320 -0.0566
v  0.3886 0.3296 -0.0654
v  0.3886 0.3266 -0.0591
v  0.3945 0.3273 -0.0665
v  0.3945 0.3244 -0.0601
v  0.4004 0.3296 -0.0654
v  0.4004 0.3266 -0.0591
v  0.4029 0.1702 -0.1244
v  0.4029 0.1732 -0.1308
v  0.4004 0.1786 -0.1283
v  0.4004 0.1756 -0.1219
v  0.3945 0.1808 -0.1273
v  0.3945 0.1778 -0.1209
v  0.3886 0.1786 -0.1283
v  0.3886 0.1756 -0.1219
v  0.3861 0.1732 -0.1308
v  0.3861 0.1702 -0.1244
v  0.3886 0.1678 -0.1333
v  0.3886 0.1648 -0.1269
v  0.3945 0.1656 -0.1343
v  0.3945 0.1626 -0.1280
v  0.4004 0.1678 -0.1333
v  0.4004 0.1648 -0.1269
v  0.4029 -0.1242 -0.2383
v  0.4029 -0.1212 -0.2446
v  0.4004 -0.1158 -0.2421
v  0.4004 -0.1188 -0.2358
v  0.3945 -0.1136 -0.2411
v  0.3945 -0.1166 -0.2347
v  0.3886 -0.1158 -0.2421
v  0.3886 -0.1188 -0.2358
v  0.3861 -0.1212 -0.2446
v  0.3861 -0.1242 -0.2383
v  0.3886 -0.1266 -0.2471
v  0.3886 -0.1295 -0.2408
v  0.3945 -0.1288 -0.2482
v  0.3945 -0.1318 -0.2418
v  0.4004 -0.1266 -0.2471
v  0.4004 -0.1295 -0.2408
v  -0.3760 -0.1242 -0.2383
v  -0.3760 -0.1212 -0.2446
v  -0.3785 -0.1158 -0.2421
v  -0.3785 -0.1188 -0.2358
v  -0.3844 -0.1136 -0.2411
v  -0.3844 -0.1166 -0.2347
v  -0.3903 -0.1158 -0.2421
v  -0.3903 -0.1188 -0.2358
v  -0.3928 -0.1212 -0.2446
v  -0.3928 -0.1242 -0.2383
v  -0.3903 -0.1266 -0.2471
v  -0.3903 -0.1295 -0.2408
v  -0.3844 -0.1288 -0.2482
v  -0.3844 -0.1318 -0.2418
v  -0.3785 -0.1266 -0.2471
v  -0.3785 -0.1295 -0.2408
v  -0.3760 0.3320 0.0558
v  -0.3785 0.3373 0.0533
v  -0.3785 0.3403 0.0596
v  -0.3760 0.3349 0.0621
v  -0.3844 0.3396 0.0522
v  -0.3844 0.3425 0.0586
v  -0.3903 0.3373 0.0533
v  -0.3903 0.3403 0.0596
v  -0.3928 0.3320 0.0558
v  -0.3928 0.3349 0.0621
v  -0.3903 0.3266 0.0583
v  -0.3903 0.3296 0.0647
v  -0.3844 0.3244 0.0593
v  -0.3844 0.3273 0.0657
v  -0.3785 0.3266 0.0583
v  -0.3785 0.3296 0.0647
v  -0.3760 0.1702 0.1236
v  -0.3785 0.1756 0.1211
v  -0.3785 0.1786 0.1275
v  -0.3760 0.1732 0.1300
v  -0.3844 0.1778 0.1201
v  -0.3844 0.1808 0.1265
v  -0.3903 0.1756 0.1211
v  -0.3903 0.1786 0.1275
v  -0.3928 0.1702 0.1236
v  -0.3928 0.1732 0.1300
v  -0.3903 0.1648 0.1261
v  -0.3903 0.1678 0.1325
v  -0.3844 0.1626 0.1272
v  -0.3844 0.1656 0.1336
v  -0.3785 0.1648 0.1261
v  -0.3785 0.1678 0.1325
v  0.4029 0.3320 0.0558
v  0.4004 0.3373 0.0533
v  0.4004 0.3403 0.0596
v  0.4029 0.3349 0.0621
v  0.3945 0.3396 0.0522
v  0.3945 0.3425 0.0586
v  0.3886 0.3373 0.0533
v  0.3886 0.3403 0.0596
v  0.3861 0.3320 0.0558
v  0.3861 0.3349 0.0621
v  0.3886 0.3266 0.0583
v  0.3886 0.3296 0.0647
v  0.3945 0.3244 0.0593
v  0.3945 0.3273 0.0657
v  0.4004 0.3266 0.0583
v  0.4004 0.3296 0.0647
v  0.4029 0.1702 0.1236
v  0.4004 0.1756 0.1211
v  0.4004 0.1786 0.1275
v  0.4029 0.1732 0.1300
v  0.3945 0.1778 0.1201
v  0.3945 0.1808 0.1265
v  0.3886 0.1756 0.1211
v  0.3886 0.1786 0.1275
v  0.3861 0.1702 0.1236
v  0.3861 0.1732 0.1300
v  0.3886 0.1648 0.1261
v  0.3886 0.1678 0.1325
v  0.3945 0.1626 0.1272
v  0.3945 0.1656 0.1336
v  0.4004 0.1648 0.1261
v  0.4004 0.1678 0.1325
v  0.4029 -0.1242 0.2375
v  0.4004 -0.1188 0.2350
v  0.4004 -0.1158 0.2414
v  0.4029 -0.1212 0.2439
v  0.3945 -0.1166 0.2339
v  0.3945 -0.1136 0.2403
v  0.3886 -0.1188 0.2350
v  0.3886 -0.1158 0.2414
v  0.3861 -0.1242 0.2375
v  0.3861 -0.1212 0.2439
v  0.3886 -0.1295 0.2400
v  0.3886 -0.1266 0.2464
v  0.3945 -0.1318 0.2410
v  0.3945 -0.1288 0.2474
v  0.4004 -0.1295 0.2400
v  0.4004 -0.1266 0.2464
v  -0.3760 -0.1242 0.2375
v  -0.3785 -0.1188 0.2350
v  -0.3785 -0.1158 0.2414
v  -0.3760 -0.1212 0.2439
v  -0.3844 -0.1166 0.2339
v  -0.3844 -0.1136 0.2403
v  -0.3903 -0.1188 0.2350
v  -0.3903 -0.1158 0.2414
v  -0.3928 -0.1242 0.2375
v  -0.3928 -0.1212 0.2439
v  -0.3903 -0.1295 0.2400
v  -0.3903 -0.1266 0.2464
v  -0.3844 -0.1318 0.2410
v  -0.3844 -0.1288 0.2474
v  -0.3785 -0.1295 0.2400
v  -0.3785 -0.1266 0.2464
v  -0.4112 -0.4204 0.3401
v  -0.4112 -0.4272 0.3231
v  -0.3647 -0.4272 0.3231
v  -0.3647 -0.4204 0.3401
v  -0.3647 0.4272 -0.0000
v  -0.4112 0.4272 -0.0000
v  -0.3647 0.3780 -0.0000
v  -0.4112 0.3780 -0.0000
v  -0.4112 -0.4204 -0.3401
v  -0.3647 -0.4204 -0.3401
v  -0.3647 -0.4272 -0.3231
v  -0.4112 -0.4272 -0.3231
v  0.3715 -0.4204 0.3401
v  0.3715 -0.4272 0.3231
v  0.4180 -0.4272 0.3231
v  0.4180 -0.4204 0.3401
v  0.4180 0.4272 -0.0000
v  0.3715 0.4272 -0.0000
v  0.4180 0.3780 -0.0000
v  0.3715 0.3780 -0.0000
v  0.3715 -0.4204 -0.3401
v  0.4180 -0.4204 -0.3401
v  0.4180 -0.4272 -0.3231
v  0.3715 -0.4272 -0.3231
# 248 vertices

vn 1.0000 0.0000 -0.0000
vn -1.0000 0.0000 -0.0000
vn 0.0000 0.3939 0.9191
vn 0.0000 0.9191 -0.3939
vn 0.0000 -0.3939 -0.9191
vn 0.0000 -0.9191 0.3939
vn 0.0000 0.3624 0.9320
vn 0.0000 0.9320 -0.3624
vn 0.0000 -0.3624 -0.9320
vn 0.0000 -0.9320 0.3624
vn 0.0000 0.3939 -0.9191
vn 0.0000 0.9191 0.3939
vn 0.0000 -0.3939 0.9191
vn 0.0000 -0.9191 -0.3939
vn 0.0000 0.3624 -0.9320
vn 0.0000 0.9320 0.3624
vn 0.0000 -0.3624 0.9320
vn 0.0000 -0.9320 -0.3624
vn 0.7071 0.6408 0.2989
vn 0.7071 0.6409 0.2988
vn 0.0000 0.9063 0.4226
vn -0.7071 0.6408 0.2989
vn -0.7071 0.6409 0.2988
vn -0.7071 -0.6409 -0.2988
vn 0.0000 -0.9063 -0.4226
vn 0.7071 -0.6409 -0.2988
vn 0.0000 -0.4226 0.9063
vn 0.0000 -0.4227 0.9063
vn 0.0000 0.4227 -0.9063
vn 0.0000 0.4226 -0.9063
vn -0.7071 -0.6408 -0.2989
vn 0.7071 -0.6408 -0.2989
vn 0.7071 0.6408 -0.2989
vn 0.0000 0.9063 -0.4226
vn -0.7071 0.6408 -0.2989
vn -0.7071 -0.6409 0.2988
vn -0.7071 -0.6408 0.2989
vn 0.0000 -0.9063 0.4226
vn 0.7071 -0.6409 0.2988
vn 0.7071 -0.6408 0.2989
vn 0.0000 -0.4226 -0.9063
vn 0.0000 0.4226 0.9063
vn 0.0000 0.4227 0.9063
vn 0.7071 0.6409 -0.2988
vn -0.7071 0.6409 -0.2988
vn 0.0000 -0.4227 -0.9063
vn 0.0000 -0.9281 0.3724
vn 0.0000 0.3724 0.9281
vn 0.0000 1.0000 -0.0000
vn 0.0000 -0.3724 -0.9281
vn 0.0000 -1.0000 -0.0000
vn 0.0000 -0.9281 -0.3724
vn 0.0000 -0.9280 -0.3725
vn 0.0000 0.3724 -0.9281
vn 0.0000 -0.3724 0.9281
# 55 vertex normals

vt 0.4913 0.0697 0.0000
vt 0.4914 0.0561 0.0000
vt 0.6406 0.0580 0.0000
vt 0.6405 0.0716 0.0000
vt 0.4842 0.7434 0.0000
vt 0.6334 0.7453 0.0000
vt 0.6333 0.7589 0.0000
vt 0.4840 0.7570 0.0000
vt 0.6528 0.0718 0.0000
vt 0.6457 0.7455 0.0000
vt 0.4506 0.7698 0.0000
vt 0.2953 0.7666 0.0000
vt 0.2924 0.0630 0.0000
vt 0.4502 0.0588 0.0000
vt 0.4789 0.0696 0.0000
vt 0.4718 0.7432 0.0000
vt 0.6961 0.1424 0.0000
vt 0.6962 0.1263 0.0000
vt 0.8161 0.1267 0.0000
vt 0.8161 0.1428 0.0000
vt 0.6923 0.9400 0.0000
vt 0.8123 0.9404 0.0000
vt 0.8122 0.9565 0.0000
vt 0.6922 0.9561 0.0000
vt 0.8347 0.1429 0.0000
vt 0.8309 0.9405 0.0000
vt 0.9695 0.9496 0.0000
vt 0.8597 0.9404 0.0000
vt 0.8579 0.1429 0.0000
vt 0.9685 0.1367 0.0000
vt 0.6775 0.1423 0.0000
vt 0.6737 0.9399 0.0000
vt 0.2366 0.4476 0.0000
vt 0.2357 0.4488 0.0000
vt 0.2546 0.4583 0.0000
vt 0.2554 0.4571 0.0000
vt 0.2614 0.4781 0.0000
vt 0.2622 0.4768 0.0000
vt 0.2521 0.4966 0.0000
vt 0.2530 0.4952 0.0000
vt 0.2322 0.5028 0.0000
vt 0.2332 0.5015 0.0000
vt 0.2134 0.4933 0.0000
vt 0.2144 0.4919 0.0000
vt 0.2066 0.4735 0.0000
vt 0.2076 0.4722 0.0000
vt 0.2158 0.4551 0.0000
vt 0.2168 0.4539 0.0000
vt 0.2716 0.3355 0.0000
vt 0.2706 0.3327 0.0000
vt 0.2610 0.3505 0.0000
vt 0.2621 0.3533 0.0000
vt 0.2412 0.3568 0.0000
vt 0.2423 0.3595 0.0000
vt 0.2226 0.3478 0.0000
vt 0.2238 0.3506 0.0000
vt 0.2163 0.3289 0.0000
vt 0.2175 0.3317 0.0000
vt 0.2259 0.3111 0.0000
vt 0.2271 0.3139 0.0000
vt 0.2457 0.3048 0.0000
vt 0.2469 0.3077 0.0000
vt 0.2642 0.3138 0.0000
vt 0.2653 0.3166 0.0000
vt 0.2435 0.7258 0.0000
vt 0.2431 0.7189 0.0000
vt 0.2612 0.7266 0.0000
vt 0.2616 0.7335 0.0000
vt 0.2678 0.7444 0.0000
vt 0.2681 0.7512 0.0000
vt 0.2590 0.7617 0.0000
vt 0.2593 0.7684 0.0000
vt 0.2399 0.7685 0.0000
vt 0.2403 0.7752 0.0000
vt 0.2218 0.7607 0.0000
vt 0.2222 0.7675 0.0000
vt 0.2152 0.7430 0.0000
vt 0.2156 0.7498 0.0000
vt 0.2240 0.7257 0.0000
vt 0.2244 0.7326 0.0000
vt 0.2340 0.5859 0.0000
vt 0.2318 0.5791 0.0000
vt 0.2494 0.5866 0.0000
vt 0.2515 0.5934 0.0000
vt 0.2556 0.6040 0.0000
vt 0.2577 0.6108 0.0000
vt 0.2469 0.6211 0.0000
vt 0.2490 0.6278 0.0000
vt 0.2282 0.6278 0.0000
vt 0.2304 0.6344 0.0000
vt 0.2107 0.6202 0.0000
vt 0.2129 0.6268 0.0000
vt 0.2045 0.6028 0.0000
vt 0.2068 0.6095 0.0000
vt 0.2133 0.5857 0.0000
vt 0.2155 0.5925 0.0000
vt 0.2309 0.0598 0.0000
vt 0.2316 0.0547 0.0000
vt 0.2472 0.0616 0.0000
vt 0.2464 0.0667 0.0000
vt 0.2534 0.0770 0.0000
vt 0.2525 0.0820 0.0000
vt 0.2465 0.0919 0.0000
vt 0.2457 0.0969 0.0000
vt 0.2306 0.0976 0.0000
vt 0.2299 0.1025 0.0000
vt 0.2150 0.0907 0.0000
vt 0.2144 0.0956 0.0000
vt 0.2088 0.0752 0.0000
vt 0.2082 0.0803 0.0000
vt 0.2157 0.0603 0.0000
vt 0.2151 0.0654 0.0000
vt 0.2485 0.1869 0.0000
vt 0.2490 0.1927 0.0000
vt 0.2651 0.1994 0.0000
vt 0.2646 0.1936 0.0000
vt 0.2715 0.2155 0.0000
vt 0.2709 0.2097 0.0000
vt 0.2644 0.2318 0.0000
vt 0.2638 0.2258 0.0000
vt 0.2479 0.2385 0.0000
vt 0.2475 0.2325 0.0000
vt 0.2318 0.2319 0.0000
vt 0.2314 0.2259 0.0000
vt 0.2254 0.2156 0.0000
vt 0.2251 0.2097 0.0000
vt 0.2326 0.1994 0.0000
vt 0.2322 0.1936 0.0000
vt 0.2594 0.3834 0.0000
vt 0.2783 0.3929 0.0000
vt 0.2774 0.3941 0.0000
vt 0.2585 0.3846 0.0000
vt 0.2851 0.4126 0.0000
vt 0.2842 0.4139 0.0000
vt 0.2758 0.4310 0.0000
vt 0.2750 0.4324 0.0000
vt 0.2560 0.4373 0.0000
vt 0.2551 0.4387 0.0000
vt 0.2372 0.4277 0.0000
vt 0.2362 0.4291 0.0000
vt 0.2304 0.4080 0.0000
vt 0.2294 0.4093 0.0000
vt 0.2396 0.3897 0.0000
vt 0.2386 0.3909 0.0000
vt 0.2598 0.2740 0.0000
vt 0.2503 0.2917 0.0000
vt 0.2492 0.2890 0.0000
vt 0.2588 0.2712 0.0000
vt 0.2305 0.2980 0.0000
vt 0.2294 0.2953 0.0000
vt 0.2120 0.2891 0.0000
vt 0.2108 0.2863 0.0000
vt 0.2057 0.2702 0.0000
vt 0.2045 0.2674 0.0000
vt 0.2153 0.2524 0.0000
vt 0.2141 0.2496 0.0000
vt 0.2351 0.2462 0.0000
vt 0.2339 0.2433 0.0000
vt 0.2535 0.2551 0.0000
vt 0.2524 0.2523 0.0000
vt 0.2540 0.6535 0.0000
vt 0.2721 0.6612 0.0000
vt 0.2718 0.6543 0.0000
vt 0.2536 0.6466 0.0000
vt 0.2787 0.6788 0.0000
vt 0.2784 0.6720 0.0000
vt 0.2699 0.6961 0.0000
vt 0.2695 0.6894 0.0000
vt 0.2508 0.7029 0.0000
vt 0.2504 0.6961 0.0000
vt 0.2327 0.6952 0.0000
vt 0.2323 0.6884 0.0000
vt 0.2262 0.6775 0.0000
vt 0.2257 0.6707 0.0000
vt 0.2350 0.6603 0.0000
vt 0.2345 0.6534 0.0000
vt 0.2503 0.5212 0.0000
vt 0.2677 0.5287 0.0000
vt 0.2656 0.5220 0.0000
vt 0.2481 0.5144 0.0000
vt 0.2740 0.5461 0.0000
vt 0.2719 0.5394 0.0000
vt 0.2652 0.5631 0.0000
vt 0.2631 0.5564 0.0000
vt 0.2467 0.5697 0.0000
vt 0.2445 0.5631 0.0000
vt 0.2292 0.5622 0.0000
vt 0.2270 0.5555 0.0000
vt 0.2230 0.5448 0.0000
vt 0.2208 0.5381 0.0000
vt 0.2317 0.5278 0.0000
vt 0.2295 0.5211 0.0000
vt 0.2674 0.0107 0.0000
vt 0.2829 0.0176 0.0000
vt 0.2837 0.0125 0.0000
vt 0.2681 0.0055 0.0000
vt 0.2891 0.0329 0.0000
vt 0.2899 0.0279 0.0000
vt 0.2822 0.0478 0.0000
vt 0.2830 0.0428 0.0000
vt 0.2664 0.0534 0.0000
vt 0.2671 0.0485 0.0000
vt 0.2509 0.0465 0.0000
vt 0.2515 0.0415 0.0000
vt 0.2448 0.0311 0.0000
vt 0.2454 0.0261 0.0000
vt 0.2516 0.0163 0.0000
vt 0.2522 0.0112 0.0000
vt 0.2561 0.1126 0.0000
vt 0.2721 0.1192 0.0000
vt 0.2726 0.1250 0.0000
vt 0.2565 0.1184 0.0000
vt 0.2784 0.1354 0.0000
vt 0.2790 0.1412 0.0000
vt 0.2713 0.1515 0.0000
vt 0.2719 0.1575 0.0000
vt 0.2550 0.1582 0.0000
vt 0.2554 0.1642 0.0000
vt 0.2389 0.1516 0.0000
vt 0.2393 0.1575 0.0000
vt 0.2326 0.1354 0.0000
vt 0.2329 0.1413 0.0000
vt 0.2397 0.1193 0.0000
vt 0.2401 0.1251 0.0000
vt 0.0371 0.0239 0.0000
vt 0.0371 0.0118 0.0000
vt 0.0679 0.0120 0.0000
vt 0.0678 0.0241 0.0000
vt 0.0646 0.6284 0.0000
vt 0.0339 0.6282 0.0000
vt 0.0800 0.0242 0.0000
vt 0.0769 0.5982 0.0000
vt 0.1107 0.0243 0.0000
vt 0.1077 0.5983 0.0000
vt 0.0219 0.5979 0.0000
vt 0.0249 0.0239 0.0000
vt 0.6217 0.8839 0.0000
vt 0.6220 0.8536 0.0000
vt 0.6340 0.8537 0.0000
vt 0.6337 0.8841 0.0000
vt 0.0254 0.8780 0.0000
vt 0.0257 0.8476 0.0000
vt 0.0556 0.8359 0.0000
vt 0.6222 0.8416 0.0000
vt 0.6225 0.8112 0.0000
vt 0.0559 0.8056 0.0000
vt 0.6226 0.7992 0.0000
vt 0.0262 0.7933 0.0000
vt 0.1296 0.0239 0.0000
vt 0.1296 0.0118 0.0000
vt 0.1604 0.0120 0.0000
vt 0.1603 0.0241 0.0000
vt 0.1571 0.6284 0.0000
vt 0.1264 0.6282 0.0000
vt 0.1725 0.0242 0.0000
vt 0.1694 0.5982 0.0000
vt 0.2032 0.0243 0.0000
vt 0.2002 0.5983 0.0000
vt 0.1144 0.5979 0.0000
vt 0.1174 0.0239 0.0000
vt 0.6301 0.9861 0.0000
vt 0.6304 0.9557 0.0000
vt 0.6424 0.9558 0.0000
vt 0.6421 0.9862 0.0000
vt 0.0337 0.9801 0.0000
vt 0.0340 0.9497 0.0000
vt 0.0640 0.9381 0.0000
vt 0.6305 0.9437 0.0000
vt 0.6308 0.9134 0.0000
vt 0.0643 0.9077 0.0000
vt 0.6309 0.9014 0.0000
vt 0.0345 0.8954 0.0000
# 272 texture coords

g RoadBlock_wood2
usemtl RoadBlock_wood2Mat
s off
f 1/1/1 2/2/1 3/3/1 4/4/1 
f 5/5/2 6/6/2 7/7/2 8/8/2 
f 1/1/3 4/4/3 6/6/3 5/5/3 
f 4/4/4 3/9/4 7/10/4 6/6/4 
f 3/11/5 2/12/5 8/13/5 7/14/5 
f 2/15/6 1/1/6 5/5/6 8/16/6 
f 9/17/1 10/18/1 11/19/1 12/20/1 
f 13/21/2 14/22/2 15/23/2 16/24/2 
f 9/17/7 12/20/7 14/22/7 13/21/7 
f 12/20/8 11/25/8 15/26/8 14/22/8 
f 11/27/9 10/28/9 16/29/9 15/30/9 
f 10/31/10 9/17/10 13/21/10 16/32/10 
f 17/1/1 18/4/1 19/3/1 20/2/1 
f 21/5/2 22/8/2 23/7/2 24/6/2 
f 17/1/11 21/5/11 24/6/11 18/4/11 
f 18/4/12 24/6/12 23/10/12 19/9/12 
f 19/11/13 23/14/13 22/13/13 20/12/13 
f 20/15/14 22/16/14 21/5/14 17/1/14 
f 25/17/1 26/20/1 27/19/1 28/18/1 
f 29/21/2 30/24/2 31/23/2 32/22/2 
f 25/17/15 29/21/15 32/22/15 26/20/15 
f 26/20/16 32/22/16 31/26/16 27/25/16 
f 27/27/17 31/30/17 30/29/17 28/28/17 
f 28/31/18 30/32/18 29/21/18 25/17/18 
f 33/33/1 34/34/1 35/35/19 36/36/20 
f 36/36/20 35/35/19 37/37/21 38/38/21 
f 38/38/21 37/37/21 39/39/22 40/40/23 
f 40/40/23 39/39/22 41/41/2 42/42/2 
f 42/42/2 41/41/2 43/43/24 44/44/24 
f 44/44/24 43/43/24 45/45/25 46/46/25 
f 46/46/25 45/45/25 47/47/26 48/48/26 
f 48/48/26 47/47/26 34/34/1 33/33/1 
f 46/46/27 42/42/27 44/44/27 
f 42/42/27 38/38/27 40/40/28 
f 38/38/27 33/33/27 36/36/28 
f 42/42/27 46/46/27 33/33/27 38/38/27 
f 48/48/27 33/33/27 46/46/27 
f 35/35/29 39/39/29 37/37/30 
f 39/39/29 43/43/30 41/41/30 
f 43/43/30 47/47/30 45/45/30 
f 39/39/29 35/35/29 47/47/30 43/43/30 
f 34/34/30 47/47/30 35/35/29 
f 49/49/1 50/50/1 51/51/20 52/52/20 
f 52/52/20 51/51/20 53/53/21 54/54/21 
f 54/54/21 53/53/21 55/55/23 56/56/23 
f 56/56/23 55/55/23 57/57/2 58/58/2 
f 58/58/2 57/57/2 59/59/24 60/60/31 
f 60/60/31 59/59/24 61/61/25 62/62/25 
f 62/62/25 61/61/25 63/63/26 64/64/32 
f 64/64/32 63/63/26 50/50/1 49/49/1 
f 62/62/27 58/58/27 60/60/28 
f 58/58/27 54/54/27 56/56/27 
f 54/54/27 49/49/27 52/52/27 
f 58/58/27 62/62/27 49/49/27 54/54/27 
f 64/64/28 49/49/27 62/62/27 
f 51/51/30 55/55/30 53/53/30 
f 55/55/30 59/59/30 57/57/30 
f 59/59/30 63/63/30 61/61/30 
f 55/55/30 51/51/30 63/63/30 59/59/30 
f 50/50/30 63/63/30 51/51/30 
f 65/65/1 66/66/1 67/67/19 68/68/20 
f 68/68/20 67/67/19 69/69/21 70/70/21 
f 70/70/21 69/69/21 71/71/22 72/72/23 
f 72/72/23 71/71/22 73/73/2 74/74/2 
f 74/74/2 73/73/2 75/75/24 76/76/24 
f 76/76/24 75/75/24 77/77/25 78/78/25 
f 78/78/25 77/77/25 79/79/26 80/80/26 
f 80/80/26 79/79/26 66/66/1 65/65/1 
f 78/78/27 74/74/27 76/76/27 
f 74/74/27 70/70/27 72/72/28 
f 70/70/27 65/65/27 68/68/28 
f 74/74/27 78/78/27 65/65/27 70/70/27 
f 80/80/27 65/65/27 78/78/27 
f 67/67/29 71/71/29 69/69/30 
f 71/71/29 75/75/30 73/73/30 
f 75/75/30 79/79/30 77/77/30 
f 71/71/29 67/67/29 79/79/30 75/75/30 
f 66/66/30 79/79/30 67/67/29 
f 81/81/1 82/82/1 83/83/20 84/84/20 
f 84/84/20 83/83/20 85/85/21 86/86/21 
f 86/86/21 85/85/21 87/87/23 88/88/23 
f 88/88/23 87/87/23 89/89/2 90/90/2 
f 90/90/2 89/89/2 91/91/24 92/92/31 
f 92/92/31 91/91/24 93/93/25 94/94/25 
f 94/94/25 93/93/25 95/95/26 96/96/32 
f 96/96/32 95/95/26 82/82/1 81/81/1 
f 94/94/27 90/90/27 92/92/28 
f 90/90/27 86/86/27 88/88/27 
f 86/86/27 81/81/27 84/84/27 
f 90/90/27 94/94/27 81/81/27 86/86/27 
f 96/96/28 81/81/27 94/94/27 
f 83/83/30 87/87/30 85/85/30 
f 87/87/30 91/91/30 89/89/30 
f 91/91/30 95/95/30 93/93/30 
f 87/87/30 83/83/30 95/95/30 91/91/30 
f 82/82/30 95/95/30 83/83/30 
f 97/97/1 98/98/1 99/99/20 100/100/19 
f 100/100/19 99/99/20 101/101/21 102/102/21 
f 102/102/21 101/101/21 103/103/23 104/104/22 
f 104/104/22 103/103/23 105/105/2 106/106/2 
f 106/106/2 105/105/2 107/107/31 108/108/24 
f 108/108/24 107/107/31 109/109/25 110/110/25 
f 110/110/25 109/109/25 111/111/32 112/112/26 
f 112/112/26 111/111/32 98/98/1 97/97/1 
f 110/110/28 106/106/28 108/108/27 
f 106/106/28 102/102/27 104/104/27 
f 102/102/27 97/97/28 100/100/27 
f 106/106/28 110/110/28 97/97/28 102/102/27 
f 112/112/27 97/97/28 110/110/28 
f 99/99/30 103/103/30 101/101/29 
f 103/103/30 107/107/30 105/105/29 
f 107/107/30 111/111/30 109/109/30 
f 103/103/30 99/99/30 111/111/30 107/107/30 
f 98/98/29 111/111/30 99/99/30 
f 113/113/1 114/114/1 115/115/20 116/116/19 
f 116/116/19 115/115/20 117/117/21 118/118/21 
f 118/118/21 117/117/21 119/119/23 120/120/22 
f 120/120/22 119/119/23 121/121/2 122/122/2 
f 122/122/2 121/121/2 123/123/31 124/124/24 
f 124/124/24 123/123/31 125/125/25 126/126/25 
f 126/126/25 125/125/25 127/127/32 128/128/26 
f 128/128/26 127/127/32 114/114/1 113/113/1 
f 126/126/28 122/122/28 124/124/27 
f 122/122/28 118/118/27 120/120/27 
f 118/118/27 113/113/28 116/116/27 
f 122/122/28 126/126/28 113/113/28 118/118/27 
f 128/128/27 113/113/28 126/126/28 
f 115/115/30 119/119/30 117/117/29 
f 119/119/30 123/123/30 121/121/29 
f 123/123/30 127/127/30 125/125/30 
f 119/119/30 115/115/30 127/127/30 123/123/30 
f 114/114/29 127/127/30 115/115/30 
f 129/129/1 130/130/33 131/131/33 132/132/1 
f 130/130/33 133/133/34 134/134/34 131/131/33 
f 133/133/34 135/135/35 136/136/35 134/134/34 
f 135/135/35 137/137/2 138/138/2 136/136/35 
f 137/137/2 139/139/36 140/140/37 138/138/2 
f 139/139/36 141/141/38 142/142/38 140/140/37 
f 141/141/38 143/143/39 144/144/40 142/142/38 
f 143/143/39 129/129/1 132/132/1 144/144/40 
f 141/141/41 139/139/41 137/137/41 
f 137/137/41 135/135/41 133/133/41 
f 133/133/41 130/130/41 129/129/41 
f 137/137/41 133/133/41 129/129/41 141/141/41 
f 143/143/41 141/141/41 129/129/41 
f 131/131/42 134/134/42 136/136/42 
f 136/136/42 138/138/43 140/140/42 
f 140/140/42 142/142/43 144/144/42 
f 136/136/42 140/140/42 144/144/42 131/131/42 
f 132/132/43 131/131/42 144/144/42 
f 145/145/1 146/146/44 147/147/33 148/148/1 
f 146/146/44 149/149/34 150/150/34 147/147/33 
f 149/149/34 151/151/45 152/152/35 150/150/34 
f 151/151/45 153/153/2 154/154/2 152/152/35 
f 153/153/2 155/155/36 156/156/36 154/154/2 
f 155/155/36 157/157/38 158/158/38 156/156/36 
f 157/157/38 159/159/39 160/160/39 158/158/38 
f 159/159/39 145/145/1 148/148/1 160/160/39 
f 157/157/41 155/155/41 153/153/41 
f 153/153/41 151/151/41 149/149/41 
f 149/149/41 146/146/41 145/145/41 
f 153/153/41 149/149/41 145/145/41 157/157/41 
f 159/159/41 157/157/41 145/145/41 
f 147/147/43 150/150/42 152/152/43 
f 152/152/43 154/154/42 156/156/42 
f 156/156/42 158/158/43 160/160/42 
f 152/152/43 156/156/42 160/160/42 147/147/43 
f 148/148/42 147/147/43 160/160/42 
f 161/161/1 162/162/33 163/163/33 164/164/1 
f 162/162/33 165/165/34 166/166/34 163/163/33 
f 165/165/34 167/167/35 168/168/35 166/166/34 
f 167/167/35 169/169/2 170/170/2 168/168/35 
f 169/169/2 171/171/36 172/172/37 170/170/2 
f 171/171/36 173/173/38 174/174/38 172/172/37 
f 173/173/38 175/175/39 176/176/40 174/174/38 
f 175/175/39 161/161/1 164/164/1 176/176/40 
f 173/173/41 171/171/41 169/169/41 
f 169/169/41 167/167/41 165/165/41 
f 165/165/41 162/162/41 161/161/41 
f 169/169/41 165/165/41 161/161/41 173/173/41 
f 175/175/41 173/173/41 161/161/41 
f 163/163/42 166/166/42 168/168/42 
f 168/168/42 170/170/43 172/172/42 
f 172/172/42 174/174/43 176/176/42 
f 168/168/42 172/172/42 176/176/42 163/163/42 
f 164/164/43 163/163/42 176/176/42 
f 177/177/1 178/178/44 179/179/33 180/180/1 
f 178/178/44 181/181/34 182/182/34 179/179/33 
f 181/181/34 183/183/45 184/184/35 182/182/34 
f 183/183/45 185/185/2 186/186/2 184/184/35 
f 185/185/2 187/187/36 188/188/36 186/186/2 
f 187/187/36 189/189/38 190/190/38 188/188/36 
f 189/189/38 191/191/39 192/192/39 190/190/38 
f 191/191/39 177/177/1 180/180/1 192/192/39 
f 189/189/41 187/187/41 185/185/41 
f 185/185/41 183/183/41 181/181/41 
f 181/181/41 178/178/41 177/177/41 
f 185/185/41 181/181/41 177/177/41 189/189/41 
f 191/191/41 189/189/41 177/177/41 
f 179/179/43 182/182/42 184/184/43 
f 184/184/43 186/186/42 188/188/42 
f 188/188/42 190/190/43 192/192/42 
f 184/184/43 188/188/42 192/192/42 179/179/43 
f 180/180/42 179/179/43 192/192/42 
f 193/193/1 194/194/33 195/195/44 196/196/1 
f 194/194/33 197/197/34 198/198/34 195/195/44 
f 197/197/34 199/199/35 200/200/45 198/198/34 
f 199/199/35 201/201/2 202/202/2 200/200/45 
f 201/201/2 203/203/37 204/204/36 202/202/2 
f 203/203/37 205/205/38 206/206/38 204/204/36 
f 205/205/38 207/207/40 208/208/39 206/206/38 
f 207/207/40 193/193/1 196/196/1 208/208/39 
f 205/205/41 203/203/41 201/201/41 
f 201/201/41 199/199/41 197/197/46 
f 197/197/46 194/194/41 193/193/41 
f 201/201/41 197/197/46 193/193/41 205/205/41 
f 207/207/41 205/205/41 193/193/41 
f 195/195/42 198/198/42 200/200/42 
f 200/200/42 202/202/42 204/204/43 
f 204/204/43 206/206/42 208/208/43 
f 200/200/42 204/204/43 208/208/43 195/195/42 
f 196/196/42 195/195/42 208/208/43 
f 209/209/1 210/210/33 211/211/44 212/212/1 
f 210/210/33 213/213/34 214/214/34 211/211/44 
f 213/213/34 215/215/35 216/216/45 214/214/34 
f 215/215/35 217/217/2 218/218/2 216/216/45 
f 217/217/2 219/219/37 220/220/36 218/218/2 
f 219/219/37 221/221/38 222/222/38 220/220/36 
f 221/221/38 223/223/40 224/224/39 222/222/38 
f 223/223/40 209/209/1 212/212/1 224/224/39 
f 221/221/41 219/219/41 217/217/41 
f 217/217/41 215/215/41 213/213/46 
f 213/213/46 210/210/41 209/209/41 
f 217/217/41 213/213/46 209/209/41 221/221/41 
f 223/223/41 221/221/41 209/209/41 
f 211/211/42 214/214/42 216/216/42 
f 216/216/42 218/218/42 220/220/43 
f 220/220/43 222/222/42 224/224/43 
f 216/216/42 220/220/43 224/224/43 211/211/42 
f 212/212/42 211/211/42 224/224/43 
f 225/225/47 226/226/47 227/227/47 228/228/47 
f 228/228/48 229/229/49 230/230/49 225/225/48 
f 228/228/1 227/231/1 231/232/1 229/229/1 
f 226/233/50 232/234/51 231/232/51 227/231/50 
f 225/225/2 230/230/2 232/235/2 226/236/2 
f 233/237/52 234/238/52 235/239/53 236/240/53 
f 234/238/54 233/237/54 230/241/49 229/242/49 
f 234/238/1 229/242/1 231/243/1 235/244/1 
f 236/245/55 235/244/55 231/243/51 232/246/51 
f 233/247/2 236/245/2 232/246/2 230/248/2 
f 237/249/47 238/250/47 239/251/47 240/252/47 
f 240/252/48 241/253/49 242/254/49 237/249/48 
f 240/252/1 239/255/1 243/256/1 241/253/1 
f 238/257/50 244/258/51 243/256/51 239/255/50 
f 237/249/2 242/254/2 244/259/2 238/260/2 
f 245/261/52 246/262/52 247/263/53 248/264/53 
f 246/262/54 245/261/54 242/265/49 241/266/49 
f 246/262/1 241/266/1 243/267/1 247/268/1 
f 248/269/55 247/268/55 243/267/51 244/270/51 
f 245/271/2 248/269/2 244/270/2 242/272/2 
# 164 polygons - 96 triangles

