# 3ds Max Wavefront OBJ Exporter v0.97b - (c)2007 guruware
# File Created: 16.06.2013 01:33:01

#
# object roadblocksign3
#

v  0.0245 0.0162 -0.0000
v  0.0209 0.0162 -0.0135
v  0.0209 0.7560 -0.0135
v  0.0245 0.7560 -0.0000
v  0.0110 0.0162 -0.0233
v  0.0110 0.7560 -0.0233
v  -0.0024 0.0162 -0.0269
v  -0.0024 0.7560 -0.0269
v  -0.0159 0.0162 -0.0233
v  -0.0159 0.7560 -0.0233
v  -0.0257 0.0162 -0.0135
v  -0.0257 0.7560 -0.0135
v  -0.0293 0.0162 -0.0000
v  -0.0293 0.7560 -0.0000
v  -0.0257 0.0162 0.0135
v  -0.0257 0.7560 0.0135
v  -0.0159 0.0162 0.0233
v  -0.0159 0.7560 0.0233
v  -0.0024 0.0162 0.0269
v  -0.0024 0.7560 0.0269
v  0.0110 0.0162 0.0233
v  0.0110 0.7560 0.0233
v  0.0209 0.0162 0.0135
v  0.0209 0.7560 0.0135
v  0.1477 0.0077 -0.0000
v  0.1329 0.0077 -0.0652
v  0.1329 0.0211 -0.0652
v  0.1477 0.0211 -0.0000
v  0.0912 0.0077 -0.1174
v  0.0912 0.0211 -0.1174
v  0.0310 0.0077 -0.1464
v  0.0310 0.0211 -0.1464
v  -0.0358 0.0077 -0.1464
v  -0.0358 0.0211 -0.1464
v  -0.0961 0.0077 -0.1174
v  -0.0961 0.0211 -0.1174
v  -0.1377 0.0077 -0.0652
v  -0.1377 0.0211 -0.0652
v  -0.1526 0.0077 -0.0000
v  -0.1526 0.0211 -0.0000
v  -0.1377 0.0077 0.0652
v  -0.1377 0.0211 0.0652
v  -0.0961 0.0077 0.1174
v  -0.0961 0.0211 0.1174
v  -0.0358 0.0077 0.1464
v  -0.0358 0.0211 0.1464
v  0.0310 0.0077 0.1464
v  0.0310 0.0211 0.1464
v  0.0912 0.0077 0.1174
v  0.0912 0.0211 0.1174
v  0.1329 0.0077 0.0652
v  0.1329 0.0211 0.0652
v  0.0304 0.4565 -0.0000
v  0.0241 0.4565 -0.0193
v  0.0241 0.4595 -0.0193
v  0.0304 0.4595 -0.0000
v  0.0077 0.4565 -0.0312
v  0.0077 0.4595 -0.0312
v  -0.0126 0.4565 -0.0312
v  -0.0126 0.4595 -0.0312
v  -0.0290 0.4565 -0.0193
v  -0.0290 0.4595 -0.0193
v  -0.0352 0.4565 -0.0000
v  -0.0352 0.4595 -0.0000
v  -0.0290 0.4565 0.0193
v  -0.0290 0.4595 0.0193
v  -0.0126 0.4565 0.0312
v  -0.0126 0.4595 0.0312
v  0.0077 0.4565 0.0312
v  0.0077 0.4595 0.0312
v  0.0241 0.4565 0.0193
v  0.0241 0.4595 0.0193
v  0.0304 0.6484 -0.0000
v  0.0241 0.6484 -0.0193
v  0.0241 0.6514 -0.0193
v  0.0304 0.6514 -0.0000
v  0.0077 0.6484 -0.0312
v  0.0077 0.6514 -0.0312
v  -0.0126 0.6484 -0.0312
v  -0.0126 0.6514 -0.0312
v  -0.0290 0.6484 -0.0193
v  -0.0290 0.6514 -0.0193
v  -0.0352 0.6484 -0.0000
v  -0.0352 0.6514 -0.0000
v  -0.0290 0.6484 0.0193
v  -0.0290 0.6514 0.0193
v  -0.0126 0.6484 0.0312
v  -0.0126 0.6514 0.0312
v  0.0077 0.6484 0.0312
v  0.0077 0.6514 0.0312
v  0.0241 0.6484 0.0193
v  0.0241 0.6514 0.0193
v  0.0304 0.7529 -0.0000
v  0.0241 0.7529 -0.0193
v  0.0241 0.7559 -0.0193
v  0.0304 0.7559 -0.0000
v  0.0077 0.7529 -0.0312
v  0.0077 0.7559 -0.0312
v  -0.0126 0.7529 -0.0312
v  -0.0126 0.7559 -0.0312
v  -0.0290 0.7529 -0.0193
v  -0.0290 0.7559 -0.0193
v  -0.0352 0.7529 -0.0000
v  -0.0352 0.7559 -0.0000
v  -0.0290 0.7529 0.0193
v  -0.0290 0.7559 0.0193
v  -0.0126 0.7529 0.0312
v  -0.0126 0.7559 0.0312
v  0.0077 0.7529 0.0312
v  0.0077 0.7559 0.0312
v  0.0241 0.7529 0.0193
v  0.0241 0.7559 0.0193
v  0.0084 0.7633 -0.0079
v  0.0017 0.7633 -0.0127
v  -0.0066 0.7633 -0.0127
v  -0.0132 0.7633 -0.0079
v  -0.0158 0.7633 -0.0000
v  -0.0132 0.7633 0.0079
v  -0.0066 0.7633 0.0127
v  0.0017 0.7633 0.0127
v  0.0084 0.7633 0.0079
v  0.0109 0.7633 -0.0000
v  0.0169 0.7746 -0.0000
v  0.0143 0.7746 -0.0097
v  0.0143 0.8085 -0.0097
v  0.0169 0.8085 -0.0000
v  0.0072 0.7746 -0.0167
v  0.0072 0.8085 -0.0167
v  -0.0024 0.7746 -0.0193
v  -0.0024 0.8085 -0.0193
v  -0.0121 0.7746 -0.0167
v  -0.0121 0.8085 -0.0167
v  -0.0192 0.7746 -0.0097
v  -0.0192 0.8085 -0.0097
v  -0.0217 0.7746 -0.0000
v  -0.0217 0.8085 -0.0000
v  -0.0192 0.7746 0.0097
v  -0.0192 0.8085 0.0097
v  -0.0121 0.7746 0.0167
v  -0.0121 0.8085 0.0167
v  -0.0024 0.7746 0.0193
v  -0.0024 0.8085 0.0193
v  0.0072 0.7746 0.0167
v  0.0072 0.8085 0.0167
v  0.0143 0.7746 0.0097
v  0.0143 0.8085 0.0097
v  0.0103 0.7577 -0.0000
v  0.0086 0.7577 -0.0064
v  0.0086 0.7801 -0.0064
v  0.0103 0.7801 -0.0000
v  0.0039 0.7577 -0.0110
v  0.0039 0.7801 -0.0110
v  -0.0024 0.7577 -0.0127
v  -0.0024 0.7801 -0.0127
v  -0.0088 0.7577 -0.0110
v  -0.0088 0.7801 -0.0110
v  -0.0135 0.7577 -0.0064
v  -0.0135 0.7801 -0.0064
v  -0.0152 0.7577 -0.0000
v  -0.0152 0.7801 -0.0000
v  -0.0135 0.7577 0.0064
v  -0.0135 0.7801 0.0064
v  -0.0088 0.7577 0.0110
v  -0.0088 0.7801 0.0110
v  -0.0024 0.7577 0.0127
v  -0.0024 0.7801 0.0127
v  0.0039 0.7577 0.0110
v  0.0039 0.7801 0.0110
v  0.0086 0.7577 0.0064
v  0.0086 0.7801 0.0064
# 170 vertices

vn 1.0000 0.0000 -0.0000
vn 0.8660 0.0000 -0.5001
vn 0.4999 0.0000 -0.8661
vn 0.0000 0.0000 -1.0000
vn -0.4999 0.0000 -0.8661
vn -0.8660 0.0000 -0.5001
vn -1.0000 0.0000 -0.0000
vn -0.8660 0.0000 0.5000
vn -0.4999 0.0000 0.8661
vn 0.0000 0.0000 1.0000
vn 0.4999 0.0000 0.8661
vn 0.8660 0.0000 0.5000
vn 0.9010 0.0000 -0.4339
vn 0.6235 0.0000 -0.7818
vn 0.2225 0.0000 -0.9749
vn -0.2225 0.0000 -0.9749
vn -0.6236 0.0000 -0.7817
vn -0.9010 0.0000 -0.4339
vn -0.9010 0.0000 -0.4338
vn -0.9010 0.0000 0.4338
vn -0.9010 0.0000 0.4339
vn -0.6236 0.0000 0.7818
vn -0.2225 0.0000 0.9749
vn 0.2225 0.0000 0.9749
vn 0.6234 0.0000 0.7819
vn 0.9010 0.0000 0.4339
vn 0.0000 -1.0000 -0.0000
vn 0.0000 1.0000 -0.0000
vn 0.8090 0.0000 -0.5878
vn 0.8089 0.0000 -0.5879
vn 0.3090 0.0000 -0.9510
vn -0.3090 0.0000 -0.9510
vn -0.8089 0.0000 -0.5879
vn -0.8090 0.0000 -0.5878
vn -0.8090 0.0000 0.5878
vn -0.3090 0.0000 0.9510
vn -0.3090 0.0000 0.9511
vn 0.3090 0.0000 0.9511
vn 0.3090 0.0000 0.9510
vn 0.8090 0.0000 0.5878
vn 0.3089 0.0000 -0.9511
vn 0.3088 0.0000 -0.9511
vn -0.3090 0.0000 -0.9511
vn -0.8091 0.0000 -0.5877
vn -0.8091 0.0000 0.5877
vn 0.3088 0.0000 0.9511
vn 0.3089 0.0000 0.9511
vn -0.3091 0.0000 -0.9510
vn -0.3091 0.0000 0.9510
vn 0.3539 0.9282 -0.1151
vn 0.3537 0.9282 -0.1151
vn 0.3537 0.9283 -0.1150
vn 0.2187 0.9282 -0.3011
vn 0.2189 0.9281 -0.3011
vn 0.0000 0.9282 -0.3721
vn 0.0000 0.9282 -0.3722
vn -0.2187 0.9282 -0.3011
vn -0.2189 0.9281 -0.3011
vn -0.3539 0.9282 -0.1151
vn -0.3537 0.9283 -0.1150
vn -0.3539 0.9282 0.1150
vn -0.3539 0.9282 0.1151
vn -0.3537 0.9283 0.1150
vn -0.2189 0.9281 0.3011
vn -0.2187 0.9282 0.3011
vn 0.0000 0.9282 0.3721
vn 0.0000 0.9282 0.3722
vn 0.2187 0.9282 0.3011
vn 0.2189 0.9281 0.3011
vn 0.3537 0.9282 0.1151
vn 0.3539 0.9282 0.1150
vn 0.3537 0.9283 0.1150
vn -0.8660 0.0000 0.5001
vn 0.8660 0.0000 0.5001
# 74 vertex normals

vt 0.9401 0.0240 0.0000
vt 0.9506 0.0240 0.0000
vt 0.9506 0.9420 0.0000
vt 0.9401 0.9420 0.0000
vt 0.9612 0.0240 0.0000
vt 0.9612 0.9420 0.0000
vt 0.9717 0.0240 0.0000
vt 0.9717 0.9420 0.0000
vt 0.8453 0.0240 0.0000
vt 0.8558 0.0240 0.0000
vt 0.8558 0.9420 0.0000
vt 0.8453 0.9420 0.0000
vt 0.8664 0.0240 0.0000
vt 0.8664 0.9420 0.0000
vt 0.8769 0.0240 0.0000
vt 0.8769 0.9420 0.0000
vt 0.8874 0.0240 0.0000
vt 0.8874 0.9420 0.0000
vt 0.8980 0.0240 0.0000
vt 0.8980 0.9420 0.0000
vt 0.9085 0.0240 0.0000
vt 0.9085 0.9420 0.0000
vt 0.9190 0.0240 0.0000
vt 0.9190 0.9420 0.0000
vt 0.9296 0.0240 0.0000
vt 0.9296 0.9420 0.0000
vt 0.6974 0.9588 0.0000
vt 0.7648 0.9588 0.0000
vt 0.7648 0.9812 0.0000
vt 0.6974 0.9812 0.0000
vt 0.8321 0.9588 0.0000
vt 0.8321 0.9812 0.0000
vt 0.8994 0.9588 0.0000
vt 0.8994 0.9812 0.0000
vt 0.9668 0.9588 0.0000
vt 0.9668 0.9812 0.0000
vt 0.0240 0.9588 0.0000
vt 0.0914 0.9588 0.0000
vt 0.0914 0.9812 0.0000
vt 0.0240 0.9812 0.0000
vt 0.1587 0.9588 0.0000
vt 0.1587 0.9812 0.0000
vt 0.2261 0.9588 0.0000
vt 0.2261 0.9812 0.0000
vt 0.2934 0.9588 0.0000
vt 0.2934 0.9812 0.0000
vt 0.3607 0.9588 0.0000
vt 0.3607 0.9812 0.0000
vt 0.4281 0.9588 0.0000
vt 0.4281 0.9812 0.0000
vt 0.4954 0.9588 0.0000
vt 0.4954 0.9812 0.0000
vt 0.5628 0.9588 0.0000
vt 0.5628 0.9812 0.0000
vt 0.6301 0.9588 0.0000
vt 0.6301 0.9812 0.0000
vt 0.7897 0.5480 0.0000
vt 0.8117 0.5024 0.0000
vt 0.8117 0.4518 0.0000
vt 0.7008 0.5908 0.0000
vt 0.7897 0.4063 0.0000
vt 0.7502 0.3747 0.0000
vt 0.6515 0.3747 0.0000
vt 0.7008 0.3635 0.0000
vt 0.6119 0.4063 0.0000
vt 0.5900 0.4518 0.0000
vt 0.5900 0.5024 0.0000
vt 0.6119 0.5480 0.0000
vt 0.6515 0.5796 0.0000
vt 0.7502 0.5796 0.0000
vt 0.1289 0.9196 0.0000
vt 0.0677 0.8708 0.0000
vt 0.0338 0.8004 0.0000
vt 0.2814 0.9196 0.0000
vt 0.0338 0.7222 0.0000
vt 0.0677 0.6517 0.0000
vt 0.1289 0.6030 0.0000
vt 0.2051 0.5856 0.0000
vt 0.2814 0.6030 0.0000
vt 0.3425 0.6517 0.0000
vt 0.3764 0.7222 0.0000
vt 0.3764 0.8004 0.0000
vt 0.3425 0.8708 0.0000
vt 0.2051 0.9370 0.0000
vt 0.6672 0.9352 0.0000
vt 0.7104 0.9352 0.0000
vt 0.7104 0.9487 0.0000
vt 0.6672 0.9487 0.0000
vt 0.7536 0.9352 0.0000
vt 0.7536 0.9487 0.0000
vt 0.7969 0.9352 0.0000
vt 0.7969 0.9487 0.0000
vt 0.3645 0.9352 0.0000
vt 0.4077 0.9352 0.0000
vt 0.4077 0.9487 0.0000
vt 0.3645 0.9487 0.0000
vt 0.4510 0.9352 0.0000
vt 0.4510 0.9487 0.0000
vt 0.4942 0.9352 0.0000
vt 0.4942 0.9487 0.0000
vt 0.5374 0.9352 0.0000
vt 0.5374 0.9487 0.0000
vt 0.5807 0.9352 0.0000
vt 0.5807 0.9487 0.0000
vt 0.6239 0.9352 0.0000
vt 0.6239 0.9487 0.0000
vt 0.5678 0.8435 0.0000
vt 0.5678 0.7841 0.0000
vt 0.5329 0.7360 0.0000
vt 0.4764 0.9099 0.0000
vt 0.4764 0.7177 0.0000
vt 0.4199 0.7360 0.0000
vt 0.3850 0.7841 0.0000
vt 0.3850 0.8435 0.0000
vt 0.4199 0.8916 0.0000
vt 0.5329 0.8916 0.0000
vt 0.6089 0.8063 0.0000
vt 0.5707 0.7537 0.0000
vt 0.5707 0.6885 0.0000
vt 0.6089 0.6359 0.0000
vt 0.6709 0.6157 0.0000
vt 0.7328 0.6359 0.0000
vt 0.7711 0.6885 0.0000
vt 0.7711 0.7537 0.0000
vt 0.7328 0.8063 0.0000
vt 0.6709 0.8265 0.0000
vt 0.6987 0.9194 0.0000
vt 0.7419 0.9194 0.0000
vt 0.7419 0.9329 0.0000
vt 0.6987 0.9329 0.0000
vt 0.7852 0.9194 0.0000
vt 0.7852 0.9329 0.0000
vt 0.8284 0.9194 0.0000
vt 0.8284 0.9329 0.0000
vt 0.3961 0.9194 0.0000
vt 0.4393 0.9194 0.0000
vt 0.4393 0.9329 0.0000
vt 0.3961 0.9329 0.0000
vt 0.4825 0.9194 0.0000
vt 0.4825 0.9329 0.0000
vt 0.5258 0.9194 0.0000
vt 0.5258 0.9329 0.0000
vt 0.5690 0.9194 0.0000
vt 0.5690 0.9329 0.0000
vt 0.6122 0.9194 0.0000
vt 0.6122 0.9329 0.0000
vt 0.6555 0.9194 0.0000
vt 0.6555 0.9329 0.0000
vt 0.5541 0.6322 0.0000
vt 0.5541 0.5734 0.0000
vt 0.5196 0.5259 0.0000
vt 0.4636 0.6980 0.0000
vt 0.4636 0.5077 0.0000
vt 0.4077 0.5259 0.0000
vt 0.3732 0.5734 0.0000
vt 0.3732 0.6322 0.0000
vt 0.4077 0.6798 0.0000
vt 0.5196 0.6798 0.0000
vt 0.4572 0.5016 0.0000
vt 0.4281 0.4616 0.0000
vt 0.4281 0.4122 0.0000
vt 0.4572 0.3723 0.0000
vt 0.5042 0.3570 0.0000
vt 0.5512 0.3723 0.0000
vt 0.5802 0.4122 0.0000
vt 0.5802 0.4616 0.0000
vt 0.5512 0.5016 0.0000
vt 0.5042 0.5169 0.0000
vt 0.2308 0.1761 0.0000
vt 0.1865 0.2067 0.0000
vt 0.1790 0.2050 0.0000
vt 0.2292 0.1750 0.0000
vt 0.1726 0.2060 0.0000
vt 0.1356 0.2122 0.0000
vt 0.1395 0.2052 0.0000
vt 0.0872 0.2116 0.0000
vt 0.0842 0.2048 0.0000
vt 0.0472 0.2431 0.0000
vt 0.0432 0.2368 0.0000
vt 0.0746 0.1223 0.0000
vt 0.0918 0.0713 0.0000
vt 0.0934 0.0725 0.0000
vt 0.0763 0.1230 0.0000
vt 0.1361 0.0392 0.0000
vt 0.1367 0.0411 0.0000
vt 0.1908 0.0395 0.0000
vt 0.1902 0.0414 0.0000
vt 0.2344 0.0724 0.0000
vt 0.2328 0.0735 0.0000
vt 0.2496 0.1249 0.0000
vt 0.2476 0.1248 0.0000
vt 0.1709 0.3352 0.0000
vt 0.1219 0.3523 0.0000
vt 0.0716 0.3388 0.0000
vt 0.2102 0.2446 0.0000
vt 0.0443 0.2947 0.0000
vt 0.2049 0.2961 0.0000
vt 0.1720 0.1583 0.0000
vt 0.1500 0.1578 0.0000
vt 0.1323 0.1447 0.0000
vt 0.1261 0.1235 0.0000
vt 0.1333 0.1023 0.0000
vt 0.1516 0.0896 0.0000
vt 0.1739 0.0895 0.0000
vt 0.1914 0.1031 0.0000
vt 0.1980 0.1244 0.0000
vt 0.1902 0.1454 0.0000
vt 0.0908 0.1735 0.0000
vt 0.7565 0.2142 0.0000
vt 0.7766 0.2142 0.0000
vt 0.7766 0.3349 0.0000
vt 0.7565 0.3349 0.0000
vt 0.7967 0.2142 0.0000
vt 0.7967 0.3349 0.0000
vt 0.8168 0.2142 0.0000
vt 0.8168 0.3349 0.0000
vt 0.5754 0.2142 0.0000
vt 0.5955 0.2142 0.0000
vt 0.5955 0.3349 0.0000
vt 0.5754 0.3349 0.0000
vt 0.6156 0.2142 0.0000
vt 0.6156 0.3349 0.0000
vt 0.6357 0.2142 0.0000
vt 0.6357 0.3349 0.0000
vt 0.6559 0.2142 0.0000
vt 0.6559 0.3349 0.0000
vt 0.6760 0.2142 0.0000
vt 0.6760 0.3349 0.0000
vt 0.6961 0.2142 0.0000
vt 0.6961 0.3349 0.0000
vt 0.7162 0.2142 0.0000
vt 0.7162 0.3349 0.0000
vt 0.7363 0.2142 0.0000
vt 0.7363 0.3349 0.0000
vt 0.0507 0.5154 0.0000
vt 0.0867 0.5294 0.0000
vt 0.1249 0.5235 0.0000
vt 0.1551 0.4993 0.0000
vt 0.1693 0.4630 0.0000
vt 0.1635 0.4245 0.0000
vt 0.1393 0.3939 0.0000
vt 0.1030 0.3797 0.0000
vt 0.0645 0.3857 0.0000
vt 0.0343 0.4103 0.0000
vt 0.0203 0.4468 0.0000
vt 0.0264 0.4852 0.0000
vt 0.2026 0.4071 0.0000
vt 0.2444 0.3731 0.0000
vt 0.2976 0.3648 0.0000
vt 0.3478 0.3844 0.0000
vt 0.3813 0.4267 0.0000
vt 0.3891 0.4800 0.0000
vt 0.3695 0.5300 0.0000
vt 0.3278 0.5635 0.0000
vt 0.2751 0.5716 0.0000
vt 0.1918 0.5106 0.0000
vt 0.2254 0.5523 0.0000
vt 0.1834 0.4575 0.0000
vt 0.7091 0.0296 0.0000
vt 0.7358 0.0296 0.0000
vt 0.7358 0.1898 0.0000
vt 0.7091 0.1898 0.0000
vt 0.7625 0.0296 0.0000
vt 0.7625 0.1898 0.0000
vt 0.7892 0.0296 0.0000
vt 0.7892 0.1898 0.0000
vt 0.8159 0.0296 0.0000
vt 0.8159 0.1898 0.0000
vt 0.4955 0.0296 0.0000
vt 0.5222 0.0296 0.0000
vt 0.5222 0.1898 0.0000
vt 0.4955 0.1898 0.0000
vt 0.5489 0.0296 0.0000
vt 0.5489 0.1898 0.0000
vt 0.5756 0.0296 0.0000
vt 0.5756 0.1898 0.0000
vt 0.6023 0.0296 0.0000
vt 0.6023 0.1898 0.0000
vt 0.6290 0.0296 0.0000
vt 0.6290 0.1898 0.0000
vt 0.6557 0.0296 0.0000
vt 0.6557 0.1898 0.0000
vt 0.6824 0.0296 0.0000
vt 0.6824 0.1898 0.0000
# 284 texture coords

g roadblocksign3
s off
f 1/1/1 2/2/2 3/3/2 4/4/1 
f 2/2/2 5/5/3 6/6/3 3/3/2 
f 5/5/3 7/7/4 8/8/4 6/6/3 
f 7/9/4 9/10/5 10/11/5 8/12/4 
f 9/10/5 11/13/6 12/14/6 10/11/5 
f 11/13/6 13/15/7 14/16/7 12/14/6 
f 13/15/7 15/17/8 16/18/8 14/16/7 
f 15/17/8 17/19/9 18/20/9 16/18/8 
f 17/19/9 19/21/10 20/22/10 18/20/9 
f 19/21/10 21/23/11 22/24/11 20/22/10 
f 21/23/11 23/25/12 24/26/12 22/24/11 
f 23/25/12 1/1/1 4/4/1 24/26/12 
f 25/27/1 26/28/13 27/29/13 28/30/1 
f 26/28/13 29/31/14 30/32/14 27/29/13 
f 29/31/14 31/33/15 32/34/15 30/32/14 
f 31/33/15 33/35/16 34/36/16 32/34/15 
f 33/37/16 35/38/17 36/39/17 34/40/16 
f 35/38/17 37/41/18 38/42/19 36/39/17 
f 37/41/18 39/43/7 40/44/7 38/42/19 
f 39/43/7 41/45/20 42/46/21 40/44/7 
f 41/45/20 43/47/22 44/48/22 42/46/21 
f 43/47/22 45/49/23 46/50/23 44/48/22 
f 45/49/23 47/51/24 48/52/24 46/50/23 
f 47/51/24 49/53/25 50/54/25 48/52/24 
f 49/53/25 51/55/26 52/56/26 50/54/25 
f 51/55/26 25/27/1 28/30/1 52/56/26 
f 49/57/27 47/58/27 45/59/27 25/60/27 
f 45/59/27 43/61/27 41/62/27 37/63/27 
f 41/62/27 39/64/27 37/63/27 
f 37/63/27 35/65/27 33/66/27 
f 33/66/27 31/67/27 29/68/27 37/63/27 
f 29/68/27 26/69/27 25/60/27 
f 37/63/27 29/68/27 25/60/27 45/59/27 
f 51/70/27 49/57/27 25/60/27 
f 27/71/28 30/72/28 32/73/28 52/74/28 
f 32/73/28 34/75/28 36/76/28 
f 36/76/28 38/77/28 40/78/28 32/73/28 
f 40/78/28 42/79/28 44/80/28 
f 44/80/28 46/81/28 48/82/28 40/78/28 
f 48/82/28 50/83/28 52/74/28 
f 40/78/28 48/82/28 52/74/28 32/73/28 
f 28/84/28 27/71/28 52/74/28 
f 53/85/1 54/86/29 55/87/30 56/88/1 
f 54/86/29 57/89/31 58/90/31 55/87/30 
f 57/89/31 59/91/32 60/92/32 58/90/31 
f 59/93/32 61/94/33 62/95/34 60/96/32 
f 61/94/33 63/97/7 64/98/7 62/95/34 
f 63/97/7 65/99/35 66/100/35 64/98/7 
f 65/99/35 67/101/36 68/102/37 66/100/35 
f 67/101/36 69/103/38 70/104/39 68/102/37 
f 69/103/38 71/105/40 72/106/40 70/104/39 
f 71/105/40 53/85/1 56/88/1 72/106/40 
f 69/107/27 67/108/27 65/109/27 53/110/27 
f 65/109/27 63/111/27 61/112/27 
f 61/112/27 59/113/27 57/114/27 
f 57/114/27 54/115/27 53/110/27 
f 61/112/27 57/114/27 53/110/27 65/109/27 
f 71/116/27 69/107/27 53/110/27 
f 55/117/28 58/118/28 60/119/28 
f 60/119/28 62/120/28 64/121/28 
f 64/121/28 66/122/28 68/123/28 
f 68/123/28 70/124/28 72/125/28 
f 64/121/28 68/123/28 72/125/28 60/119/28 
f 55/117/28 60/119/28 72/125/28 56/126/28 
f 73/127/1 74/128/29 75/129/30 76/130/1 
f 74/128/29 77/131/41 78/132/42 75/129/30 
f 77/131/41 79/133/43 80/134/32 78/132/42 
f 79/135/43 81/136/44 82/137/44 80/138/32 
f 81/136/44 83/139/7 84/140/7 82/137/44 
f 83/139/7 85/141/45 86/142/45 84/140/7 
f 85/141/45 87/143/36 88/144/37 86/142/45 
f 87/143/36 89/145/46 90/146/47 88/144/37 
f 89/145/46 91/147/40 92/148/40 90/146/47 
f 91/147/40 73/127/1 76/130/1 92/148/40 
f 89/149/27 87/150/27 85/151/27 73/152/27 
f 85/151/27 83/153/27 81/154/27 
f 81/154/27 79/155/27 77/156/27 
f 77/156/27 74/157/27 73/152/27 
f 81/154/27 77/156/27 73/152/27 85/151/27 
f 91/158/27 89/149/27 73/152/27 
f 75/159/28 78/160/28 80/161/28 
f 80/161/28 82/162/28 84/163/28 
f 84/163/28 86/164/28 88/165/28 
f 88/165/28 90/166/28 92/167/28 
f 84/163/28 88/165/28 92/167/28 80/161/28 
f 75/159/28 80/161/28 92/167/28 76/168/28 
f 93/169/1 94/170/29 95/171/30 96/172/1 
f 94/173/29 97/174/41 98/175/41 95/171/30 
f 97/174/41 99/176/32 100/177/48 98/175/41 
f 99/176/32 101/178/34 102/179/44 100/177/48 
f 101/180/34 103/181/7 104/182/7 102/183/44 
f 103/181/7 105/184/45 106/185/45 104/182/7 
f 105/184/45 107/186/49 108/187/36 106/185/45 
f 107/186/49 109/188/47 110/189/47 108/187/36 
f 109/188/47 111/190/40 112/191/40 110/189/47 
f 111/190/40 93/169/1 96/172/1 112/191/40 
f 109/192/27 107/193/27 105/194/27 93/195/27 
f 105/194/27 103/196/27 101/178/27 
f 101/178/27 99/176/27 97/174/27 
f 97/174/27 94/173/27 93/195/27 
f 101/178/27 97/174/27 93/195/27 105/194/27 
f 111/197/27 109/192/27 93/195/27 
f 113/198/28 114/199/28 115/200/28 
f 115/200/28 116/201/28 117/202/28 
f 117/202/28 118/203/28 119/204/28 
f 119/204/28 120/205/28 121/206/28 
f 117/202/28 119/204/28 121/206/28 115/200/28 
f 113/198/28 115/200/28 121/206/28 122/207/28 
f 96/172/50 95/171/51 113/198/52 122/207/51 
f 95/171/53 98/175/53 114/199/54 113/198/53 
f 98/175/55 100/208/55 115/200/56 114/199/56 
f 100/208/57 102/183/58 116/201/57 115/200/58 
f 102/183/59 104/182/59 117/202/59 116/201/60 
f 104/182/61 106/185/62 118/203/63 117/202/61 
f 106/185/64 108/187/65 119/204/64 118/203/65 
f 108/187/66 110/189/66 120/205/67 119/204/67 
f 110/189/68 112/191/68 121/206/68 120/205/69 
f 112/191/70 96/172/71 122/207/72 121/206/72 
f 123/209/1 124/210/2 125/211/2 126/212/1 
f 124/210/2 127/213/3 128/214/3 125/211/2 
f 127/213/3 129/215/4 130/216/4 128/214/3 
f 129/217/4 131/218/5 132/219/5 130/220/4 
f 131/218/5 133/221/6 134/222/6 132/219/5 
f 133/221/6 135/223/7 136/224/7 134/222/6 
f 135/223/7 137/225/73 138/226/73 136/224/7 
f 137/225/73 139/227/9 140/228/9 138/226/73 
f 139/227/9 141/229/10 142/230/10 140/228/9 
f 141/229/10 143/231/11 144/232/11 142/230/10 
f 143/231/11 145/233/74 146/234/74 144/232/11 
f 145/233/74 123/209/1 126/212/1 146/234/74 
f 143/235/27 141/236/27 139/237/27 
f 139/237/27 137/238/27 135/239/27 
f 135/239/27 133/240/27 131/241/27 139/237/27 
f 131/241/27 129/242/27 127/243/27 
f 127/243/27 124/244/27 123/245/27 131/241/27 
f 139/237/27 131/241/27 123/245/27 143/235/27 
f 145/246/27 143/235/27 123/245/27 
f 125/247/28 128/248/28 130/249/28 
f 130/249/28 132/250/28 134/251/28 
f 134/251/28 136/252/28 138/253/28 130/249/28 
f 138/253/28 140/254/28 142/255/28 146/256/28 
f 142/255/28 144/257/28 146/256/28 
f 130/249/28 138/253/28 146/256/28 125/247/28 
f 126/258/28 125/247/28 146/256/28 
f 147/259/1 148/260/2 149/261/2 150/262/1 
f 148/260/2 151/263/3 152/264/3 149/261/2 
f 151/263/3 153/265/4 154/266/4 152/264/3 
f 153/265/4 155/267/5 156/268/5 154/266/4 
f 155/269/5 157/270/6 158/271/6 156/272/5 
f 157/270/6 159/273/7 160/274/7 158/271/6 
f 159/273/7 161/275/73 162/276/73 160/274/7 
f 161/275/73 163/277/9 164/278/9 162/276/73 
f 163/277/9 165/279/10 166/280/10 164/278/9 
f 165/279/10 167/281/11 168/282/11 166/280/10 
f 167/281/11 169/283/74 170/284/74 168/282/11 
f 169/283/74 147/259/1 150/262/1 170/284/74 
# 116 polygons - 40 triangles

