# 3ds Max Wavefront OBJ Exporter v0.97b - (c)2007 guruware
# File Created: 16.06.2013 01:28:07

#
# object roadblock2
#

v  -0.1443 -0.2104 -0.4824
v  -0.1554 -0.2893 -0.4908
v  -0.1563 -0.2893 -0.3940
v  -0.1453 -0.2110 -0.3932
v  -0.0118 0.1823 -0.4384
v  -0.0846 0.1823 -0.4375
v  -0.0682 0.2893 -0.4251
v  -0.0142 0.2893 -0.4260
v  -0.1006 0.0776 -0.4495
v  -0.0146 0.0770 -0.4505
v  -0.0194 -0.0889 -0.4695
v  -0.1259 -0.0889 -0.4686
v  -0.0210 -0.2110 -0.4834
v  -0.1563 -0.2893 -0.3537
v  -0.1453 -0.2110 -0.3545
v  -0.0857 0.1811 -0.3855
v  -0.0691 0.2893 -0.3828
v  -0.1016 0.0770 -0.3876
v  -0.1267 -0.0883 -0.3908
v  -0.0322 -0.2893 -0.4917
v  0.0142 0.2893 -0.4260
v  0.0124 0.1811 -0.4385
v  0.0140 0.0757 -0.4506
v  0.0182 -0.0883 -0.4694
v  0.0210 -0.2110 -0.4834
v  0.0322 -0.2893 -0.4917
v  0.1443 -0.2104 -0.4824
v  0.1453 -0.2110 -0.3932
v  0.1563 -0.2893 -0.3940
v  0.1554 -0.2893 -0.4908
v  0.0682 0.2893 -0.4251
v  0.0846 0.1823 -0.4375
v  0.1009 0.0757 -0.4497
v  0.1259 -0.0889 -0.4686
v  0.1453 -0.2110 -0.3545
v  0.1563 -0.2893 -0.3537
v  0.0856 0.1823 -0.3849
v  0.0692 0.2893 -0.3828
v  0.1016 0.0770 -0.3876
v  0.1267 -0.0883 -0.3908
v  -0.0855 0.1823 -0.3628
v  -0.0691 0.2893 -0.3649
v  -0.1266 -0.0871 -0.3575
v  -0.1015 0.0776 -0.3608
v  0.0692 0.2893 -0.3649
v  0.0857 0.1811 -0.3622
v  0.1015 0.0776 -0.3608
v  0.1267 -0.0883 -0.3569
v  -0.1443 -0.2104 -0.2653
v  -0.1554 -0.2893 -0.2569
v  -0.0124 0.1811 -0.3092
v  -0.0142 0.2893 -0.3217
v  -0.0682 0.2893 -0.3226
v  -0.0846 0.1823 -0.3103
v  -0.1003 0.0794 -0.2984
v  -0.0146 0.0770 -0.2972
v  -0.0176 -0.0871 -0.2784
v  -0.1256 -0.0871 -0.2793
v  -0.0210 -0.2110 -0.2643
v  -0.0322 -0.2893 -0.2560
v  0.0118 0.1823 -0.3093
v  0.0142 0.2893 -0.3217
v  0.0182 -0.0883 -0.2783
v  0.0140 0.0776 -0.2973
v  0.0322 -0.2893 -0.2560
v  0.0210 -0.2110 -0.2643
v  0.1443 -0.2104 -0.2653
v  0.1554 -0.2893 -0.2569
v  0.0846 0.1823 -0.3103
v  0.0682 0.2893 -0.3226
v  0.1006 0.0776 -0.2982
v  0.1259 -0.0889 -0.2791
v  -0.0321 0.2893 -0.3980
v  -0.0067 0.2893 -0.3984
v  -0.0325 0.2893 -0.3781
v  0.0067 0.2893 -0.3984
v  0.0321 0.2893 -0.3980
v  0.0325 0.2893 -0.3781
v  -0.0325 0.2893 -0.3697
v  0.0325 0.2893 -0.3697
v  -0.0067 0.2893 -0.3493
v  -0.0321 0.2893 -0.3498
v  0.0067 0.2893 -0.3493
v  0.0321 0.2893 -0.3498
v  -0.0321 0.2487 -0.3980
v  -0.0067 0.2487 -0.3984
v  -0.0325 0.2487 -0.3781
v  0.0067 0.2487 -0.3984
v  0.0321 0.2487 -0.3980
v  0.0325 0.2487 -0.3781
v  -0.0325 0.2487 -0.3697
v  0.0325 0.2487 -0.3697
v  -0.0067 0.2487 -0.3493
v  -0.0321 0.2487 -0.3498
v  0.0067 0.2487 -0.3493
v  0.0321 0.2487 -0.3498
v  -0.0084 0.1641 -0.3975
v  -0.0105 0.0871 -0.4064
v  -0.0509 0.0862 -0.3837
v  -0.0393 0.1624 -0.3822
v  0.0089 0.1632 -0.3976
v  0.0101 0.0862 -0.4065
v  0.0392 0.1633 -0.3818
v  0.0509 0.0862 -0.3837
v  -0.0391 0.1633 -0.3660
v  -0.0508 0.0867 -0.3645
v  0.0393 0.1624 -0.3655
v  0.0509 0.0867 -0.3645
v  -0.0105 0.0871 -0.3414
v  -0.0089 0.1632 -0.3501
v  0.0085 0.1641 -0.3502
v  0.0101 0.0875 -0.3414
v  -0.0142 -0.1049 -0.4440
v  -0.0154 -0.1945 -0.4543
v  -0.1066 -0.1945 -0.3597
v  -0.1066 -0.1945 -0.3881
v  -0.0930 -0.1045 -0.3863
v  0.0154 -0.1945 -0.4543
v  0.0133 -0.1045 -0.4440
v  0.1066 -0.1945 -0.3881
v  0.1066 -0.1945 -0.3597
v  0.0930 -0.1045 -0.3863
v  -0.0929 -0.1036 -0.3619
v  0.0930 -0.1045 -0.3614
v  -0.0129 -0.1036 -0.3038
v  0.0133 -0.1045 -0.3037
v  0.0154 -0.1945 -0.2935
v  -0.0154 -0.1945 -0.2935
v  -0.2698 -0.3514 -0.2137
v  -0.2698 -0.3514 -0.5340
v  -0.2629 -0.3514 -0.5610
v  -0.2420 -0.3514 -0.5772
v  -0.2073 -0.3514 -0.5826
v  0.2052 -0.3514 -0.5826
v  0.2399 -0.3514 -0.5772
v  0.2607 -0.3514 -0.5610
v  0.2677 -0.3514 -0.5340
v  0.2052 -0.3514 -0.1651
v  0.2677 -0.3514 -0.2137
v  0.2607 -0.3514 -0.1867
v  0.2399 -0.3514 -0.1705
v  -0.2629 -0.3514 -0.1867
v  -0.2420 -0.3514 -0.1705
v  -0.2073 -0.3514 -0.1651
v  0.2052 -0.2949 -0.1651
v  -0.2073 -0.2949 -0.1651
v  0.2677 -0.2949 -0.5340
v  0.2677 -0.2949 -0.2137
v  -0.2073 -0.2949 -0.5826
v  0.2052 -0.2949 -0.5826
v  -0.2698 -0.2949 -0.2137
v  -0.2698 -0.2949 -0.5340
v  0.2399 -0.2949 -0.1705
v  -0.2420 -0.2949 -0.1705
v  0.2607 -0.2949 -0.5610
v  -0.2420 -0.2949 -0.5772
v  0.2607 -0.2949 -0.1867
v  -0.2629 -0.2949 -0.1867
v  0.2399 -0.2949 -0.5772
v  -0.2629 -0.2949 -0.5610
v  -0.2385 -0.2854 -0.1756
v  -0.2064 -0.2854 -0.1720
v  0.2542 -0.2854 -0.1894
v  0.2589 -0.2854 -0.2144
v  -0.2564 -0.2854 -0.5583
v  -0.2610 -0.2854 -0.5334
v  0.2364 -0.2854 -0.5722
v  0.2043 -0.2854 -0.5758
v  -0.2610 -0.2854 -0.2144
v  -0.2564 -0.2854 -0.1894
v  0.2043 -0.2854 -0.1720
v  0.2364 -0.2854 -0.1756
v  -0.2064 -0.2854 -0.5758
v  -0.2385 -0.2854 -0.5722
v  0.2589 -0.2854 -0.5334
v  0.2542 -0.2854 -0.5583
# 176 vertices

vn -0.9901 0.1401 -0.0097
vn -0.0143 0.1157 -0.9932
vn -0.0114 0.1154 -0.9933
vn -0.0094 0.1147 -0.9934
vn -0.0078 0.1139 -0.9935
vn -0.9902 0.1395 -0.0000
vn -0.9881 0.1528 -0.0193
vn -0.9883 0.1520 -0.0159
vn -0.9884 0.1511 -0.0130
vn -0.9886 0.1502 -0.0108
vn -0.0073 0.1066 -0.9943
vn 0.0000 0.1148 -0.9934
vn 0.0000 0.1138 -0.9935
vn 0.0000 0.1056 -0.9944
vn 0.9901 0.1400 -0.0097
vn 0.0144 0.1158 -0.9932
vn 0.0114 0.1153 -0.9933
vn 0.0093 0.1147 -0.9934
vn 0.0078 0.1140 -0.9935
vn 0.9902 0.1394 -0.0000
vn 0.9881 0.1527 -0.0191
vn 0.9883 0.1520 -0.0158
vn 0.9884 0.1511 -0.0129
vn 0.9886 0.1502 -0.0108
vn 0.0073 0.1066 -0.9943
vn -0.9885 0.1515 -0.0000
vn -0.9887 0.1502 -0.0000
vn 0.9885 0.1515 -0.0000
vn 0.9886 0.1503 -0.0000
vn -0.9901 0.1401 0.0097
vn -0.0144 0.1158 0.9932
vn -0.0115 0.1154 0.9933
vn -0.0093 0.1146 0.9934
vn -0.0078 0.1140 0.9935
vn -0.9881 0.1528 0.0192
vn -0.9883 0.1520 0.0158
vn -0.9884 0.1511 0.0129
vn -0.9886 0.1502 0.0108
vn -0.0073 0.1066 0.9943
vn 0.0000 0.1148 0.9934
vn 0.0000 0.1139 0.9935
vn 0.0000 0.1056 0.9944
vn 0.9901 0.1400 0.0097
vn 0.0143 0.1157 0.9932
vn 0.0114 0.1154 0.9933
vn 0.0093 0.1147 0.9934
vn 0.0078 0.1140 0.9935
vn 0.9881 0.1528 0.0192
vn 0.9883 0.1519 0.0158
vn 0.9884 0.1511 0.0129
vn 0.9886 0.1502 0.0108
vn 0.0073 0.1066 0.9943
vn 0.0001 1.0000 -0.0001
vn 0.0000 1.0000 -0.0001
vn -0.0001 1.0000 -0.0001
vn 0.0001 1.0000 -0.0000
vn -0.0001 1.0000 -0.0000
vn 0.0001 1.0000 0.0001
vn 0.0000 1.0000 0.0001
vn -0.0001 1.0000 0.0001
vn 0.0169 0.0000 0.9999
vn 0.9998 0.0000 0.0217
vn 0.0000 0.0000 1.0000
vn -0.0169 0.0000 0.9999
vn -0.9998 0.0000 0.0216
vn 1.0000 0.0000 -0.0000
vn -1.0000 0.0000 -0.0000
vn 0.0170 0.0000 -0.9999
vn 0.9998 0.0000 -0.0217
vn 0.0000 0.0000 -1.0000
vn -0.0170 0.0000 -0.9999
vn -0.9998 0.0000 -0.0216
vn 0.9960 -0.0166 -0.0882
vn -0.0743 -0.0083 0.9972
vn -0.0486 -0.9140 -0.4028
vn 0.0404 0.9730 -0.2272
vn -0.9963 -0.0057 -0.0861
vn 0.0732 -0.0142 0.9972
vn -0.3760 -0.9251 0.0527
vn -0.1782 0.9838 -0.0217
vn 0.3763 -0.9250 -0.0527
vn 0.1790 0.9836 -0.0232
vn 0.9959 -0.0110 0.0894
vn -0.0717 -0.0087 -0.9974
vn 0.0486 -0.9141 0.4025
vn -0.0203 0.9748 0.2221
vn -0.9963 -0.0113 0.0847
vn 0.0727 -0.0028 -0.9973
vn 0.0000 0.1144 -0.9934
vn -0.9885 0.1509 -0.0000
vn 0.9885 0.1509 -0.0000
vn 0.0000 0.1144 0.9934
vn 0.9811 0.0091 -0.1933
vn -0.3922 0.9199 -0.0000
vn -0.1323 0.0007 0.9912
vn 0.0000 0.8705 -0.4922
vn -0.9822 -0.0012 -0.1877
vn 0.3922 0.9199 -0.0000
vn 0.1323 0.0007 0.9912
vn -0.4357 -0.8994 0.0350
vn 0.4321 -0.9018 -0.0000
vn -0.1302 -0.0045 -0.9915
vn -0.0306 -0.8410 0.5402
vn 0.0000 0.8705 0.4922
vn -0.9822 -0.0012 0.1877
vn 0.1323 0.0007 -0.9912
vn 0.0146 -0.8452 -0.5343
vn 0.9827 -0.0063 0.1849
vn 0.0000 0.1133 -0.9936
vn -0.9888 0.1495 -0.0000
vn 0.9888 0.1495 -0.0000
vn 0.0000 0.1133 0.9936
vn 0.0000 -1.0000 -0.0000
vn 0.1535 0.0000 0.9881
vn -0.1535 0.0000 0.9881
vn 0.9684 0.0000 -0.2493
vn -0.1535 0.0000 -0.9881
vn 0.6134 0.0000 0.7898
vn 0.9684 0.0000 0.2494
vn -0.6134 0.0000 0.7898
vn -0.9684 0.0000 0.2494
vn 0.6133 0.0000 -0.7899
vn 0.1536 0.0000 -0.9881
vn -0.6133 0.0000 -0.7898
vn -0.9684 0.0000 -0.2493
vn -0.1119 0.5438 0.8317
vn 0.7540 0.6350 0.1681
vn -0.7540 0.6350 -0.1681
vn 0.1119 0.5438 -0.8318
vn -0.7540 0.6350 0.1681
vn -0.5164 0.5398 0.6648
vn 0.1119 0.5438 0.8317
vn 0.5164 0.5398 0.6648
vn -0.1119 0.5437 -0.8318
vn -0.5164 0.5398 -0.6648
vn 0.7540 0.6350 -0.1681
vn 0.5164 0.5398 -0.6648
vn 0.0000 0.5830 0.8125
vn 0.7344 0.6787 -0.0000
vn 0.0000 0.5830 -0.8125
vn -0.7344 0.6787 -0.0000
vn 0.0000 1.0000 -0.0000
# 142 vertex normals

vt 0.7059 0.5448 0.0000
vt 0.7326 0.5925 0.0000
vt 0.6720 0.6188 0.0000
vt 0.6501 0.5694 0.0000
vt 0.2282 0.3257 0.0000
vt 0.1820 0.3073 0.0000
vt 0.2195 0.2431 0.0000
vt 0.2538 0.2568 0.0000
vt 0.1452 0.3703 0.0000
vt 0.1997 0.3923 0.0000
vt 0.1547 0.4972 0.0000
vt 0.0871 0.4705 0.0000
vt 0.1231 0.5749 0.0000
vt 0.0449 0.5437 0.0000
vt 0.6467 0.6297 0.0000
vt 0.6259 0.5799 0.0000
vt 0.5374 0.3231 0.0000
vt 0.5057 0.2553 0.0000
vt 0.5322 0.2437 0.0000
vt 0.5696 0.3080 0.0000
vt 0.6061 0.3711 0.0000
vt 0.5675 0.3884 0.0000
vt 0.6151 0.4922 0.0000
vt 0.6639 0.4714 0.0000
vt 0.0963 0.6222 0.0000
vt 0.0180 0.5913 0.0000
vt 0.2719 0.2639 0.0000
vt 0.2432 0.3325 0.0000
vt 0.2175 0.4002 0.0000
vt 0.1788 0.5062 0.0000
vt 0.1497 0.5855 0.0000
vt 0.1372 0.6383 0.0000
vt 0.2281 0.6156 0.0000
vt 0.2885 0.6231 0.0000
vt 0.2818 0.6767 0.0000
vt 0.2159 0.6688 0.0000
vt 0.3062 0.2774 0.0000
vt 0.2894 0.3499 0.0000
vt 0.2727 0.4220 0.0000
vt 0.2470 0.5334 0.0000
vt 0.1497 0.5853 0.0000
vt 0.3147 0.6261 0.0000
vt 0.3092 0.6798 0.0000
vt 0.3250 0.3541 0.0000
vt 0.3349 0.2808 0.0000
vt 0.3149 0.4261 0.0000
vt 0.2997 0.5392 0.0000
vt 0.5229 0.3285 0.0000
vt 0.4946 0.2602 0.0000
vt 0.5939 0.5005 0.0000
vt 0.5506 0.3953 0.0000
vt 0.3470 0.2822 0.0000
vt 0.3403 0.3566 0.0000
vt 0.3331 0.4278 0.0000
vt 0.3227 0.5418 0.0000
vt 0.5698 0.6035 0.0000
vt 0.5857 0.6557 0.0000
vt 0.4413 0.3509 0.0000
vt 0.4316 0.2772 0.0000
vt 0.4680 0.2717 0.0000
vt 0.4900 0.3427 0.0000
vt 0.5110 0.4111 0.0000
vt 0.4534 0.4214 0.0000
vt 0.4720 0.5326 0.0000
vt 0.5449 0.5216 0.0000
vt 0.4868 0.6165 0.0000
vt 0.5023 0.6685 0.0000
vt 0.4249 0.3525 0.0000
vt 0.4123 0.2800 0.0000
vt 0.4480 0.5370 0.0000
vt 0.4340 0.4239 0.0000
vt 0.4588 0.6750 0.0000
vt 0.4584 0.6207 0.0000
vt 0.3752 0.6324 0.0000
vt 0.3752 0.6870 0.0000
vt 0.3757 0.3598 0.0000
vt 0.3758 0.2854 0.0000
vt 0.3756 0.4325 0.0000
vt 0.3754 0.5481 0.0000
vt 0.9964 0.3640 0.0000
vt 0.9957 0.4283 0.0000
vt 0.9632 0.3854 0.0000
vt 0.9635 0.3551 0.0000
vt 0.9490 0.4756 0.0000
vt 0.8986 0.4777 0.0000
vt 0.8920 0.4342 0.0000
vt 0.9157 0.4334 0.0000
vt 0.9964 0.3301 0.0000
vt 0.9634 0.3391 0.0000
vt 0.9955 0.2658 0.0000
vt 0.9631 0.3088 0.0000
vt 0.8973 0.2167 0.0000
vt 0.9477 0.2182 0.0000
vt 0.9150 0.2608 0.0000
vt 0.8912 0.2603 0.0000
vt 0.8774 0.4781 0.0000
vt 0.8819 0.4343 0.0000
vt 0.8761 0.2165 0.0000
vt 0.8812 0.2603 0.0000
vt 0.7762 0.4287 0.0000
vt 0.7755 0.3644 0.0000
vt 0.8085 0.3555 0.0000
vt 0.8088 0.3858 0.0000
vt 0.8271 0.4785 0.0000
vt 0.8582 0.4345 0.0000
vt 0.7755 0.3306 0.0000
vt 0.8085 0.3395 0.0000
vt 0.7761 0.2663 0.0000
vt 0.8087 0.3091 0.0000
vt 0.8257 0.2169 0.0000
vt 0.8574 0.2604 0.0000
vt 0.9148 0.3853 0.0000
vt 0.9151 0.3551 0.0000
vt 0.8911 0.3859 0.0000
vt 0.9151 0.3392 0.0000
vt 0.9147 0.3090 0.0000
vt 0.8909 0.3087 0.0000
vt 0.8811 0.3859 0.0000
vt 0.8809 0.3087 0.0000
vt 0.8568 0.3554 0.0000
vt 0.8573 0.3858 0.0000
vt 0.8568 0.3394 0.0000
vt 0.8572 0.3090 0.0000
vt 0.7622 0.2548 0.0000
vt 0.7624 0.3842 0.0000
vt 0.7102 0.3681 0.0000
vt 0.7100 0.2735 0.0000
vt 0.6319 0.8084 0.0000
vt 0.6292 0.7157 0.0000
vt 0.6726 0.7293 0.0000
vt 0.6747 0.7971 0.0000
vt 0.7137 0.4226 0.0000
vt 0.6843 0.4219 0.0000
vt 0.6890 0.3676 0.0000
vt 0.6802 0.2178 0.0000
vt 0.7151 0.2183 0.0000
vt 0.6848 0.2731 0.0000
vt 0.6375 0.3857 0.0000
vt 0.6319 0.2565 0.0000
vt 0.8830 0.6551 0.0000
vt 0.8811 0.7548 0.0000
vt 0.8356 0.7430 0.0000
vt 0.8370 0.6701 0.0000
vt 0.6904 0.8420 0.0000
vt 0.6704 0.8411 0.0000
vt 0.6890 0.7977 0.0000
vt 0.6695 0.6839 0.0000
vt 0.6931 0.6842 0.0000
vt 0.6896 0.7295 0.0000
vt 0.8368 0.7900 0.0000
vt 0.8155 0.7889 0.0000
vt 0.8204 0.7422 0.0000
vt 0.8145 0.6225 0.0000
vt 0.8396 0.6218 0.0000
vt 0.8190 0.6706 0.0000
vt 0.5962 0.9519 0.0000
vt 0.5926 0.8543 0.0000
vt 0.6330 0.8670 0.0000
vt 0.6357 0.9384 0.0000
vt 0.7327 0.7152 0.0000
vt 0.7319 0.8085 0.0000
vt 0.6540 0.9807 0.0000
vt 0.6315 0.9799 0.0000
vt 0.6519 0.9390 0.0000
vt 0.6292 0.8248 0.0000
vt 0.6558 0.8249 0.0000
vt 0.6522 0.8671 0.0000
vt 0.6922 0.8533 0.0000
vt 0.6917 0.9516 0.0000
vt 0.7749 0.7538 0.0000
vt 0.7730 0.6558 0.0000
vt 0.9952 0.8134 0.0000
vt 0.9924 0.9581 0.0000
vt 0.9602 0.9422 0.0000
vt 0.9622 0.8360 0.0000
vt 0.8175 0.8106 0.0000
vt 0.8539 0.8095 0.0000
vt 0.8503 0.8493 0.0000
vt 0.8235 0.8501 0.0000
vt 0.7944 0.9476 0.0000
vt 0.7886 0.8309 0.0000
vt 0.8278 0.9357 0.0000
vt 0.9196 0.7963 0.0000
vt 0.9691 0.7966 0.0000
vt 0.9259 0.8358 0.0000
vt 0.8954 0.9585 0.0000
vt 0.8930 0.8130 0.0000
vt 0.9277 0.9425 0.0000
vt 0.9188 0.6160 0.0000
vt 0.9565 0.6154 0.0000
vt 0.9521 0.6565 0.0000
vt 0.9244 0.6569 0.0000
vt 0.9874 0.6350 0.0000
vt 0.9869 0.7560 0.0000
vt 0.9518 0.7452 0.0000
vt 0.8551 0.9711 0.0000
vt 0.8237 0.9709 0.0000
vt 0.8508 0.9358 0.0000
vt 0.9567 0.7816 0.0000
vt 0.9237 0.7822 0.0000
vt 0.9275 0.7456 0.0000
vt 0.8841 0.8281 0.0000
vt 0.8849 0.9461 0.0000
vt 0.0967 0.3799 0.0000
vt 0.0550 0.3797 0.0000
vt 0.0612 0.3445 0.0000
vt 0.0918 0.3446 0.0000
vt 0.0574 0.1984 0.0000
vt 0.1064 0.2004 0.0000
vt 0.0984 0.2392 0.0000
vt 0.0624 0.2377 0.0000
vt 0.1319 0.2181 0.0000
vt 0.1230 0.3618 0.0000
vt 0.8927 0.7574 0.0000
vt 0.8885 0.6365 0.0000
vt 0.9663 0.9776 0.0000
vt 0.9221 0.9781 0.0000
vt 0.0289 0.3597 0.0000
vt 0.0305 0.2142 0.0000
vt 0.4046 0.7197 0.0000
vt 0.5472 0.7122 0.0000
vt 0.5594 0.7147 0.0000
vt 0.5671 0.7237 0.0000
vt 0.5701 0.7392 0.0000
vt 0.5777 0.9205 0.0000
vt 0.5759 0.9356 0.0000
vt 0.5692 0.9449 0.0000
vt 0.5575 0.9484 0.0000
vt 0.3955 0.9290 0.0000
vt 0.4182 0.9548 0.0000
vt 0.4063 0.9524 0.0000
vt 0.3988 0.9438 0.0000
vt 0.3928 0.7234 0.0000
vt 0.3862 0.7331 0.0000
vt 0.3847 0.7487 0.0000
vt 0.0658 0.6995 0.0000
vt 0.3138 0.7023 0.0000
vt 0.3037 0.7302 0.0000
vt 0.0760 0.7277 0.0000
vt 0.3622 0.7432 0.0000
vt 0.3585 0.9411 0.0000
vt 0.3318 0.9286 0.0000
vt 0.3355 0.7560 0.0000
vt 0.3094 0.9809 0.0000
vt 0.0640 0.9790 0.0000
vt 0.0745 0.9513 0.0000
vt 0.2991 0.9529 0.0000
vt 0.0159 0.9379 0.0000
vt 0.0169 0.7396 0.0000
vt 0.0436 0.7522 0.0000
vt 0.0427 0.9254 0.0000
vt 0.3225 0.7339 0.0000
vt 0.3373 0.7128 0.0000
vt 0.0416 0.7105 0.0000
vt 0.0581 0.7304 0.0000
vt 0.3271 0.9428 0.0000
vt 0.3486 0.9581 0.0000
vt 0.0557 0.9476 0.0000
vt 0.0405 0.9683 0.0000
vt 0.3330 0.7446 0.0000
vt 0.3517 0.7256 0.0000
vt 0.3319 0.7420 0.0000
vt 0.0268 0.7225 0.0000
vt 0.0468 0.7399 0.0000
vt 0.0480 0.7380 0.0000
vt 0.3169 0.9503 0.0000
vt 0.3283 0.9409 0.0000
vt 0.3337 0.9700 0.0000
vt 0.0454 0.9369 0.0000
vt 0.0262 0.9555 0.0000
vt 0.0465 0.9395 0.0000
vt 0.0619 0.7356 0.0000
vt 0.0778 0.7341 0.0000
vt 0.3266 0.7459 0.0000
vt 0.3287 0.7582 0.0000
vt 0.0518 0.9356 0.0000
vt 0.0496 0.9232 0.0000
vt 0.3132 0.9450 0.0000
vt 0.2973 0.9465 0.0000
vt 0.0504 0.7546 0.0000
vt 0.0530 0.7419 0.0000
vt 0.3015 0.7365 0.0000
vt 0.3184 0.7387 0.0000
vt 0.0766 0.9450 0.0000
vt 0.0599 0.9429 0.0000
vt 0.3250 0.9262 0.0000
vt 0.3221 0.9388 0.0000
# 287 texture coords

g roadblock2
s off
f 1/1/1 2/2/1 3/3/1 4/4/1 
f 5/5/2 6/6/2 7/7/2 8/8/2 
f 9/9/3 6/6/3 5/5/3 10/10/3 
f 11/11/4 12/12/4 9/9/4 10/10/4 
f 13/13/5 1/14/5 12/12/5 11/11/5 
f 14/15/6 15/16/6 4/4/6 3/3/6 
f 16/17/7 17/18/7 7/19/7 6/20/7 
f 9/21/8 18/22/8 16/17/8 6/20/8 
f 19/23/9 18/22/9 9/21/9 12/24/9 
f 4/4/10 19/23/10 12/24/10 1/1/10 
f 1/14/11 13/13/11 20/25/11 2/26/11 
f 21/27/12 22/28/12 5/5/12 8/8/12 
f 10/10/13 23/29/13 24/30/13 11/11/13 
f 13/13/14 25/31/14 26/32/14 20/25/14 
f 27/33/15 28/34/15 29/35/15 30/36/15 
f 22/28/16 21/27/16 31/37/16 32/38/16 
f 23/29/17 22/28/17 32/38/17 33/39/17 
f 24/30/18 23/29/18 33/39/18 34/40/18 
f 25/41/19 24/30/19 34/40/19 27/33/19 
f 28/34/20 35/42/20 36/43/20 29/35/20 
f 37/44/21 32/38/21 31/37/21 38/45/21 
f 32/38/22 37/44/22 39/46/22 33/39/22 
f 40/47/23 34/40/23 33/39/23 39/46/23 
f 28/34/24 27/33/24 34/40/24 40/47/24 
f 27/33/25 30/36/25 26/32/25 25/31/25 
f 17/18/26 16/17/26 41/48/26 42/49/26 
f 18/22/27 19/23/27 43/50/27 44/51/27 
f 37/44/28 38/45/28 45/52/28 46/53/28 
f 40/47/29 39/46/29 47/54/29 48/55/29 
f 49/56/30 15/16/30 14/15/30 50/57/30 
f 51/58/31 52/59/31 53/60/31 54/61/31 
f 55/62/32 56/63/32 51/58/32 54/61/32 
f 57/64/33 56/63/33 55/62/33 58/65/33 
f 49/56/34 59/66/34 57/64/34 58/65/34 
f 41/48/35 54/61/35 53/60/35 42/49/35 
f 41/48/36 44/51/36 55/62/36 54/61/36 
f 44/51/37 43/50/37 58/65/37 55/62/37 
f 43/50/38 15/16/38 49/56/38 58/65/38 
f 49/56/39 50/57/39 60/67/39 59/66/39 
f 51/58/40 61/68/40 62/69/40 52/59/40 
f 57/64/41 63/70/41 64/71/41 56/63/41 
f 65/72/42 66/73/42 59/66/42 60/67/42 
f 67/74/43 68/75/43 36/43/43 35/42/43 
f 61/68/44 69/76/44 70/77/44 62/69/44 
f 61/68/45 64/71/45 71/78/45 69/76/45 
f 64/71/46 63/70/46 72/79/46 71/78/46 
f 66/73/47 67/74/47 72/79/47 63/70/47 
f 46/53/48 45/52/48 70/77/48 69/76/48 
f 71/78/49 47/54/49 46/53/49 69/76/49 
f 48/55/50 47/54/50 71/78/50 72/79/50 
f 35/42/51 48/55/51 72/79/51 67/74/51 
f 67/74/52 66/73/52 65/72/52 68/75/52 
f 8/80/53 7/81/53 73/82/53 74/83/53 
f 7/84/53 17/85/53 75/86/53 73/87/53 
f 21/88/54 8/80/54 74/83/54 76/89/54 
f 31/90/55 21/88/55 76/89/55 77/91/55 
f 38/92/55 31/93/55 77/94/55 78/95/55 
f 17/85/56 42/96/56 79/97/56 75/86/56 
f 45/98/57 38/92/57 78/95/57 80/99/57 
f 53/100/58 52/101/58 81/102/58 82/103/58 
f 42/96/58 53/104/58 82/105/58 79/97/58 
f 52/101/59 62/106/59 83/107/59 81/102/59 
f 62/106/60 70/108/60 84/109/60 83/107/60 
f 70/110/60 45/98/60 80/99/60 84/111/60 
f 74/83/61 73/82/61 85/112/61 86/113/61 
f 73/87/62 75/86/62 87/114/62 85/112/62 
f 76/89/63 74/83/63 86/113/63 88/115/63 
f 77/91/64 76/89/64 88/115/64 89/116/64 
f 78/95/65 77/94/65 89/116/65 90/117/65 
f 75/86/66 79/97/66 91/118/66 87/114/66 
f 80/99/67 78/95/67 90/117/67 92/119/67 
f 82/103/68 81/102/68 93/120/68 94/121/68 
f 79/97/69 82/105/69 94/121/69 91/118/69 
f 81/102/70 83/107/70 95/122/70 93/120/70 
f 83/107/71 84/109/71 96/123/71 95/122/71 
f 84/111/72 80/99/72 92/119/72 96/123/72 
f 86/113/53 85/112/53 87/114/53 91/118/53 
f 94/121/58 93/120/58 91/118/58 
f 95/122/60 96/123/60 92/119/60 90/117/60 
f 89/116/55 88/115/55 90/117/55 
f 86/113/56 91/118/56 93/120/56 88/115/56 
f 90/117/57 88/115/57 93/120/57 95/122/57 
f 10/124/73 5/125/73 97/126/73 98/127/73 
f 16/128/74 18/129/74 99/130/74 100/131/74 
f 5/132/75 22/133/75 101/134/75 97/126/75 
f 23/135/76 10/136/76 98/127/76 102/137/76 
f 22/138/77 23/139/77 102/137/77 101/134/77 
f 39/140/78 37/141/78 103/142/78 104/143/78 
f 41/144/79 16/145/79 100/131/79 105/146/79 
f 18/147/80 44/148/80 106/149/80 99/130/80 
f 37/150/81 46/151/81 107/152/81 103/142/81 
f 47/153/82 39/154/82 104/143/82 108/155/82 
f 51/156/83 56/157/83 109/158/83 110/159/83 
f 44/160/84 41/161/84 105/146/84 106/149/84 
f 61/162/85 51/163/85 110/159/85 111/164/85 
f 56/165/86 64/166/86 112/167/86 109/158/86 
f 64/168/87 61/169/87 111/164/87 112/167/87 
f 46/170/88 47/171/88 108/155/88 107/152/88 
f 98/127/89 97/126/89 101/134/89 102/137/89 
f 100/131/90 99/130/90 106/149/90 105/146/90 
f 104/143/91 103/142/91 107/152/91 108/155/91 
f 110/159/92 109/158/92 112/167/92 111/164/92 
f 13/172/93 11/173/93 113/174/93 114/175/93 
f 4/176/94 15/177/94 115/178/94 116/179/94 
f 19/180/95 4/181/95 116/179/95 117/182/95 
f 25/183/96 13/184/96 114/175/96 118/185/96 
f 24/186/97 25/187/97 118/185/97 119/188/97 
f 35/189/98 28/190/98 120/191/98 121/192/98 
f 28/193/99 40/194/99 122/195/99 120/191/99 
f 43/196/100 19/197/100 117/182/100 123/198/100 
f 40/199/101 48/200/101 124/201/101 122/195/101 
f 15/202/102 43/203/102 123/198/102 115/178/102 
f 63/204/103 57/205/103 125/206/103 126/207/103 
f 59/208/104 66/209/104 127/210/104 128/211/104 
f 66/212/105 63/213/105 126/207/105 127/210/105 
f 48/214/106 35/215/106 121/192/106 124/201/106 
f 11/216/107 24/217/107 119/188/107 113/174/107 
f 57/218/108 59/219/108 128/211/108 125/206/108 
f 114/175/109 113/174/109 119/188/109 118/185/109 
f 116/179/110 115/178/110 123/198/110 117/182/110 
f 121/192/111 120/191/111 122/195/111 124/201/111 
f 126/207/112 125/206/112 128/211/112 127/210/112 
f 129/220/113 130/221/113 131/222/113 
f 129/220/113 131/222/113 132/223/113 133/224/113 
f 133/224/113 134/225/113 135/226/113 
f 133/224/113 135/226/113 136/227/113 137/228/113 
f 129/220/113 133/224/113 137/228/113 138/229/113 
f 137/228/113 139/230/113 140/231/113 
f 137/228/113 140/231/113 141/232/113 138/229/113 
f 142/233/113 129/220/113 138/229/113 143/234/113 
f 144/235/113 143/234/113 138/229/113 
f 144/236/63 138/237/63 145/238/63 146/239/63 
f 139/240/66 137/241/66 147/242/66 148/243/66 
f 134/244/70 133/245/70 149/246/70 150/247/70 
f 130/248/67 129/249/67 151/250/67 152/251/67 
f 153/252/114 145/238/114 138/237/114 141/253/114 
f 143/254/115 144/236/115 146/239/115 154/255/115 
f 155/256/116 147/242/116 137/241/116 136/257/116 
f 156/258/117 149/246/117 133/245/117 132/259/117 
f 157/260/118 153/252/118 141/253/118 140/261/118 
f 148/243/119 157/262/119 140/261/119 139/240/119 
f 142/263/120 143/254/120 154/255/120 158/264/120 
f 129/249/121 142/263/121 158/265/121 151/250/121 
f 159/266/122 155/267/122 136/257/122 135/268/122 
f 150/247/123 159/266/123 135/268/123 134/244/123 
f 160/269/124 156/258/124 132/259/124 131/270/124 
f 152/251/125 160/271/125 131/270/125 130/248/125 
f 161/272/126 154/255/126 146/239/126 162/273/126 
f 163/274/127 157/262/127 148/243/127 164/275/127 
f 165/276/128 160/271/128 152/251/128 166/277/128 
f 167/278/129 159/266/129 150/247/129 168/279/129 
f 169/280/130 151/250/130 158/265/130 170/281/130 
f 170/281/131 158/264/131 154/255/131 161/272/131 
f 171/282/132 145/238/132 153/252/132 172/283/132 
f 172/283/133 153/252/133 157/260/133 163/274/133 
f 173/284/134 149/246/134 156/258/134 174/285/134 
f 174/285/135 156/258/135 160/269/135 165/276/135 
f 175/286/136 147/242/136 155/256/136 176/287/136 
f 176/287/137 155/267/137 159/266/137 167/278/137 
f 145/238/138 171/282/138 162/273/138 146/239/138 
f 147/242/139 175/286/139 164/275/139 148/243/139 
f 149/246/140 173/284/140 168/279/140 150/247/140 
f 151/250/141 169/280/141 166/277/141 152/251/141 
f 168/279/142 173/284/142 174/285/142 
f 168/279/142 174/285/142 165/276/142 166/277/142 
f 166/277/142 169/280/142 170/281/142 
f 166/277/142 170/281/142 161/272/142 162/273/142 
f 168/279/142 166/277/142 162/273/142 164/275/142 
f 162/273/142 171/282/142 172/283/142 
f 162/273/142 172/283/142 163/274/142 164/275/142 
f 167/278/142 168/279/142 164/275/142 176/287/142 
f 164/275/142 175/286/142 176/287/142 
# 162 polygons - 10 triangles

