# 3ds Max Wavefront OBJ Exporter v0.97b - (c)2007 guruware
# File Created: 16.06.2013 01:50:45

#
# object steelframe
#

v  -1.5052 -0.0112 0.3347
v  -1.5052 -0.0112 -0.3347
v  1.5052 -0.0112 -0.3347
v  1.5052 -0.0112 0.3347
v  -1.5052 0.0112 0.3347
v  1.5052 0.0112 0.3347
v  1.5052 0.0112 -0.3347
v  -1.5052 0.0112 -0.3347
v  -1.3839 -0.0648 0.4348
v  -1.3839 -0.0283 0.4138
v  1.4312 -0.0283 0.4138
v  1.4312 -0.0648 0.4348
v  -1.3839 -0.0283 0.4559
v  1.4312 -0.0283 0.4559
v  -0.0371 -0.0908 0.4931
v  -0.0561 -0.0580 0.4931
v  -0.0561 -0.0580 -0.5142
v  -0.0371 -0.0908 -0.5142
v  -0.0182 -0.0580 0.4931
v  -0.0182 -0.0580 -0.5142
v  0.0062 -3.3847 -0.4916
v  -0.0561 -3.3847 -0.5275
v  -0.0561 0.2771 -0.5275
v  0.0062 0.2771 -0.4916
v  -0.0561 -3.3847 -0.4557
v  -0.0561 0.2771 -0.4557
v  -1.3424 -3.3847 0.4821
v  -1.4046 -3.3847 0.4461
v  -1.4046 0.2771 0.4461
v  -1.3424 0.2771 0.4821
v  -1.4046 -3.3847 0.5180
v  -1.4046 0.2771 0.5180
v  -1.3424 -3.3847 -0.4916
v  -1.4046 -3.3847 -0.5275
v  -1.4046 0.2771 -0.5275
v  -1.3424 0.2771 -0.4916
v  -1.4046 -3.3847 -0.4557
v  -1.4046 0.2771 -0.4557
v  1.3648 -3.3847 -0.4916
v  1.3026 -3.3847 -0.5275
v  1.3026 0.2771 -0.5275
v  1.3648 0.2771 -0.4916
v  1.3026 -3.3847 -0.4557
v  1.3026 0.2771 -0.4557
v  1.3648 -3.3847 0.4821
v  1.3026 -3.3847 0.4461
v  1.3026 0.2771 0.4461
v  1.3648 0.2771 0.4821
v  1.3026 -3.3847 0.5180
v  1.3026 0.2771 0.5180
v  -1.3839 -1.2806 0.4348
v  -1.3839 -1.2441 0.4138
v  1.4312 -1.2441 0.4138
v  1.4312 -1.2806 0.4348
v  -1.3839 -1.2441 0.4559
v  1.4312 -1.2441 0.4559
v  1.3104 -1.2936 0.4931
v  1.2914 -1.2608 0.4931
v  1.2914 -1.2608 -0.5142
v  1.3104 -1.2936 -0.5142
v  1.3293 -1.2608 0.4931
v  1.3293 -1.2608 -0.5142
v  -1.3839 -1.2806 -0.4665
v  -1.3839 -1.2441 -0.4876
v  1.4312 -1.2441 -0.4876
v  1.4312 -1.2806 -0.4665
v  -1.3839 -1.2441 -0.4454
v  1.4312 -1.2441 -0.4454
v  -0.0371 -1.2936 0.4931
v  -0.0561 -1.2608 0.4931
v  -0.0561 -1.2608 -0.5142
v  -0.0371 -1.2936 -0.5142
v  -0.0182 -1.2608 0.4931
v  -0.0182 -1.2608 -0.5142
v  -1.3839 -1.2936 0.4931
v  -1.4028 -1.2608 0.4931
v  -1.4028 -1.2608 -0.5142
v  -1.3839 -1.2936 -0.5142
v  -1.3649 -1.2608 0.4931
v  -1.3649 -1.2608 -0.5142
v  -1.3839 -2.3099 0.4931
v  -1.4028 -2.2771 0.4931
v  -1.4028 -2.2771 -0.5142
v  -1.3839 -2.3099 -0.5142
v  -1.3649 -2.2771 0.4931
v  -1.3649 -2.2771 -0.5142
v  -1.3839 -2.3124 -0.4665
v  -1.3839 -2.2759 -0.4876
v  1.4312 -2.2759 -0.4876
v  1.4312 -2.3124 -0.4665
v  -1.3839 -2.2759 -0.4454
v  1.4312 -2.2759 -0.4454
v  -1.3839 -2.3124 0.4348
v  -1.3839 -2.2759 0.4138
v  1.4312 -2.2759 0.4138
v  1.4312 -2.3124 0.4348
v  -1.3839 -2.2759 0.4559
v  1.4312 -2.2759 0.4559
v  -0.0371 -2.3099 0.4931
v  -0.0561 -2.2771 0.4931
v  -0.0561 -2.2771 -0.5142
v  -0.0371 -2.3099 -0.5142
v  -0.0182 -2.2771 0.4931
v  -0.0182 -2.2771 -0.5142
v  1.3104 -2.3099 0.4931
v  1.2914 -2.2771 0.4931
v  1.2914 -2.2771 -0.5142
v  1.3104 -2.3099 -0.5142
v  1.3293 -2.2771 0.4931
v  1.3293 -2.2771 -0.5142
v  0.0062 -3.3847 0.4821
v  -0.0561 -3.3847 0.4461
v  -0.0561 0.2771 0.4461
v  0.0062 0.2771 0.4821
v  -0.0561 -3.3847 0.5180
v  -0.0561 0.2771 0.5180
v  -1.3839 -0.0908 0.4931
v  -1.4028 -0.0580 0.4931
v  -1.4028 -0.0580 -0.5142
v  -1.3839 -0.0908 -0.5142
v  -1.3649 -0.0580 0.4931
v  -1.3649 -0.0580 -0.5142
v  -1.3839 -0.0648 -0.4665
v  -1.3839 -0.0283 -0.4876
v  1.4312 -0.0283 -0.4876
v  1.4312 -0.0648 -0.4665
v  -1.3839 -0.0283 -0.4454
v  1.4312 -0.0283 -0.4454
v  1.3104 -0.0908 0.4931
v  1.2914 -0.0580 0.4931
v  1.2914 -0.0580 -0.5142
v  1.3104 -0.0908 -0.5142
v  1.3293 -0.0580 0.4931
v  1.3293 -0.0580 -0.5142
# 134 vertices

vn 0.0000 -1.0000 -0.0000
vn 0.0000 1.0000 -0.0000
vn 0.0000 0.0000 1.0000
vn 1.0000 0.0000 -0.0000
vn 0.0000 0.0000 -1.0000
vn -1.0000 0.0000 -0.0000
vn 0.0000 0.2020 -0.9794
vn 0.0000 0.2020 0.9794
vn -0.0461 0.9989 -0.0000
vn 0.0463 0.9989 -0.0000
vn -0.0006 0.0000 -1.0000
vn -0.0006 0.0000 1.0000
vn -0.0004 0.0000 -1.0000
vn -0.0004 0.0000 1.0000
vn -0.0463 0.9989 -0.0000
vn 0.0461 0.9989 -0.0000
vn 0.0000 0.2019 -0.9794
vn 0.0000 0.2019 0.9794
# 18 vertex normals

vt 0.9684 0.9553 0.0000
vt 0.7712 0.9553 0.0000
vt 0.7712 0.0683 0.0000
vt 0.9684 0.0683 0.0000
vt 0.5673 0.9553 0.0000
vt 0.5673 0.0683 0.0000
vt 0.7646 0.0683 0.0000
vt 0.7646 0.9553 0.0000
vt 0.9750 0.0683 0.0000
vt 0.9750 0.9553 0.0000
vt 0.7712 0.0617 0.0000
vt 0.9684 0.0617 0.0000
vt 0.7646 0.9619 0.0000
vt 0.5673 0.9619 0.0000
vt 0.1267 0.0793 0.0000
vt 0.1515 0.0795 0.0000
vt 0.1526 0.9267 0.0000
vt 0.1272 0.9264 0.0000
vt 0.0771 0.0794 0.0000
vt 0.1019 0.0793 0.0000
vt 0.1014 0.9264 0.0000
vt 0.0761 0.9267 0.0000
vt 0.1144 0.0587 0.0000
vt 0.1143 0.9460 0.0000
vt 0.2270 0.4397 0.0000
vt 0.2569 0.4397 0.0000
vt 0.2569 0.9085 0.0000
vt 0.2270 0.9085 0.0000
vt 0.1672 0.4397 0.0000
vt 0.1971 0.4397 0.0000
vt 0.1971 0.9085 0.0000
vt 0.1672 0.9085 0.0000
vt 0.2120 0.4139 0.0000
vt 0.2120 0.9342 0.0000
vt 0.0497 0.0465 0.0000
vt 0.0633 0.0464 0.0000
vt 0.0633 0.9707 0.0000
vt 0.0497 0.9704 0.0000
vt 0.0223 0.0464 0.0000
vt 0.0359 0.0465 0.0000
vt 0.0359 0.9704 0.0000
vt 0.0223 0.9706 0.0000
vt 0.0428 0.0350 0.0000
vt 0.0428 0.9819 0.0000
# 44 texture coords

g steelframe
s off
f 1/1/1 2/2/1 3/3/1 4/4/1 
f 5/5/2 6/6/2 7/7/2 8/8/2 
f 1/1/3 4/4/3 6/9/3 5/10/3 
f 4/4/4 3/3/4 7/11/4 6/12/4 
f 3/3/5 2/2/5 8/8/5 7/7/5 
f 2/13/6 1/14/6 5/5/6 8/8/6 
f 9/15/1 10/16/7 11/17/7 12/18/1 
f 10/19/7 13/20/8 14/21/8 11/22/7 
f 13/20/8 9/15/1 12/18/1 14/21/8 
f 13/20/6 10/23/6 9/15/6 
f 12/18/4 11/24/4 14/21/4 
f 15/25/1 16/26/9 17/27/9 18/28/1 
f 16/29/9 19/30/10 20/31/10 17/32/9 
f 19/30/10 15/25/1 18/28/1 20/31/10 
f 19/30/3 16/33/3 15/25/3 
f 18/28/5 17/34/5 20/31/5 
f 21/35/4 22/36/11 23/37/11 24/38/4 
f 22/39/11 25/40/12 26/41/12 23/42/11 
f 25/40/12 21/35/4 24/38/4 26/41/12 
f 25/40/1 22/43/1 21/35/1 
f 24/38/2 23/44/2 26/41/2 
f 27/35/4 28/36/13 29/37/13 30/38/4 
f 28/39/13 31/40/14 32/41/14 29/42/13 
f 31/40/14 27/35/4 30/38/4 32/41/14 
f 31/40/1 28/43/1 27/35/1 
f 30/38/2 29/44/2 32/41/2 
f 33/35/4 34/36/13 35/37/13 36/38/4 
f 34/39/13 37/40/14 38/41/14 35/42/13 
f 37/40/14 33/35/4 36/38/4 38/41/14 
f 37/40/1 34/43/1 33/35/1 
f 36/38/2 35/44/2 38/41/2 
f 39/35/4 40/36/11 41/37/11 42/38/4 
f 40/39/11 43/40/12 44/41/12 41/42/11 
f 43/40/12 39/35/4 42/38/4 44/41/12 
f 43/40/1 40/43/1 39/35/1 
f 42/38/2 41/44/2 44/41/2 
f 45/35/4 46/36/11 47/37/11 48/38/4 
f 46/39/11 49/40/12 50/41/12 47/42/11 
f 49/40/12 45/35/4 48/38/4 50/41/12 
f 49/40/1 46/43/1 45/35/1 
f 48/38/2 47/44/2 50/41/2 
f 51/15/1 52/16/7 53/17/7 54/18/1 
f 52/19/7 55/20/8 56/21/8 53/22/7 
f 55/20/8 51/15/1 54/18/1 56/21/8 
f 55/20/6 52/23/6 51/15/6 
f 54/18/4 53/24/4 56/21/4 
f 57/25/1 58/26/15 59/27/15 60/28/1 
f 58/29/15 61/30/16 62/31/16 59/32/15 
f 61/30/16 57/25/1 60/28/1 62/31/16 
f 61/30/3 58/33/3 57/25/3 
f 60/28/5 59/34/5 62/31/5 
f 63/15/1 64/16/7 65/17/7 66/18/1 
f 64/19/7 67/20/8 68/21/8 65/22/7 
f 67/20/8 63/15/1 66/18/1 68/21/8 
f 67/20/6 64/23/6 63/15/6 
f 66/18/4 65/24/4 68/21/4 
f 69/25/1 70/26/9 71/27/9 72/28/1 
f 70/29/9 73/30/10 74/31/10 71/32/9 
f 73/30/10 69/25/1 72/28/1 74/31/10 
f 73/30/3 70/33/3 69/25/3 
f 72/28/5 71/34/5 74/31/5 
f 75/25/1 76/26/9 77/27/9 78/28/1 
f 76/29/9 79/30/10 80/31/10 77/32/9 
f 79/30/10 75/25/1 78/28/1 80/31/10 
f 79/30/3 76/33/3 75/25/3 
f 78/28/5 77/34/5 80/31/5 
f 81/25/1 82/26/9 83/27/9 84/28/1 
f 82/29/9 85/30/10 86/31/10 83/32/9 
f 85/30/10 81/25/1 84/28/1 86/31/10 
f 85/30/3 82/33/3 81/25/3 
f 84/28/5 83/34/5 86/31/5 
f 87/15/1 88/16/7 89/17/7 90/18/1 
f 88/19/7 91/20/8 92/21/8 89/22/7 
f 91/20/8 87/15/1 90/18/1 92/21/8 
f 91/20/6 88/23/6 87/15/6 
f 90/18/4 89/24/4 92/21/4 
f 93/15/1 94/16/17 95/17/17 96/18/1 
f 94/19/17 97/20/18 98/21/18 95/22/17 
f 97/20/18 93/15/1 96/18/1 98/21/18 
f 97/20/6 94/23/6 93/15/6 
f 96/18/4 95/24/4 98/21/4 
f 99/25/1 100/26/9 101/27/9 102/28/1 
f 100/29/9 103/30/10 104/31/10 101/32/9 
f 103/30/10 99/25/1 102/28/1 104/31/10 
f 103/30/3 100/33/3 99/25/3 
f 102/28/5 101/34/5 104/31/5 
f 105/25/1 106/26/15 107/27/15 108/28/1 
f 106/29/15 109/30/16 110/31/16 107/32/15 
f 109/30/16 105/25/1 108/28/1 110/31/16 
f 109/30/3 106/33/3 105/25/3 
f 108/28/5 107/34/5 110/31/5 
f 111/35/4 112/36/11 113/37/11 114/38/4 
f 112/39/11 115/40/12 116/41/12 113/42/11 
f 115/40/12 111/35/4 114/38/4 116/41/12 
f 115/40/1 112/43/1 111/35/1 
f 114/38/2 113/44/2 116/41/2 
f 117/25/1 118/26/9 119/27/9 120/28/1 
f 118/29/9 121/30/10 122/31/10 119/32/9 
f 121/30/10 117/25/1 120/28/1 122/31/10 
f 121/30/3 118/33/3 117/25/3 
f 120/28/5 119/34/5 122/31/5 
f 123/15/1 124/16/7 125/17/7 126/18/1 
f 124/19/7 127/20/8 128/21/8 125/22/7 
f 127/20/8 123/15/1 126/18/1 128/21/8 
f 127/20/6 124/23/6 123/15/6 
f 126/18/4 125/24/4 128/21/4 
f 129/25/1 130/26/15 131/27/15 132/28/1 
f 130/29/15 133/30/16 134/31/16 131/32/15 
f 133/30/16 129/25/1 132/28/1 134/31/16 
f 133/30/3 130/33/3 129/25/3 
f 132/28/5 131/34/5 134/31/5 
# 69 polygons - 42 triangles

