# 3ds Max Wavefront OBJ Exporter v0.97b - (c)2007 guruware
# File Created: 16.06.2013 02:11:24

#
# object woodencrate2
#

v  0.4817 0.0076 -0.2614
v  0.4817 0.0076 0.2614
v  -0.4817 0.0076 0.2614
v  -0.4817 0.0076 -0.2614
v  0.4817 0.5504 -0.2614
v  -0.4817 0.5504 -0.2614
v  -0.4817 0.5504 0.2614
v  0.4817 0.5504 0.2614
v  0.4975 0.5761 0.2405
v  0.4975 0.5761 0.2883
v  0.4975 -0.0205 0.2883
v  0.4975 -0.0205 0.2405
v  0.4473 0.5761 0.2405
v  0.4473 -0.0205 0.2405
v  0.4473 -0.0205 0.2883
v  0.4473 0.5761 0.2883
v  0.4925 0.5207 0.2662
v  0.4515 0.5207 0.2662
v  0.4515 0.5207 -0.2566
v  0.4925 0.5207 -0.2566
v  0.4925 0.5638 0.2662
v  0.4925 0.5638 -0.2566
v  0.4515 0.5638 -0.2566
v  0.4515 0.5638 0.2662
v  0.4975 0.5761 -0.2783
v  0.4975 0.5761 -0.2306
v  0.4975 -0.0205 -0.2306
v  0.4975 -0.0205 -0.2783
v  0.4473 0.5761 -0.2783
v  0.4473 -0.0205 -0.2783
v  0.4473 -0.0205 -0.2306
v  0.4473 0.5761 -0.2306
v  0.4925 -0.0089 0.2662
v  0.4515 -0.0089 0.2662
v  0.4515 -0.0089 -0.2566
v  0.4925 -0.0089 -0.2566
v  0.4925 0.0341 0.2662
v  0.4925 0.0341 -0.2566
v  0.4515 0.0341 -0.2566
v  0.4515 0.0341 0.2662
v  0.4654 -0.0058 0.2444
v  0.4654 -0.0058 0.2854
v  -0.4654 -0.0058 0.2854
v  -0.4654 -0.0058 0.2444
v  0.4654 0.0373 0.2444
v  -0.4654 0.0373 0.2444
v  -0.4654 0.0373 0.2854
v  0.4654 0.0373 0.2854
v  -0.4452 0.5761 0.2405
v  -0.4452 0.5761 0.2883
v  -0.4452 -0.0205 0.2883
v  -0.4452 -0.0205 0.2405
v  -0.4953 0.5761 0.2405
v  -0.4953 -0.0205 0.2405
v  -0.4953 -0.0205 0.2883
v  -0.4953 0.5761 0.2883
v  0.4654 0.5239 0.2444
v  0.4654 0.5239 0.2854
v  -0.4654 0.5239 0.2854
v  -0.4654 0.5239 0.2444
v  0.4654 0.5669 0.2444
v  -0.4654 0.5669 0.2444
v  -0.4654 0.5669 0.2854
v  0.4654 0.5669 0.2854
v  -0.4488 0.5207 0.2662
v  -0.4898 0.5207 0.2662
v  -0.4898 0.5207 -0.2566
v  -0.4488 0.5207 -0.2566
v  -0.4488 0.5638 0.2662
v  -0.4488 0.5638 -0.2566
v  -0.4898 0.5638 -0.2566
v  -0.4898 0.5638 0.2662
v  -0.4452 0.5761 -0.2783
v  -0.4452 0.5761 -0.2306
v  -0.4452 -0.0205 -0.2306
v  -0.4452 -0.0205 -0.2783
v  -0.4953 0.5761 -0.2783
v  -0.4953 -0.0205 -0.2783
v  -0.4953 -0.0205 -0.2306
v  -0.4953 0.5761 -0.2306
v  0.4654 0.5239 -0.2753
v  0.4654 0.5239 -0.2343
v  -0.4654 0.5239 -0.2343
v  -0.4654 0.5239 -0.2753
v  0.4654 0.5669 -0.2753
v  -0.4654 0.5669 -0.2753
v  -0.4654 0.5669 -0.2343
v  0.4654 0.5669 -0.2343
v  0.4654 -0.0058 -0.2753
v  0.4654 -0.0058 -0.2343
v  -0.4654 -0.0058 -0.2343
v  -0.4654 -0.0058 -0.2753
v  0.4654 0.0373 -0.2753
v  -0.4654 0.0373 -0.2753
v  -0.4654 0.0373 -0.2343
v  0.4654 0.0373 -0.2343
v  -0.4488 -0.0089 0.2662
v  -0.4898 -0.0089 0.2662
v  -0.4898 -0.0089 -0.2566
v  -0.4488 -0.0089 -0.2566
v  -0.4488 0.0341 0.2662
v  -0.4488 0.0341 -0.2566
v  -0.4898 0.0341 -0.2566
v  -0.4898 0.0341 0.2662
# 104 vertices

vn 0.0000 -1.0000 -0.0000
vn 0.0000 1.0000 -0.0000
vn 0.0000 0.0000 1.0000
vn 1.0000 0.0000 -0.0000
vn 0.0000 0.0000 -1.0000
vn -1.0000 0.0000 -0.0000
# 6 vertex normals

vt 0.3330 0.9848 0.0000
vt 0.3330 0.5471 0.0000
vt 0.9743 0.5471 0.0000
vt 0.9743 0.9848 0.0000
vt 0.9733 0.9829 0.0000
vt 0.3319 0.9829 0.0000
vt 0.3319 0.5452 0.0000
vt 0.9733 0.5452 0.0000
vt 0.8743 0.9815 0.0000
vt 0.3937 0.9815 0.0000
vt 0.3937 0.5523 0.0000
vt 0.8743 0.5523 0.0000
vt 0.1741 0.3152 0.0000
vt 0.1548 0.3154 0.0000
vt 0.1522 0.0577 0.0000
vt 0.1715 0.0575 0.0000
vt 0.1153 0.3159 0.0000
vt 0.1127 0.0581 0.0000
vt 0.1320 0.0579 0.0000
vt 0.1346 0.3157 0.0000
vt 0.1743 0.3369 0.0000
vt 0.1550 0.3371 0.0000
vt 0.1917 0.0572 0.0000
vt 0.1943 0.3150 0.0000
vt 0.1318 0.0373 0.0000
vt 0.1520 0.0371 0.0000
vt 0.0385 0.6478 0.0000
vt 0.0163 0.6478 0.0000
vt 0.0163 0.3801 0.0000
vt 0.0385 0.3801 0.0000
vt 0.0619 0.6478 0.0000
vt 0.0619 0.3801 0.0000
vt 0.0841 0.3801 0.0000
vt 0.0841 0.6478 0.0000
vt 0.1075 0.3801 0.0000
vt 0.1075 0.6478 0.0000
vt 0.0650 0.3168 0.0000
vt 0.0458 0.3168 0.0000
vt 0.0458 0.0591 0.0000
vt 0.0650 0.0591 0.0000
vt 0.0853 0.3168 0.0000
vt 0.0853 0.0591 0.0000
vt 0.1045 0.0591 0.0000
vt 0.1045 0.3168 0.0000
vt 0.0255 0.3168 0.0000
vt 0.0255 0.0591 0.0000
vt 0.0853 0.3374 0.0000
vt 0.0650 0.3374 0.0000
vt 0.0853 0.0385 0.0000
vt 0.0650 0.0385 0.0000
vt 0.2165 0.9719 0.0000
vt 0.1943 0.9722 0.0000
vt 0.1753 0.7060 0.0000
vt 0.1975 0.7056 0.0000
vt 0.2398 0.9715 0.0000
vt 0.2209 0.7053 0.0000
vt 0.2431 0.7049 0.0000
vt 0.2620 0.9712 0.0000
vt 0.1709 0.9726 0.0000
vt 0.1520 0.7063 0.0000
vt 0.9918 0.5018 0.0000
vt 0.9689 0.5025 0.0000
vt 0.9632 0.0333 0.0000
vt 0.9861 0.0326 0.0000
vt 0.9219 0.5040 0.0000
vt 0.9162 0.0348 0.0000
vt 0.9391 0.0341 0.0000
vt 0.9448 0.5032 0.0000
vt 0.8978 0.5047 0.0000
vt 0.8921 0.0356 0.0000
vt 0.2913 0.3222 0.0000
vt 0.2722 0.3221 0.0000
vt 0.2730 0.0654 0.0000
vt 0.2922 0.0654 0.0000
vt 0.2328 0.3220 0.0000
vt 0.2336 0.0652 0.0000
vt 0.2528 0.0653 0.0000
vt 0.2520 0.3220 0.0000
vt 0.2519 0.3436 0.0000
vt 0.2327 0.3436 0.0000
vt 0.2126 0.3219 0.0000
vt 0.2135 0.0652 0.0000
vt 0.2529 0.0448 0.0000
vt 0.2730 0.0448 0.0000
vt 0.6734 0.0335 0.0000
vt 0.6977 0.0329 0.0000
vt 0.7025 0.5118 0.0000
vt 0.6782 0.5124 0.0000
vt 0.7476 0.0317 0.0000
vt 0.7524 0.5106 0.0000
vt 0.7281 0.5112 0.0000
vt 0.7233 0.0323 0.0000
vt 0.7731 0.0311 0.0000
vt 0.7779 0.5100 0.0000
vt 0.1060 0.9767 0.0000
vt 0.0842 0.9767 0.0000
vt 0.0842 0.6699 0.0000
vt 0.1060 0.6699 0.0000
vt 0.0394 0.9767 0.0000
vt 0.0394 0.6699 0.0000
vt 0.0612 0.6699 0.0000
vt 0.0612 0.9767 0.0000
vt 0.0165 0.9767 0.0000
vt 0.0165 0.6699 0.0000
vt 0.3279 0.3213 0.0000
vt 0.3086 0.3213 0.0000
vt 0.3086 0.0636 0.0000
vt 0.3279 0.0636 0.0000
vt 0.3481 0.3213 0.0000
vt 0.3481 0.0636 0.0000
vt 0.3674 0.0636 0.0000
vt 0.3674 0.3213 0.0000
vt 0.3876 0.0636 0.0000
vt 0.3876 0.3213 0.0000
vt 0.3481 0.3419 0.0000
vt 0.3279 0.3419 0.0000
vt 0.3481 0.0430 0.0000
vt 0.3279 0.0430 0.0000
vt 0.5907 0.5103 0.0000
vt 0.5684 0.5103 0.0000
vt 0.5684 0.0128 0.0000
vt 0.5907 0.0128 0.0000
vt 0.6141 0.5103 0.0000
vt 0.6141 0.0128 0.0000
vt 0.6364 0.0128 0.0000
vt 0.6364 0.5103 0.0000
vt 0.6599 0.0128 0.0000
vt 0.6599 0.5103 0.0000
vt 0.8524 0.0144 0.0000
vt 0.8739 0.0135 0.0000
vt 0.8804 0.5071 0.0000
vt 0.8589 0.5080 0.0000
vt 0.8299 0.0154 0.0000
vt 0.8364 0.5090 0.0000
vt 0.8149 0.5099 0.0000
vt 0.8084 0.0163 0.0000
vt 0.7924 0.5109 0.0000
vt 0.7859 0.0173 0.0000
vt 0.2023 0.6563 0.0000
vt 0.1801 0.6564 0.0000
vt 0.1776 0.3895 0.0000
vt 0.1998 0.3893 0.0000
vt 0.1347 0.6568 0.0000
vt 0.1321 0.3899 0.0000
vt 0.1543 0.3897 0.0000
vt 0.1568 0.6566 0.0000
vt 0.2231 0.3891 0.0000
vt 0.2256 0.6561 0.0000
# 148 texture coords

g woodencrate2
s 2
f 1/1/1 2/2/1 3/3/1 4/4/1 
s 4
f 5/4/2 6/1/2 7/2/2 8/3/2 
s 8
f 8/5/3 7/6/3 3/7/3 2/8/3 
s 16
f 5/9/4 8/10/4 2/11/4 1/12/4 
s 32
f 6/5/5 5/6/5 1/7/5 4/8/5 
s 64
f 7/9/6 6/10/6 4/11/6 3/12/6 
s 2
f 9/13/4 10/14/4 11/15/4 12/16/4 
s 4
f 13/17/6 14/18/6 15/19/6 16/20/6 
s 8
f 16/20/3 15/19/3 11/15/3 10/14/3 
s 16
f 13/21/2 16/22/2 10/14/2 9/13/2 
s 32
f 14/23/5 13/24/5 9/13/5 12/16/5 
s 64
f 15/19/1 14/25/1 12/26/1 11/15/1 
s 2
f 17/27/1 18/28/1 19/29/1 20/30/1 
s 4
f 21/31/2 22/32/2 23/33/2 24/34/2 
s 8
f 24/34/6 23/33/6 19/35/6 18/36/6 
s 32
f 22/32/4 21/31/4 17/27/4 20/30/4 
s 2
f 25/37/4 26/38/4 27/39/4 28/40/4 
s 4
f 29/41/6 30/42/6 31/43/6 32/44/6 
s 8
f 32/45/3 31/46/3 27/39/3 26/38/3 
s 16
f 29/41/2 32/47/2 26/48/2 25/37/2 
s 32
f 30/42/5 29/41/5 25/37/5 28/40/5 
s 64
f 31/49/1 30/42/1 28/40/1 27/50/1 
s 2
f 33/51/1 34/52/1 35/53/1 36/54/1 
s 4
f 37/55/2 38/56/2 39/57/2 40/58/2 
s 8
f 40/59/6 39/60/6 35/53/6 34/52/6 
s 32
f 38/56/4 37/55/4 33/51/4 36/54/4 
s 2
f 41/61/1 42/62/1 43/63/1 44/64/1 
s 4
f 45/65/2 46/66/2 47/67/2 48/68/2 
s 8
f 48/68/3 47/67/3 43/63/3 42/62/3 
s 32
f 46/66/5 45/65/5 41/69/5 44/70/5 
s 2
f 49/71/4 50/72/4 51/73/4 52/74/4 
s 4
f 53/75/6 54/76/6 55/77/6 56/78/6 
s 8
f 56/78/3 55/77/3 51/73/3 50/72/3 
s 16
f 53/75/2 56/78/2 50/79/2 49/80/2 
s 32
f 54/76/5 53/75/5 49/81/5 52/82/5 
s 64
f 55/77/1 54/83/1 52/84/1 51/73/1 
s 2
f 57/85/1 58/86/1 59/87/1 60/88/1 
s 4
f 61/89/2 62/90/2 63/91/2 64/92/2 
s 8
f 64/92/3 63/91/3 59/87/3 58/86/3 
s 32
f 62/90/5 61/89/5 57/93/5 60/94/5 
s 2
f 65/95/1 66/96/1 67/97/1 68/98/1 
s 4
f 69/99/2 70/100/2 71/101/2 72/102/2 
s 8
f 72/102/6 71/101/6 67/97/6 66/96/6 
s 32
f 70/100/4 69/99/4 65/103/4 68/104/4 
s 2
f 73/105/4 74/106/4 75/107/4 76/108/4 
s 4
f 77/109/6 78/110/6 79/111/6 80/112/6 
s 8
f 80/112/3 79/111/3 75/113/3 74/114/3 
s 16
f 77/109/2 80/115/2 74/116/2 73/105/2 
s 32
f 78/110/5 77/109/5 73/105/5 76/108/5 
s 64
f 79/117/1 78/110/1 76/108/1 75/118/1 
s 2
f 81/119/1 82/120/1 83/121/1 84/122/1 
s 4
f 85/123/2 86/124/2 87/125/2 88/126/2 
s 8
f 88/126/3 87/125/3 83/127/3 82/128/3 
s 32
f 86/124/5 85/123/5 81/119/5 84/122/5 
s 2
f 89/129/1 90/130/1 91/131/1 92/132/1 
s 4
f 93/133/2 94/134/2 95/135/2 96/136/2 
s 8
f 96/136/3 95/135/3 91/137/3 90/138/3 
s 32
f 94/134/5 93/133/5 89/129/5 92/132/5 
s 2
f 97/139/1 98/140/1 99/141/1 100/142/1 
s 4
f 101/143/2 102/144/2 103/145/2 104/146/2 
s 8
f 104/146/6 103/145/6 99/141/6 98/140/6 
s 32
f 102/147/4 101/148/4 97/139/4 100/142/4 
# 62 polygons

