# 3ds Max Wavefront OBJ Exporter v0.97b - (c)2007 guruware
# File Created: 16.06.2013 01:58:12

#
# object woodencrate1
#

v  0.2510 0.0000 -0.2510
v  0.2510 0.0000 0.2510
v  -0.2510 0.0000 0.2510
v  -0.2510 0.0000 -0.2510
v  0.2510 0.5213 -0.2510
v  -0.2510 0.5213 -0.2510
v  -0.2510 0.5213 0.2510
v  0.2510 0.5213 0.2510
v  0.2374 0.4802 0.2479
v  0.2374 0.4802 0.2608
v  -0.2374 0.0053 0.2608
v  -0.2374 0.0053 0.2479
v  0.2082 0.5094 0.2479
v  -0.2667 0.0346 0.2479
v  -0.2667 0.0346 0.2608
v  0.2082 0.5094 0.2608
v  0.2724 0.5459 0.2310
v  0.2724 0.5459 0.2768
v  0.2724 -0.0270 0.2768
v  0.2724 -0.0270 0.2310
v  0.2242 0.5459 0.2310
v  0.2242 -0.0270 0.2310
v  0.2242 -0.0270 0.2768
v  0.2242 0.5459 0.2768
v  0.2676 0.4928 0.2556
v  0.2283 0.4928 0.2556
v  0.2283 0.4928 -0.2464
v  0.2676 0.4928 -0.2464
v  0.2676 0.5342 0.2556
v  0.2676 0.5342 -0.2464
v  0.2283 0.5342 -0.2464
v  0.2283 0.5342 0.2556
v  0.2484 0.4802 -0.2505
v  0.2613 0.4802 -0.2505
v  0.2613 0.0053 0.2244
v  0.2484 0.0053 0.2244
v  0.2484 0.5094 -0.2213
v  0.2484 0.0346 0.2536
v  0.2613 0.0346 0.2536
v  0.2613 0.5094 -0.2213
v  0.2724 0.5459 -0.2672
v  0.2724 0.5459 -0.2214
v  0.2724 -0.0270 -0.2214
v  0.2724 -0.0270 -0.2672
v  0.2242 0.5459 -0.2672
v  0.2242 -0.0270 -0.2672
v  0.2242 -0.0270 -0.2214
v  0.2242 0.5459 -0.2214
v  0.2676 -0.0159 0.2556
v  0.2283 -0.0159 0.2556
v  0.2283 -0.0159 -0.2464
v  0.2676 -0.0159 -0.2464
v  0.2676 0.0255 0.2556
v  0.2676 0.0255 -0.2464
v  0.2283 0.0255 -0.2464
v  0.2283 0.0255 0.2556
v  0.2510 -0.0128 0.2347
v  0.2510 -0.0128 0.2741
v  -0.2510 -0.0128 0.2741
v  -0.2510 -0.0128 0.2347
v  0.2510 0.0285 0.2347
v  -0.2510 0.0285 0.2347
v  -0.2510 0.0285 0.2741
v  0.2510 0.0285 0.2741
v  -0.2346 0.5459 0.2310
v  -0.2346 0.5459 0.2768
v  -0.2346 -0.0270 0.2768
v  -0.2346 -0.0270 0.2310
v  -0.2828 0.5459 0.2310
v  -0.2828 -0.0270 0.2310
v  -0.2828 -0.0270 0.2768
v  -0.2828 0.5459 0.2768
v  0.2510 0.4958 0.2347
v  0.2510 0.4958 0.2741
v  -0.2510 0.4958 0.2741
v  -0.2510 0.4958 0.2347
v  0.2510 0.5372 0.2347
v  -0.2510 0.5372 0.2347
v  -0.2510 0.5372 0.2741
v  0.2510 0.5372 0.2741
v  -0.2739 0.4802 -0.2505
v  -0.2610 0.4802 -0.2505
v  -0.2610 0.0053 0.2244
v  -0.2739 0.0053 0.2244
v  -0.2739 0.5094 -0.2212
v  -0.2739 0.0346 0.2536
v  -0.2610 0.0346 0.2536
v  -0.2610 0.5094 -0.2212
v  -0.2381 0.4928 0.2556
v  -0.2775 0.4928 0.2556
v  -0.2775 0.4928 -0.2464
v  -0.2381 0.4928 -0.2464
v  -0.2381 0.5342 0.2556
v  -0.2381 0.5342 -0.2464
v  -0.2775 0.5342 -0.2464
v  -0.2775 0.5342 0.2556
v  -0.2346 0.5459 -0.2672
v  -0.2346 0.5459 -0.2214
v  -0.2346 -0.0270 -0.2214
v  -0.2346 -0.0270 -0.2672
v  -0.2828 0.5459 -0.2672
v  -0.2828 -0.0270 -0.2672
v  -0.2828 -0.0270 -0.2214
v  -0.2828 0.5459 -0.2214
v  0.2374 0.4802 -0.2577
v  0.2374 0.4802 -0.2448
v  -0.2374 0.0053 -0.2448
v  -0.2374 0.0053 -0.2577
v  0.2082 0.5094 -0.2577
v  -0.2667 0.0346 -0.2577
v  -0.2667 0.0346 -0.2448
v  0.2082 0.5094 -0.2448
v  0.2510 0.4958 -0.2644
v  0.2510 0.4958 -0.2250
v  -0.2510 0.4958 -0.2250
v  -0.2510 0.4958 -0.2644
v  0.2510 0.5372 -0.2644
v  -0.2510 0.5372 -0.2644
v  -0.2510 0.5372 -0.2250
v  0.2510 0.5372 -0.2250
v  0.2510 -0.0128 -0.2644
v  0.2510 -0.0128 -0.2250
v  -0.2510 -0.0128 -0.2250
v  -0.2510 -0.0128 -0.2644
v  0.2510 0.0285 -0.2644
v  -0.2510 0.0285 -0.2644
v  -0.2510 0.0285 -0.2250
v  0.2510 0.0285 -0.2250
v  0.2147 0.5301 -0.2464
v  0.2147 0.5172 -0.2464
v  -0.2602 0.5172 0.2285
v  -0.2602 0.5301 0.2285
v  0.2440 0.5301 -0.2171
v  -0.2309 0.5301 0.2578
v  -0.2309 0.5172 0.2578
v  0.2440 0.5172 -0.2171
v  -0.2381 -0.0159 0.2556
v  -0.2775 -0.0159 0.2556
v  -0.2775 -0.0159 -0.2464
v  -0.2381 -0.0159 -0.2464
v  -0.2381 0.0255 0.2556
v  -0.2381 0.0255 -0.2464
v  -0.2775 0.0255 -0.2464
v  -0.2775 0.0255 0.2556
v  0.2238 0.0058 -0.2505
v  0.2238 -0.0071 -0.2505
v  -0.2510 -0.0071 0.2244
v  -0.2510 0.0058 0.2244
v  0.2531 0.0058 -0.2213
v  -0.2218 0.0058 0.2536
v  -0.2218 -0.0071 0.2536
v  0.2531 -0.0071 -0.2213
# 152 vertices

vn 0.0000 -1.0000 -0.0000
vn 0.0000 1.0000 -0.0000
vn 0.0000 0.0000 1.0000
vn 1.0000 0.0000 -0.0000
vn 0.0000 0.0000 -1.0000
vn -1.0000 0.0000 -0.0000
vn 0.7071 -0.7071 -0.0000
vn -0.7071 0.7071 -0.0000
vn 0.0000 -0.7071 -0.7071
vn 0.0000 0.7071 0.7071
vn -0.7071 0.0000 -0.7071
vn 0.7071 0.0000 0.7071
# 12 vertex normals

vt 0.5133 0.9752 0.0000
vt 0.5133 0.5460 0.0000
vt 0.9939 0.5460 0.0000
vt 0.9939 0.9752 0.0000
vt 0.0556 0.3099 0.0000
vt 0.0510 0.3102 0.0000
vt 0.0365 0.0206 0.0000
vt 0.0410 0.0203 0.0000
vt 0.0319 0.3117 0.0000
vt 0.0173 0.0221 0.0000
vt 0.0219 0.0217 0.0000
vt 0.0365 0.3113 0.0000
vt 0.0556 0.0192 0.0000
vt 0.0702 0.3088 0.0000
vt 0.6957 0.4480 0.0000
vt 0.6741 0.4483 0.0000
vt 0.6712 0.1178 0.0000
vt 0.6928 0.1176 0.0000
vt 0.6298 0.4489 0.0000
vt 0.6269 0.1184 0.0000
vt 0.6485 0.1181 0.0000
vt 0.6514 0.4486 0.0000
vt 0.6960 0.4758 0.0000
vt 0.6744 0.4761 0.0000
vt 0.7156 0.1173 0.0000
vt 0.7184 0.4477 0.0000
vt 0.6483 0.0917 0.0000
vt 0.6710 0.0914 0.0000
vt 0.1696 0.6077 0.0000
vt 0.1473 0.6077 0.0000
vt 0.1473 0.3400 0.0000
vt 0.1696 0.3400 0.0000
vt 0.1929 0.6077 0.0000
vt 0.1929 0.3400 0.0000
vt 0.2152 0.3400 0.0000
vt 0.2152 0.6077 0.0000
vt 0.2386 0.3400 0.0000
vt 0.2386 0.6077 0.0000
vt 0.3727 0.3100 0.0000
vt 0.3681 0.3098 0.0000
vt 0.3772 0.0237 0.0000
vt 0.3818 0.0239 0.0000
vt 0.3487 0.3091 0.0000
vt 0.3578 0.0229 0.0000
vt 0.3624 0.0231 0.0000
vt 0.3533 0.3092 0.0000
vt 0.3339 0.3085 0.0000
vt 0.3430 0.0223 0.0000
vt 0.5734 0.4500 0.0000
vt 0.5518 0.4500 0.0000
vt 0.5518 0.1197 0.0000
vt 0.5734 0.1197 0.0000
vt 0.5961 0.4500 0.0000
vt 0.5961 0.1197 0.0000
vt 0.6177 0.1197 0.0000
vt 0.6177 0.4500 0.0000
vt 0.5291 0.4500 0.0000
vt 0.5291 0.1197 0.0000
vt 0.5961 0.4764 0.0000
vt 0.5734 0.4764 0.0000
vt 0.5961 0.0932 0.0000
vt 0.5734 0.0932 0.0000
vt 0.0807 0.6087 0.0000
vt 0.0585 0.6091 0.0000
vt 0.0395 0.3428 0.0000
vt 0.0617 0.3425 0.0000
vt 0.1040 0.6084 0.0000
vt 0.0851 0.3421 0.0000
vt 0.1073 0.3418 0.0000
vt 0.1262 0.6080 0.0000
vt 0.0351 0.6094 0.0000
vt 0.0162 0.3432 0.0000
vt 0.4687 0.6078 0.0000
vt 0.4471 0.6082 0.0000
vt 0.4417 0.3478 0.0000
vt 0.4633 0.3474 0.0000
vt 0.4028 0.6090 0.0000
vt 0.3974 0.3486 0.0000
vt 0.4190 0.3482 0.0000
vt 0.4244 0.6086 0.0000
vt 0.3801 0.6094 0.0000
vt 0.3747 0.3490 0.0000
vt 0.8273 0.4569 0.0000
vt 0.8058 0.4569 0.0000
vt 0.8067 0.1277 0.0000
vt 0.8282 0.1278 0.0000
vt 0.7616 0.4567 0.0000
vt 0.7626 0.1275 0.0000
vt 0.7841 0.1276 0.0000
vt 0.7832 0.4568 0.0000
vt 0.7831 0.4844 0.0000
vt 0.7616 0.4844 0.0000
vt 0.7390 0.4566 0.0000
vt 0.7399 0.1274 0.0000
vt 0.7842 0.1013 0.0000
vt 0.8068 0.1014 0.0000
vt 0.2521 0.6614 0.0000
vt 0.2759 0.6610 0.0000
vt 0.2806 0.9747 0.0000
vt 0.2568 0.9751 0.0000
vt 0.3248 0.6602 0.0000
vt 0.3295 0.9739 0.0000
vt 0.3057 0.9743 0.0000
vt 0.3009 0.6606 0.0000
vt 0.3498 0.6598 0.0000
vt 0.3545 0.9735 0.0000
vt 0.2965 0.3110 0.0000
vt 0.2919 0.3110 0.0000
vt 0.2918 0.0247 0.0000
vt 0.2964 0.0247 0.0000
vt 0.3113 0.3110 0.0000
vt 0.3112 0.0247 0.0000
vt 0.3159 0.0247 0.0000
vt 0.3160 0.3110 0.0000
vt 0.2771 0.3110 0.0000
vt 0.2770 0.0247 0.0000
vt 0.1060 0.9767 0.0000
vt 0.0842 0.9767 0.0000
vt 0.0842 0.6699 0.0000
vt 0.1060 0.6699 0.0000
vt 0.0394 0.9767 0.0000
vt 0.0394 0.6699 0.0000
vt 0.0612 0.6699 0.0000
vt 0.0612 0.9767 0.0000
vt 0.0165 0.9767 0.0000
vt 0.0165 0.6699 0.0000
vt 0.8683 0.4558 0.0000
vt 0.8467 0.4558 0.0000
vt 0.8467 0.1254 0.0000
vt 0.8683 0.1254 0.0000
vt 0.8910 0.4558 0.0000
vt 0.8910 0.1254 0.0000
vt 0.9126 0.1254 0.0000
vt 0.9126 0.4558 0.0000
vt 0.9354 0.1254 0.0000
vt 0.9354 0.4558 0.0000
vt 0.8910 0.4822 0.0000
vt 0.8683 0.4822 0.0000
vt 0.8910 0.0990 0.0000
vt 0.8683 0.0990 0.0000
vt 0.1000 0.3044 0.0000
vt 0.0954 0.3045 0.0000
vt 0.0893 0.0145 0.0000
vt 0.0939 0.0143 0.0000
vt 0.1146 0.3039 0.0000
vt 0.1085 0.0139 0.0000
vt 0.1130 0.0137 0.0000
vt 0.1191 0.3038 0.0000
vt 0.1276 0.0133 0.0000
vt 0.1337 0.3033 0.0000
vt 0.1331 0.9889 0.0000
vt 0.1113 0.9889 0.0000
vt 0.1113 0.6631 0.0000
vt 0.1331 0.6631 0.0000
vt 0.1561 0.9889 0.0000
vt 0.1561 0.6631 0.0000
vt 0.1779 0.6631 0.0000
vt 0.1779 0.9889 0.0000
vt 0.2009 0.6631 0.0000
vt 0.2009 0.9889 0.0000
vt 0.4516 0.6489 0.0000
vt 0.4727 0.6483 0.0000
vt 0.4790 0.9716 0.0000
vt 0.4580 0.9722 0.0000
vt 0.4295 0.6495 0.0000
vt 0.4359 0.9729 0.0000
vt 0.4149 0.9735 0.0000
vt 0.4085 0.6501 0.0000
vt 0.3928 0.9741 0.0000
vt 0.3864 0.6508 0.0000
vt 0.1672 0.0134 0.0000
vt 0.1719 0.0129 0.0000
vt 0.1897 0.3169 0.0000
vt 0.1849 0.3173 0.0000
vt 0.1519 0.0147 0.0000
vt 0.1696 0.3186 0.0000
vt 0.1648 0.3190 0.0000
vt 0.1471 0.0151 0.0000
vt 0.1872 0.0116 0.0000
vt 0.2050 0.3155 0.0000
vt 0.3334 0.6135 0.0000
vt 0.3112 0.6136 0.0000
vt 0.3087 0.3467 0.0000
vt 0.3308 0.3465 0.0000
vt 0.2657 0.6140 0.0000
vt 0.2632 0.3471 0.0000
vt 0.2853 0.3469 0.0000
vt 0.2879 0.6138 0.0000
vt 0.3541 0.3463 0.0000
vt 0.3567 0.6133 0.0000
vt 0.2159 0.0133 0.0000
vt 0.2207 0.0131 0.0000
vt 0.2272 0.3185 0.0000
vt 0.2224 0.3187 0.0000
vt 0.2409 0.0125 0.0000
vt 0.2473 0.3179 0.0000
vt 0.2426 0.3181 0.0000
vt 0.2361 0.0127 0.0000
vt 0.2563 0.0120 0.0000
vt 0.2627 0.3174 0.0000
# 200 texture coords

g woodencrate1
s 2
f 1/1/1 2/2/1 3/3/1 4/4/1 
s 4
f 5/4/2 6/1/2 7/2/2 8/3/2 
s 8
f 8/4/3 7/1/3 3/2/3 2/3/3 
s 16
f 5/4/4 8/1/4 2/2/4 1/3/4 
s 32
f 6/4/5 5/1/5 1/2/5 4/3/5 
s 64
f 7/4/6 6/1/6 4/2/6 3/3/6 
s 2
f 9/5/7 10/6/7 11/7/7 12/8/7 
s 4
f 13/9/8 14/10/8 15/11/8 16/12/8 
s 8
f 16/12/3 15/11/3 11/7/3 10/6/3 
s 32
f 14/13/5 13/14/5 9/5/5 12/8/5 
s 2
f 17/15/4 18/16/4 19/17/4 20/18/4 
s 4
f 21/19/6 22/20/6 23/21/6 24/22/6 
s 8
f 24/22/3 23/21/3 19/17/3 18/16/3 
s 16
f 21/23/2 24/24/2 18/16/2 17/15/2 
s 32
f 22/25/5 21/26/5 17/15/5 20/18/5 
s 64
f 23/21/1 22/27/1 20/28/1 19/17/1 
s 2
f 25/29/1 26/30/1 27/31/1 28/32/1 
s 4
f 29/33/2 30/34/2 31/35/2 32/36/2 
s 8
f 32/36/6 31/35/6 27/37/6 26/38/6 
s 32
f 30/34/4 29/33/4 25/29/4 28/32/4 
s 2
f 33/39/9 34/40/9 35/41/9 36/42/9 
s 4
f 37/43/10 38/44/10 39/45/10 40/46/10 
s 8
f 40/46/4 39/45/4 35/41/4 34/40/4 
s 32
f 38/44/6 37/43/6 33/47/6 36/48/6 
s 2
f 41/49/4 42/50/4 43/51/4 44/52/4 
s 4
f 45/53/6 46/54/6 47/55/6 48/56/6 
s 8
f 48/57/3 47/58/3 43/51/3 42/50/3 
s 16
f 45/53/2 48/59/2 42/60/2 41/49/2 
s 32
f 46/54/5 45/53/5 41/49/5 44/52/5 
s 64
f 47/61/1 46/54/1 44/52/1 43/62/1 
s 2
f 49/63/1 50/64/1 51/65/1 52/66/1 
s 4
f 53/67/2 54/68/2 55/69/2 56/70/2 
s 8
f 56/71/6 55/72/6 51/65/6 50/64/6 
s 32
f 54/68/4 53/67/4 49/63/4 52/66/4 
s 2
f 57/73/1 58/74/1 59/75/1 60/76/1 
s 4
f 61/77/2 62/78/2 63/79/2 64/80/2 
s 8
f 64/80/3 63/79/3 59/75/3 58/74/3 
s 32
f 62/78/5 61/77/5 57/81/5 60/82/5 
s 2
f 65/83/4 66/84/4 67/85/4 68/86/4 
s 4
f 69/87/6 70/88/6 71/89/6 72/90/6 
s 8
f 72/90/3 71/89/3 67/85/3 66/84/3 
s 16
f 69/87/2 72/90/2 66/91/2 65/92/2 
s 32
f 70/88/5 69/87/5 65/93/5 68/94/5 
s 64
f 71/89/1 70/95/1 68/96/1 67/85/1 
s 2
f 73/97/1 74/98/1 75/99/1 76/100/1 
s 4
f 77/101/2 78/102/2 79/103/2 80/104/2 
s 8
f 80/104/3 79/103/3 75/99/3 74/98/3 
s 32
f 78/102/5 77/101/5 73/105/5 76/106/5 
s 2
f 81/107/9 82/108/9 83/109/9 84/110/9 
s 4
f 85/111/10 86/112/10 87/113/10 88/114/10 
s 8
f 88/115/4 87/116/4 83/109/4 82/108/4 
s 32
f 86/112/6 85/111/6 81/107/6 84/110/6 
s 2
f 89/117/1 90/118/1 91/119/1 92/120/1 
s 4
f 93/121/2 94/122/2 95/123/2 96/124/2 
s 8
f 96/124/6 95/123/6 91/119/6 90/118/6 
s 32
f 94/122/4 93/121/4 89/125/4 92/126/4 
s 2
f 97/127/4 98/128/4 99/129/4 100/130/4 
s 4
f 101/131/6 102/132/6 103/133/6 104/134/6 
s 8
f 104/134/3 103/133/3 99/135/3 98/136/3 
s 16
f 101/131/2 104/137/2 98/138/2 97/127/2 
s 32
f 102/132/5 101/131/5 97/127/5 100/130/5 
s 64
f 103/139/1 102/132/1 100/130/1 99/140/1 
s 2
f 105/141/7 106/142/7 107/143/7 108/144/7 
s 4
f 109/145/8 110/146/8 111/147/8 112/148/8 
s 8
f 112/148/3 111/147/3 107/149/3 106/150/3 
s 32
f 110/146/5 109/145/5 105/141/5 108/144/5 
s 2
f 113/151/1 114/152/1 115/153/1 116/154/1 
s 4
f 117/155/2 118/156/2 119/157/2 120/158/2 
s 8
f 120/158/3 119/157/3 115/159/3 114/160/3 
s 32
f 118/156/5 117/155/5 113/151/5 116/154/5 
s 2
f 121/161/1 122/162/1 123/163/1 124/164/1 
s 4
f 125/165/2 126/166/2 127/167/2 128/168/2 
s 8
f 128/168/3 127/167/3 123/169/3 122/170/3 
s 32
f 126/166/5 125/165/5 121/161/5 124/164/5 
s 2
f 129/171/11 130/172/11 131/173/11 132/174/11 
s 4
f 133/175/12 134/176/12 135/177/12 136/178/12 
s 8
f 136/179/1 135/180/1 131/173/1 130/172/1 
s 32
f 134/176/2 133/175/2 129/171/2 132/174/2 
s 2
f 137/181/1 138/182/1 139/183/1 140/184/1 
s 4
f 141/185/2 142/186/2 143/187/2 144/188/2 
s 8
f 144/188/6 143/187/6 139/183/6 138/182/6 
s 32
f 142/189/4 141/190/4 137/181/4 140/184/4 
s 2
f 145/191/11 146/192/11 147/193/11 148/194/11 
s 4
f 149/195/12 150/196/12 151/197/12 152/198/12 
s 8
f 152/198/1 151/197/1 147/193/1 146/192/1 
s 32
f 150/196/2 149/195/2 145/199/2 148/200/2 
# 86 polygons

