# 3ds Max Wavefront OBJ Exporter v0.97b - (c)2007 guruware
# File Created: 12.06.2013 21:18:45

mtllib concreteblock.mtl

#
# object concreteblock
#

v  0.2305 -0.0247 -0.2305
v  0.2305 -0.0247 0.2305
v  -0.2305 -0.0247 0.2305
v  -0.2305 -0.0247 -0.2305
v  0.2151 0.0247 -0.2151
v  -0.2151 0.0247 -0.2151
v  -0.2151 0.0247 0.2151
v  0.2151 0.0247 0.2151
v  0.2305 0.0139 0.2305
v  -0.2305 0.0139 0.2305
v  0.2305 0.0139 -0.2305
v  -0.2305 0.0139 -0.2305
v  0.0726 0.0139 0.9422
v  -0.2298 0.0139 1.0523
v  -0.2298 -0.0247 1.0523
v  0.0725 -0.0247 0.9423
v  -0.2867 0.0139 0.8961
v  -0.2206 0.0247 1.0326
v  -0.2729 0.0247 0.8890
v  -0.2866 -0.0247 0.8962
v  0.0608 0.0247 0.9302
v  -0.0408 0.0247 0.8259
v  -0.0415 -0.0247 0.8254
v  -0.1056 0.0247 0.8035
v  -0.1026 0.0247 0.8027
v  -0.1104 -0.0247 0.8061
v  -0.1002 -0.0247 0.8033
v  0.0393 -0.0247 0.7845
v  0.2457 -0.0247 0.6948
v  0.2457 -0.0247 0.9333
v  0.1065 -0.0247 0.9333
v  0.2457 -0.0011 0.6952
v  0.2457 0.0139 0.9333
v  0.2457 0.0139 0.6965
v  0.2303 0.0247 0.7024
v  0.2303 0.0247 0.9180
v  0.2441 0.0150 0.6963
v  0.0398 0.0247 0.7853
v  0.0997 0.0247 0.9180
v  0.1066 0.0139 0.9333
v  0.2161 0.0212 0.6590
v  0.2249 0.0150 0.6705
v  0.2265 -0.0012 0.6694
v  0.2265 -0.0247 0.6646
v  0.1835 -0.0247 0.6022
v  0.1164 -0.0247 0.5362
v  0.1060 0.0247 0.5525
v  0.2112 0.0247 0.6560
v  0.2265 -0.0247 0.6690
v  0.2112 0.0247 0.6766
v  0.0201 -0.0247 0.7587
v  0.0206 0.0247 0.7594
v  0.0145 -0.0247 0.6308
v  -0.0274 -0.0247 0.7179
v  0.0038 0.0247 0.6474
v  -0.0294 0.0247 0.7165
v  0.1861 -0.0247 0.4323
v  0.1690 -0.0247 0.4323
v  0.1636 0.0139 0.4323
v  0.2143 0.0139 0.4323
v  0.1506 0.0247 0.4477
v  0.2184 0.0196 0.4405
v  0.2112 0.0247 0.4477
v  0.1215 0.0247 0.4866
v  0.2112 0.0247 0.6417
v  0.1060 0.0247 0.5383
v  0.2161 0.0212 0.6447
v  0.1835 -0.0247 0.5880
v  0.1164 -0.0247 0.5219
v  0.1261 -0.0247 0.4897
v  0.0145 -0.0247 0.6166
v  0.0038 0.0247 0.6332
v  -0.0444 0.0247 0.4512
v  -0.0278 -0.0247 0.4569
v  0.1636 0.0139 0.4304
v  0.1506 0.0247 0.4458
v  0.1215 0.0247 0.4846
v  0.1260 -0.0247 0.4877
v  0.1690 -0.0247 0.4304
v  -0.0475 0.0247 0.4458
v  -0.0444 0.0247 0.4493
v  -0.0497 -0.0247 0.4304
v  -0.0587 0.0139 0.4304
v  -0.0278 -0.0247 0.4549
v  -0.0274 -0.0247 0.7036
v  -0.1095 -0.0247 0.4953
v  -0.0380 -0.0247 0.7028
v  -0.1070 -0.0247 0.4323
v  -0.0497 -0.0247 0.4323
v  -0.0475 0.0247 0.4477
v  -0.1042 0.0247 0.4477
v  -0.1059 0.0247 0.4892
v  -0.0325 0.0247 0.7020
v  -0.0294 0.0247 0.7022
v  -0.0587 0.0139 0.4323
v  -0.1044 0.0139 0.4323
v  -0.1171 0.0247 0.4883
v  -0.1155 0.0247 0.4468
v  -0.2302 0.0247 0.4468
v  -0.2302 0.0247 0.6148
v  -0.2456 0.0139 0.6324
v  -0.2456 0.0139 0.4315
v  -0.2456 -0.0247 0.4315
v  -0.2456 -0.0247 0.6339
v  -0.1182 -0.0247 0.4315
v  -0.1156 0.0139 0.4315
v  -0.1207 -0.0247 0.4944
v  0.2265 0.0139 0.4323
v  0.2265 -0.0247 0.4323
v  0.2265 0.0139 0.6564
v  0.2265 -0.0247 0.6503
v  0.2265 -0.0012 0.6552
v  0.2249 0.0150 0.6562
v  -0.2344 0.0139 0.6333
v  -0.2344 0.0139 0.7270
v  -0.2190 0.0247 0.7251
v  -0.2190 0.0247 0.6157
v  -0.2344 -0.0247 0.7271
v  -0.2344 -0.0247 0.6348
v  -0.2305 -0.0247 -0.6987
v  0.2305 -0.0247 -0.6987
v  0.2305 -0.0247 -0.2378
v  -0.2305 -0.0247 -0.2378
v  -0.2151 0.0247 -0.6833
v  -0.2151 0.0247 -0.2531
v  0.2151 0.0247 -0.2531
v  0.2151 0.0247 -0.6833
v  0.2305 0.0139 -0.6987
v  0.2305 0.0139 -0.2378
v  -0.2305 0.0139 -0.6987
v  -0.2305 0.0139 -0.2378
v  -0.2324 -0.0247 -0.6987
v  -0.2324 -0.0247 -0.2378
v  -0.6933 -0.0247 -0.2378
v  -0.6933 -0.0247 -0.6987
v  -0.2478 0.0247 -0.6833
v  -0.6780 0.0247 -0.6833
v  -0.6780 0.0247 -0.2531
v  -0.2478 0.0247 -0.2531
v  -0.2324 0.0139 -0.2378
v  -0.6933 0.0139 -0.2378
v  -0.2324 0.0139 -0.6987
v  -0.6933 0.0139 -0.6987
v  -0.2305 0.0376 -0.2378
v  -0.2305 0.0376 -0.6987
v  0.2305 0.0376 -0.6987
v  0.2305 0.0376 -0.2378
v  -0.2151 0.0870 -0.2531
v  0.2151 0.0870 -0.2531
v  0.2151 0.0870 -0.6833
v  -0.2151 0.0870 -0.6833
v  -0.2305 0.0762 -0.6987
v  0.2305 0.0762 -0.6987
v  -0.2305 0.0762 -0.2378
v  0.2305 0.0762 -0.2378
v  0.2548 0.0229 -0.2445
v  0.3349 0.0229 0.2094
v  -0.1191 0.0229 0.2894
v  -0.1991 0.0229 -0.1645
v  0.2424 0.0722 -0.2268
v  -0.1813 0.0722 -0.1520
v  -0.1066 0.0722 0.2716
v  0.3171 0.0722 0.1969
v  0.3349 0.0614 0.2094
v  -0.1191 0.0614 0.2894
v  0.2548 0.0614 -0.2445
v  -0.1991 0.0614 -0.1645
# 167 vertices

vn 0.0000 -1.0000 -0.0000
vn 0.0000 1.0000 -0.0000
vn 0.0000 0.0000 1.0000
vn 1.0000 0.0000 -0.0000
vn 0.0000 0.0000 -1.0000
vn -1.0000 0.0000 -0.0000
vn 0.0000 0.8185 0.5745
vn 0.5745 0.8185 -0.0000
vn 0.0000 0.8185 -0.5745
vn -0.5744 0.8186 -0.0000
vn 0.3420 0.0000 0.9397
vn -0.5398 0.8185 0.1966
vn -0.5398 0.8186 0.1964
vn -0.9397 0.0000 0.3420
vn 0.1964 0.8186 0.5397
vn 0.1965 0.8185 0.5399
vn 0.1964 0.8185 0.5399
vn 0.7158 -0.0023 -0.6983
vn 0.7159 -0.0023 -0.6982
vn 0.3522 0.0058 -0.9359
vn 0.3523 0.0058 -0.9359
vn -0.2655 -0.0242 -0.9638
vn -0.2654 -0.0242 -0.9638
vn -0.2656 -0.0242 -0.9638
vn -0.4552 -0.0018 -0.8904
vn -0.4550 -0.0018 -0.8905
vn -0.4551 -0.0018 -0.8904
vn 0.5745 0.8185 -0.0002
vn -0.3985 0.0185 -0.9170
vn -0.3984 0.0185 -0.9170
vn 0.1753 0.0798 -0.9813
vn 0.1752 0.0798 -0.9813
vn 0.0000 0.8186 0.5744
vn -0.9114 0.0023 0.4115
vn -0.9115 0.0023 0.4113
vn -0.9115 0.0023 0.4112
vn 0.8173 0.1172 -0.5641
vn 0.8172 0.1172 -0.5642
vn 0.8172 0.1172 -0.5643
vn 0.8173 0.1172 -0.5642
vn 0.6546 0.3582 -0.6657
vn 0.6547 0.3582 -0.6656
vn 0.5744 0.8185 -0.0000
vn 0.5744 0.8186 -0.0000
vn 0.3984 -0.0185 0.9170
vn 0.3985 -0.0185 0.9170
vn -0.6510 -0.0058 0.7591
vn -0.6510 -0.0058 0.7590
vn -0.6773 0.0987 -0.7291
vn -0.9000 -0.0490 -0.4332
vn -0.9000 -0.0489 -0.4332
vn -0.9000 -0.0489 -0.4331
vn 0.0000 0.8186 -0.5744
vn 0.8071 -0.5903 0.0134
vn 0.8071 -0.5902 0.0134
vn -0.6547 -0.3582 0.6656
vn -0.6546 -0.3582 0.6657
vn -0.7956 -0.1108 -0.5956
vn -0.7956 -0.1109 -0.5956
vn -0.9523 -0.1057 -0.2863
vn 0.9523 0.1057 0.2863
vn 0.6774 -0.0987 0.7290
vn 0.6773 -0.0987 0.7291
vn 0.2083 -0.0426 -0.9771
vn 0.2082 -0.0426 -0.9772
vn -0.9271 -0.2831 0.2457
vn 0.7956 0.1108 0.5956
vn -0.2083 0.0426 0.9771
vn -0.2082 0.0426 0.9772
vn -0.7362 -0.1719 0.6546
vn -0.7362 -0.1719 0.6545
vn -0.7361 -0.1719 0.6546
vn -0.7363 -0.1720 0.6545
vn -0.9969 0.0682 -0.0391
vn -0.9969 0.0683 -0.0391
vn 0.9000 0.0490 0.4332
vn 0.9000 0.0490 0.4331
vn 0.7363 0.1719 -0.6545
vn 0.7362 0.1720 -0.6545
vn 0.7361 0.1719 -0.6546
vn 0.9271 0.2831 -0.2457
vn 0.9271 0.2831 -0.2455
vn -0.0801 0.0243 0.9965
vn -0.0802 0.0243 0.9965
vn -0.0801 0.0242 0.9965
vn -0.9398 0.1087 0.3239
vn -0.9399 0.1087 0.3237
vn 0.9969 -0.0683 0.0391
vn 0.9969 -0.0682 0.0391
vn -0.5745 0.8185 -0.0000
vn 0.7449 0.0273 0.6667
vn 0.7449 0.0273 0.6666
vn 0.7450 0.0273 0.6665
vn -0.8173 -0.1172 0.5641
vn -0.8173 -0.1172 0.5642
vn -0.8172 -0.1172 0.5643
vn -0.8071 0.5902 -0.0134
vn -0.8071 0.5903 -0.0132
vn -0.8071 0.5902 -0.0132
vn -0.1751 -0.0797 0.9813
vn -0.1750 -0.0797 0.9813
vn 0.1230 0.0018 0.9924
vn 0.1231 0.0018 0.9924
vn 0.1229 0.0018 0.9924
vn -0.7450 -0.0273 -0.6665
vn -0.7449 -0.0273 -0.6666
vn -0.7449 -0.0273 -0.6667
vn 0.9398 -0.1087 -0.3239
vn 0.9398 -0.1087 -0.3240
vn 0.9399 -0.1087 -0.3238
vn -0.5744 0.8185 -0.0000
vn 0.0000 0.8185 -0.5744
vn 0.0000 0.8185 0.5744
vn 0.1736 0.0000 0.9848
vn 0.9848 0.0000 -0.1736
vn -0.1736 0.0000 -0.9848
vn -0.9848 0.0000 0.1736
vn 0.0998 0.8185 0.5658
vn 0.5658 0.8185 -0.0998
vn -0.0998 0.8185 -0.5657
vn -0.5658 0.8185 0.0998
# 121 vertex normals

vt 0.5208 0.9432 0.0000
vt 0.5208 0.5512 0.0000
vt 0.9215 0.5513 0.0000
vt 0.9215 0.9431 0.0000
vt 0.4728 0.9290 0.0000
vt 0.1007 0.9291 0.0000
vt 0.1006 0.5653 0.0000
vt 0.4727 0.5653 0.0000
vt 0.4879 0.5505 0.0000
vt 0.0856 0.5505 0.0000
vt 0.0862 0.5184 0.0000
vt 0.4872 0.5184 0.0000
vt 0.4879 0.9438 0.0000
vt 0.0856 0.9438 0.0000
vt 0.4872 0.9760 0.0000
vt 0.0862 0.9760 0.0000
vt 0.0527 0.9432 0.0000
vt 0.0527 0.5512 0.0000
vt 0.6693 0.0168 0.0000
vt 0.6693 0.1848 0.0000
vt 0.6461 0.1848 0.0000
vt 0.6461 0.0169 0.0000
vt 0.1328 0.4639 0.0000
vt 0.0460 0.4639 0.0000
vt 0.0569 0.4574 0.0000
vt 0.1367 0.4574 0.0000
vt 0.0460 0.4871 0.0000
vt 0.1327 0.4871 0.0000
vt 0.6758 0.0234 0.0000
vt 0.6758 0.1797 0.0000
vt 0.3139 0.0799 0.0000
vt 0.3139 0.0234 0.0000
vt 0.3435 0.0169 0.0000
vt 0.3435 0.0803 0.0000
vt 0.3203 0.0168 0.0000
vt 0.5032 0.1732 0.0000
vt 0.5648 0.0168 0.0000
vt 0.6409 0.1093 0.0000
vt 0.5895 0.2022 0.0000
vt 0.6274 0.0733 0.0000
vt 0.6414 0.1076 0.0000
vt 0.4046 0.2164 0.0000
vt 0.3504 0.1185 0.0000
vt 0.3488 0.1128 0.0000
vt 0.3620 0.0802 0.0000
vt 0.4323 0.0168 0.0000
vt 0.4984 0.1848 0.0000
vt 0.3435 0.1128 0.0000
vt 0.3139 0.1142 0.0000
vt 0.3435 0.1185 0.0000
vt 0.3139 0.1158 0.0000
vt 0.3203 0.2164 0.0000
vt 0.3435 0.2164 0.0000
vt 0.3139 0.2088 0.0000
vt 0.5479 0.2545 0.0000
vt 0.6719 0.2047 0.0000
vt 0.6719 0.3372 0.0000
vt 0.5883 0.3372 0.0000
vt 0.5142 0.2047 0.0000
vt 0.5283 0.2049 0.0000
vt 0.5374 0.3372 0.0000
vt 0.5142 0.3372 0.0000
vt 0.5374 0.2056 0.0000
vt 0.5438 0.2089 0.0000
vt 0.5438 0.3287 0.0000
vt 0.5380 0.2055 0.0000
vt 0.8998 0.3213 0.0000
vt 0.9153 0.3128 0.0000
vt 0.9294 0.4274 0.0000
vt 0.8998 0.4272 0.0000
vt 0.9056 0.3137 0.0000
vt 0.9294 0.3128 0.0000
vt 0.9062 0.3128 0.0000
vt 0.4363 0.4357 0.0000
vt 0.4723 0.3619 0.0000
vt 0.5508 0.3619 0.0000
vt 0.5508 0.4817 0.0000
vt 0.0280 0.2823 0.0000
vt 0.0279 0.2591 0.0000
vt 0.1053 0.2591 0.0000
vt 0.1053 0.2823 0.0000
vt 0.4764 0.3534 0.0000
vt 0.5600 0.3534 0.0000
vt 0.0227 0.1548 0.0000
vt 0.1054 0.1548 0.0000
vt 0.1054 0.1780 0.0000
vt 0.0969 0.1845 0.0000
vt 0.0232 0.1845 0.0000
vt 0.0370 0.2519 0.0000
vt 0.0307 0.2482 0.0000
vt 0.0312 0.2385 0.0000
vt 0.0339 0.2244 0.0000
vt 0.0686 0.2244 0.0000
vt 0.1053 0.2244 0.0000
vt 0.0962 0.2540 0.0000
vt 0.0387 0.2540 0.0000
vt 0.0315 0.2244 0.0000
vt 0.0272 0.2540 0.0000
vt 0.8663 0.1315 0.0000
vt 0.8804 0.0168 0.0000
vt 0.8960 0.0254 0.0000
vt 0.8960 0.1312 0.0000
vt 0.8663 0.0168 0.0000
vt 0.8902 0.0177 0.0000
vt 0.8778 0.1931 0.0000
vt 0.9152 0.1692 0.0000
vt 0.8950 0.2871 0.0000
vt 0.8381 0.2304 0.0000
vt 0.9718 0.2839 0.0000
vt 0.9179 0.1692 0.0000
vt 0.9473 0.3103 0.0000
vt 0.8003 0.2457 0.0000
vt 0.7433 0.3025 0.0000
vt 0.7018 0.3210 0.0000
vt 0.6760 0.2931 0.0000
vt 0.7257 0.1873 0.0000
vt 0.7381 0.1873 0.0000
vt 0.8663 0.1579 0.0000
vt 0.8960 0.1591 0.0000
vt 0.9483 0.4542 0.0000
vt 0.9574 0.4839 0.0000
vt 0.9048 0.4839 0.0000
vt 0.8956 0.4542 0.0000
vt 0.8565 0.4839 0.0000
vt 0.8572 0.4542 0.0000
vt 0.0873 0.3454 0.0000
vt 0.0778 0.3454 0.0000
vt 0.0748 0.3222 0.0000
vt 0.1030 0.3222 0.0000
vt 0.0676 0.3158 0.0000
vt 0.1053 0.3188 0.0000
vt 0.1013 0.3158 0.0000
vt 0.2590 0.0578 0.0000
vt 0.2374 0.0753 0.0000
vt 0.1512 0.0214 0.0000
vt 0.2590 0.0214 0.0000
vt 0.2087 0.0846 0.0000
vt 0.1496 0.0184 0.0000
vt 0.2630 0.0171 0.0000
vt 0.8745 0.3992 0.0000
vt 0.8760 0.3128 0.0000
vt 0.8954 0.3173 0.0000
vt 0.8941 0.4308 0.0000
vt 0.8930 0.3128 0.0000
vt 0.8341 0.3625 0.0000
vt 0.8657 0.3128 0.0000
vt 0.8399 0.3446 0.0000
vt 0.0801 0.1201 0.0000
vt 0.1117 0.1476 0.0000
vt 0.1100 0.1497 0.0000
vt 0.0525 0.1497 0.0000
vt 0.0434 0.1201 0.0000
vt 0.0540 0.3454 0.0000
vt 0.0515 0.3158 0.0000
vt 0.0238 0.1497 0.0000
vt 0.0255 0.1201 0.0000
vt 0.0856 0.1896 0.0000
vt 0.1035 0.1896 0.0000
vt 0.1053 0.2193 0.0000
vt 0.0765 0.2193 0.0000
vt 0.0330 0.1896 0.0000
vt 0.0238 0.2193 0.0000
vt 0.3049 0.4459 0.0000
vt 0.2038 0.4169 0.0000
vt 0.2565 0.3555 0.0000
vt 0.2853 0.3462 0.0000
vt 0.0795 0.1101 0.0000
vt 0.0269 0.0488 0.0000
vt 0.1157 0.0234 0.0000
vt 0.0974 0.1159 0.0000
vt 0.8163 0.4585 0.0000
vt 0.8255 0.4882 0.0000
vt 0.7333 0.4882 0.0000
vt 0.7308 0.4585 0.0000
vt 0.3049 0.4499 0.0000
vt 0.3017 0.4796 0.0000
vt 0.2130 0.4796 0.0000
vt 0.2038 0.4499 0.0000
vt 0.5882 0.3426 0.0000
vt 0.5947 0.3499 0.0000
vt 0.5947 0.3660 0.0000
vt 0.5650 0.3635 0.0000
vt 0.5650 0.3397 0.0000
vt 0.6836 0.4570 0.0000
vt 0.6816 0.4552 0.0000
vt 0.6603 0.3630 0.0000
vt 0.6836 0.3469 0.0000
vt 0.5998 0.3426 0.0000
vt 0.6230 0.3397 0.0000
vt 0.6230 0.4611 0.0000
vt 0.5998 0.4661 0.0000
vt 0.6929 0.3397 0.0000
vt 0.6929 0.4631 0.0000
vt 0.6976 0.4449 0.0000
vt 0.6976 0.3234 0.0000
vt 0.7321 0.3473 0.0000
vt 0.7124 0.4328 0.0000
vt 0.5650 0.4490 0.0000
vt 0.5947 0.4582 0.0000
vt 0.5947 0.4599 0.0000
vt 0.5882 0.4661 0.0000
vt 0.5650 0.4611 0.0000
vt 0.7300 0.0305 0.0000
vt 0.7554 0.1192 0.0000
vt 0.7302 0.1675 0.0000
vt 0.6809 0.0518 0.0000
vt 0.7239 0.1671 0.0000
vt 0.6824 0.0168 0.0000
vt 0.7169 0.0168 0.0000
vt 0.8324 0.1563 0.0000
vt 0.8305 0.1583 0.0000
vt 0.7965 0.1583 0.0000
vt 0.7955 0.1352 0.0000
vt 0.8396 0.0170 0.0000
vt 0.8414 0.0168 0.0000
vt 0.8614 0.0552 0.0000
vt 0.8239 0.1668 0.0000
vt 0.7964 0.1668 0.0000
vt 0.0613 0.3802 0.0000
vt 0.0628 0.3570 0.0000
vt 0.0881 0.3570 0.0000
vt 0.0932 0.3802 0.0000
vt 0.7904 0.1355 0.0000
vt 0.7904 0.1585 0.0000
vt 0.7839 0.1671 0.0000
vt 0.7607 0.1671 0.0000
vt 0.7607 0.1321 0.0000
vt 0.8044 0.3095 0.0000
vt 0.8044 0.2611 0.0000
vt 0.8340 0.2703 0.0000
vt 0.8340 0.3087 0.0000
vt 0.0943 0.3505 0.0000
vt 0.0961 0.3505 0.0000
vt 0.1053 0.3802 0.0000
vt 0.8044 0.1724 0.0000
vt 0.8340 0.1692 0.0000
vt 0.0849 0.3886 0.0000
vt 0.1123 0.3853 0.0000
vt 0.1123 0.3916 0.0000
vt 0.0849 0.3904 0.0000
vt 0.7607 0.0168 0.0000
vt 0.7904 0.0173 0.0000
vt 0.2663 0.2649 0.0000
vt 0.2893 0.2639 0.0000
vt 0.2893 0.3329 0.0000
vt 0.1960 0.3329 0.0000
vt 0.1538 0.0887 0.0000
vt 0.2654 0.0887 0.0000
vt 0.2654 0.1119 0.0000
vt 0.1529 0.1119 0.0000
vt 0.1038 0.3106 0.0000
vt 0.0331 0.3106 0.0000
vt 0.0331 0.2874 0.0000
vt 0.1053 0.2874 0.0000
vt 0.2979 0.2640 0.0000
vt 0.2979 0.3421 0.0000
vt 0.1529 0.1224 0.0000
vt 0.1614 0.1159 0.0000
vt 0.1845 0.1159 0.0000
vt 0.1878 0.1456 0.0000
vt 0.1529 0.1456 0.0000
vt 0.1863 0.3421 0.0000
vt 0.2016 0.1511 0.0000
vt 0.2791 0.2261 0.0000
vt 0.1666 0.2261 0.0000
vt 0.1666 0.1496 0.0000
vt 0.2645 0.1224 0.0000
vt 0.2654 0.1456 0.0000
vt 0.2547 0.1159 0.0000
vt 0.1091 0.4447 0.0000
vt 0.1091 0.4521 0.0000
vt 0.0877 0.4521 0.0000
vt 0.0877 0.4278 0.0000
vt 0.6513 0.3397 0.0000
vt 0.6513 0.4641 0.0000
vt 0.6281 0.4607 0.0000
vt 0.6281 0.3397 0.0000
vt 0.6422 0.4635 0.0000
vt 0.6557 0.4577 0.0000
vt 0.6520 0.4640 0.0000
vt 0.6548 0.3442 0.0000
vt 0.0868 0.4165 0.0000
vt 0.1123 0.3969 0.0000
vt 0.1123 0.4227 0.0000
vt 0.0992 0.4227 0.0000
vt 0.0902 0.4218 0.0000
vt 0.1123 0.4472 0.0000
vt 0.7363 0.4099 0.0000
vt 0.7378 0.3234 0.0000
vt 0.7621 0.3234 0.0000
vt 0.7621 0.4445 0.0000
vt 0.8019 0.3549 0.0000
vt 0.8295 0.3234 0.0000
vt 0.8286 0.4369 0.0000
vt 0.8251 0.4414 0.0000
vt 0.8019 0.4414 0.0000
vt 0.0909 0.4227 0.0000
vt 0.5036 0.2709 0.0000
vt 0.5036 0.2188 0.0000
vt 0.5101 0.2199 0.0000
vt 0.5101 0.2807 0.0000
vt 0.1700 0.2599 0.0000
vt 0.1670 0.2302 0.0000
vt 0.2706 0.2302 0.0000
vt 0.2791 0.2367 0.0000
vt 0.2791 0.2599 0.0000
vt 0.4805 0.2701 0.0000
vt 0.4805 0.2188 0.0000
vt 0.4805 0.3476 0.0000
vt 0.5101 0.3510 0.0000
vt 0.4319 0.4676 0.0000
vt 0.3139 0.4811 0.0000
vt 0.3139 0.4298 0.0000
vt 0.3889 0.3523 0.0000
vt 0.3643 0.2796 0.0000
vt 0.3643 0.2188 0.0000
vt 0.4764 0.2316 0.0000
vt 0.4323 0.3499 0.0000
vt 0.7672 0.3268 0.0000
vt 0.7968 0.3234 0.0000
vt 0.7968 0.4416 0.0000
vt 0.7672 0.4420 0.0000
# 322 texture coords

g concreteblock
usemtl concreteblockMat
s off
f 1/1/1 2/2/1 3/3/1 4/4/1 
f 5/5/2 6/6/2 7/7/2 8/8/2 
f 9/9/3 10/10/3 3/11/3 2/12/3 
f 11/13/4 9/9/4 2/2/4 1/1/4 
f 12/14/5 11/13/5 1/15/5 4/16/5 
f 10/10/6 12/14/6 4/17/6 3/18/6 
f 9/9/7 8/8/7 7/7/7 10/10/7 
f 11/13/8 5/5/8 8/8/8 9/9/8 
f 12/14/9 6/6/9 5/5/9 11/13/9 
f 10/10/10 7/7/10 6/6/10 12/14/10 
f 13/19/11 14/20/11 15/21/11 16/22/11 
f 17/23/12 14/24/13 18/25/13 19/26/13 
f 15/27/14 14/24/14 17/23/14 20/28/14 
f 13/19/15 21/29/15 18/30/16 14/20/17 
f 22/31/18 21/32/18 16/33/19 23/34/19 
f 16/33/19 21/32/18 13/35/18 
f 18/36/2 21/37/2 24/38/2 19/39/2 
f 22/40/2 25/41/2 24/38/2 21/37/2 
f 20/42/1 26/43/1 27/44/1 
f 27/44/1 23/45/1 16/46/1 
f 16/46/1 15/47/1 20/42/1 27/44/1 
f 22/31/20 23/34/21 27/48/21 25/49/21 
f 27/48/22 26/50/23 24/51/24 25/49/22 
f 17/52/25 24/51/25 26/50/26 20/53/27 
f 19/54/26 24/51/25 17/52/25 
f 28/55/1 29/56/1 30/57/1 31/58/1 
f 29/59/4 32/60/4 33/61/4 30/62/4 
f 33/61/4 32/60/4 34/63/4 
f 33/61/8 34/63/8 35/64/8 36/65/8 
f 35/64/28 34/63/28 37/66/28 
f 35/67/29 32/68/29 28/69/30 38/70/30 
f 35/67/29 37/71/29 32/68/29 
f 28/69/30 32/68/29 29/72/29 
f 32/68/31 37/71/32 34/73/31 
f 38/74/2 39/75/2 36/76/2 35/77/2 
f 40/78/3 31/79/3 30/80/3 33/81/3 
f 36/76/33 39/75/33 40/82/7 33/83/7 
f 28/84/34 31/85/35 40/86/35 
f 39/87/36 38/88/34 28/84/34 40/86/35 
f 41/89/37 42/90/38 43/91/39 
f 44/92/39 45/93/40 41/89/37 43/91/39 
f 41/89/41 45/93/42 46/94/41 
f 47/95/41 48/96/41 41/89/41 46/94/41 
f 49/97/4 44/92/4 43/91/4 
f 50/98/43 42/90/8 41/89/44 48/96/44 
f 51/99/45 43/100/46 50/101/46 52/102/45 
f 51/99/45 49/103/46 43/100/46 
f 50/101/46 43/100/46 42/104/46 
f 45/105/1 44/106/1 53/107/1 46/108/1 
f 51/109/1 53/107/1 44/106/1 49/110/1 
f 53/107/1 51/109/1 54/111/1 
f 47/112/2 55/113/2 56/114/2 
f 52/115/2 50/116/2 47/112/2 56/114/2 
f 47/112/2 50/116/2 48/117/2 
f 54/118/47 51/99/47 52/102/48 56/119/48 
f 47/120/49 46/121/49 53/122/49 55/123/49 
f 55/123/50 53/122/50 54/124/51 56/125/52 
f 57/126/5 58/127/5 59/128/5 60/129/5 
f 59/128/9 61/130/9 62/131/53 60/129/9 
f 62/131/53 61/130/9 63/132/9 
f 61/133/2 64/134/2 65/135/2 63/136/2 
f 65/135/2 64/134/2 66/137/2 
f 63/136/43 65/135/43 67/138/8 62/139/8 
f 68/140/54 57/141/54 62/142/55 67/143/54 
f 62/142/55 57/141/54 60/144/54 
f 68/140/1 69/145/1 58/146/1 57/141/1 
f 58/146/1 69/145/1 70/147/1 
f 68/148/56 67/149/56 65/150/56 
f 66/151/57 69/152/57 68/148/56 65/150/56 
f 61/130/58 59/128/59 58/127/58 
f 70/153/58 64/154/59 61/130/58 58/127/58 
f 69/152/60 66/151/60 64/155/60 70/156/60 
f 69/157/61 70/158/61 64/159/61 
f 69/157/61 64/159/61 66/160/61 
f 71/161/62 69/157/63 66/160/63 
f 71/161/62 66/160/63 72/162/63 
f 73/163/2 72/164/2 66/165/2 
f 73/163/2 66/165/2 64/166/2 
f 69/167/1 71/168/1 74/169/1 
f 69/167/1 74/169/1 70/170/1 
f 74/171/64 73/172/64 64/173/65 
f 74/171/64 64/173/65 70/174/64 
f 73/175/66 74/176/66 71/177/66 72/178/66 
f 75/179/67 76/180/67 77/181/67 
f 78/182/67 79/183/67 75/179/67 77/181/67 
f 80/184/2 81/185/2 77/186/2 76/187/2 
f 75/188/5 79/189/5 82/190/5 83/191/5 
f 76/187/9 75/192/9 83/193/9 80/184/9 
f 82/194/1 79/195/1 78/196/1 84/197/1 
f 84/198/68 78/182/68 77/181/69 81/199/68 
f 81/199/70 80/200/71 83/201/72 
f 84/198/73 81/199/70 83/201/72 82/202/70 
f 74/203/1 71/204/1 85/205/1 
f 86/206/1 74/203/1 85/205/1 87/207/1 
f 88/208/1 89/209/1 74/203/1 86/206/1 
f 73/210/2 90/211/2 91/212/2 
f 91/212/2 92/213/2 93/214/2 
f 94/215/2 73/210/2 91/212/2 93/214/2 
f 73/210/2 94/215/2 72/216/2 
f 95/217/9 96/218/9 91/212/53 90/211/53 
f 88/219/5 96/220/5 95/221/5 89/222/5 
f 92/223/74 91/224/74 96/225/74 
f 96/225/74 88/226/75 86/227/75 92/223/74 
f 85/228/76 71/229/77 72/230/76 
f 85/228/76 72/230/76 94/231/76 
f 95/221/78 90/232/79 73/233/79 
f 73/233/79 74/234/80 89/222/78 
f 73/233/79 89/222/78 95/221/78 
f 71/229/81 74/235/81 73/236/82 
f 71/229/81 73/236/82 72/230/81 
f 93/237/83 87/238/84 85/239/85 94/240/83 
f 86/227/86 87/241/87 93/242/86 92/223/86 
f 97/243/2 98/244/2 99/245/2 100/246/2 
f 101/247/6 102/248/6 103/249/6 104/250/6 
f 105/251/5 103/252/5 102/253/5 106/254/5 
f 106/255/9 102/256/9 99/245/9 98/244/9 
f 106/257/88 98/258/89 97/259/88 
f 107/260/88 105/261/88 106/257/88 97/259/88 
f 102/256/90 101/262/90 100/246/90 99/245/90 
f 107/263/1 104/264/1 103/265/1 105/266/1 
f 107/260/91 97/259/92 101/267/93 104/268/91 
f 100/269/93 101/267/93 97/259/92 
f 60/270/5 108/271/5 109/272/5 
f 60/270/5 109/272/5 57/273/5 
f 108/274/4 110/275/4 111/276/4 109/277/4 
f 111/276/4 110/275/4 112/278/4 
f 67/279/8 113/280/8 110/275/8 
f 67/279/8 110/275/8 108/274/8 
f 67/279/8 108/274/8 62/281/8 
f 67/282/94 68/283/95 111/284/95 
f 67/282/94 111/284/95 112/285/94 
f 67/282/94 112/285/94 113/286/96 
f 62/287/53 108/271/9 60/270/9 
f 68/288/1 57/289/1 109/290/1 
f 68/288/1 109/290/1 111/291/1 
f 68/292/97 67/293/97 62/294/98 
f 68/292/97 62/294/98 60/295/98 
f 68/292/97 60/295/98 57/296/99 
f 110/297/100 113/286/101 112/285/100 
f 114/298/90 115/299/90 116/300/90 117/301/90 
f 87/302/102 93/303/103 116/304/102 
f 87/302/102 116/304/102 115/305/104 
f 118/306/102 87/302/102 115/305/104 
f 115/299/6 114/298/6 119/307/6 118/308/6 
f 86/309/105 119/307/106 114/298/107 
f 86/309/105 114/298/107 92/310/106 
f 117/301/107 92/310/106 114/298/107 
f 87/311/1 118/312/1 119/313/1 
f 87/311/1 119/313/1 86/314/1 
f 117/315/2 116/316/2 93/317/2 
f 117/315/2 93/317/2 92/318/2 
f 86/319/108 92/320/109 93/321/108 
f 86/319/108 93/321/108 87/322/110 
f 120/1/1 121/2/1 122/3/1 123/4/1 
f 124/5/2 125/6/2 126/7/2 127/8/2 
f 128/9/4 129/10/4 122/11/4 121/12/4 
f 130/13/5 128/9/5 121/2/5 120/1/5 
f 131/14/6 130/13/6 120/15/6 123/16/6 
f 129/10/3 131/14/3 123/17/3 122/18/3 
f 128/9/8 127/8/8 126/7/8 129/10/8 
f 130/13/9 124/5/9 127/8/9 128/9/9 
f 131/14/111 125/6/111 124/5/111 130/13/111 
f 129/10/7 126/7/7 125/6/7 131/14/7 
f 132/1/1 133/2/1 134/3/1 135/4/1 
f 136/5/2 137/6/2 138/7/2 139/8/2 
f 140/9/3 141/10/3 134/11/3 133/12/3 
f 142/13/4 140/9/4 133/2/4 132/1/4 
f 143/14/5 142/13/5 132/15/5 135/16/5 
f 141/10/6 143/14/6 135/17/6 134/18/6 
f 140/9/7 139/8/7 138/7/7 141/10/7 
f 142/13/8 136/5/8 139/8/8 140/9/8 
f 143/14/112 137/6/112 136/5/112 142/13/112 
f 141/10/90 138/7/90 137/6/90 143/14/90 
f 144/1/1 145/2/1 146/3/1 147/4/1 
f 148/5/2 149/6/2 150/7/2 151/8/2 
f 152/9/5 153/10/5 146/11/5 145/12/5 
f 154/13/6 152/9/6 145/2/6 144/1/6 
f 155/14/3 154/13/3 144/15/3 147/16/3 
f 153/10/4 155/14/4 147/17/4 146/18/4 
f 152/9/9 151/8/9 150/7/9 153/10/9 
f 154/13/90 148/5/90 151/8/90 152/9/90 
f 155/14/113 149/6/113 148/5/113 154/13/113 
f 153/10/8 150/7/8 149/6/8 155/14/8 
f 156/1/1 157/2/1 158/3/1 159/4/1 
f 160/5/2 161/6/2 162/7/2 163/8/2 
f 164/9/114 165/10/114 158/11/114 157/12/114 
f 166/13/115 164/9/115 157/2/115 156/1/115 
f 167/14/116 166/13/116 156/15/116 159/16/116 
f 165/10/117 167/14/117 159/17/117 158/18/117 
f 164/9/118 163/8/118 162/7/118 165/10/118 
f 166/13/119 160/5/119 163/8/119 164/9/119 
f 167/14/120 161/6/120 160/5/120 166/13/120 
f 165/10/121 162/7/121 161/6/121 167/14/121 
# 115 polygons - 78 triangles

