# 3ds Max Wavefront OBJ Exporter v0.97b - (c)2007 guruware
# File Created: 16.06.2013 01:47:07

#
# object sign6_round
#

v  0.1479 1.5235 0.1329
v  0.2095 1.3748 0.1329
v  0.2095 1.3750 0.1180
v  0.1479 1.5237 0.1180
v  -0.0008 1.5851 0.1329
v  -0.0008 1.5852 0.1180
v  -0.1495 1.5235 0.1329
v  -0.1495 1.5235 0.1180
v  -0.2111 1.3748 0.1329
v  -0.2111 1.3748 0.1180
v  -0.1495 1.2261 0.1329
v  -0.1495 1.2261 0.1180
v  -0.0008 1.1646 0.1329
v  -0.0008 1.1646 0.1180
v  0.1479 1.2261 0.1329
v  0.1479 1.2261 0.1180
v  0.0060 1.5463 0.1370
v  0.0088 1.5395 0.1370
v  0.0088 1.5395 0.1289
v  0.0060 1.5463 0.1289
v  -0.0008 1.5492 0.1370
v  -0.0008 1.5492 0.1289
v  -0.0076 1.5463 0.1370
v  -0.0076 1.5463 0.1289
v  -0.0105 1.5395 0.1370
v  -0.0105 1.5395 0.1289
v  -0.0076 1.5327 0.1370
v  -0.0076 1.5327 0.1289
v  -0.0008 1.5299 0.1370
v  -0.0008 1.5299 0.1289
v  0.0060 1.5327 0.1370
v  0.0060 1.5327 0.1289
v  0.0060 1.2117 0.1370
v  0.0088 1.2049 0.1370
v  0.0088 1.2049 0.1289
v  0.0060 1.2117 0.1289
v  -0.0008 1.2146 0.1370
v  -0.0008 1.2146 0.1289
v  -0.0076 1.2117 0.1370
v  -0.0076 1.2117 0.1289
v  -0.0105 1.2049 0.1370
v  -0.0105 1.2049 0.1289
v  -0.0076 1.1981 0.1370
v  -0.0076 1.1981 0.1289
v  -0.0008 1.1953 0.1370
v  -0.0008 1.1953 0.1289
v  0.0060 1.1981 0.1370
v  0.0060 1.1981 0.1289
v  0.0235 0.0707 0.0837
v  0.0235 0.0707 0.1036
v  0.0120 0.0707 0.1151
v  -0.0251 0.0707 0.1036
v  -0.0136 0.0707 0.1151
v  -0.0136 0.0707 0.0722
v  -0.0251 0.0707 0.0837
v  0.0120 0.0707 0.0722
v  0.0120 1.5552 0.0722
v  -0.0136 1.5552 0.0722
v  -0.0251 1.5552 0.0837
v  -0.0136 1.5552 0.1151
v  -0.0251 1.5552 0.1036
v  0.0235 1.5552 0.1036
v  0.0120 1.5552 0.1151
v  0.0235 1.5552 0.0837
v  0.0120 0.0825 0.1151
v  -0.0136 0.0825 0.1151
v  0.0235 0.0825 0.0837
v  0.0235 0.0825 0.1036
v  -0.0136 0.0825 0.0722
v  0.0120 0.0825 0.0722
v  -0.0251 0.0825 0.1036
v  -0.0251 0.0825 0.0837
# 72 vertices

vn 0.9239 0.3827 0.0035
vn 0.3827 0.9238 0.0084
vn -0.3830 0.9237 0.0042
vn -0.9239 0.3827 -0.0000
vn -0.9239 -0.3827 -0.0000
vn -0.3827 -0.9239 -0.0000
vn 0.3827 -0.9239 -0.0000
vn 0.9239 -0.3825 -0.0017
vn 0.0000 0.0000 -1.0000
vn 0.0000 0.0000 1.0000
vn 0.9238 0.3828 -0.0000
vn 0.3827 0.9239 -0.0000
vn -0.3826 0.9239 -0.0000
vn -0.9239 0.3826 -0.0000
vn -0.9239 -0.3826 -0.0000
vn 0.3828 -0.9238 -0.0000
vn 0.9238 -0.3828 -0.0000
vn -0.3827 0.9239 -0.0000
vn -0.3826 -0.9239 -0.0000
vn 0.0000 -1.0000 -0.0000
vn 0.0000 1.0000 -0.0000
vn 0.3827 0.0000 0.9239
vn -0.3827 0.0000 0.9239
vn 0.9239 0.0000 -0.3827
vn 0.9239 0.0000 0.3827
vn -0.3827 0.0000 -0.9239
vn 0.3827 0.0000 -0.9239
vn -0.9239 0.0000 0.3827
vn -0.9239 0.0000 -0.3827
# 29 vertex normals

vt 0.7117 0.5641 0.0000
vt 0.7974 0.3582 0.0000
vt 0.8164 0.3660 0.0000
vt 0.7306 0.5717 0.0000
vt 0.5059 0.6494 0.0000
vt 0.7194 0.5829 0.0000
vt 0.5139 0.6681 0.0000
vt 0.2996 0.5646 0.0000
vt 0.4984 0.6684 0.0000
vt 0.2921 0.5835 0.0000
vt 0.2132 0.3584 0.0000
vt 0.2808 0.5724 0.0000
vt 0.1946 0.3663 0.0000
vt 0.2979 0.1506 0.0000
vt 0.1942 0.3509 0.0000
vt 0.2790 0.1430 0.0000
vt 0.5053 0.0648 0.0000
vt 0.2902 0.1317 0.0000
vt 0.4976 0.0461 0.0000
vt 0.7126 0.1509 0.0000
vt 0.5131 0.0459 0.0000
vt 0.7202 0.1320 0.0000
vt 0.7314 0.1432 0.0000
vt 0.8162 0.3505 0.0000
vt 0.7386 0.6278 0.0000
vt 0.8576 0.6766 0.0000
vt 0.9072 0.7958 0.0000
vt 0.8578 0.9150 0.0000
vt 0.7386 0.9638 0.0000
vt 0.6202 0.9141 0.0000
vt 0.5715 0.7955 0.0000
vt 0.6203 0.6772 0.0000
vt 0.4543 0.9671 0.0000
vt 0.4669 0.9362 0.0000
vt 0.4642 0.9298 0.0000
vt 0.4517 0.9604 0.0000
vt 0.4238 0.9803 0.0000
vt 0.4215 0.9735 0.0000
vt 0.3933 0.9681 0.0000
vt 0.3912 0.9613 0.0000
vt 0.3806 0.9375 0.0000
vt 0.3787 0.9310 0.0000
vt 0.3933 0.9066 0.0000
vt 0.3912 0.9003 0.0000
vt 0.4239 0.8934 0.0000
vt 0.4215 0.8873 0.0000
vt 0.4543 0.9057 0.0000
vt 0.4517 0.8995 0.0000
vt 0.3484 0.9513 0.0000
vt 0.3609 0.9213 0.0000
vt 0.3582 0.9274 0.0000
vt 0.3458 0.9571 0.0000
vt 0.3181 0.9634 0.0000
vt 0.3158 0.9691 0.0000
vt 0.2879 0.9505 0.0000
vt 0.2858 0.9563 0.0000
vt 0.2754 0.9202 0.0000
vt 0.2734 0.9262 0.0000
vt 0.2879 0.8902 0.0000
vt 0.2859 0.8965 0.0000
vt 0.3182 0.8781 0.0000
vt 0.3158 0.8845 0.0000
vt 0.3484 0.8910 0.0000
vt 0.3458 0.8973 0.0000
vt 0.3400 0.8228 0.0000
vt 0.3400 0.7892 0.0000
vt 0.3186 0.7698 0.0000
vt 0.2497 0.7892 0.0000
vt 0.2710 0.7698 0.0000
vt 0.2710 0.8422 0.0000
vt 0.2497 0.8228 0.0000
vt 0.3186 0.8422 0.0000
vt 0.0450 0.0224 0.5651
vt 0.0450 0.0300 0.5651
vt 0.0283 0.0300 0.5651
vt 0.0283 0.0224 0.5651
vt 0.0713 0.0224 0.5514
vt 0.0713 0.0300 0.5514
vt 0.0563 0.0300 0.5514
vt 0.0563 0.0224 0.5514
vt 0.0993 0.0224 0.5651
vt 0.0993 0.0300 0.5651
vt 0.0826 0.0300 0.5651
vt 0.0826 0.0224 0.5651
vt 0.1256 0.0224 0.5514
vt 0.1256 0.0300 0.5514
vt 0.1105 0.0300 0.5514
vt 0.1105 0.0224 0.5514
vt 0.0171 0.9776 0.5514
vt 0.0171 0.0300 0.5514
vt 0.0283 0.9776 0.5651
vt 0.0450 0.9776 0.5651
vt 0.0713 0.9776 0.5514
vt 0.0563 0.9776 0.5514
vt 0.0993 0.9776 0.5651
vt 0.0826 0.9776 0.5651
vt 0.1256 0.9776 0.5514
vt 0.1105 0.9776 0.5514
vt 0.0171 0.0224 0.5514
# 99 texture coords

g sign6_round
s 16384
f 1/1/1 2/2/1 3/3/1 4/4/1 
f 5/5/2 1/1/2 4/6/2 6/7/2 
f 7/8/3 5/5/3 6/9/3 8/10/3 
f 9/11/4 7/8/4 8/12/4 10/13/4 
f 11/14/5 9/11/5 10/15/5 12/16/5 
f 13/17/6 11/14/6 12/18/6 14/19/6 
f 15/20/7 13/17/7 14/21/7 16/22/7 
f 2/2/8 15/20/8 16/23/8 3/24/8 
s off
f 14/25/9 12/26/9 10/27/9 
f 10/27/9 8/28/9 6/29/9 
f 6/29/9 4/30/9 3/31/9 
f 3/31/9 14/25/9 10/27/9 6/29/9 
f 16/32/9 14/25/9 3/31/9 
f 1/1/10 5/5/10 7/8/10 
f 7/8/10 9/11/10 11/14/10 
f 11/14/10 13/17/10 15/20/10 
f 15/20/10 1/1/10 7/8/10 11/14/10 
f 2/2/10 1/1/10 15/20/10 
f 17/33/11 18/34/11 19/35/11 20/36/11 
f 21/37/12 17/33/12 20/36/12 22/38/12 
f 23/39/13 21/37/13 22/38/13 24/40/13 
f 25/41/14 23/39/14 24/40/14 26/42/14 
f 27/43/15 25/41/15 26/42/15 28/44/15 
f 29/45/6 27/43/6 28/44/6 30/46/6 
f 31/47/16 29/45/16 30/46/16 32/48/16 
f 18/34/17 31/47/17 32/48/17 19/35/17 
f 30/46/9 28/44/9 26/42/9 
f 26/42/9 24/40/9 22/38/9 
f 22/38/9 20/36/9 19/35/9 
f 19/35/9 30/46/9 26/42/9 22/38/9 
f 32/48/9 30/46/9 19/35/9 
f 17/33/10 21/37/10 23/39/10 
f 23/39/10 25/41/10 27/43/10 
f 27/43/10 29/45/10 31/47/10 
f 31/47/10 17/33/10 23/39/10 27/43/10 
f 18/34/10 17/33/10 31/47/10 
f 33/49/11 34/50/11 35/51/11 36/52/11 
f 37/53/12 33/49/12 36/52/12 38/54/12 
f 39/55/18 37/53/18 38/54/18 40/56/18 
f 41/57/14 39/55/14 40/56/14 42/58/14 
f 43/59/15 41/57/15 42/58/15 44/60/15 
f 45/61/19 43/59/19 44/60/19 46/62/19 
f 47/63/7 45/61/7 46/62/7 48/64/7 
f 34/50/17 47/63/17 48/64/17 35/51/17 
f 46/62/9 44/60/9 42/58/9 
f 42/58/9 40/56/9 38/54/9 
f 38/54/9 36/52/9 35/51/9 
f 35/51/9 46/62/9 42/58/9 38/54/9 
f 48/64/9 46/62/9 35/51/9 
f 33/49/10 37/53/10 39/55/10 
f 39/55/10 41/57/10 43/59/10 
f 43/59/10 45/61/10 47/63/10 
f 47/63/10 33/49/10 39/55/10 43/59/10 
f 34/50/10 33/49/10 47/63/10 
f 49/65/20 50/66/20 51/67/20 52/68/20 
f 51/67/20 53/69/20 52/68/20 
f 54/70/20 49/65/20 52/68/20 55/71/20 
f 49/65/20 54/70/20 56/72/20 
s 262144
f 57/72/21 58/70/21 59/71/21 60/69/21 
f 59/71/21 61/68/21 60/69/21 
f 62/66/21 57/72/21 60/69/21 63/67/21 
f 57/72/21 62/66/21 64/65/21 
s 4
f 51/73/22 65/74/22 66/75/23 53/76/23 
f 49/77/24 67/78/24 68/79/25 50/80/25 
f 54/81/26 69/82/26 70/83/27 56/84/27 
f 52/85/28 71/86/28 72/87/29 55/88/29 
f 50/80/25 68/79/25 65/74/22 51/73/22 
f 61/89/28 71/90/28 66/75/23 60/91/23 
f 56/84/27 70/83/27 67/78/24 49/77/24 
f 55/88/29 72/87/29 69/82/26 54/81/26 
f 63/92/22 60/91/23 66/75/23 65/74/22 
f 64/93/24 62/94/25 68/79/25 67/78/24 
f 58/95/26 57/96/27 70/83/27 69/82/26 
f 61/97/28 59/98/29 72/87/29 71/86/28 
f 62/94/25 63/92/22 65/74/22 68/79/25 
f 52/99/28 53/76/23 66/75/23 71/90/28 
f 57/96/27 64/93/24 67/78/24 70/83/27 
f 59/98/29 58/95/26 69/82/26 72/87/29 
# 50 polygons - 28 triangles

