# 3ds Max Wavefront OBJ Exporter v0.97b - (c)2007 guruware
# File Created: 16.06.2013 01:45:14

#
# object sign3_triangle
#

v  -0.0204 0.0104 0.0106
v  -0.0204 0.0104 -0.0029
v  -0.0089 0.0104 -0.0144
v  0.0208 0.0104 -0.0029
v  0.0093 0.0104 -0.0144
v  0.0208 0.0104 0.0106
v  0.0093 0.0104 0.0221
v  -0.0089 0.0104 0.0221
v  -0.0089 1.2102 0.0221
v  0.0093 1.2102 0.0221
v  0.0208 1.2102 0.0106
v  0.0093 1.2102 -0.0144
v  0.0208 1.2102 -0.0029
v  -0.0089 1.2102 -0.0144
v  -0.0204 1.2102 -0.0029
v  -0.0204 1.2102 0.0106
v  -0.1395 0.9761 0.0358
v  -0.1395 0.9761 0.0248
v  0.1395 0.9761 0.0248
v  0.1395 0.9761 0.0358
v  -0.1463 1.0034 0.0358
v  -0.0163 1.2217 0.0358
v  -0.0163 1.2217 0.0248
v  -0.1463 1.0034 0.0248
v  0.1463 1.0034 0.0358
v  0.0163 1.2217 0.0358
v  0.0081 1.2319 0.0358
v  0.0000 1.2353 0.0358
v  -0.0081 1.2319 0.0358
v  -0.1519 0.9914 0.0358
v  -0.1527 0.9829 0.0358
v  -0.1486 0.9778 0.0358
v  0.1519 0.9914 0.0358
v  0.1527 0.9829 0.0358
v  0.1486 0.9778 0.0358
v  0.1463 1.0034 0.0248
v  0.0163 1.2217 0.0248
v  -0.1486 0.9778 0.0248
v  -0.1527 0.9829 0.0248
v  -0.1519 0.9914 0.0248
v  -0.0081 1.2319 0.0248
v  0.0000 1.2353 0.0248
v  0.0081 1.2319 0.0248
v  0.1486 0.9778 0.0248
v  0.1527 0.9829 0.0248
v  0.1519 0.9914 0.0248
v  0.0060 1.1885 0.0320
v  0.0082 1.1832 0.0320
v  0.0007 1.1832 0.0320
v  0.0007 1.1907 0.0320
v  -0.0045 1.1885 0.0320
v  -0.0067 1.1832 0.0320
v  -0.0045 1.1780 0.0320
v  0.0007 1.1758 0.0320
v  0.0060 1.1780 0.0320
v  0.0060 1.1885 0.0407
v  0.0082 1.1832 0.0407
v  0.0007 1.1907 0.0407
v  -0.0045 1.1885 0.0407
v  -0.0067 1.1832 0.0407
v  -0.0045 1.1780 0.0407
v  0.0007 1.1758 0.0407
v  0.0060 1.1780 0.0407
v  0.0007 1.1832 0.0407
v  0.0060 0.9903 0.0320
v  0.0082 0.9851 0.0320
v  0.0007 0.9851 0.0320
v  0.0007 0.9925 0.0320
v  -0.0045 0.9903 0.0320
v  -0.0067 0.9851 0.0320
v  -0.0045 0.9798 0.0320
v  0.0007 0.9776 0.0320
v  0.0060 0.9798 0.0320
v  0.0060 0.9903 0.0407
v  0.0082 0.9851 0.0407
v  0.0007 0.9925 0.0407
v  -0.0045 0.9903 0.0407
v  -0.0067 0.9851 0.0407
v  -0.0045 0.9798 0.0407
v  0.0007 0.9776 0.0407
v  0.0060 0.9798 0.0407
v  0.0007 0.9851 0.0407
# 82 vertices

vn 0.0000 -1.0000 -0.0000
vn 0.0000 1.0000 -0.0000
vn -0.3827 0.0000 0.9239
vn 0.3827 0.0000 0.9239
vn 0.9239 0.0000 0.3827
vn 0.9239 0.0000 -0.3827
vn 0.3827 0.0000 -0.9239
vn -0.3827 0.0000 -0.9239
vn -0.9239 0.0000 -0.3827
vn -0.9239 0.0000 0.3827
vn -0.8592 0.5117 -0.0000
vn 0.0000 0.0000 1.0000
vn 0.8592 0.5117 -0.0000
vn 0.0000 0.0000 -1.0000
vn 0.1854 -0.9827 -0.0000
vn -0.7831 0.6219 -0.0000
vn -0.9032 0.4292 -0.0000
vn 0.7778 -0.6285 -0.0000
vn 0.9960 0.0898 -0.0000
vn 0.9031 0.4293 -0.0000
vn -0.3871 0.9220 -0.0000
vn 0.3871 0.9220 -0.0000
vn 0.7830 0.6220 -0.0000
vn -0.9960 0.0899 -0.0000
vn -0.7778 -0.6285 -0.0000
vn -0.1854 -0.9827 -0.0000
vn 0.9239 0.3827 -0.0000
vn 0.3827 0.9239 -0.0000
vn -0.3827 0.9239 -0.0000
vn -0.9239 0.3827 -0.0000
vn -0.9239 -0.3827 -0.0000
vn -0.3826 -0.9239 -0.0000
vn 0.3827 -0.9239 -0.0000
vn 0.9239 -0.3827 -0.0000
vn -0.3826 0.9239 -0.0000
vn -0.3827 -0.9239 -0.0000
# 36 vertex normals

vt 0.0891 0.0279 0.5398
vt 0.0842 0.0341 0.5365
vt 0.0755 0.0341 0.5431
vt 0.0676 0.0131 0.5398
vt 0.0682 0.0263 0.5398
vt 0.0734 0.0070 0.5398
vt 0.0835 0.0078 0.5398
vt 0.0909 0.0155 0.5398
vt 0.0905 0.9777 0.5398
vt 0.0855 0.9838 0.5398
vt 0.0777 0.9838 0.5398
vt 0.0709 0.9716 0.5398
vt 0.0723 0.9793 0.5398
vt 0.0755 0.9647 0.5431
vt 0.0842 0.9647 0.5365
vt 0.0891 0.9700 0.5398
vt 0.0273 0.0341 0.5465
vt 0.0373 0.0341 0.5465
vt 0.0373 0.9655 0.5465
vt 0.0273 0.9655 0.5465
vt 0.0469 0.0341 0.5332
vt 0.0554 0.0341 0.5332
vt 0.0554 0.9655 0.5332
vt 0.0469 0.9655 0.5332
vt 0.0651 0.0341 0.5465
vt 0.0651 0.9655 0.5465
vt 0.0932 0.0341 0.5332
vt 0.0932 0.9655 0.5332
vt 0.1964 0.0526 0.0000
vt 0.1803 0.0287 0.0000
vt 0.8562 0.0279 0.0000
vt 0.8434 0.0520 0.0000
vt 0.1825 0.1171 0.0000
vt 0.4582 0.6297 0.0000
vt 0.4421 0.6528 0.0000
vt 0.1560 0.1233 0.0000
vt 0.8647 0.1144 0.0000
vt 0.5367 0.6254 0.0000
vt 0.5176 0.6488 0.0000
vt 0.4989 0.6546 0.0000
vt 0.4796 0.6485 0.0000
vt 0.1690 0.0892 0.0000
vt 0.1684 0.0703 0.0000
vt 0.1779 0.0586 0.0000
vt 0.8731 0.0880 0.0000
vt 0.8717 0.0691 0.0000
vt 0.8634 0.0566 0.0000
vt 0.8930 0.1189 0.0000
vt 0.5544 0.6458 0.0000
vt 0.9561 0.9636 0.0000
vt 0.4388 0.9656 0.0000
vt 0.4225 0.9627 0.0000
vt 0.4150 0.9539 0.0000
vt 0.4163 0.9392 0.0000
vt 0.4262 0.9186 0.0000
vt 0.7161 0.5385 0.0000
vt 0.6566 0.5402 0.0000
vt 0.6712 0.5223 0.0000
vt 0.6859 0.5160 0.0000
vt 0.7009 0.5214 0.0000
vt 0.9733 0.9605 0.0000
vt 0.9810 0.9514 0.0000
vt 0.9792 0.9362 0.0000
vt 0.9678 0.9151 0.0000
vt 0.8802 0.0391 0.0000
vt 0.4755 0.6738 0.0000
vt 0.1437 0.0870 0.0000
vt 0.8919 0.0548 0.0000
vt 0.8982 0.0797 0.0000
vt 0.5016 0.6788 0.0000
vt 0.5270 0.6718 0.0000
vt 0.1462 0.0616 0.0000
vt 0.1571 0.0451 0.0000
vt 0.2196 0.8341 0.0000
vt 0.2070 0.8341 0.0000
vt 0.1817 0.8341 0.0000
vt 0.1311 0.8341 0.0000
vt 0.1437 0.8341 0.0000
vt 0.1564 0.8341 0.0000
vt 0.1690 0.8341 0.0000
vt 0.1943 0.8341 0.0000
vt 0.2196 0.9866 0.0000
vt 0.2070 0.9866 0.0000
vt 0.1311 0.9866 0.0000
vt 0.1184 0.9866 0.0000
vt 0.1184 0.8341 0.0000
vt 0.1437 0.9866 0.0000
vt 0.1564 0.9866 0.0000
vt 0.1690 0.9866 0.0000
vt 0.1817 0.9866 0.0000
vt 0.1943 0.9866 0.0000
vt 0.0177 0.9655 0.5332
vt 0.0177 0.0341 0.5332
# 93 texture coords

g sign3_triangle
s off
f 1/1/1 2/2/1 3/3/1 4/4/1 
f 3/3/1 5/5/1 4/4/1 
f 4/4/1 6/6/1 7/7/1 1/1/1 
f 8/8/1 1/1/1 7/7/1 
f 9/9/2 10/10/2 11/11/2 12/12/2 
f 11/11/2 13/13/2 12/12/2 
f 12/12/2 14/14/2 15/15/2 9/9/2 
f 16/16/2 9/9/2 15/15/2 
s 2
f 8/17/3 7/18/4 10/19/4 9/20/3 
f 6/21/5 4/22/6 13/23/6 11/24/5 
f 5/25/7 3/3/8 14/14/8 12/26/7 
f 2/2/9 1/27/10 16/28/10 15/15/9 
s off
f 17/29/1 18/30/1 19/31/1 20/32/1 
f 21/33/11 22/34/11 23/35/11 24/36/11 
f 25/37/12 26/38/12 27/39/12 28/40/12 
f 25/37/12 28/40/12 29/41/12 22/34/12 
f 22/34/12 21/33/12 30/42/12 31/43/12 
f 22/34/12 31/43/12 32/44/12 17/29/12 
f 25/37/12 22/34/12 17/29/12 33/45/12 
f 34/46/12 33/45/12 17/29/12 35/47/12 
f 20/32/12 35/47/12 17/29/12 
f 25/37/13 36/48/13 37/49/13 26/38/13 
f 19/50/14 18/51/14 38/52/14 
f 19/50/14 38/52/14 39/53/14 40/54/14 
f 19/50/14 40/54/14 24/55/14 37/56/14 
f 24/55/14 23/57/14 41/58/14 42/59/14 
f 24/55/14 42/59/14 43/60/14 37/56/14 
f 44/61/14 19/50/14 37/56/14 45/62/14 
f 46/63/14 45/62/14 37/56/14 36/64/14 
f 35/47/15 20/32/15 19/31/15 44/65/15 
f 41/66/16 23/35/16 22/34/16 29/41/16 
f 30/42/17 21/33/17 24/36/17 40/67/17 
f 34/46/18 35/47/18 44/65/18 45/68/18 
f 33/45/19 34/46/19 45/68/19 46/69/19 
f 25/37/20 33/45/20 46/69/20 36/48/20 
f 42/70/21 41/66/21 29/41/21 28/40/21 
f 43/71/22 42/70/22 28/40/22 27/39/22 
f 37/49/23 43/71/23 27/39/23 26/38/23 
f 31/43/24 30/42/24 40/67/24 39/72/24 
f 32/44/25 31/43/25 39/72/25 38/73/25 
f 17/29/26 32/44/26 38/73/26 18/30/26 
f 47/74/14 48/75/14 49/76/14 50/77/14 
f 49/76/14 51/78/14 50/77/14 
f 52/79/14 51/78/14 49/76/14 53/80/14 
f 49/76/14 54/76/14 53/80/14 
f 55/81/14 54/76/14 49/76/14 48/75/14 
f 56/82/27 57/83/27 48/75/27 47/74/27 
f 58/84/28 56/85/28 47/86/28 50/77/28 
f 59/87/29 58/84/29 50/77/29 51/78/29 
f 60/88/30 59/87/30 51/78/30 52/79/30 
f 61/89/31 60/88/31 52/79/31 53/80/31 
f 62/90/32 61/89/32 53/80/32 54/76/32 
f 63/91/33 62/90/33 54/76/33 55/81/33 
f 57/83/34 63/91/34 55/81/34 48/75/34 
f 64/90/12 57/83/12 56/85/12 58/84/12 
f 64/90/12 58/84/12 59/87/12 60/88/12 
f 64/90/12 60/88/12 61/89/12 
f 64/90/12 61/89/12 62/90/12 63/91/12 
f 64/90/12 63/91/12 57/83/12 
f 65/74/14 66/75/14 67/76/14 68/77/14 
f 67/76/14 69/78/14 68/77/14 
f 70/79/14 69/78/14 67/76/14 71/80/14 
f 67/76/14 72/76/14 71/80/14 
f 73/81/14 72/76/14 67/76/14 66/75/14 
f 74/82/27 75/83/27 66/75/27 65/74/27 
f 76/84/28 74/85/28 65/86/28 68/77/28 
f 77/87/35 76/84/35 68/77/35 69/78/35 
f 78/88/30 77/87/30 69/78/30 70/79/30 
f 79/89/31 78/88/31 70/79/31 71/80/31 
f 80/90/36 79/89/36 71/80/36 72/76/36 
f 81/91/33 80/90/33 72/76/33 73/81/33 
f 75/83/34 81/91/34 73/81/34 66/75/34 
f 82/90/12 75/83/12 74/85/12 76/84/12 
f 82/90/12 76/84/12 77/87/12 78/88/12 
f 82/90/12 78/88/12 79/89/12 
f 82/90/12 79/89/12 80/90/12 81/91/12 
f 82/90/12 81/91/12 75/83/12 
s 2
f 7/18/4 6/21/5 11/24/5 10/19/4 
f 9/20/3 16/92/10 1/93/10 8/17/3 
f 4/22/6 5/25/7 12/26/7 13/23/6 
f 3/3/8 2/2/9 15/15/9 14/14/8 
# 67 polygons - 14 triangles

