# 3ds Max Wavefront OBJ Exporter v0.97b - (c)2007 guruware
# File Created: 16.06.2013 02:02:09

#
# object woodenPalett
#

v  -0.0607 -0.0100 0.5665
v  -0.0607 -0.0100 -0.5665
v  0.0607 -0.0100 -0.5665
v  0.0607 -0.0100 0.5665
v  -0.0607 0.0100 0.5665
v  0.0607 0.0100 0.5665
v  0.0607 0.0100 -0.5665
v  -0.0607 0.0100 -0.5665
v  0.3460 -0.0100 -0.5665
v  0.3460 -0.0100 0.5665
v  0.2247 -0.0100 0.5665
v  0.2247 -0.0100 -0.5665
v  0.3460 0.0100 -0.5665
v  0.2247 0.0100 -0.5665
v  0.2247 0.0100 0.5665
v  0.3460 0.0100 0.5665
v  0.3600 -0.1146 0.5665
v  0.3600 -0.1146 -0.5665
v  0.2386 -0.1146 -0.5665
v  0.2386 -0.1146 0.5665
v  0.3600 -0.1347 0.5665
v  0.2386 -0.1347 0.5665
v  0.2386 -0.1347 -0.5665
v  0.3600 -0.1347 -0.5665
v  0.2051 -0.0100 -0.5665
v  0.2051 -0.0100 0.5665
v  0.0837 -0.0100 0.5665
v  0.0837 -0.0100 -0.5665
v  0.2051 0.0100 -0.5665
v  0.0837 0.0100 -0.5665
v  0.0837 0.0100 0.5665
v  0.2051 0.0100 0.5665
v  0.0539 -0.1146 0.5665
v  0.0539 -0.1146 -0.5665
v  -0.0674 -0.1146 -0.5665
v  -0.0674 -0.1146 0.5665
v  0.0539 -0.1347 0.5665
v  -0.0674 -0.1347 0.5665
v  -0.0674 -0.1347 -0.5665
v  0.0539 -0.1347 -0.5665
v  -0.0872 -0.0100 -0.5665
v  -0.0872 -0.0100 0.5665
v  -0.2085 -0.0100 0.5665
v  -0.2085 -0.0100 -0.5665
v  -0.0872 0.0100 -0.5665
v  -0.2085 0.0100 -0.5665
v  -0.2085 0.0100 0.5665
v  -0.0872 0.0100 0.5665
v  -0.3675 -0.0100 0.5665
v  -0.3675 -0.0100 -0.5665
v  -0.2461 -0.0100 -0.5665
v  -0.2461 -0.0100 0.5665
v  -0.3675 0.0100 0.5665
v  -0.2461 0.0100 0.5665
v  -0.2461 0.0100 -0.5665
v  -0.3675 0.0100 -0.5665
v  -0.3609 -0.0340 0.4398
v  0.3522 -0.0340 0.4398
v  0.3522 -0.0340 0.5611
v  -0.3609 -0.0340 0.5611
v  -0.3609 -0.0139 0.4398
v  -0.3609 -0.0139 0.5611
v  0.3522 -0.0139 0.5611
v  0.3522 -0.0139 0.4398
v  -0.3610 -0.1213 0.5495
v  -0.3610 -0.1213 0.4416
v  -0.2512 -0.1213 0.4416
v  -0.2512 -0.1213 0.5495
v  -0.3610 -0.0363 0.5495
v  -0.2512 -0.0363 0.5495
v  -0.2512 -0.0363 0.4416
v  -0.3610 -0.0363 0.4416
v  -0.2461 -0.1146 0.5665
v  -0.2461 -0.1146 -0.5665
v  -0.3675 -0.1146 -0.5665
v  -0.3675 -0.1146 0.5665
v  -0.2461 -0.1347 0.5665
v  -0.3675 -0.1347 0.5665
v  -0.3675 -0.1347 -0.5665
v  -0.2461 -0.1347 -0.5665
v  -0.0610 -0.1213 0.5495
v  -0.0610 -0.1213 0.4416
v  0.0488 -0.1213 0.4416
v  0.0488 -0.1213 0.5495
v  -0.0610 -0.0363 0.5495
v  0.0488 -0.0363 0.5495
v  0.0488 -0.0363 0.4416
v  -0.0610 -0.0363 0.4416
v  -0.3609 -0.0340 -0.0572
v  0.3522 -0.0340 -0.0572
v  0.3522 -0.0340 0.0642
v  -0.3609 -0.0340 0.0642
v  -0.3609 -0.0139 -0.0572
v  -0.3609 -0.0139 0.0642
v  0.3522 -0.0139 0.0642
v  0.3522 -0.0139 -0.0572
v  0.2451 -0.1213 0.5495
v  0.2451 -0.1213 0.4416
v  0.3549 -0.1213 0.4416
v  0.3549 -0.1213 0.5495
v  0.2451 -0.0363 0.5495
v  0.3549 -0.0363 0.5495
v  0.3549 -0.0363 0.4416
v  0.2451 -0.0363 0.4416
v  0.2451 -0.1213 0.0526
v  0.2451 -0.1213 -0.0554
v  0.3549 -0.1213 -0.0554
v  0.3549 -0.1213 0.0526
v  0.2451 -0.0363 0.0526
v  0.3549 -0.0363 0.0526
v  0.3549 -0.0363 -0.0554
v  0.2451 -0.0363 -0.0554
v  -0.3609 -0.0340 -0.5314
v  0.3522 -0.0340 -0.5314
v  0.3522 -0.0340 -0.4101
v  -0.3609 -0.0340 -0.4101
v  -0.3609 -0.0139 -0.5314
v  -0.3609 -0.0139 -0.4101
v  0.3522 -0.0139 -0.4101
v  0.3522 -0.0139 -0.5314
v  -0.3610 -0.1213 -0.4217
v  -0.3610 -0.1213 -0.5296
v  -0.2512 -0.1213 -0.5296
v  -0.2512 -0.1213 -0.4217
v  -0.3610 -0.0363 -0.4217
v  -0.2512 -0.0363 -0.4217
v  -0.2512 -0.0363 -0.5296
v  -0.3610 -0.0363 -0.5296
v  0.2451 -0.1213 -0.4217
v  0.2451 -0.1213 -0.5296
v  0.3549 -0.1213 -0.5296
v  0.3549 -0.1213 -0.4217
v  0.2451 -0.0363 -0.4217
v  0.3549 -0.0363 -0.4217
v  0.3549 -0.0363 -0.5296
v  0.2451 -0.0363 -0.5296
v  -0.0610 -0.1213 0.0526
v  -0.0610 -0.1213 -0.0554
v  0.0488 -0.1213 -0.0554
v  0.0488 -0.1213 0.0526
v  -0.0610 -0.0363 0.0526
v  0.0488 -0.0363 0.0526
v  0.0488 -0.0363 -0.0554
v  -0.0610 -0.0363 -0.0554
v  -0.3610 -0.1213 0.0526
v  -0.3610 -0.1213 -0.0554
v  -0.2512 -0.1213 -0.0554
v  -0.2512 -0.1213 0.0526
v  -0.3610 -0.0363 0.0526
v  -0.2512 -0.0363 0.0526
v  -0.2512 -0.0363 -0.0554
v  -0.3610 -0.0363 -0.0554
v  -0.0610 -0.1213 -0.4217
v  -0.0610 -0.1213 -0.5296
v  0.0488 -0.1213 -0.5296
v  0.0488 -0.1213 -0.4217
v  -0.0610 -0.0363 -0.4217
v  0.0488 -0.0363 -0.4217
v  0.0488 -0.0363 -0.5296
v  -0.0610 -0.0363 -0.5296
# 160 vertices

vn 0.0000 -1.0000 -0.0000
vn 0.0000 1.0000 -0.0000
vn 0.0000 0.0000 1.0000
vn 1.0000 0.0000 -0.0000
vn 0.0000 0.0000 -1.0000
vn -1.0000 0.0000 -0.0000
# 6 vertex normals

vt 0.0366 0.9627 0.0000
vt 0.0366 0.0454 0.0000
vt 0.1348 0.0454 0.0000
vt 0.1348 0.9627 0.0000
vt 0.2493 0.9627 0.0000
vt 0.1511 0.9627 0.0000
vt 0.1511 0.0454 0.0000
vt 0.2493 0.0454 0.0000
vt 0.2493 0.9789 0.0000
vt 0.1511 0.9789 0.0000
vt 0.0366 0.0291 0.0000
vt 0.1348 0.0291 0.0000
vt 0.2655 0.0454 0.0000
vt 0.2655 0.9627 0.0000
vt 0.3196 0.8280 0.0000
vt 0.3196 0.6498 0.0000
vt 0.5008 0.6498 0.0000
vt 0.5008 0.8280 0.0000
vt 0.8225 0.8280 0.0000
vt 0.6413 0.8280 0.0000
vt 0.6413 0.6498 0.0000
vt 0.8225 0.6498 0.0000
vt 0.8225 0.9685 0.0000
vt 0.6413 0.9685 0.0000
vt 0.6413 0.5094 0.0000
vt 0.8225 0.5094 0.0000
vt 0.9629 0.6498 0.0000
vt 0.9629 0.8280 0.0000
# 28 texture coords

g woodenPalett
s off
f 1/1/1 2/2/1 3/3/1 4/4/1 
f 5/5/2 6/6/2 7/7/2 8/8/2 
f 1/9/3 4/10/3 6/6/3 5/5/3 
f 4/4/4 3/3/4 7/7/4 6/6/4 
f 3/3/5 2/2/5 8/11/5 7/12/5 
f 2/13/6 1/14/6 5/5/6 8/8/6 
f 9/1/1 10/2/1 11/3/1 12/4/1 
f 13/5/2 14/6/2 15/7/2 16/8/2 
f 9/9/5 12/10/5 14/6/5 13/5/5 
f 12/4/6 11/3/6 15/7/6 14/6/6 
f 11/3/3 10/2/3 16/11/3 15/12/3 
f 10/13/4 9/14/4 13/5/4 16/8/4 
f 17/1/2 18/2/2 19/3/2 20/4/2 
f 21/5/1 22/6/1 23/7/1 24/8/1 
f 17/9/3 20/10/3 22/6/3 21/5/3 
f 20/4/6 19/3/6 23/7/6 22/6/6 
f 19/3/5 18/2/5 24/11/5 23/12/5 
f 18/13/4 17/14/4 21/5/4 24/8/4 
f 25/1/1 26/2/1 27/3/1 28/4/1 
f 29/5/2 30/6/2 31/7/2 32/8/2 
f 25/9/5 28/10/5 30/6/5 29/5/5 
f 28/4/6 27/3/6 31/7/6 30/6/6 
f 27/3/3 26/2/3 32/11/3 31/12/3 
f 26/13/4 25/14/4 29/5/4 32/8/4 
f 33/1/2 34/2/2 35/3/2 36/4/2 
f 37/5/1 38/6/1 39/7/1 40/8/1 
f 33/9/3 36/10/3 38/6/3 37/5/3 
f 36/4/6 35/3/6 39/7/6 38/6/6 
f 35/3/5 34/2/5 40/11/5 39/12/5 
f 34/13/4 33/14/4 37/5/4 40/8/4 
f 41/1/1 42/2/1 43/3/1 44/4/1 
f 45/5/2 46/6/2 47/7/2 48/8/2 
f 41/9/5 44/10/5 46/6/5 45/5/5 
f 44/4/6 43/3/6 47/7/6 46/6/6 
f 43/3/3 42/2/3 48/11/3 47/12/3 
f 42/13/4 41/14/4 45/5/4 48/8/4 
f 49/1/1 50/2/1 51/3/1 52/4/1 
f 53/5/2 54/6/2 55/7/2 56/8/2 
f 49/9/3 52/10/3 54/6/3 53/5/3 
f 52/4/4 51/3/4 55/7/4 54/6/4 
f 51/3/5 50/2/5 56/11/5 55/12/5 
f 50/13/6 49/14/6 53/5/6 56/8/6 
f 57/1/1 58/2/1 59/3/1 60/4/1 
f 61/5/2 62/6/2 63/7/2 64/8/2 
f 57/9/6 60/10/6 62/6/6 61/5/6 
f 60/4/3 59/3/3 63/7/3 62/6/3 
f 59/3/4 58/2/4 64/11/4 63/12/4 
f 58/13/5 57/14/5 61/5/5 64/8/5 
f 65/15/1 66/16/1 67/17/1 68/18/1 
f 69/19/2 70/20/2 71/21/2 72/22/2 
f 65/23/3 68/24/3 70/20/3 69/19/3 
f 68/18/4 67/17/4 71/21/4 70/20/4 
f 67/25/5 66/26/5 72/22/5 71/21/5 
f 66/27/6 65/28/6 69/19/6 72/22/6 
f 73/1/2 74/2/2 75/3/2 76/4/2 
f 77/5/1 78/6/1 79/7/1 80/8/1 
f 73/9/3 76/10/3 78/6/3 77/5/3 
f 76/4/6 75/3/6 79/7/6 78/6/6 
f 75/3/5 74/2/5 80/11/5 79/12/5 
f 74/13/4 73/14/4 77/5/4 80/8/4 
f 81/15/1 82/16/1 83/17/1 84/18/1 
f 85/19/2 86/20/2 87/21/2 88/22/2 
f 81/23/3 84/24/3 86/20/3 85/19/3 
f 84/18/4 83/17/4 87/21/4 86/20/4 
f 83/25/5 82/26/5 88/22/5 87/21/5 
f 82/27/6 81/28/6 85/19/6 88/22/6 
f 89/1/1 90/2/1 91/3/1 92/4/1 
f 93/5/2 94/6/2 95/7/2 96/8/2 
f 89/9/6 92/10/6 94/6/6 93/5/6 
f 92/4/3 91/3/3 95/7/3 94/6/3 
f 91/3/4 90/2/4 96/11/4 95/12/4 
f 90/13/5 89/14/5 93/5/5 96/8/5 
f 97/15/1 98/16/1 99/17/1 100/18/1 
f 101/19/2 102/20/2 103/21/2 104/22/2 
f 97/23/3 100/24/3 102/20/3 101/19/3 
f 100/18/4 99/17/4 103/21/4 102/20/4 
f 99/25/5 98/26/5 104/22/5 103/21/5 
f 98/27/6 97/28/6 101/19/6 104/22/6 
f 105/15/1 106/16/1 107/17/1 108/18/1 
f 109/19/2 110/20/2 111/21/2 112/22/2 
f 105/23/3 108/24/3 110/20/3 109/19/3 
f 108/18/4 107/17/4 111/21/4 110/20/4 
f 107/25/5 106/26/5 112/22/5 111/21/5 
f 106/27/6 105/28/6 109/19/6 112/22/6 
f 113/1/1 114/2/1 115/3/1 116/4/1 
f 117/5/2 118/6/2 119/7/2 120/8/2 
f 113/9/6 116/10/6 118/6/6 117/5/6 
f 116/4/3 115/3/3 119/7/3 118/6/3 
f 115/3/4 114/2/4 120/11/4 119/12/4 
f 114/13/5 113/14/5 117/5/5 120/8/5 
f 121/15/1 122/16/1 123/17/1 124/18/1 
f 125/19/2 126/20/2 127/21/2 128/22/2 
f 121/23/3 124/24/3 126/20/3 125/19/3 
f 124/18/4 123/17/4 127/21/4 126/20/4 
f 123/25/5 122/26/5 128/22/5 127/21/5 
f 122/27/6 121/28/6 125/19/6 128/22/6 
f 129/15/1 130/16/1 131/17/1 132/18/1 
f 133/19/2 134/20/2 135/21/2 136/22/2 
f 129/23/3 132/24/3 134/20/3 133/19/3 
f 132/18/4 131/17/4 135/21/4 134/20/4 
f 131/25/5 130/26/5 136/22/5 135/21/5 
f 130/27/6 129/28/6 133/19/6 136/22/6 
f 137/15/1 138/16/1 139/17/1 140/18/1 
f 141/19/2 142/20/2 143/21/2 144/22/2 
f 137/23/3 140/24/3 142/20/3 141/19/3 
f 140/18/4 139/17/4 143/21/4 142/20/4 
f 139/25/5 138/26/5 144/22/5 143/21/5 
f 138/27/6 137/28/6 141/19/6 144/22/6 
f 145/15/1 146/16/1 147/17/1 148/18/1 
f 149/19/2 150/20/2 151/21/2 152/22/2 
f 145/23/3 148/24/3 150/20/3 149/19/3 
f 148/18/4 147/17/4 151/21/4 150/20/4 
f 147/25/5 146/26/5 152/22/5 151/21/5 
f 146/27/6 145/28/6 149/19/6 152/22/6 
f 153/15/1 154/16/1 155/17/1 156/18/1 
f 157/19/2 158/20/2 159/21/2 160/22/2 
f 153/23/3 156/24/3 158/20/3 157/19/3 
f 156/18/4 155/17/4 159/21/4 158/20/4 
f 155/25/5 154/26/5 160/22/5 159/21/5 
f 154/27/6 153/28/6 157/19/6 160/22/6 
# 120 polygons

