# This file uses centimeters as units for non-parametric coordinates.

mtllib TruckII_Window.mtl
g default
v 6.662803 11.386800 6.605927
v 7.693213 11.855241 5.029168
v 7.340504 16.640406 4.552018
v 6.357314 16.647354 6.171218
v -0.003426 11.323832 7.116482
v 4.610353 11.323832 7.031389
v 4.398921 16.647354 6.596680
v -0.003426 16.647354 6.681773
v -6.364167 16.647354 6.171218
v -7.347356 16.640406 4.552018
v -7.700065 11.855241 5.029168
v -6.669655 11.386800 6.605927
v -4.405773 16.647354 6.596680
v -4.617206 11.323832 7.031389
v -7.299372 16.897284 4.100923
v -7.299372 16.842035 -1.289222
v -7.708770 12.894296 -1.022297
v -7.708770 12.028701 4.494585
v 7.259758 16.901049 4.065893
v 7.259758 16.846575 -1.248673
v 7.663415 12.954190 -0.985490
v 7.663415 12.100732 4.454036
vt 0.345145 0.500000
vt 0.000689 0.500000
vt 0.000689 0.201467
vt 0.345145 0.215148
vt 0.345145 0.784852
vt 0.000689 0.798533
vt 0.004763 0.068664
vt 0.345145 0.088431
vt 0.345145 0.911569
vt 0.004763 0.931336
vt 0.035074 0.001992
vt 0.344696 0.024814
vt 0.344696 0.975186
vt 0.035074 0.998008
vt 0.808507 0.554479
vt 0.804055 0.988848
vt 0.485924 0.967337
vt 0.416169 0.522756
vt 0.808507 0.456461
vt 0.416169 0.488185
vt 0.485923 0.043603
vt 0.804054 0.022093
vn 0.562732 0.104896 0.819957
vn 0.834678 0.103784 0.540871
vn 0.834678 0.103784 0.540871
vn 0.562732 0.104896 0.819957
vn 0.000000 0.081758 0.996652
vn 0.000000 0.081758 0.996652
vn 0.112573 0.086295 0.989889
vn 0.112573 0.086295 0.989889
vn -0.562733 0.104896 0.819957
vn -0.562733 0.104896 0.819957
vn -0.834678 0.103784 0.540871
vn -0.834678 0.103784 0.540871
vn -0.112573 0.086295 0.989889
vn -0.112573 0.086295 0.989889
vn -0.995644 0.092986 0.006908
vn -0.995644 0.092986 0.006908
vn -0.995644 0.092986 0.006908
vn -0.995644 0.092986 0.006908
vn 0.995644 0.092986 0.006908
vn 0.995644 0.092986 0.006908
vn 0.995644 0.092986 0.006908
vn 0.995644 0.092986 0.006908
s 1
g TruckII_Window
usemtl lambert5SG
f 1/7/1 2/11/2 3/12/3 4/8/4
f 8/1/5 5/2/6 6/3/7 7/4/8
f 7/4/8 6/3/7 1/7/1 4/8/4
f 12/10/9 9/9/10 10/13/11 11/14/12
f 8/1/5 13/5/13 14/6/14 5/2/6
f 13/5/13 9/9/10 12/10/9 14/6/14
s off
f 15/15/15 16/16/16 17/17/17 18/18/18
f 19/19/19 22/20/20 21/21/21 20/22/22
