# This file uses centimeters as units for non-parametric coordinates.

mtllib TruckII_Weels_Rim_RearII.mtl
g default
v -7.447098 2.523369 -36.355812
v -7.447098 3.486450 -36.097755
v -7.447098 1.818352 -37.060829
v -7.447098 1.560295 -38.023903
v -7.447113 1.818352 -38.986977
v -7.447098 2.523369 -39.691994
v -7.447098 3.486450 -39.950047
v -7.447113 4.449524 -39.691998
v -7.447113 5.154541 -38.986977
v -7.447098 5.412598 -38.023899
v -7.447098 5.154541 -37.060825
v -7.447098 4.449524 -36.355804
v -6.397980 2.298264 -38.709900
v -6.397964 2.800446 -36.835716
v -6.397964 2.298264 -37.337906
v -6.397980 2.114449 -38.023903
v -6.397964 4.172447 -36.835720
v -6.397964 3.486450 -36.651901
v -6.397964 4.858444 -38.023903
v -6.397964 4.674637 -37.337902
v -6.397980 4.172447 -39.212090
v -6.397980 4.674637 -38.709904
v -6.397980 2.800446 -39.212090
v -6.397980 3.486450 -39.395901
v -7.575961 3.486450 -40.399994
v -7.575969 4.674497 -40.081661
v -7.575961 2.298399 -40.081661
v -7.575961 1.428686 -39.211948
v -7.575953 1.110349 -38.023903
v -7.575953 1.428686 -36.835854
v -7.575953 2.298396 -35.966145
v -7.575953 3.486450 -35.647808
v -7.575953 4.674497 -35.966141
v -7.575953 5.544207 -36.835854
v -7.575953 5.862544 -38.023903
v -7.575961 5.544207 -39.211948
v -6.397967 3.051935 -37.271305
v -6.397967 2.733854 -37.589394
v -6.397977 2.617426 -38.023903
v -6.397977 2.733854 -38.458412
v -6.397967 3.920958 -37.271309
v -6.397967 3.486449 -37.154881
v -6.397967 4.355466 -38.023903
v -6.397967 4.239043 -37.589394
v -6.397977 3.920958 -38.776493
v -6.397977 4.239043 -38.458412
v -6.397977 3.051935 -38.776493
v -6.397977 3.486449 -38.892921
v -7.024583 3.143575 -37.438942
v -7.024583 2.892578 -37.686176
v -7.024591 2.800705 -38.023903
v -7.024591 2.892578 -38.361626
v -7.024583 3.829318 -37.438946
v -7.024583 3.486449 -37.348450
v -7.024583 4.172188 -38.023903
v -7.024583 4.080318 -37.686176
v -7.024591 3.829318 -38.608860
v -7.024591 4.080318 -38.361626
v -7.024591 3.143575 -38.608860
v -7.024591 3.486449 -38.699352
v -7.024588 3.486449 -38.023903
v -6.927886 4.175782 -37.630882
v -6.927886 4.282420 -38.023903
v -6.927896 4.175782 -38.416920
v -6.927896 3.884434 -38.704632
v -6.927896 3.486449 -38.809940
v -6.927896 3.088459 -38.704632
v -6.927896 2.797115 -38.416920
v -6.927896 2.690473 -38.023903
v -6.927886 2.797115 -37.630882
v -6.927886 3.088459 -37.343166
v -6.927886 3.486449 -37.237862
v -6.927886 3.884434 -37.343174
v 7.447098 2.523369 -36.355812
v 7.447098 3.486450 -36.097755
v 7.447098 1.818352 -37.060829
v 7.447098 1.560295 -38.023903
v 7.447113 1.818352 -38.986977
v 7.447098 2.523369 -39.691994
v 7.447098 3.486450 -39.950047
v 7.447113 4.449524 -39.691998
v 7.447113 5.154541 -38.986977
v 7.447098 5.412598 -38.023899
v 7.447098 5.154541 -37.060825
v 7.447098 4.449524 -36.355804
v 6.397980 2.298264 -38.709900
v 6.397964 2.800446 -36.835716
v 6.397964 2.298264 -37.337906
v 6.397980 2.114449 -38.023903
v 6.397964 4.172447 -36.835720
v 6.397964 3.486450 -36.651901
v 6.397964 4.858444 -38.023903
v 6.397964 4.674637 -37.337902
v 6.397980 4.172447 -39.212090
v 6.397980 4.674637 -38.709904
v 6.397980 2.800446 -39.212090
v 6.397980 3.486450 -39.395901
v 7.575961 3.486450 -40.399994
v 7.575969 4.674497 -40.081661
v 7.575961 2.298399 -40.081661
v 7.575961 1.428686 -39.211948
v 7.575953 1.110349 -38.023903
v 7.575953 1.428686 -36.835854
v 7.575953 2.298396 -35.966145
v 7.575953 3.486450 -35.647808
v 7.575953 4.674497 -35.966141
v 7.575953 5.544207 -36.835854
v 7.575953 5.862544 -38.023903
v 7.575961 5.544207 -39.211948
v 6.397967 3.051935 -37.271305
v 6.397967 2.733854 -37.589394
v 6.397977 2.617426 -38.023903
v 6.397977 2.733854 -38.458412
v 6.397967 3.920958 -37.271309
v 6.397967 3.486449 -37.154881
v 6.397967 4.355466 -38.023903
v 6.397967 4.239043 -37.589394
v 6.397977 3.920958 -38.776493
v 6.397977 4.239043 -38.458412
v 6.397977 3.051935 -38.776493
v 6.397977 3.486449 -38.892921
v 7.024583 3.143575 -37.438942
v 7.024583 2.892578 -37.686176
v 7.024591 2.800705 -38.023903
v 7.024591 2.892578 -38.361626
v 7.024583 3.829318 -37.438946
v 7.024583 3.486449 -37.348450
v 7.024583 4.172188 -38.023903
v 7.024583 4.080318 -37.686176
v 7.024591 3.829318 -38.608860
v 7.024591 4.080318 -38.361626
v 7.024591 3.143575 -38.608860
v 7.024591 3.486449 -38.699352
v 7.024588 3.486449 -38.023903
v 6.927886 4.175782 -37.630882
v 6.927886 4.282420 -38.023903
v 6.927896 4.175782 -38.416920
v 6.927896 3.884434 -38.704632
v 6.927896 3.486449 -38.809940
v 6.927896 3.088459 -38.704632
v 6.927896 2.797115 -38.416920
v 6.927896 2.690473 -38.023903
v 6.927886 2.797115 -37.630882
v 6.927886 3.088459 -37.343166
v 6.927886 3.486449 -37.237862
v 6.927886 3.884434 -37.343174
vt 0.351636 0.369304
vt 0.289150 0.369304
vt 0.318249 0.260706
vt 0.372363 0.291950
vt 0.397747 0.181208
vt 0.428991 0.235323
vt 0.506345 0.152109
vt 0.506345 0.214596
vt 0.614942 0.181208
vt 0.583698 0.235323
vt 0.694441 0.260706
vt 0.640326 0.291950
vt 0.723539 0.369304
vt 0.661053 0.369304
vt 0.694441 0.477902
vt 0.640326 0.446658
vt 0.614942 0.557400
vt 0.583699 0.503286
vt 0.506345 0.586499
vt 0.506345 0.524012
vt 0.397747 0.557400
vt 0.428991 0.503286
vt 0.318248 0.477902
vt 0.372364 0.446658
vt 0.774276 0.369304
vt 0.738380 0.503270
vt 0.738380 0.235339
vt 0.640310 0.137269
vt 0.506345 0.101373
vt 0.372379 0.137269
vt 0.274310 0.235338
vt 0.238413 0.369304
vt 0.274309 0.503270
vt 0.372379 0.601339
vt 0.506345 0.637235
vt 0.640310 0.601339
vt 0.506345 0.287498
vt 0.465441 0.298458
vt 0.547248 0.298458
vt 0.577191 0.328401
vt 0.435498 0.328401
vt 0.435499 0.410207
vt 0.424538 0.369304
vt 0.506345 0.451110
vt 0.465441 0.440150
vt 0.577191 0.410207
vt 0.547248 0.440150
vt 0.588151 0.369304
vt 0.449348 0.336197
vt 0.473220 0.311961
vt 0.505831 0.303090
vt 0.538441 0.311961
vt 0.440610 0.369304
vt 0.449348 0.402411
vt 0.473220 0.426647
vt 0.505831 0.435518
vt 0.562313 0.402411
vt 0.538441 0.426647
vt 0.562313 0.336197
vt 0.571051 0.369304
vt 0.505831 0.369304
vt 0.472020 0.428731
vt 0.505910 0.437924
vt 0.539800 0.428731
vt 0.564609 0.403614
vt 0.573690 0.369304
vt 0.564609 0.334994
vt 0.539800 0.309877
vt 0.505910 0.300684
vt 0.472020 0.309877
vt 0.447210 0.334994
vt 0.438130 0.369304
vt 0.447211 0.403614
vt 0.351636 0.369304
vt 0.289150 0.369304
vt 0.318249 0.260706
vt 0.372363 0.291950
vt 0.397747 0.181208
vt 0.428991 0.235323
vt 0.506345 0.152109
vt 0.506345 0.214596
vt 0.614942 0.181208
vt 0.583698 0.235323
vt 0.694441 0.260706
vt 0.640326 0.291950
vt 0.723539 0.369304
vt 0.661053 0.369304
vt 0.694441 0.477902
vt 0.640326 0.446658
vt 0.614942 0.557400
vt 0.583699 0.503286
vt 0.506345 0.586499
vt 0.506345 0.524012
vt 0.397747 0.557400
vt 0.428991 0.503286
vt 0.318248 0.477902
vt 0.372364 0.446658
vt 0.774276 0.369304
vt 0.738380 0.503270
vt 0.738380 0.235339
vt 0.640310 0.137269
vt 0.506345 0.101373
vt 0.372379 0.137269
vt 0.274310 0.235338
vt 0.238413 0.369304
vt 0.274309 0.503270
vt 0.372379 0.601339
vt 0.506345 0.637235
vt 0.640310 0.601339
vt 0.506345 0.287498
vt 0.465441 0.298458
vt 0.547248 0.298458
vt 0.577191 0.328401
vt 0.435498 0.328401
vt 0.435499 0.410207
vt 0.424538 0.369304
vt 0.506345 0.451110
vt 0.465441 0.440150
vt 0.577191 0.410207
vt 0.547248 0.440150
vt 0.588151 0.369304
vt 0.447210 0.334994
vt 0.472020 0.309877
vt 0.505910 0.300684
vt 0.539800 0.309877
vt 0.438130 0.369304
vt 0.447211 0.403614
vt 0.472020 0.428731
vt 0.505910 0.437924
vt 0.564609 0.403614
vt 0.539800 0.428731
vt 0.564609 0.334994
vt 0.573690 0.369304
vt 0.449348 0.336197
vt 0.473220 0.311961
vt 0.505831 0.303090
vt 0.505831 0.369304
vt 0.538441 0.311961
vt 0.562313 0.336197
vt 0.562313 0.402411
vt 0.538441 0.426647
vt 0.505831 0.435518
vt 0.449348 0.402411
vt 0.440610 0.369304
vt 0.571051 0.369304
vt 0.473220 0.426647
vn -0.858027 0.056416 -0.510497
vn -0.790050 0.362983 -0.494029
vn -0.781022 0.267530 -0.564298
vn -0.781022 -0.050460 -0.622461
vn -0.671771 0.678319 -0.297670
vn -0.781022 0.513838 -0.354931
vn -0.531413 0.841987 0.093052
vn -0.781022 0.622462 -0.050459
vn -0.981366 0.154844 0.113771
vn -0.781022 0.564298 0.267531
vn -0.531411 0.340411 0.775708
vn -0.781021 0.354932 0.513838
vn -0.671769 -0.081368 0.736278
vn -0.781020 0.050461 0.622464
vn -0.790049 -0.362985 0.494029
vn -0.781020 -0.267531 0.564300
vn -0.858026 -0.470311 0.206393
vn -0.781022 -0.513837 0.354932
vn -0.889831 -0.453530 -0.050119
vn -0.781022 -0.622461 0.050463
vn -0.898976 -0.352965 -0.259340
vn -0.781022 -0.564298 -0.267530
vn -0.889832 -0.183357 -0.417828
vn -0.781022 -0.354930 -0.513837
vn -0.961352 -0.000004 0.275321
vn -0.961354 -0.137659 0.238429
vn -0.961353 0.137660 0.238432
vn -0.961355 0.238425 0.137658
vn -0.961357 0.275306 0.000004
vn -0.961355 0.238426 -0.137656
vn -0.961355 0.137656 -0.238428
vn -0.961354 -0.000000 -0.275314
vn -0.961355 -0.137657 -0.238429
vn -0.961355 -0.238429 -0.137656
vn -0.961356 -0.275307 0.000004
vn -0.961357 -0.238419 0.137659
vn -0.765188 -0.556872 0.323080
vn -0.764020 -0.645192 0.000008
vn -0.765193 -0.556870 -0.323072
vn -0.767522 -0.319350 -0.555811
vn -0.767517 -0.319353 0.555817
vn -0.767518 0.319352 0.555816
vn -0.768670 0.000005 0.639645
vn -0.764015 0.645198 0.000008
vn -0.765191 0.556873 0.323073
vn -0.767522 0.319349 -0.555812
vn -0.765194 0.556873 -0.323063
vn -0.768677 0.000001 -0.639638
vn -0.483182 -0.435268 0.759656
vn -0.479660 -0.758447 0.441231
vn -0.477895 -0.878417 0.000005
vn -0.479662 -0.758445 -0.441231
vn -0.483177 0.435269 0.759658
vn -0.484928 0.000008 0.874554
vn -0.477890 0.878420 0.000005
vn -0.479660 0.758447 0.441230
vn -0.483177 0.435268 -0.759659
vn -0.479660 0.758450 -0.441225
vn -0.483177 -0.435269 -0.759659
vn -0.484927 0.000001 -0.874555
vn -0.937042 -0.173079 0.303307
vn -1.000000 0.000002 0.000007
vn -0.937024 -0.349264 0.000009
vn -0.886145 -0.400142 0.233737
vn -0.937042 -0.173082 -0.303307
vn -0.886148 -0.400141 -0.233730
vn -0.937022 0.349270 0.000009
vn -0.886146 0.400149 -0.233721
vn -0.937042 0.173084 -0.303306
vn -0.886214 0.000005 0.463277
vn -0.937040 0.173084 0.303311
vn -0.886212 0.000001 -0.463280
vn -0.886145 0.400145 0.233732
vn 0.858027 0.056416 -0.510497
vn 0.781022 -0.050460 -0.622461
vn 0.781022 0.267530 -0.564298
vn 0.790050 0.362983 -0.494029
vn 0.781022 0.513838 -0.354931
vn 0.671771 0.678319 -0.297670
vn 0.781022 0.622462 -0.050459
vn 0.531413 0.841987 0.093052
vn 0.781022 0.564298 0.267531
vn 0.981366 0.154844 0.113771
vn 0.781021 0.354932 0.513838
vn 0.531411 0.340411 0.775708
vn 0.781020 0.050461 0.622464
vn 0.671769 -0.081368 0.736278
vn 0.781020 -0.267531 0.564300
vn 0.790049 -0.362985 0.494029
vn 0.781022 -0.513837 0.354932
vn 0.858026 -0.470311 0.206393
vn 0.781022 -0.622461 0.050463
vn 0.889831 -0.453530 -0.050119
vn 0.781022 -0.564298 -0.267530
vn 0.898976 -0.352965 -0.259340
vn 0.781022 -0.354930 -0.513837
vn 0.889832 -0.183357 -0.417828
vn 0.961352 -0.000004 0.275322
vn 0.961354 -0.137658 0.238429
vn 0.961353 0.137660 0.238432
vn 0.961355 0.238425 0.137658
vn 0.961356 0.275307 0.000004
vn 0.961355 0.238427 -0.137656
vn 0.961355 0.137656 -0.238428
vn 0.961355 0.000000 -0.275314
vn 0.961355 -0.137657 -0.238429
vn 0.961354 -0.238429 -0.137657
vn 0.961356 -0.275308 0.000004
vn 0.961357 -0.238419 0.137659
vn 0.764021 -0.645192 0.000008
vn 0.765189 -0.556872 0.323080
vn 0.765193 -0.556870 -0.323073
vn 0.767522 -0.319349 -0.555811
vn 0.767517 -0.319352 0.555816
vn 0.767517 0.319352 0.555816
vn 0.768671 0.000005 0.639644
vn 0.764015 0.645198 0.000008
vn 0.765190 0.556874 0.323073
vn 0.767523 0.319348 -0.555811
vn 0.765194 0.556874 -0.323064
vn 0.768678 0.000001 -0.639636
vn 0.483180 -0.435268 0.759657
vn 0.479662 -0.758446 0.441230
vn 0.477896 -0.878417 0.000005
vn 0.479661 -0.758446 -0.441232
vn 0.484926 0.000007 0.874555
vn 0.483176 0.435270 0.759658
vn 0.479660 0.758447 0.441230
vn 0.477893 0.878418 0.000005
vn 0.483179 0.435267 -0.759658
vn 0.479662 0.758449 -0.441226
vn 0.483176 -0.435269 -0.759659
vn 0.484930 0.000001 -0.874553
vn 0.937042 -0.173079 0.303309
vn 0.886146 -0.400140 0.233736
vn 0.937025 -0.349263 0.000009
vn 1.000000 0.000002 0.000007
vn 0.886147 -0.400142 -0.233731
vn 0.937041 -0.173083 -0.303308
vn 0.937042 0.173083 -0.303305
vn 0.886147 0.400147 -0.233721
vn 0.937023 0.349268 0.000009
vn 0.937040 0.173085 0.303311
vn 0.886212 0.000004 0.463280
vn 0.886213 0.000000 -0.463279
vn 0.886145 0.400145 0.233732
s 1
g TruckII_Weels_Rim_RearII
usemtl RimBackYellow_MaterialSG
f 18/1/1 14/4/2 1/3/3 2/2/4
f 14/4/2 15/6/5 3/5/6 1/3/3
f 15/6/5 16/8/7 4/7/8 3/5/6
f 16/8/7 13/10/9 5/9/10 4/7/8
f 13/10/9 23/12/11 6/11/12 5/9/10
f 23/12/11 24/14/13 7/13/14 6/11/12
f 24/14/13 21/16/15 8/15/16 7/13/14
f 21/16/15 22/18/17 9/17/18 8/15/16
f 22/18/17 19/20/19 10/19/20 9/17/18
f 19/20/19 20/22/21 11/21/22 10/19/20
f 20/22/21 17/24/23 12/23/24 11/21/22
f 17/24/23 18/1/1 2/2/4 12/23/24
f 25/25/25 7/13/14 8/15/16 26/26/26
f 27/27/27 6/11/12 7/13/14 25/25/25
f 28/28/28 5/9/10 6/11/12 27/27/27
f 29/29/29 4/7/8 5/9/10 28/28/28
f 30/30/30 3/5/6 4/7/8 29/29/29
f 31/31/31 1/3/3 3/5/6 30/30/30
f 32/32/32 2/2/4 1/3/3 31/31/31
f 33/33/33 12/23/24 2/2/4 32/32/32
f 34/34/34 11/21/22 12/23/24 33/33/33
f 35/35/35 10/19/20 11/21/22 34/34/34
f 36/36/36 9/17/18 10/19/20 35/35/35
f 26/26/26 8/15/16 9/17/18 36/36/36
f 15/6/5 38/38/37 39/37/38 16/8/7
f 16/8/7 39/37/38 40/39/39 13/10/9
f 13/10/9 40/39/39 47/40/40 23/12/11
f 37/41/41 38/38/37 15/6/5 14/4/2
f 41/42/42 42/43/43 18/1/1 17/24/23
f 42/43/43 37/41/41 14/4/2 18/1/1
f 43/44/44 44/45/45 20/22/21 19/20/19
f 44/45/45 41/42/42 17/24/23 20/22/21
f 45/46/46 46/47/47 22/18/17 21/16/15
f 46/47/47 43/44/44 19/20/19 22/18/17
f 47/40/40 48/48/48 24/14/13 23/12/11
f 48/48/48 45/46/46 21/16/15 24/14/13
f 71/71/49 70/70/50 38/38/37 37/41/41
f 70/70/50 69/69/51 39/37/38 38/38/37
f 39/37/38 69/69/51 68/68/52 40/39/39
f 41/42/42 73/73/53 72/72/54 42/43/43
f 72/72/54 71/71/49 37/41/41 42/43/43
f 43/44/44 63/63/55 62/62/56 44/45/45
f 44/45/45 62/62/56 73/73/53 41/42/42
f 65/65/57 64/64/58 46/47/47 45/46/46
f 64/64/58 63/63/55 43/44/44 46/47/47
f 40/39/39 68/68/52 67/67/59 47/40/40
f 47/40/40 67/67/59 66/66/60 48/48/48
f 66/66/60 65/65/57 45/46/46 48/48/48
f 49/49/61 61/61/62 51/51/63 50/50/64
f 61/61/62 59/59/65 52/52/66 51/51/63
f 61/61/62 55/56/67 58/58/68 57/57/69
f 49/49/61 54/53/70 53/54/71 61/61/62
f 61/61/62 57/57/69 60/60/72 59/59/65
f 53/54/71 56/55/73 55/56/67 61/61/62
f 63/63/55 55/56/67 56/55/73 62/62/56
f 58/58/68 55/56/67 63/63/55 64/64/58
f 57/57/69 58/58/68 64/64/58 65/65/57
f 60/60/72 57/57/69 65/65/57 66/66/60
f 67/67/59 59/59/65 60/60/72 66/66/60
f 68/68/52 52/52/66 59/59/65 67/67/59
f 69/69/51 51/51/63 52/52/66 68/68/52
f 50/50/64 51/51/63 69/69/51 70/70/50
f 49/49/61 50/50/64 70/70/50 71/71/49
f 54/53/70 49/49/61 71/71/49 72/72/54
f 73/73/53 53/54/71 54/53/70 72/72/54
f 62/62/56 56/55/73 53/54/71 73/73/53
s 4
f 91/74/74 75/75/75 74/76/76 87/77/77
f 87/77/77 74/76/76 76/78/78 88/79/79
f 88/79/79 76/78/78 77/80/80 89/81/81
f 89/81/81 77/80/80 78/82/82 86/83/83
f 86/83/83 78/82/82 79/84/84 96/85/85
f 96/85/85 79/84/84 80/86/86 97/87/87
f 97/87/87 80/86/86 81/88/88 94/89/89
f 94/89/89 81/88/88 82/90/90 95/91/91
f 95/91/91 82/90/90 83/92/92 92/93/93
f 92/93/93 83/92/92 84/94/94 93/95/95
f 93/95/95 84/94/94 85/96/96 90/97/97
f 90/97/97 85/96/96 75/75/75 91/74/74
f 98/98/98 99/99/99 81/88/88 80/86/86
f 100/100/100 98/98/98 80/86/86 79/84/84
f 101/101/101 100/100/100 79/84/84 78/82/82
f 102/102/102 101/101/101 78/82/82 77/80/80
f 103/103/103 102/102/102 77/80/80 76/78/78
f 104/104/104 103/103/103 76/78/78 74/76/76
f 105/105/105 104/104/104 74/76/76 75/75/75
f 106/106/106 105/105/105 75/75/75 85/96/96
f 107/107/107 106/106/106 85/96/96 84/94/94
f 108/108/108 107/107/107 84/94/94 83/92/92
f 109/109/109 108/108/108 83/92/92 82/90/90
f 99/99/99 109/109/109 82/90/90 81/88/88
f 88/79/79 89/81/81 112/110/110 111/111/111
f 89/81/81 86/83/83 113/112/112 112/110/110
f 86/83/83 96/85/85 120/113/113 113/112/112
f 110/114/114 87/77/77 88/79/79 111/111/111
f 114/115/115 90/97/97 91/74/74 115/116/116
f 115/116/116 91/74/74 87/77/77 110/114/114
f 116/117/117 92/93/93 93/95/95 117/118/118
f 117/118/118 93/95/95 90/97/97 114/115/115
f 118/119/119 94/89/89 95/91/91 119/120/120
f 119/120/120 95/91/91 92/93/93 116/117/117
f 120/113/113 96/85/85 97/87/87 121/121/121
f 121/121/121 97/87/87 94/89/89 118/119/119
f 144/122/122 110/114/114 111/111/111 143/123/123
f 143/123/123 111/111/111 112/110/110 142/124/124
f 112/110/110 113/112/112 141/125/125 142/124/124
f 114/115/115 115/116/116 145/126/126 146/127/127
f 145/126/126 115/116/116 110/114/114 144/122/122
f 116/117/117 117/118/118 135/128/128 136/129/129
f 117/118/118 114/115/115 146/127/127 135/128/128
f 138/130/130 118/119/119 119/120/120 137/131/131
f 137/131/131 119/120/120 116/117/117 136/129/129
f 113/112/112 120/113/113 140/132/132 141/125/125
f 120/113/113 121/121/121 139/133/133 140/132/132
f 139/133/133 121/121/121 118/119/119 138/130/130
f 122/134/134 123/135/135 124/136/136 134/137/137
f 134/137/137 124/136/136 125/138/138 132/139/139
f 134/137/137 130/140/140 131/141/141 128/142/142
f 122/134/134 134/137/137 126/143/143 127/144/144
f 134/137/137 132/139/139 133/145/145 130/140/140
f 126/143/143 134/137/137 128/142/142 129/146/146
f 136/129/129 135/128/128 129/146/146 128/142/142
f 131/141/141 137/131/131 136/129/129 128/142/142
f 130/140/140 138/130/130 137/131/131 131/141/141
f 133/145/145 139/133/133 138/130/130 130/140/140
f 140/132/132 139/133/133 133/145/145 132/139/139
f 141/125/125 140/132/132 132/139/139 125/138/138
f 142/124/124 141/125/125 125/138/138 124/136/136
f 123/135/135 143/123/123 142/124/124 124/136/136
f 122/134/134 144/122/122 143/123/123 123/135/135
f 127/144/144 145/126/126 144/122/122 122/134/134
f 146/127/127 145/126/126 127/144/144 126/143/143
f 135/128/128 146/127/127 126/143/143 129/146/146
