# This file uses centimeters as units for non-parametric coordinates.

mtllib TruckII_Weel_Rim_L.mtl
g default
v 7.952591 2.815132 -1.100220
v 7.952591 2.285561 -1.629791
v 7.952591 2.091728 -2.353195
v 7.952591 3.538536 -0.906384
v 7.952591 4.261925 -1.100216
v 7.952591 4.791496 -1.629787
v 7.952591 4.985329 -2.353188
v 7.952591 4.791496 -3.076588
v 7.952591 4.261925 -3.606152
v 7.952591 3.538536 -3.799992
v 7.952591 2.815125 -3.606155
v 7.952591 2.285561 -3.076591
v 7.419357 1.870438 -3.316261
v 7.419357 2.575455 -0.685097
v 7.419357 1.870430 -1.390114
v 7.419357 4.501602 -0.685085
v 7.419357 3.538528 -0.427036
v 7.419357 5.464676 -2.353186
v 7.419357 5.206627 -1.390110
v 7.419357 4.501602 -4.021282
v 7.419357 5.206627 -3.316259
v 7.419357 2.575455 -4.021286
v 7.419357 3.538528 -4.279331
v 7.419357 1.612381 -2.353195
v 7.485299 3.538528 -4.509591
v 7.485299 4.616732 -4.220691
v 7.485299 2.460325 -4.220695
v 7.485299 1.671026 -3.431391
v 7.485299 1.382121 -2.353193
v 7.485299 1.671021 -1.274984
v 7.485295 2.460325 -0.485685
v 7.485299 3.538528 -0.196777
v 7.485299 4.616732 -0.485675
v 7.485299 5.406036 -1.274980
v 7.485299 5.694936 -2.353186
v 7.485299 5.406036 -3.431389
vt 0.410553 0.528199
vt 0.663922 0.460309
vt 0.596032 0.528199
vt 0.410553 0.528199
vt 0.663922 0.274830
vt 0.688772 0.367569
vt 0.410553 0.528199
vt 0.688772 0.367569
vt 0.663922 0.460309
vt 0.410553 0.528199
vt 0.503293 0.182091
vt 0.596032 0.206940
vt 0.410553 0.528199
vt 0.596032 0.206940
vt 0.663922 0.274830
vt 0.410553 0.528199
vt 0.342664 0.274830
vt 0.410553 0.206940
vt 0.410553 0.528199
vt 0.410553 0.206940
vt 0.503293 0.182091
vt 0.410553 0.528199
vt 0.342664 0.460309
vt 0.317814 0.367569
vt 0.410553 0.528199
vt 0.317814 0.367569
vt 0.342664 0.274830
vt 0.633766 0.442645
vt 0.578530 0.497881
vt 0.503077 0.518098
vt 0.633766 0.442645
vt 0.503077 0.518098
vt 0.653983 0.367192
vt 0.633766 0.291739
vt 0.653983 0.367192
vt 0.503077 0.518098
vt 0.633766 0.291739
vt 0.503077 0.518098
vt 0.578530 0.236503
vt 0.503077 0.216285
vt 0.578530 0.236503
vt 0.503077 0.518098
vt 0.503077 0.216285
vt 0.503077 0.518098
vt 0.427624 0.236503
vt 0.372388 0.291739
vt 0.427624 0.236503
vt 0.503077 0.518098
vt 0.372388 0.291739
vt 0.503077 0.518098
vt 0.352170 0.367192
vt 0.372388 0.442645
vt 0.352170 0.367192
vt 0.503077 0.518098
vt 0.372388 0.442645
vt 0.503077 0.518098
vt 0.427624 0.497881
vt 0.343455 0.275034
vt 0.372388 0.291739
vt 0.352170 0.367192
vt 0.343455 0.275034
vt 0.352170 0.367192
vt 0.318762 0.367192
vt 0.410919 0.207570
vt 0.427624 0.236503
vt 0.372388 0.291739
vt 0.410919 0.207570
vt 0.372388 0.291739
vt 0.343455 0.275034
vt 0.503077 0.182877
vt 0.503077 0.216285
vt 0.427624 0.236503
vt 0.503077 0.182877
vt 0.427624 0.236503
vt 0.410919 0.207570
vt 0.503077 0.216285
vt 0.503077 0.182877
vt 0.595235 0.207570
vt 0.503077 0.216285
vt 0.595235 0.207570
vt 0.578530 0.236503
vt 0.578530 0.236503
vt 0.595235 0.207570
vt 0.662700 0.275034
vt 0.578530 0.236503
vt 0.662700 0.275034
vt 0.633766 0.291739
vt 0.633766 0.291739
vt 0.662700 0.275034
vt 0.687393 0.367192
vt 0.633766 0.291739
vt 0.687393 0.367192
vt 0.653983 0.367192
vt 0.653983 0.367192
vt 0.687393 0.367192
vt 0.662700 0.459350
vt 0.653983 0.367192
vt 0.662700 0.459350
vt 0.633766 0.442645
vt 0.633766 0.442645
vt 0.662700 0.459350
vt 0.595235 0.526814
vt 0.633766 0.442645
vt 0.595235 0.526814
vt 0.578530 0.497881
vt 0.595235 0.526814
vt 0.503077 0.551508
vt 0.503077 0.518098
vt 0.595235 0.526814
vt 0.503077 0.518098
vt 0.578530 0.497881
vt 0.503077 0.518098
vt 0.503077 0.551508
vt 0.410919 0.526814
vt 0.503077 0.518098
vt 0.410919 0.526814
vt 0.427624 0.497881
vt 0.427624 0.497881
vt 0.410919 0.526814
vt 0.343455 0.459350
vt 0.427624 0.497881
vt 0.343455 0.459350
vt 0.372388 0.442645
vt 0.372388 0.442645
vt 0.343455 0.459350
vt 0.318762 0.367192
vt 0.372388 0.442645
vt 0.318762 0.367192
vt 0.352170 0.367192
vt 0.295642 0.367569
vt 0.323462 0.263744
vt 0.342664 0.274830
vt 0.317814 0.367569
vt 0.323462 0.471395
vt 0.295642 0.367569
vt 0.317814 0.367569
vt 0.342664 0.460309
vt 0.399467 0.547401
vt 0.323462 0.471395
vt 0.342664 0.460309
vt 0.410553 0.528199
vt 0.503293 0.575221
vt 0.399467 0.547401
vt 0.410553 0.528199
vt 0.503293 0.553048
vt 0.607119 0.547401
vt 0.503293 0.575221
vt 0.503293 0.553048
vt 0.596032 0.528199
vt 0.683124 0.471395
vt 0.607119 0.547401
vt 0.596032 0.528199
vt 0.663922 0.460309
vt 0.710945 0.367569
vt 0.683124 0.471395
vt 0.663922 0.460309
vt 0.688772 0.367569
vt 0.683124 0.263744
vt 0.710945 0.367569
vt 0.688772 0.367569
vt 0.663922 0.274830
vt 0.607119 0.187738
vt 0.683124 0.263744
vt 0.663922 0.274830
vt 0.596032 0.206940
vt 0.503293 0.159918
vt 0.607119 0.187738
vt 0.596032 0.206940
vt 0.503293 0.182091
vt 0.399467 0.187738
vt 0.503293 0.159918
vt 0.503293 0.182091
vt 0.410553 0.206940
vt 0.323462 0.263744
vt 0.399467 0.187738
vt 0.410553 0.206940
vt 0.342664 0.274830
vn 1.000000 -0.000000 0.000000
vn 1.000000 -0.000000 0.000000
vn 1.000000 0.000001 0.000000
vn 1.000000 0.000000 0.000000
vn 1.000000 -0.000001 0.000000
vn 1.000000 0.000000 0.000000
vn 1.000000 0.000000 0.000000
vn 1.000000 -0.000000 0.000000
vn 1.000000 -0.000000 0.000000
vn 1.000000 0.000000 0.000000
vn 1.000000 0.000000 0.000000
vn 0.874822 -0.278585 0.396331
vn 0.845667 -0.462208 0.266855
vn 0.974315 -0.225188 -0.000001
vn 0.874821 -0.043098 0.482525
vn 0.874822 0.203938 0.439427
vn 0.874823 0.396328 0.278584
vn 0.874822 0.482525 0.043096
vn 0.874822 0.439427 -0.203939
vn 0.874822 0.278586 -0.396329
vn 0.874820 0.043098 -0.482527
vn 0.874821 -0.203938 -0.439429
vn 0.803682 -0.486826 -0.342194
vn 0.667061 0.313627 -0.675772
vn 0.667057 -0.066275 -0.742053
vn 0.667064 0.609493 -0.428422
vn 0.667061 0.742049 -0.066277
vn 0.667064 0.675771 0.313624
vn 0.667065 0.428419 0.609493
vn 0.667062 0.066275 0.742049
vn 0.667060 -0.313627 0.675772
vn 0.668534 -0.644048 0.371840
vn 0.668531 -0.743684 -0.000004
vn 0.667058 -0.675775 -0.313628
vn 0.667060 -0.428422 -0.609495
vn 0.961354 -0.000001 0.275314
vn 0.961354 -0.137656 0.238429
vn 0.961354 -0.137656 0.238429
vn 0.961354 -0.000001 0.275314
vn 0.961355 0.137656 0.238429
vn 0.961355 0.137656 0.238429
vn 0.961355 0.238428 0.137657
vn 0.961355 0.238428 0.137657
vn 0.961355 0.275313 0.000001
vn 0.961355 0.275313 0.000001
vn 0.961356 0.238426 -0.137653
vn 0.961356 0.238426 -0.137653
vn 0.961357 0.137653 -0.238421
vn 0.961357 0.137653 -0.238421
vn 0.961356 -0.000001 -0.275309
vn 0.961356 -0.000001 -0.275309
vn 0.961355 -0.137656 -0.238429
vn 0.961355 -0.137656 -0.238429
vn 0.961355 -0.238428 -0.137656
vn 0.961355 -0.238428 -0.137656
vn 0.961354 -0.275314 0.000000
vn 0.961354 -0.275314 0.000000
vn 0.961354 -0.238430 0.137657
vn 0.961354 -0.238430 0.137657
s 1
g TruckII_Weel_Rim_L
usemtl RimFront_MaterialSG
f 13/1/1 14/2/2 15/3/3
f 13/4/1 16/5/4 17/6/5
f 13/7/1 17/8/5 14/9/2
f 13/10/1 18/11/6 19/12/7
f 13/13/1 19/14/7 16/15/4
f 13/16/1 20/17/8 21/18/9
f 13/19/1 21/20/9 18/21/6
f 13/22/1 22/23/10 23/24/11
f 13/25/1 23/26/11 20/27/8
s 5
f 1/28/12 2/29/13 3/30/14
f 1/31/12 3/32/14 4/33/15
f 5/34/16 4/35/15 3/36/14
f 5/37/16 3/38/14 6/39/17
f 7/40/18 6/41/17 3/42/14
f 7/43/18 3/44/14 8/45/19
f 9/46/20 8/47/19 3/48/14
f 9/49/20 3/50/14 10/51/21
f 11/52/22 10/53/21 3/54/14
f 11/55/22 3/56/14 12/57/23
f 20/58/24 9/59/20 10/60/21
f 20/61/24 10/62/21 23/63/25
f 21/64/26 8/65/19 9/66/20
f 21/67/26 9/68/20 20/69/24
f 18/70/27 7/71/18 8/72/19
f 18/73/27 8/74/19 21/75/26
f 7/76/18 18/77/27 19/78/28
f 7/79/18 19/80/28 6/81/17
f 6/82/17 19/83/28 16/84/29
f 6/85/17 16/86/29 5/87/16
f 5/88/16 16/89/29 17/90/30
f 5/91/16 17/92/30 4/93/15
f 4/94/15 17/95/30 14/96/31
f 4/97/15 14/98/31 1/99/12
f 1/100/12 14/101/31 15/102/32
f 1/103/12 15/104/32 2/105/13
f 15/106/32 24/107/33 3/108/14
f 15/109/32 3/110/14 2/111/13
f 3/112/14 24/113/33 13/114/34
f 3/115/14 13/116/34 12/117/23
f 12/118/23 13/119/34 22/120/35
f 12/121/23 22/122/35 11/123/22
f 11/124/22 22/125/35 23/126/25
f 11/127/22 23/128/25 10/129/21
s 7
f 25/130/36 26/131/37 20/132/38 23/133/39
f 27/134/40 25/135/36 23/136/39 22/137/41
f 28/138/42 27/139/40 22/140/41 13/141/43
f 29/142/44 28/143/42 13/144/43 24/145/45
f 30/146/46 29/147/44 24/148/45 15/149/47
f 31/150/48 30/151/46 15/152/47 14/153/49
f 32/154/50 31/155/48 14/156/49 17/157/51
f 33/158/52 32/159/50 17/160/51 16/161/53
f 34/162/54 33/163/52 16/164/53 19/165/55
f 35/166/56 34/167/54 19/168/55 18/169/57
f 36/170/58 35/171/56 18/172/57 21/173/59
f 26/174/37 36/175/58 21/176/59 20/177/38
