# 3ds Max Wavefront OBJ Exporter v0.97b - (c)2007 guruware
# File Created: 16.06.2013 01:40:34

#
# object sign_cross
#

v  -0.1646 1.0561 0.1597
v  -0.1646 1.0561 0.1449
v  -0.1899 1.0123 0.1449
v  -0.1899 1.0123 0.1597
v  0.1213 0.8910 0.1597
v  0.0960 0.8473 0.1597
v  0.0960 0.8473 0.1449
v  0.1213 0.8910 0.1449
v  -0.0534 0.0950 0.1374
v  -0.0534 0.0950 0.1219
v  -0.0029 0.0950 0.1219
v  -0.0029 0.0950 0.1374
v  -0.0534 1.0946 0.1374
v  -0.0029 1.0946 0.1374
v  -0.0029 1.0946 0.1219
v  -0.0534 1.0946 0.1219
v  -0.1786 0.8757 0.1478
v  -0.1786 0.8757 0.1331
v  -0.1496 0.8343 0.1331
v  -0.1496 0.8343 0.1478
v  0.0918 1.0650 0.1478
v  0.1208 1.0236 0.1478
v  0.1208 1.0236 0.1331
v  0.0918 1.0650 0.1331
v  -0.0222 0.9584 0.1555
v  -0.0195 0.9519 0.1555
v  -0.0287 0.9519 0.1555
v  -0.0287 0.9610 0.1555
v  -0.0351 0.9584 0.1555
v  -0.0378 0.9519 0.1555
v  -0.0351 0.9455 0.1555
v  -0.0287 0.9428 0.1555
v  -0.0222 0.9455 0.1555
v  -0.0222 0.9584 0.1631
v  -0.0195 0.9519 0.1631
v  -0.0287 0.9610 0.1631
v  -0.0351 0.9584 0.1631
v  -0.0378 0.9519 0.1631
v  -0.0351 0.9455 0.1631
v  -0.0287 0.9428 0.1631
v  -0.0222 0.9455 0.1631
v  -0.0287 0.9519 0.1631
# 42 vertices

vn -0.8660 0.5000 -0.0000
vn 0.8660 -0.5000 -0.0000
vn 0.0000 0.0000 1.0000
vn -0.5000 -0.8660 -0.0000
vn 0.0000 0.0000 -1.0000
vn 0.5000 0.8660 -0.0000
vn 0.0000 -1.0000 -0.0000
vn 0.0000 1.0000 -0.0000
vn 1.0000 0.0000 -0.0000
vn -1.0000 0.0000 -0.0000
vn -0.8191 -0.5736 -0.0000
vn 0.8192 0.5736 -0.0000
vn 0.5736 -0.8192 -0.0000
vn -0.5736 0.8192 -0.0000
vn 0.9239 0.3827 -0.0000
vn 0.3827 0.9239 -0.0000
vn -0.3827 0.9239 -0.0000
vn -0.9239 0.3827 -0.0000
vn -0.9239 -0.3827 -0.0000
vn -0.3827 -0.9239 -0.0000
vn 0.3827 -0.9239 -0.0000
vn 0.9239 -0.3827 -0.0000
# 22 vertex normals

vt 0.0525 0.0390 0.0000
vt 0.0526 0.0157 0.0000
vt 0.1326 0.0160 0.0000
vt 0.1325 0.0393 0.0000
vt 0.0504 0.5609 0.0000
vt 0.1304 0.5612 0.0000
vt 0.1303 0.5845 0.0000
vt 0.0503 0.5842 0.0000
vt 0.1558 0.0394 0.0000
vt 0.1538 0.5613 0.0000
vt 0.5338 0.5313 0.0000
vt 0.4590 0.5314 0.0000
vt 0.4691 0.0467 0.0000
vt 0.5431 0.0482 0.0000
vt 0.0292 0.0389 0.0000
vt 0.0271 0.5608 0.0000
vt 0.8976 0.0372 0.0000
vt 0.8975 0.0235 0.0000
vt 0.9443 0.0230 0.0000
vt 0.9445 0.0367 0.0000
vt 0.9075 0.9645 0.0000
vt 0.9544 0.9639 0.0000
vt 0.9545 0.9776 0.0000
vt 0.9077 0.9781 0.0000
vt 0.9581 0.0365 0.0000
vt 0.9681 0.9638 0.0000
vt 0.8219 0.0402 0.0000
vt 0.8714 0.0403 0.0000
vt 0.8743 0.9720 0.0000
vt 0.8212 0.9720 0.0000
vt 0.8839 0.0373 0.0000
vt 0.8938 0.9646 0.0000
vt 0.2076 0.0567 0.0000
vt 0.2078 0.0331 0.0000
vt 0.2887 0.0338 0.0000
vt 0.2885 0.0574 0.0000
vt 0.2035 0.5849 0.0000
vt 0.2844 0.5855 0.0000
vt 0.2842 0.6091 0.0000
vt 0.2033 0.6085 0.0000
vt 0.3122 0.0575 0.0000
vt 0.3080 0.5857 0.0000
vt 0.4369 0.5351 0.0000
vt 0.3626 0.5349 0.0000
vt 0.3635 0.0479 0.0000
vt 0.4390 0.0496 0.0000
vt 0.1840 0.0565 0.0000
vt 0.1798 0.5847 0.0000
vt 0.0778 0.8182 0.0000
vt 0.1495 0.8493 0.0000
vt 0.1590 0.7474 0.0000
vt 0.0531 0.7451 0.0000
vt 0.0908 0.6727 0.0000
vt 0.1687 0.6443 0.0000
vt 0.2404 0.6766 0.0000
vt 0.2638 0.7497 0.0000
vt 0.2261 0.8209 0.0000
vt 0.0966 0.8479 0.0000
vt 0.1692 0.8792 0.0000
vt 0.0717 0.7740 0.0000
vt 0.1100 0.7006 0.0000
vt 0.1890 0.6718 0.0000
vt 0.2615 0.7043 0.0000
vt 0.2851 0.7783 0.0000
vt 0.2469 0.8503 0.0000
vt 0.1790 0.7761 0.0000
# 66 texture coords

g sign_cross
s off
f 1/1/1 2/2/1 3/3/1 4/4/1 
f 5/5/2 6/6/2 7/7/2 8/8/2 
f 1/1/3 4/4/3 6/6/3 5/5/3 
f 4/4/4 3/9/4 7/10/4 6/6/4 
f 3/11/5 2/12/5 8/13/5 7/14/5 
f 2/15/6 1/1/6 5/5/6 8/16/6 
f 9/17/7 10/18/7 11/19/7 12/20/7 
f 13/21/8 14/22/8 15/23/8 16/24/8 
f 9/17/3 12/20/3 14/22/3 13/21/3 
f 12/20/9 11/25/9 15/26/9 14/22/9 
f 11/27/5 10/28/5 16/29/5 15/30/5 
f 10/31/10 9/17/10 13/21/10 16/32/10 
f 17/33/11 18/34/11 19/35/11 20/36/11 
f 21/37/12 22/38/12 23/39/12 24/40/12 
f 17/33/3 20/36/3 22/38/3 21/37/3 
f 20/36/13 19/41/13 23/42/13 22/38/13 
f 19/43/5 18/44/5 24/45/5 23/46/5 
f 18/47/14 17/33/14 21/37/14 24/48/14 
f 25/49/5 26/50/5 27/51/5 28/52/5 
f 27/51/5 29/53/5 28/52/5 
f 30/54/5 29/53/5 27/51/5 31/55/5 
f 27/51/5 32/56/5 31/55/5 
f 33/57/5 32/56/5 27/51/5 26/50/5 
f 34/58/15 35/59/15 26/50/15 25/49/15 
f 36/60/16 34/58/16 25/49/16 28/52/16 
f 37/61/17 36/60/17 28/52/17 29/53/17 
f 38/62/18 37/61/18 29/53/18 30/54/18 
f 39/63/19 38/62/19 30/54/19 31/55/19 
f 40/64/20 39/63/20 31/55/20 32/56/20 
f 41/65/21 40/64/21 32/56/21 33/57/21 
f 35/59/22 41/65/22 33/57/22 26/50/22 
f 42/66/3 35/59/3 34/58/3 36/60/3 
f 42/66/3 36/60/3 37/61/3 38/62/3 
f 42/66/3 38/62/3 39/63/3 
f 42/66/3 39/63/3 40/64/3 41/65/3 
f 42/66/3 41/65/3 35/59/3 
# 32 polygons - 4 triangles

