# 3ds Max Wavefront OBJ Exporter v0.97b - (c)2007 guruware
# File Created: 16.06.2013 02:08:06

#
# object woodpilesmall2
#

v  -0.4635 -0.1065 -2.2989
v  -0.4635 -0.1065 -0.5748
v  -0.6369 -0.1065 -0.5748
v  -0.6369 -0.1065 -2.2989
v  -0.4635 -0.0793 -2.2989
v  -0.6369 -0.0793 -2.2989
v  -0.6369 -0.0793 -0.5748
v  -0.4635 -0.0793 -0.5748
# 8 vertices

vn 0.0000 -1.0000 -0.0000
vn 0.0000 1.0000 -0.0000
vn 0.0000 0.0000 -1.0000
vn -1.0000 0.0000 -0.0000
vn 0.0000 0.0000 1.0000
vn 1.0000 0.0000 -0.0000
# 6 vertex normals

vt 0.1221 0.0407 0.0000
vt 0.1221 0.9655 0.0000
vt 0.0290 0.9655 0.0000
vt 0.0290 0.0407 0.0000
vt 0.1366 0.0407 0.0000
vt 0.2296 0.0407 0.0000
vt 0.2296 0.9655 0.0000
vt 0.1366 0.9655 0.0000
vt 0.1366 0.0262 0.0000
vt 0.2296 0.0262 0.0000
vt 0.2442 0.0407 0.0000
vt 0.2442 0.9655 0.0000
vt 0.1221 0.9801 0.0000
vt 0.0290 0.9801 0.0000
# 14 texture coords

g woodpilesmall2
s off
f 1/1/1 2/2/1 3/3/1 4/4/1 
f 5/5/2 6/6/2 7/7/2 8/8/2 
f 1/9/3 4/10/3 6/6/3 5/5/3 
f 4/11/4 3/12/4 7/7/4 6/6/4 
f 3/3/5 2/2/5 8/13/5 7/14/5 
f 2/2/6 1/1/6 5/5/6 8/8/6 
# 6 polygons

