# 3ds Max Wavefront OBJ Exporter v0.97b - (c)2007 guruware
# File Created: 16.06.2013 02:07:28

#
# object woodpilesmall1
#

v  -0.7009 -0.1065 -2.2989
v  -0.7009 -0.1065 -0.5748
v  -0.8744 -0.1065 -0.5748
v  -0.8744 -0.1065 -2.2989
v  -0.7009 -0.0793 -2.2989
v  -0.8744 -0.0793 -2.2989
v  -0.8744 -0.0793 -0.5748
v  -0.7009 -0.0793 -0.5748
v  -0.9809 -0.0729 -0.6267
v  -0.5347 -0.0729 -2.2920
v  -0.3672 -0.0729 -2.2471
v  -0.8134 -0.0729 -0.5818
v  -0.9809 -0.0458 -0.6267
v  -0.8134 -0.0458 -0.5818
v  -0.3672 -0.0458 -2.2471
v  -0.5347 -0.0458 -2.2920
# 16 vertices

vn 0.0000 -1.0000 -0.0000
vn 0.0000 1.0000 -0.0000
vn 0.0000 0.0000 -1.0000
vn -1.0000 0.0000 -0.0000
vn 0.0000 0.0000 1.0000
vn 1.0000 0.0000 -0.0000
vn -0.2588 0.0000 0.9659
vn 0.9659 0.0000 0.2588
vn 0.2588 0.0000 -0.9659
vn -0.9659 0.0000 -0.2588
# 10 vertex normals

vt 0.1221 0.0407 0.0000
vt 0.1221 0.9655 0.0000
vt 0.0290 0.9655 0.0000
vt 0.0290 0.0407 0.0000
vt 0.1366 0.0407 0.0000
vt 0.2296 0.0407 0.0000
vt 0.2296 0.9655 0.0000
vt 0.1366 0.9655 0.0000
vt 0.1366 0.0262 0.0000
vt 0.2296 0.0262 0.0000
vt 0.2442 0.0407 0.0000
vt 0.2442 0.9655 0.0000
vt 0.1221 0.9801 0.0000
vt 0.0290 0.9801 0.0000
# 14 texture coords

g woodpilesmall1
s off
f 1/1/1 2/2/1 3/3/1 4/4/1 
f 5/5/2 6/6/2 7/7/2 8/8/2 
f 1/9/3 4/10/3 6/6/3 5/5/3 
f 4/11/4 3/12/4 7/7/4 6/6/4 
f 3/3/5 2/2/5 8/13/5 7/14/5 
f 2/2/6 1/1/6 5/5/6 8/8/6 
f 9/1/1 10/2/1 11/3/1 12/4/1 
f 13/5/2 14/6/2 15/7/2 16/8/2 
f 9/9/7 12/10/7 14/6/7 13/5/7 
f 12/11/8 11/12/8 15/7/8 14/6/8 
f 11/3/9 10/2/9 16/13/9 15/14/9 
f 10/2/10 9/1/10 13/5/10 16/8/10 
# 12 polygons

